<?xml version="1.0" encoding="UTF-8"?>
<svg id="Layer_2" data-name="Layer 2" xmlns="http://www.w3.org/2000/svg" viewBox="0 0 303 303">
  <defs>
    <style>
      .cls-1 {
        fill: #fff;
      }

      .cls-2 {
        fill: #00b3ff;
      }
    </style>
  </defs>
  <g id="Layer_1-2" data-name="Layer 1">
    <g>
      <path class="cls-1" d="M18.31,303H0V0h303v303h-20.08c2-1.98,3.49-4.46,1.8-7.27-.08-.14-1.97-1.59-2.1-1.59h-13.29v-117.83c0-1.32-3.26-6.3-4.4-7.41-1.23-1.19-6.26-4.11-7.7-4.11h-29.83v-77.08c0-.44,3.55-5.8,4.16-7.66,1.43-4.34,2.63-13.85-.09-17.67-1.14-1.6-3.56-1.27-3.99-2.51l-.08-7.3h54.63c2.68,0,5.7-4.08,5.58-6.74-.24-5.29-11.79-12.03-15.31-16l14.08-12.49c3.25-5.51-.82-10.3-6.68-10.27l-52.3.02c1.43-7.43-7.92-9.43-8.87-1.49l.05,57.93-.62,1.75-35.16,19.17c-5.88-14.13-12.41-29.68-30.23-18.41-11.49,7.27-7.04,17.58-1.46,27.09,1.48,2.51,3.08,5.84,6.01,6.7-1.42,2.2-2.47,4.48-3.39,6.93-1.54,4.11-6.14,14.46.87,15.39s5.64-14.4,10.47-17.63l58.5-32.46c1.04,5.85-3.27,10.88-7.43,14.43l-43.35,26.34c-2.46,3.61-.14,8.38,4.37,7.34.71-.16.82-.69.64.61l-7.7,21.84-19.48,7.98c-.75-.78,4.38-14.1,4.12-16.78-.45-4.67-6.76-5.5-9.02.37-7.79,20.23-7.37,40.23-8.86,61.43-6.92,11.68-11.4,27.61-18.42,38.87-.71,1.15-.83,2.03-2.39,2.34-8.52,1.65-17.28-3.37-24.49,5.05-.95,1.11-3.56,5.92-3.56,7.07v15.65c-1.46-.78-2.75-1.07-4.41-1.2-10.43-.83-29.85-.93-40.21,0-4.15.37-7.92,2.91-10.31,6.23-4.5,6.25-1.5,17.12-2.37,24.51h-12.11c-3.48,0-4.56,7.51-.3,8.86Z"/>
      <path class="cls-2" d="M18.31,303c-4.26-1.35-3.18-8.86.3-8.86h12.11c.86-7.39-2.13-18.26,2.37-24.51,2.39-3.32,6.16-5.86,10.31-6.23,10.36-.93,29.78-.83,40.21,0,1.65.13,2.95.43,4.41,1.2v-15.65c0-1.15,2.61-5.97,3.56-7.07,7.21-8.42,15.96-3.39,24.49-5.05,1.56-.3,1.67-1.19,2.39-2.34,7.02-11.26,11.5-27.18,18.42-38.87,1.49-21.2,1.07-41.2,8.86-61.43,2.26-5.87,8.57-5.04,9.02-.37.26,2.68-4.87,16-4.12,16.78l19.48-7.98,7.7-21.84c.18-1.3.07-.77-.64-.61-4.51,1.04-6.84-3.73-4.37-7.34l43.35-26.34c4.15-3.55,8.46-8.57,7.43-14.43l-58.5,32.46c-4.83,3.23-3.55,18.55-10.47,17.63s-2.41-11.28-.87-15.39c.92-2.45,1.98-4.73,3.39-6.93-2.93-.86-4.53-4.19-6.01-6.7-5.58-9.51-10.03-19.82,1.46-27.09,17.82-11.27,24.36,4.28,30.23,18.41l35.16-19.17.62-1.75-.05-57.93c.95-7.93,10.3-5.94,8.87,1.49l52.3-.02c5.86-.03,9.93,4.76,6.68,10.27l-14.08,12.49c3.52,3.97,15.07,10.71,15.31,16,.12,2.66-2.89,6.74-5.58,6.74h-54.63l.08,7.3c.42,1.24,2.84.91,3.99,2.51,2.72,3.82,1.52,13.33.09,17.67-.61,1.85-4.16,7.22-4.16,7.66v77.08h29.83c1.44,0,6.47,2.92,7.7,4.11,1.15,1.11,4.4,6.09,4.4,7.41v117.83h13.29c.13,0,2.02,1.45,2.1,1.59,1.68,2.81.2,5.29-1.8,7.27H18.31ZM274.06,15.95h-45.77l-.89.89v25.99l.89.89h45.77c-2.26-3.88-11.64-8.8-11.85-13.3-.22-4.78,7.66-10.08,11.09-13.11.4-.35,1.12.04.76-1.35ZM163.31,71.18c-3.35,0-9.54,3.79-9.15,7.61.09.88,5.49,11.85,6.22,12.73,3.63,4.38,13.54-.44,13.31-5.58-.09-2.04-6.02-13.17-7.76-14.15-.68-.38-1.82-.62-2.62-.62ZM218.54,95.68l-28.63,17.15-10.83,31.7c-.02,1.38,15.43,18.24,17.59,21.16,4.56,6.15,5.29,8.2,4.73,15.93-.62,8.58-2.63,17.68-3.54,26.28l5.32,1.19v-32.19c0-.2,1.27-3.24,1.53-3.78,2.39-4.84,8.33-8.61,13.82-8.32v-69.11ZM127.58,236.84c1.74.32,2.53-1.03,3.52-2.08,10.35-11.02,18.86-27.32,29.09-38.84l8.14-42.95-20.59,8.35c-.8,12.26-.67,24.66-2.48,36.8l-17.68,38.72ZM188.94,207.84c.77-8.68,3.16-18.21,3.6-26.81.27-5.3.02-5.91-2.96-10.02-3.83-5.29-8.85-10.01-12.98-15.07l-2.76,16.28c4.62,3.26,8.66,4.39,9.8,10.64l2.44,25.02,2.85-.03ZM260.47,294.14v-116.65c0-1.89-4.31-3.69-6.17-3.87-11.58-1.11-24.89.9-36.66.02-3.31.46-5.32,2.91-5.63,6.19-1.91,20.79,1.48,44.5.04,65.6-.44,4.98-6.47,6.15-8.61,1.49-1.29-7.61.84-17.13-.3-24.5-.55-3.58-3.34-5.35-6.72-5.68-7.63-.74-28.7-.95-36.01.08-3.38.48-6.25,3.22-6.25,6.74v70.58h49.02v-28.06c0-2.48,5.78-3.6,7.53-1.92.1.1,1.33,2.36,1.33,2.51v27.46h48.43ZM162.43,207.91h14.77l-2.35-24.39-2.66-1.6c-1.78,9.69-2.51,18.59-9.75,25.99ZM145.3,237.44l-.29-6.49-3.84,5.9,4.13.59ZM145.3,294.14v-44.59c0-.94-3.09-3.97-4.46-3.81-12.21.92-26.44-1.33-38.4-.07-2.09.22-5.57,2.3-5.57,4.47v44h48.43ZM88.01,294.14v-17.42c0-.36-1.81-3.12-2.37-3.53-1.11-.82-1.92-.81-3.21-.93-12.18-1.09-26.02.85-38.39.06-1.37-.16-4.46,2.86-4.46,3.81v18.01h48.43Z"/>
      <path class="cls-1" d="M260.47,294.14h-48.43v-27.46c0-.14-1.23-2.41-1.33-2.51-1.75-1.69-7.53-.57-7.53,1.92v28.06h-49.02v-70.58c0-3.52,2.87-6.27,6.25-6.74,7.31-1.03,28.38-.82,36.01-.08,3.39.33,6.17,2.09,6.72,5.68,1.14,7.38-.98,16.89.3,24.5,2.14,4.66,8.17,3.48,8.61-1.49,1.44-21.1-1.95-44.82-.04-65.6.3-3.27,2.31-5.73,5.63-6.19,11.77.88,25.08-1.12,36.66-.02,1.86.18,6.17,1.98,6.17,3.87v116.65Z"/>
      <path class="cls-1" d="M145.3,294.14h-48.43v-44c0-2.17,3.49-4.25,5.57-4.47,11.96-1.26,26.19.99,38.4.07,1.37-.16,4.46,2.86,4.46,3.81v44.59Z"/>
      <path class="cls-1" d="M218.54,95.68v69.11c-5.49-.29-11.44,3.48-13.82,8.32-.27.54-1.53,3.58-1.53,3.78v32.19l-5.32-1.19c.91-8.61,2.92-17.7,3.54-26.28.56-7.73-.17-9.77-4.73-15.93-2.16-2.92-17.61-19.79-17.59-21.16l10.83-31.7,28.63-17.15Z"/>
      <path class="cls-1" d="M274.06,15.95c.37,1.39-.35,1-.76,1.35-3.43,3.03-11.31,8.33-11.09,13.11.21,4.5,9.59,9.42,11.85,13.3h-45.77l-.89-.89v-25.99l.89-.89h45.77Z"/>
      <path class="cls-1" d="M88.01,294.14h-48.43v-18.01c0-.94,3.09-3.97,4.46-3.81,12.36.78,26.21-1.16,38.39-.06,1.29.12,2.1.11,3.21.93.56.41,2.37,3.17,2.37,3.53v17.42Z"/>
      <path class="cls-1" d="M127.58,236.84l17.68-38.72c1.81-12.14,1.67-24.54,2.48-36.8l20.59-8.35-8.14,42.95c-10.23,11.52-18.74,27.82-29.09,38.84-.99,1.05-1.78,2.41-3.52,2.08Z"/>
      <path class="cls-1" d="M188.94,207.84l-2.85.03-2.44-25.02c-1.13-6.25-5.18-7.38-9.8-10.64l2.76-16.28c4.13,5.07,9.15,9.78,12.98,15.07,2.98,4.11,3.23,4.72,2.96,10.02-.44,8.61-2.83,18.13-3.6,26.81Z"/>
      <path class="cls-1" d="M163.31,71.18c.79,0,1.93.24,2.62.62,1.75.98,7.67,12.11,7.76,14.15.24,5.14-9.68,9.96-13.31,5.58-.73-.88-6.13-11.85-6.22-12.73-.39-3.83,5.8-7.62,9.15-7.61Z"/>
      <path class="cls-1" d="M162.43,207.91c7.24-7.4,7.98-16.3,9.75-25.99l2.66,1.6,2.35,24.39h-14.77Z"/>
      <polygon class="cls-1" points="145.3 237.44 141.17 236.84 145.01 230.94 145.3 237.44"/>
    </g>
  </g>
</svg>