<?xml version="1.0" encoding="UTF-8"?>
<svg id="Layer_2" data-name="Layer 2" xmlns="http://www.w3.org/2000/svg" viewBox="0 0 384 384">
  <defs>
    <style>
      .cls-1 {
        fill: #fff;
      }

      .cls-2 {
        fill: #030357;
      }
    </style>
  </defs>
  <g id="Layer_1-2" data-name="Layer 1">
    <g>
      <path class="cls-1" d="M384,0v384H0V0h384ZM194.41,6.9c-.93.21-2.26.91-2.82,1.67-1.99,2.67-1.94,22.77-1.46,26.98,1,8.86,10.83,9.29,11.93,2.2.73-4.69.64-20.54.06-25.42-.52-4.36-3.31-6.43-7.72-5.43ZM118.79,27.93c-5.13-3.89-11.41-.66-10.09,5.95.29,1.45,10.75,19.48,12.24,21.46,4.77,6.34,12.76,3.14,11.41-3.88-1.1-5.74-11.18-17.37-13.57-23.53ZM276.01,30.06c-1.61.3-3.64,2.38-4.62,3.68-1.6,2.12-11.55,19.05-12.04,20.88-1.87,6.9,4.17,10.82,9.7,6.71,2.43-5.47,14.29-20.72,13.98-25.77-.18-2.87-4.1-6.03-7.01-5.5ZM245.51,330.11c15.46-2.95,21.54-23.14,9.38-33.72-1.68-1.46-5-2.61-5.64-3.33-1.68-1.89.46-12.38,1.12-15.36,6.28-28.13,25.22-37.51,37.94-60.12,38.53-68.53-9.53-158.07-88.05-162.97-98.77-6.17-156.06,106.22-92.11,181.94,3.62,4.29,8.15,7.83,11.6,12.35,9.96,13.06,14.8,28.4,15.79,44.78-18.19,6.69-18.23,32.81,1.45,36.43-2.64,9.17.16,19.86,9.44,23.86,5.49,2.37,10.37,1.14,16.06,1.91,6.91,29.23,50.88,28.94,57.69-.23,16.54,2.53,31.09-8.08,25.34-25.54ZM51.44,83.99c-4.6,1.05-5.28,7.14-1.68,10.34,1.91,1.69,20.65,12.54,22.83,13.12,6.74,1.77,9.92-5.65,5.2-10.46-1.04-1.06-19.29-11.88-21.11-12.57s-3.33-.86-5.25-.43ZM332.9,91.48c-1.4.28-21.67,11.78-22.97,12.98-5.06,4.69-1.18,12.66,5.98,10.48,1.82-.55,20.07-11.29,21.7-12.74,5.2-4.62,2.45-12.14-4.71-10.72ZM57.42,165.65c-3.16-2.55-24.74-.11-30.08-.95-5.52,1.45-5.21,10.21,0,11.19,3.14.59,24.53.6,27.66,0,4.35-.83,5.67-7.61,2.42-10.24ZM328.39,173.82c-5.69,1.27-6.2,10.39.77,11.64,4.47.8,20.58.76,25.2.11,7.69-1.08,7.63-10.33.64-11.74-3.32-.67-23.43-.72-26.61-.01ZM68.68,234.43l-24.1,14.12c-3.88,6.16-.19,11.31,7.1,9.34,1.64-.44,20.33-11.39,21.72-12.71,4.48-4.24,1.32-11.92-4.71-10.75ZM334.37,256.23c-4.11-4.56-18.45-9.78-23.89-13.97-6.78-.89-10.24,5.89-4.68,10.73,2.25,1.95,20.43,12.7,22.77,13.2,5.62,1.2,9.65-5.68,5.79-9.96Z"/>
      <path class="cls-2" d="M245.51,330.11c5.74,17.46-8.8,28.07-25.34,25.54-6.82,29.17-50.78,29.46-57.69.23-5.69-.77-10.56.46-16.06-1.91-9.28-4-12.08-14.7-9.44-23.86-19.68-3.62-19.64-29.74-1.45-36.43-.99-16.38-5.83-31.71-15.79-44.78-3.45-4.53-7.98-8.07-11.6-12.35-63.95-75.72-6.66-188.1,92.11-181.94,78.52,4.9,126.58,94.44,88.05,162.97-12.71,22.61-31.66,31.99-37.94,60.12-.67,2.99-2.81,13.48-1.12,15.36.65.72,3.96,1.87,5.64,3.33,12.15,10.58,6.08,30.77-9.38,33.72ZM236.54,292.68c-.22-13.34,3.83-27.23,10.09-38.94,8.63-16.15,23.25-26.74,31.96-42.9,29.16-54.09-.73-124.96-59.85-141.02-94.09-25.55-165.61,83.9-101.6,158.49,4.03,4.7,8.77,8.36,12.67,13.53,10.69,14.17,16.99,32.27,16.91,50.09h38.92v-55.39c-14.59,3.53-8.91-15.62-12.73-19.08-.63-.57-6.67-2.66-7.69-2.5-5.61.9-10.59,12.92-18.51,7-2.18-1.63-13.24-12.61-14.54-14.65-4.47-6.99,8.58-13.39,7.7-18.86-.1-.61-2.53-6.76-2.85-6.96-6.13-1.91-17.74.49-18.76-8.19-.47-4-.54-16.35.06-20.18,1.31-8.32,13.59-4.77,19.04-7.91l3.04-7.55c-3.63-7.16-13.2-11.13-6.8-19.41,1.72-2.22,11.85-12.49,13.9-13.79,7.23-4.59,13.42,8.38,18.85,7.7.89-.11,6.56-2.37,6.93-2.88,3.29-4.46-1.72-17.55,8.23-18.72,4.24-.5,15.25-.5,19.5,0,10.08,1.19,5.5,16.48,8.58,19.12.24.21,5.37,2.39,5.81,2.47,6.81,1.36,12.11-12.98,20.43-7.01,1.98,1.42,14.07,13.53,15.27,15.41,4.47,6.99-8.58,13.39-7.7,18.86.1.61,2.53,6.76,2.85,6.96,4.92,1.56,15.21.09,17.9,5.31,1.32,2.57,1.22,17.93.88,21.65-1.03,11.23-13.87,5.36-18.74,8.96-.9.67-3.72,7.33-2.92,8.83,3.29,6.18,13.02,11.14,6.28,18.49-2.4,2.62-11.67,11.67-14.22,13.47-7.47,5.26-13.56-8.27-19.27-7.36-1.67.27-4.5,2.29-6.58,2.48-2.76,7.9.64,20.68-11.96,19.1v55.39h38.92ZM195.37,104.04h-10.49c-.66,5.17.3,13.86-4.71,16.62-1.15.64-12.14,5.41-13.05,5.65-6.16,1.62-10.61-4.56-15.19-7.71h-1.47s-5.88,6.13-5.88,6.13c-.46,2.32,8.01,9.28,8.17,13.38.12,2.95-2.86,7.23-4.16,10.1-1.84,4.06-1.05,7.81-6.35,9.37-2.08.61-11.69.87-12.03,2.35l.11,9.16,14.87,3.46c1.09,3.4,8.33,16.24,8.12,18.51-.34,3.63-9.1,12.08-8.52,13.29l7.57,6.02c3.08.29,9.2-8.15,13.45-8.33,3.33-.14,4.61,2.12,7.33,3.19,2.85,1.13,8.69,2.36,10.58,4.39,2.78,2.99,2.1,14.54,3.91,14.96l9.15-.11c1.55-4.12.4-11.88,3.41-14.93,2.69-2.72,12.4-4.31,15.95-7.3,3.64-2.26,13.7,9.14,15.16,8.51l6.56-6.77c-2.09-5.19-9.31-10.36-7.71-16.13.37-1.33,5.18-12.09,5.98-13.48,3.3-5.76,10.87-3,16.17-5.66l-.13-9.94c-.68-.8-10.14-1.21-12.1-1.74-4.79-1.31-4.51-5.88-6.17-9.55s-4.78-7.33-3.76-11.26c.91-3.51,6.95-8.96,4.95-12.36-.46-.78-5.57-5.66-6.31-5.52-4.19,2.96-7.83,7.34-12.84,8.86-4.84-3.46-16.87-4.8-18.86-10.28-1.28-3.53-1.28-9.05-1.72-12.87ZM246.79,306.38c-1.16-1.08-3.72-1.75-5.35-1.77l-103.52.61c-7.06,4.01-5.02,13.44,3.16,14.42l100.32-.02c6.83-.1,10.43-8.56,5.38-13.24ZM154,331.03c-7.6,1.37-7.85,12.16-.88,13.25l76.32.06c7.96-.92,8.33-12.42-2.27-13.48-22.98-2.3-49.79,1.55-73.17.17ZM207.35,356.3h-32.19c4.53,14.17,27.41,13.85,32.19,0Z"/>
      <path class="cls-2" d="M334.37,256.23c3.86,4.28-.17,11.16-5.79,9.96-2.34-.5-20.53-11.25-22.77-13.2-5.57-4.84-2.11-11.62,4.68-10.73,5.44,4.2,19.78,9.41,23.89,13.97Z"/>
      <path class="cls-2" d="M276.01,30.06c2.91-.54,6.83,2.62,7.01,5.5.31,5.05-11.54,20.31-13.98,25.77-5.52,4.11-11.57.19-9.7-6.71.5-1.83,10.44-18.77,12.04-20.88.98-1.3,3.01-3.38,4.62-3.68Z"/>
      <path class="cls-2" d="M332.9,91.48c7.16-1.42,9.91,6.1,4.71,10.72-1.63,1.45-19.88,12.19-21.7,12.74-7.17,2.18-11.04-5.79-5.98-10.48,1.3-1.2,21.57-12.71,22.97-12.98Z"/>
      <path class="cls-2" d="M328.39,173.82c3.19-.71,23.3-.66,26.61.01,6.98,1.41,7.04,10.66-.64,11.74-4.62.65-20.74.69-25.2-.11-6.96-1.24-6.46-10.37-.77-11.64Z"/>
      <path class="cls-2" d="M51.44,83.99c1.91-.44,3.43-.27,5.25.43s20.07,11.51,21.11,12.57c4.72,4.81,1.54,12.23-5.2,10.46-2.18-.58-20.93-11.43-22.83-13.12-3.6-3.19-2.93-9.29,1.68-10.34Z"/>
      <path class="cls-2" d="M68.68,234.43c6.04-1.17,9.19,6.51,4.71,10.75-1.39,1.32-20.08,12.27-21.72,12.71-7.29,1.97-10.98-3.18-7.1-9.34l24.1-14.12Z"/>
      <path class="cls-2" d="M194.41,6.9c4.4-.99,7.2,1.08,7.72,5.43.58,4.88.67,20.73-.06,25.42-1.11,7.09-10.93,6.65-11.93-2.2-.48-4.22-.53-24.31,1.46-26.98.56-.76,1.89-1.46,2.82-1.67Z"/>
      <path class="cls-2" d="M118.79,27.93c2.39,6.16,12.46,17.79,13.57,23.53,1.35,7.02-6.64,10.22-11.41,3.88-1.49-1.98-11.95-20.01-12.24-21.46-1.31-6.61,4.96-9.84,10.09-5.95Z"/>
      <path class="cls-2" d="M57.42,165.65c3.25,2.62,1.93,9.41-2.42,10.24-3.13.59-24.52.59-27.66,0-5.21-.98-5.52-9.74,0-11.19,5.34.84,26.93-1.59,30.08.95Z"/>
      <path class="cls-1" d="M236.54,292.68h-38.92v-55.39c12.6,1.57,9.2-11.2,11.96-19.1,2.08-.2,4.9-2.22,6.58-2.48,5.71-.91,11.8,12.63,19.27,7.36,2.56-1.8,11.82-10.85,14.22-13.47,6.74-7.35-2.99-12.31-6.28-18.49-.8-1.5,2.02-8.16,2.92-8.83,4.87-3.59,17.71,2.28,18.74-8.96.34-3.71.44-19.08-.88-21.65-2.69-5.22-12.97-3.75-17.9-5.31-.32-.2-2.75-6.35-2.85-6.96-.88-5.47,12.17-11.87,7.7-18.86-1.2-1.87-13.29-13.99-15.27-15.41-8.32-5.98-13.63,8.36-20.43,7.01-.44-.09-5.57-2.27-5.81-2.47-3.08-2.63,1.5-17.93-8.58-19.12-4.24-.5-15.25-.5-19.5,0-9.95,1.17-4.94,14.26-8.23,18.72-.37.51-6.04,2.77-6.93,2.88-5.43.68-11.62-12.29-18.85-7.7-2.05,1.3-12.18,11.57-13.9,13.79-6.41,8.28,3.17,12.26,6.8,19.41l-3.04,7.55c-5.45,3.14-17.73-.41-19.04,7.91-.6,3.83-.53,16.19-.06,20.18,1.02,8.68,12.63,6.28,18.76,8.19.32.2,2.75,6.35,2.85,6.96.88,5.47-12.17,11.87-7.7,18.86,1.3,2.03,12.37,13.02,14.54,14.65,7.92,5.92,12.9-6.1,18.51-7,1.02-.16,7.06,1.93,7.69,2.5,3.82,3.46-1.85,22.61,12.73,19.08v55.39h-38.92c.09-17.81-6.22-35.92-16.91-50.09-3.9-5.17-8.64-8.83-12.67-13.53-64.01-74.59,7.51-184.03,101.6-158.49,59.12,16.05,89.01,86.93,59.85,141.02-8.71,16.16-23.33,26.75-31.96,42.9-6.26,11.71-10.31,25.6-10.09,38.94Z"/>
      <path class="cls-1" d="M195.37,104.04c.45,3.83.44,9.34,1.72,12.87,1.99,5.48,14.02,6.82,18.86,10.28,5.01-1.52,8.65-5.9,12.84-8.86.73-.13,5.85,4.74,6.31,5.52,2,3.41-4.04,8.86-4.95,12.36-1.02,3.93,2.16,7.7,3.76,11.26s1.38,8.24,6.17,9.55c1.97.54,11.43.95,12.1,1.74l.13,9.94c-5.31,2.67-12.87-.1-16.17,5.66-.8,1.39-5.61,12.16-5.98,13.48-1.6,5.77,5.61,10.93,7.71,16.13l-6.56,6.77c-1.46.63-11.52-10.77-15.16-8.51-3.55,3-13.26,4.58-15.95,7.3-3.01,3.05-1.86,10.82-3.41,14.93l-9.15.11c-1.81-.42-1.13-11.97-3.91-14.96-1.89-2.03-7.73-3.26-10.58-4.39s-4-3.33-7.33-3.19c-4.25.17-10.37,8.62-13.45,8.33l-7.57-6.02c-.58-1.22,8.19-9.66,8.52-13.29.21-2.27-7.03-15.1-8.12-18.51l-14.87-3.46-.11-9.16c.34-1.48,9.95-1.74,12.03-2.35,5.3-1.55,4.51-5.31,6.35-9.37,1.3-2.87,4.27-7.16,4.16-10.1-.16-4.1-8.63-11.06-8.17-13.38l5.88-6.14h1.47c4.58,3.16,9.03,9.35,15.19,7.72.91-.24,11.9-5.02,13.05-5.65,5.01-2.76,4.05-11.46,4.71-16.62h10.49ZM188.48,129.72c-44.67,4.18-38.53,71.33,5.01,68.63,45.79-2.84,40.75-72.91-5.01-68.63Z"/>
      <path class="cls-1" d="M246.79,306.38c5.04,4.68,1.45,13.15-5.38,13.24l-100.32.02c-8.18-.99-10.22-10.42-3.16-14.42l103.52-.61c1.63.02,4.18.69,5.35,1.77Z"/>
      <path class="cls-1" d="M154,331.03c23.38,1.38,50.19-2.46,73.17-.17,10.6,1.06,10.23,12.56,2.27,13.48l-76.32-.06c-6.97-1.09-6.72-11.89.88-13.25Z"/>
      <path class="cls-1" d="M207.35,356.3c-4.77,13.85-27.66,14.17-32.19,0h32.19Z"/>
      <path class="cls-2" d="M188.48,129.72c45.76-4.28,50.8,65.79,5.01,68.63-43.54,2.7-49.68-64.45-5.01-68.63ZM186.19,142.4c-26.2,4.06-21.45,48.77,10.12,43.8,26.84-4.22,22.89-48.92-10.12-43.8Z"/>
      <path class="cls-1" d="M186.19,142.4c33.01-5.12,36.96,39.59,10.12,43.8-31.57,4.96-36.32-39.74-10.12-43.8Z"/>
    </g>
  </g>
</svg>