<?xml version="1.0" encoding="UTF-8"?>
<svg id="Layer_2" data-name="Layer 2" xmlns="http://www.w3.org/2000/svg" viewBox="0 0 384 384">
  <defs>
    <style>
      .cls-1 {
        fill: #fff;
      }

      .cls-2 {
        fill: #030357;
      }
    </style>
  </defs>
  <g id="Layer_1-2" data-name="Layer 1">
    <g>
      <path class="cls-1" d="M384,0v384H0V0h384ZM323.49,62.01l-8.94-40.1c-1.11-2.4-2.95-3.03-5.45-2.12l-52,51.35,7.1,35.64-.67,2.17-69.64,68.83c-26.18-11.34-51.96,15.97-36.56,41.03,15.97,25.98,58.12,10.3,51.3-22.1-.46-2.17-2.53-4.69-1.69-6.54l69.3-69.29,34.9,7.1,2.91-.67,51.89-52.99c.32-2.16-1.98-3.6-3.78-4.19l-38.67-8.11ZM172.76,41.39C18.23,49.83-38.16,250.49,89.59,337.45c118.27,80.51,274.31-20.19,251.53-160.96-2.12-13.07-6.24-26.94-12.13-38.75l-10.45,10.18-36.31-7.6-10.48,11.23c33.15,58.35,2.78,134.24-61.98,152.14-79.32,21.91-151.88-50.77-128.53-130.03,18.96-64.36,93.61-93.72,151.97-60.65l11.46-10.98-7.39-35.74c.32-2.39,7.34-7.27,9.01-9.77.57-.86,1.15-.49-.03-1.48-2.56-2.16-15.71-6.21-19.62-7.33-17.13-4.91-36.05-7.29-53.87-6.32ZM171.27,117.74c-81.09,7.18-105.11,119.23-33.55,160.35,74.68,42.92,158.64-37.54,120.15-113.4l-30.68,30.69c6.26,43.27-44.87,72.55-77.84,41.88-33.51-31.17-5.19-86.45,39.24-79.67l31.46-30.72c-14.56-8.42-32.17-10.6-48.79-9.13Z"/>
      <path class="cls-2" d="M172.76,41.39c17.82-.97,36.75,1.41,53.87,6.32,3.91,1.12,17.05,5.17,19.62,7.33,1.17.99.6.62.03,1.48-1.67,2.5-8.69,7.37-9.01,9.77l7.39,35.74-11.46,10.98c-58.36-33.07-133.02-3.71-151.97,60.65-23.35,79.26,49.22,151.95,128.53,130.03,64.76-17.89,95.13-93.78,61.98-152.14l10.48-11.23,36.31,7.6,10.45-10.18c5.89,11.81,10.02,25.68,12.13,38.75,22.79,140.77-133.26,241.47-251.53,160.96C-38.16,250.49,18.23,49.83,172.76,41.39Z"/>
      <path class="cls-2" d="M171.27,117.74c16.62-1.47,34.23.71,48.79,9.13l-31.46,30.72c-44.43-6.78-72.75,48.5-39.24,79.67,32.96,30.67,84.1,1.39,77.84-41.88l30.68-30.69c38.48,75.86-45.47,156.32-120.15,113.4-71.56-41.12-47.54-153.18,33.55-160.35Z"/>
      <path class="cls-2" d="M323.49,62.01l38.67,8.11c1.8.59,4.1,2.03,3.78,4.19l-51.89,52.99-2.91.67-34.9-7.1-69.3,69.29c-.83,1.85,1.24,4.37,1.69,6.54,6.83,32.41-35.32,48.08-51.3,22.1-15.41-25.06,10.38-52.37,36.56-41.03l69.64-68.83.67-2.17-7.1-35.64,52-51.35c2.5-.91,4.34-.28,5.45,2.12l8.94,40.1Z"/>
    </g>
  </g>
</svg>