<?xml version="1.0" encoding="UTF-8"?>
<svg id="Layer_2" data-name="Layer 2" xmlns="http://www.w3.org/2000/svg" viewBox="0 0 375.77 356.35">
  <defs>
    <style>
      .cls-1 {
        fill: none;
        stroke: #00b3ff;
        stroke-miterlimit: 10;
        stroke-width: 2.83px;
      }

      .cls-2 {
        fill: #00b3ff;
      }
    </style>
  </defs>
  <g id="Layer_1-2" data-name="Layer 1">
    <g>
      <path class="cls-2" d="M176.5,61.59c70.15-4.8,136.48,42.62,180.94,92.59,3.01,3.38,18.13,20.72,18.33,23.64s-10.21,14.93-12.74,17.89c-44.5,52.03-113.13,103.61-185.24,99.19-59.81-3.66-120.93-49.54-159.46-92.8C15.32,198.73.2,181.39,0,178.47s10.21-14.9,12.74-17.89c38.74-45.66,101.92-94.75,163.76-98.98ZM176.5,70.58c-64.94,4.73-127.13,58.65-165.9,107.33,18.79,25.04,42.47,48.15,67.76,66.72,78.37,57.55,149.31,53.89,225.47-4.81,22.76-17.54,43.21-38.54,61.12-60.97l.22-.94c-44.3-55.41-112.95-112.84-188.66-107.33Z"/>
      <path class="cls-2" d="M45.47,42.78c1.99-.36,2.81.33,4.31,1.38,4.21,2.96,28.08,26.84,31.06,31.06,3.77,5.34-1.04,10.12-6.36,6.36-4.2-2.96-28.11-26.87-31.06-31.06-2.09-2.98-1.96-7.02,2.05-7.74Z"/>
      <path class="cls-2" d="M328.41,42.77c4.74-.87,6.73,3.78,3.94,7.75-2.96,4.2-26.85,28.09-31.06,31.06-5.32,3.76-10.13-1.02-6.36-6.36,3.44-4.87,25.68-26.95,30.67-30.7.88-.67,1.65-1.53,2.81-1.74Z"/>
      <path class="cls-2" d="M76.9,273.32c4.74-.87,6.73,3.78,3.94,7.75-2.96,4.2-26.85,28.09-31.06,31.06-5.32,3.76-10.13-1.02-6.36-6.36,3.44-4.87,25.68-26.95,30.67-30.7.88-.67,1.65-1.53,2.81-1.74Z"/>
      <path class="cls-2" d="M296.98,273.33c1.99-.36,2.81.33,4.31,1.38,4.21,2.96,28.08,26.84,31.06,31.06,3.77,5.34-1.04,10.12-6.36,6.36-4.2-2.96-28.11-26.87-31.06-31.06-2.09-2.97-1.97-7.02,2.05-7.74Z"/>
      <path class="cls-2" d="M186.94.11c3.91-.71,5.16,2.11,5.47,5.46,1.15,12.57-.88,26.9-.08,39.66-.88,5.61-8.29,6.1-8.97-1.42-.82-9.07-1.02-30.13.02-38.97.26-2.23,1.09-4.29,3.56-4.73Z"/>
      <path class="cls-2" d="M186.94,307.01c3.91-.71,5.16,2.11,5.47,5.46,1.15,12.57-.88,26.9-.08,39.66-.88,5.61-8.29,6.1-8.97-1.42-.82-9.07-1.02-30.13.02-38.97.26-2.23,1.09-4.29,3.56-4.73Z"/>
      <path class="cls-1" d="M176.5,70.58c75.71-5.51,144.36,51.92,188.66,107.33l-.22.94c-17.9,22.43-38.36,43.43-61.12,60.97-76.16,58.69-147.1,62.36-225.47,4.81-25.28-18.57-48.96-41.68-67.76-66.72,38.77-48.68,100.96-102.6,165.9-107.33ZM176.51,73.57c-12.46,1.1-27.83,6.16-38.79,12.11-3.23,1.76-13.22,7-12.59,11.07,1.35,8.77,12.9-1.07,16.33-2.84,44.64-22.94,97.73-11.46,126.08,30.4,36.44,53.82,9.33,128.46-52.88,146.09-82.73,23.45-152.53-64.59-110.46-139.65,2.02-3.61,12.12-14.7,4.54-16.86-5.26-1.5-10.85,9.55-13.06,13.59-49.76,91.12,49.26,191.79,141.36,143.6,100.27-52.47,56.42-207.84-60.54-197.52ZM200.42,102.74c-1.38-1.3-20.98-1.47-23-.56-4.46,2.01-3.2,13.9-5.18,18.03l-11.99,5.19c-2.82.53-11.81-9.91-15.98-9.27-1.47.23-15.67,13.96-16.11,15.38-1.69,5.55,6.67,11.59,8.71,16.48.1.64-4.3,11.52-4.8,12.14-2.53,3.15-15.06,1.22-17.47,4.99-1.14,1.78-1.36,20.69-.44,22.74,1.73,3.87,13.8,3.61,17.61,4.85.67,3.05,5.69,11.6,4.85,13.83-1.6,4.24-9.29,9.24-8.61,14.58.32,2.55,13.02,15.46,15.5,16.01,5.43,1.22,11.28-7.02,16.3-8.8l12.37,4.82c1.54,1.31,1.22,14.88,3.92,17.41,1.6,1.5,21.95,1.46,24.06.12,3.16-2,2.46-13.72,4.12-17.42,4.31-.69,10.79-6,14.55-4.11,5.1,2.57,9.87,10.94,16.18,6.97,1.55-.98,11.21-10.62,12.41-12.28,4.68-6.44-5.54-12.55-7.87-18.35l5.14-12.68c4.36-1.71,17.73-.45,18.78-6.07.57-3.06.43-15.34.03-18.71-.91-7.71-13.26-4.43-18.71-7.49l-5.12-12.09c1.12-3.78,9.99-12.1,9.48-15.42-.3-1.92-14.95-16.6-16.89-16.89-3.26-.5-11.85,7.62-14.91,9.49-3.06-2.12-12.33-3.55-13.4-6.58-1.26-3.59-1.14-14.07-3.52-16.31ZM70.16,129.62c-.37.11-3.99,2.82-4.31,3.21-4.19,5.26,2.36,11.62,8.62,4.88,3.95-4.25.51-9.51-4.31-8.1ZM55.92,142.36c-.42.13-4.9,3.95-5.78,4.71-7.06,6.08-18.15,18.09-23.92,25.48-4.17,5.33-1.6,10.27,4.89,7.87,9.87-10.35,18.85-21.55,29.86-30.76,3.1-3.96-.26-8.76-5.05-7.3Z"/>
      <path class="cls-2" d="M176.51,73.57c116.96-10.32,160.81,145.05,60.54,197.52-92.1,48.19-191.11-52.48-141.36-143.6,2.21-4.04,7.8-15.09,13.06-13.59,7.57,2.17-2.52,13.25-4.54,16.86-42.07,75.06,27.72,163.1,110.46,139.65,62.21-17.63,89.32-92.28,52.88-146.09-28.35-41.86-81.43-53.34-126.08-30.4-3.44,1.77-14.98,11.61-16.33,2.84-.63-4.08,9.36-9.32,12.59-11.07,10.96-5.95,26.33-11.01,38.79-12.11Z"/>
      <path class="cls-2" d="M200.42,102.74c2.39,2.24,2.26,12.71,3.52,16.31,1.06,3.03,10.33,4.46,13.4,6.58,3.06-1.87,11.66-9.99,14.91-9.49,1.95.3,16.6,14.97,16.89,16.89.51,3.32-8.36,11.64-9.48,15.42l5.12,12.09c5.45,3.06,17.8-.22,18.71,7.49.4,3.36.54,15.65-.03,18.71-1.05,5.63-14.42,4.36-18.78,6.07l-5.14,12.68c2.34,5.8,12.55,11.91,7.87,18.35-1.21,1.66-10.86,11.31-12.41,12.28-6.31,3.97-11.08-4.4-16.18-6.97-3.76-1.9-10.24,3.42-14.55,4.11-1.67,3.7-.96,15.41-4.12,17.42-2.11,1.34-22.46,1.38-24.06-.12-2.7-2.53-2.38-16.1-3.92-17.41l-12.37-4.82c-5.02,1.78-10.86,10.02-16.3,8.8-2.48-.55-15.17-13.46-15.5-16.01-.68-5.34,7-10.34,8.61-14.58.84-2.23-4.18-10.77-4.85-13.83-3.8-1.24-15.88-.98-17.61-4.85-.92-2.05-.7-20.96.44-22.74,2.4-3.76,14.94-1.84,17.47-4.99.5-.62,4.9-11.49,4.8-12.14-2.04-4.89-10.4-10.93-8.71-16.48.43-1.42,14.64-15.15,16.11-15.38,4.17-.64,13.16,9.8,15.98,9.27l11.99-5.19c1.98-4.13.72-16.02,5.18-18.03,2.02-.91,21.62-.74,23,.56ZM193.88,110.77h-11.23c-.35,3.97-.64,13.89-3.32,16.52-1.84,1.8-8.41,3.11-11.41,4.31-3.74,1.5-6.28,5.09-10.69,3.47-2.05-.75-10.85-8.76-12.01-8.25l-6.76,7.54c1.39,3.42,8.67,10.2,8.68,13.47,0,2.34-3.46,7.55-4.52,10.12s-2.14,8.21-3.32,9.96c-1.68,2.49-16.39,2.93-16.56,3.92l.35,10.1c.95,1.34,13.21.98,15.81,3.65,1.27,1.3,2.76,8.11,3.71,10.51,1.68,4.24,5.31,7.19,3.77,12.03-.83,2.63-7.9,9.51-7.91,11.57l7.12,7.13c3.72-1.43,10.48-9.01,14.11-8.79,1.31.08,9.88,4.61,12.27,5.59s6.44,1.02,8.05,3.18c1.92,2.58,2.28,12.12,2.62,15.72h11.23s2.66-15.68,2.66-15.68c1.37-1.83,8.62-3.3,11.32-4.4,4.37-1.78,7.48-5.87,12.13-3.42,2.42,1.27,8.83,7.29,10.34,7.7,2.17.58,6.55-5.55,8.32-7.02-1.82-3.44-8.7-9.9-8.92-13.48-.16-2.72,3.64-8.6,4.92-11.62,1.05-2.48,1.43-5.98,2.46-8.02,1.95-3.86,12.27-2.78,16.14-4.07,2.43-.81.79-8.78,1.24-11.1-3.97-.88-13.78-.76-16.52-3.32-1.65-1.54-3.17-8.62-4.3-11.42-1.59-3.96-4.96-6.02-3.53-10.75.89-2.97,7.89-9.43,7.9-11.58l-7.12-7.82c-2.95,2.02-10.32,8.86-13.48,9.03-2.55.13-6.16-2.88-8.84-3.95-2.98-1.19-10.68-3-12.06-5.15-1.9-2.95-2.08-11.87-2.66-15.68Z"/>
      <path class="cls-2" d="M55.92,142.36c4.78-1.46,8.14,3.35,5.05,7.3-11.01,9.22-20,20.41-29.86,30.76-6.49,2.39-9.05-2.54-4.89-7.87,5.78-7.39,16.86-19.41,23.92-25.48.88-.76,5.36-4.58,5.78-4.71Z"/>
      <path class="cls-2" d="M70.16,129.62c4.82-1.41,8.27,3.84,4.31,8.1-6.26,6.73-12.81.37-8.62-4.88.31-.39,3.93-3.1,4.31-3.21Z"/>
      <path class="cls-1" d="M193.88,110.77c.57,3.81.76,12.73,2.66,15.68,1.38,2.15,9.08,3.96,12.06,5.15,2.68,1.07,6.29,4.08,8.84,3.95,3.16-.17,10.53-7.01,13.48-9.03l7.12,7.82c-.01,2.15-7.01,8.61-7.9,11.58-1.42,4.74,1.94,6.79,3.53,10.75,1.13,2.8,2.65,9.88,4.3,11.42,2.74,2.55,12.55,2.44,16.52,3.32-.45,2.32,1.19,10.29-1.24,11.1-3.88,1.29-14.2.2-16.14,4.07-1.03,2.04-1.4,5.54-2.46,8.02-1.28,3.02-5.09,8.89-4.92,11.62.22,3.59,7.1,10.05,8.92,13.48-1.77,1.47-6.14,7.6-8.32,7.02-1.52-.41-7.93-6.43-10.34-7.7-4.65-2.44-7.76,1.65-12.13,3.42-2.7,1.1-9.95,2.56-11.32,4.4l-2.66,15.68h-11.23c-.34-3.59-.7-13.13-2.62-15.72-1.61-2.16-5.54-2.15-8.05-3.18s-10.96-5.51-12.27-5.59c-3.63-.22-10.39,7.37-14.11,8.79l-7.12-7.13c.01-2.06,7.07-8.94,7.91-11.57,1.54-4.85-2.09-7.8-3.77-12.03-.95-2.4-2.44-9.21-3.71-10.51-2.61-2.66-14.86-2.31-15.81-3.65l-.35-10.1c.16-.99,14.87-1.43,16.56-3.92,1.18-1.75,2.28-7.42,3.32-9.96s4.53-7.78,4.52-10.12c0-3.27-7.29-10.05-8.68-13.47l6.76-7.54c1.16-.51,9.96,7.5,12.01,8.25,4.4,1.62,6.95-1.96,10.69-3.47,3-1.21,9.57-2.51,11.41-4.31,2.68-2.63,2.96-12.55,3.32-16.52h11.23ZM187.01,137.16c-48.88,1.44-50.9,75.01-2.48,79.15,55.68,4.77,57.23-80.76,2.48-79.15Z"/>
      <path class="cls-2" d="M187.01,137.16c54.75-1.61,53.2,83.92-2.48,79.15-48.42-4.14-46.4-77.71,2.48-79.15ZM210.08,155.2c-27.24-27.24-70.39,11.81-45.03,41.66,27,31.78,74.49-12.2,45.03-41.66Z"/>
      <path class="cls-1" d="M210.08,155.2c29.46,29.46-18.03,73.44-45.03,41.66-25.37-29.85,17.79-68.9,45.03-41.66ZM200.34,164.94c-14.9-14.88-38.67,6.22-24.83,22.95s41.07-6.73,24.83-22.95Z"/>
      <path class="cls-2" d="M200.34,164.94c16.25,16.23-10.31,40.5-24.83,22.95s9.93-37.83,24.83-22.95ZM186.17,169.32c-8.89,2.02-6.41,16.44,2.76,15.56,10.81-1.04,8.56-18.13-2.76-15.56Z"/>
      <path class="cls-1" d="M186.17,169.32c11.32-2.57,13.56,14.52,2.76,15.56-9.17.88-11.65-13.54-2.76-15.56Z"/>
    </g>
  </g>
</svg>