<?xml version="1.0" encoding="UTF-8"?>
<svg xmlns="http://www.w3.org/2000/svg" xmlns:xlink="http://www.w3.org/1999/xlink" viewBox="0 0 500 250">
  <defs>
    <style>
      .cls-1 {
        fill: #f8b525;
      }

      .cls-1, .cls-2, .cls-3, .cls-4, .cls-5, .cls-6, .cls-7, .cls-8, .cls-9, .cls-10, .cls-11, .cls-12, .cls-13, .cls-14, .cls-15, .cls-16, .cls-17, .cls-18, .cls-19, .cls-20, .cls-21, .cls-22, .cls-23, .cls-24, .cls-25, .cls-26, .cls-27, .cls-28, .cls-29, .cls-30, .cls-31, .cls-32, .cls-33, .cls-34, .cls-35, .cls-36, .cls-37, .cls-38, .cls-39, .cls-40, .cls-41, .cls-42, .cls-43, .cls-44, .cls-45, .cls-46, .cls-47, .cls-48, .cls-49, .cls-50, .cls-51, .cls-52, .cls-53, .cls-54 {
        stroke-width: 0px;
      }

      .cls-2 {
        fill: #5267ff;
      }

      .cls-3 {
        fill: url(#linear-gradient-12);
      }

      .cls-55 {
        fill: #2a2d7c;
        font-family: LEMONMILK-Medium, 'LEMON MILK';
        font-size: 9.92px;
      }

      .cls-55, .cls-56 {
        font-weight: 500;
      }

      .cls-4 {
        fill: url(#radial-gradient-7);
        opacity: .74;
      }

      .cls-4, .cls-38 {
        mix-blend-mode: color-dodge;
      }

      .cls-5 {
        fill: url(#linear-gradient);
      }

      .cls-6 {
        fill: #a9d4f2;
      }

      .cls-57 {
        font-family: Montserrat-Bold, Montserrat;
        font-size: 10.18px;
      }

      .cls-57, .cls-58 {
        font-weight: 700;
      }

      .cls-57, .cls-58, .cls-23, .cls-59, .cls-60 {
        fill: #fff;
      }

      .cls-7 {
        mix-blend-mode: darken;
        opacity: .22;
      }

      .cls-7, .cls-30, .cls-61 {
        fill: #2e45e8;
      }

      .cls-8 {
        fill: #1cc967;
      }

      .cls-9 {
        fill: #454545;
      }

      .cls-10 {
        fill: #f84f00;
      }

      .cls-62 {
        isolation: isolate;
      }

      .cls-11 {
        fill: #020f70;
      }

      .cls-12 {
        fill: url(#linear-gradient-6);
        opacity: .78;
      }

      .cls-12, .cls-16, .cls-63, .cls-28, .cls-29, .cls-34, .cls-41 {
        mix-blend-mode: overlay;
      }

      .cls-64 {
        stroke: #cfebff;
      }

      .cls-64, .cls-18, .cls-65, .cls-66, .cls-67, .cls-68, .cls-69, .cls-70, .cls-71 {
        fill: none;
      }

      .cls-64, .cls-67, .cls-68, .cls-70, .cls-71 {
        stroke-miterlimit: 10;
      }

      .cls-64, .cls-70 {
        stroke-width: .22px;
      }

      .cls-58 {
        font-family: CenturyGothic-Bold, 'Century Gothic';
        font-size: 20.31px;
      }

      .cls-14 {
        fill: url(#Degradado_sin_nombre_15-3);
        filter: url(#drop-shadow-3);
      }

      .cls-15 {
        fill: url(#linear-gradient-11);
      }

      .cls-16, .cls-63 {
        opacity: .68;
      }

      .cls-17 {
        fill: url(#linear-gradient-5);
      }

      .cls-65, .cls-66 {
        stroke: #0b4d27;
      }

      .cls-65, .cls-66, .cls-69 {
        stroke-linecap: round;
        stroke-linejoin: round;
      }

      .cls-65, .cls-67 {
        stroke-width: .23px;
      }

      .cls-72 {
        letter-spacing: 0em;
      }

      .cls-19 {
        fill: #010838;
      }

      .cls-73 {
        letter-spacing: -.03em;
      }

      .cls-74 {
        letter-spacing: -.02em;
      }

      .cls-20 {
        fill: url(#linear-gradient-13);
      }

      .cls-21 {
        fill: #f8bb37;
      }

      .cls-66 {
        stroke-width: .48px;
      }

      .cls-22 {
        fill: #8fd0ff;
      }

      .cls-75 {
        letter-spacing: -.02em;
      }

      .cls-24 {
        fill: #d4d4d4;
      }

      .cls-67 {
        stroke: #f8b525;
      }

      .cls-25 {
        fill: url(#linear-gradient-2);
      }

      .cls-26 {
        fill: #e25344;
      }

      .cls-27 {
        fill: #cfebff;
      }

      .cls-28 {
        opacity: .37;
      }

      .cls-29 {
        opacity: .7;
      }

      .cls-31 {
        fill: url(#linear-gradient-7);
      }

      .cls-32 {
        fill: url(#radial-gradient-2);
      }

      .cls-33 {
        fill: url(#linear-gradient-3);
      }

      .cls-34 {
        opacity: .56;
      }

      .cls-76 {
        clip-path: url(#clippath);
      }

      .cls-35 {
        fill: url(#radial-gradient-5);
      }

      .cls-36 {
        fill: url(#linear-gradient-9);
      }

      .cls-37 {
        fill: url(#radial-gradient);
      }

      .cls-56 {
        font-family: FuturaBT-Medium, 'Futura Md BT';
        font-size: 7.09px;
      }

      .cls-38 {
        fill: url(#radial-gradient-8);
      }

      .cls-39 {
        fill: url(#linear-gradient-8);
      }

      .cls-68 {
        stroke: #fff;
        stroke-width: 1.62px;
      }

      .cls-40 {
        fill: #0e198f;
      }

      .cls-41 {
        opacity: .64;
      }

      .cls-77 {
        letter-spacing: .02em;
      }

      .cls-42 {
        fill: #f78080;
      }

      .cls-43 {
        fill: #ff8e00;
      }

      .cls-78 {
        letter-spacing: 0em;
      }

      .cls-79 {
        mix-blend-mode: screen;
        opacity: .13;
      }

      .cls-59 {
        font-size: 27.41px;
      }

      .cls-59, .cls-60 {
        font-family: Arial-Black, Arial;
        font-weight: 800;
      }

      .cls-44 {
        fill: #e6007e;
      }

      .cls-45 {
        fill: url(#Degradado_sin_nombre_17);
        filter: url(#drop-shadow-4);
      }

      .cls-69 {
        stroke: #d13b00;
        stroke-width: .26px;
      }

      .cls-46 {
        fill: url(#radial-gradient-6);
      }

      .cls-47 {
        fill: url(#linear-gradient-10);
      }

      .cls-70 {
        stroke: #010838;
      }

      .cls-71 {
        stroke: #000;
        stroke-width: .43px;
      }

      .cls-48 {
        fill: url(#radial-gradient-3);
      }

      .cls-49 {
        fill: url(#Degradado_sin_nombre_15);
        filter: url(#drop-shadow-1);
      }

      .cls-50 {
        fill: url(#linear-gradient-4);
      }

      .cls-80 {
        letter-spacing: -.04em;
      }

      .cls-81 {
        letter-spacing: -.03em;
      }

      .cls-60 {
        font-size: 10.51px;
      }

      .cls-82 {
        letter-spacing: -.02em;
      }

      .cls-61 {
        font-family: JosefinSans-Regular, 'Josefin Sans';
        font-size: 5.11px;
      }

      .cls-51 {
        fill: #2133ab;
      }

      .cls-52 {
        fill: url(#radial-gradient-4);
      }

      .cls-53 {
        fill: url(#Degradado_sin_nombre_15-2);
        filter: url(#drop-shadow-2);
      }

      .cls-54 {
        fill: #6baaff;
      }
    </style>
    <clipPath id="clippath">
      <rect class="cls-18" x=".15" y="-.54" width="499.7" height="249.48"/>
    </clipPath>
    <radialGradient id="Degradado_sin_nombre_15" data-name="Degradado sin nombre 15" cx="426.21" cy="245.49" fx="426.21" fy="245.49" r="119.24" gradientTransform="translate(-351.36 -3.05) scale(.84 .88)" gradientUnits="userSpaceOnUse">
      <stop offset="0" stop-color="#fff"/>
      <stop offset="1" stop-color="#f5f5f6"/>
    </radialGradient>
    <filter id="drop-shadow-1" filterUnits="userSpaceOnUse">
      <feOffset dx="1.3" dy="1.3"/>
      <feGaussianBlur result="blur" stdDeviation="1.3"/>
      <feFlood flood-color="#000" flood-opacity=".2"/>
      <feComposite in2="blur" operator="in"/>
      <feComposite in="SourceGraphic"/>
    </filter>
    <radialGradient id="Degradado_sin_nombre_15-2" data-name="Degradado sin nombre 15" cx="436.47" cy="246.18" fx="436.47" fy="246.18" r="103.27" xlink:href="#Degradado_sin_nombre_15"/>
    <filter id="drop-shadow-2" filterUnits="userSpaceOnUse">
      <feOffset dx="1.3" dy="1.3"/>
      <feGaussianBlur result="blur-2" stdDeviation="1.3"/>
      <feFlood flood-color="#000" flood-opacity=".2"/>
      <feComposite in2="blur-2" operator="in"/>
      <feComposite in="SourceGraphic"/>
    </filter>
    <radialGradient id="Degradado_sin_nombre_15-3" data-name="Degradado sin nombre 15" cx="548.07" cy="214.86" fx="548.07" fy="214.86" r="28.8" xlink:href="#Degradado_sin_nombre_15"/>
    <filter id="drop-shadow-3" filterUnits="userSpaceOnUse">
      <feOffset dx="1.3" dy="1.3"/>
      <feGaussianBlur result="blur-3" stdDeviation="1.3"/>
      <feFlood flood-color="#000" flood-opacity=".2"/>
      <feComposite in2="blur-3" operator="in"/>
      <feComposite in="SourceGraphic"/>
    </filter>
    <linearGradient id="Degradado_sin_nombre_17" data-name="Degradado sin nombre 17" x1="87.54" y1="185.13" x2="127.22" y2="185.13" gradientUnits="userSpaceOnUse">
      <stop offset="0" stop-color="#f5f5f6"/>
      <stop offset="1" stop-color="#fff"/>
    </linearGradient>
    <filter id="drop-shadow-4" filterUnits="userSpaceOnUse">
      <feOffset dx="1.3" dy="1.3"/>
      <feGaussianBlur result="blur-4" stdDeviation="1.3"/>
      <feFlood flood-color="#000" flood-opacity=".2"/>
      <feComposite in2="blur-4" operator="in"/>
      <feComposite in="SourceGraphic"/>
    </filter>
    <radialGradient id="radial-gradient" cx="450.19" cy="124.2" fx="450.19" fy="124.2" r="14.06" gradientTransform="translate(470.71 -339.98) rotate(76.56)" gradientUnits="userSpaceOnUse">
      <stop offset=".22" stop-color="#1cc967"/>
      <stop offset=".35" stop-color="#19c16f"/>
      <stop offset=".56" stop-color="#14ad85"/>
      <stop offset=".81" stop-color="#0b8ca9"/>
      <stop offset="1" stop-color="#0470c9"/>
    </radialGradient>
    <radialGradient id="radial-gradient-2" cx="439.01" cy="147.03" fx="439.01" fy="147.03" r="9.95" gradientTransform="translate(167.42 -226.36) rotate(35.3)" xlink:href="#radial-gradient"/>
    <radialGradient id="radial-gradient-3" cx="459.48" cy="149.32" fx="459.48" fy="149.32" r="6.92" gradientTransform="matrix(1,0,0,1,0,0)" xlink:href="#radial-gradient"/>
    <radialGradient id="radial-gradient-4" cx="281.66" cy="113.45" fx="281.66" fy="113.45" r="14.06" gradientTransform="translate(179.27 -170.35) rotate(47.72)" xlink:href="#radial-gradient"/>
    <radialGradient id="radial-gradient-5" cx="270.48" cy="136.29" fx="270.48" fy="136.29" r="9.95" gradientTransform="matrix(1,0,0,1,0,0)" xlink:href="#radial-gradient"/>
    <radialGradient id="radial-gradient-6" cx="290.95" cy="138.58" fx="290.95" fy="138.58" r="6.92" gradientTransform="translate(75.16 -100.03) rotate(22.31)" xlink:href="#radial-gradient"/>
    <linearGradient id="linear-gradient" x1="370.72" y1="202.72" x2="452.34" y2="202.72" gradientUnits="userSpaceOnUse">
      <stop offset="0" stop-color="#1b7cc2"/>
      <stop offset=".24" stop-color="#328dcf"/>
      <stop offset=".74" stop-color="#5cade8"/>
      <stop offset="1" stop-color="#6dbaf2"/>
    </linearGradient>
    <linearGradient id="linear-gradient-2" x1="289.23" y1="186.27" x2="383.18" y2="186.27" xlink:href="#linear-gradient"/>
    <linearGradient id="linear-gradient-3" x1="285.08" y1="192.83" x2="379.02" y2="192.83" xlink:href="#linear-gradient"/>
    <linearGradient id="linear-gradient-4" x1="280.92" y1="199.4" x2="374.87" y2="199.4" xlink:href="#linear-gradient"/>
    <linearGradient id="linear-gradient-5" x1="276.77" y1="205.97" x2="370.72" y2="205.97" xlink:href="#linear-gradient"/>
    <linearGradient id="linear-gradient-6" x1="348.32" y1="148.02" x2="357.96" y2="164.43" gradientUnits="userSpaceOnUse">
      <stop offset=".05" stop-color="#000"/>
      <stop offset="1" stop-color="#000" stop-opacity="0"/>
    </linearGradient>
    <radialGradient id="radial-gradient-7" cx="-3109.63" cy="144.59" fx="-3109.63" fy="144.59" r="2.69" gradientTransform="translate(-2746.47) rotate(-180) scale(1 -1)" gradientUnits="userSpaceOnUse">
      <stop offset="0" stop-color="#5267ff" stop-opacity="0"/>
      <stop offset="1" stop-color="#cfebff"/>
    </radialGradient>
    <radialGradient id="radial-gradient-8" cx="-3111.44" cy="145.66" fx="-3111.44" fy="145.66" r="3.26" gradientTransform="translate(-2746.47) rotate(-180) scale(1 -1)" gradientUnits="userSpaceOnUse">
      <stop offset="0" stop-color="#5267ff" stop-opacity="0"/>
      <stop offset="1" stop-color="#5267ff"/>
    </radialGradient>
    <linearGradient id="linear-gradient-7" x1="-1196.46" y1="30.33" x2="-1228.99" y2="55.18" gradientTransform="translate(1561.86 25.54) rotate(.67)" gradientUnits="userSpaceOnUse">
      <stop offset=".02" stop-color="#6dbaf2"/>
      <stop offset=".15" stop-color="#6bb8f0"/>
      <stop offset=".2" stop-color="#64b3ec"/>
      <stop offset=".23" stop-color="#58aae6"/>
      <stop offset=".26" stop-color="#479ddc"/>
      <stop offset=".28" stop-color="#318dcf"/>
      <stop offset=".3" stop-color="#1b7cc2"/>
      <stop offset=".5" stop-color="#1d7dc3"/>
      <stop offset=".61" stop-color="#2583c8"/>
      <stop offset=".7" stop-color="#338ed0"/>
      <stop offset=".78" stop-color="#469cdb"/>
      <stop offset=".85" stop-color="#5fafea"/>
      <stop offset=".88" stop-color="#6dbaf2"/>
    </linearGradient>
    <linearGradient id="linear-gradient-8" x1="350.64" y1="189.21" x2="350.64" y2="209.97" gradientUnits="userSpaceOnUse">
      <stop offset="0" stop-color="#ffefcc"/>
      <stop offset=".96" stop-color="#ffefcc" stop-opacity="0"/>
    </linearGradient>
    <linearGradient id="linear-gradient-9" x1="356.7" y1="171.2" x2="365.25" y2="184.47" xlink:href="#linear-gradient-8"/>
    <linearGradient id="linear-gradient-10" x1="356.3" y1="171.46" x2="364.85" y2="184.73" xlink:href="#linear-gradient-8"/>
    <linearGradient id="linear-gradient-11" x1="350.61" y1="206.86" x2="350.61" y2="222.4" gradientUnits="userSpaceOnUse">
      <stop offset="0" stop-color="#f8b525"/>
      <stop offset="1" stop-color="#f84600"/>
    </linearGradient>
    <linearGradient id="linear-gradient-12" x1="350.61" y1="203.1" x2="350.61" y2="215.26" xlink:href="#linear-gradient-11"/>
    <linearGradient id="linear-gradient-13" x1="419.59" y1="190.3" x2="423.56" y2="206.69" xlink:href="#linear-gradient-11"/>
  </defs>
  <g class="cls-62">
    <g id="Layer_1" data-name="Layer 1">
      <rect class="cls-23" x=".15" y=".46" width="499.85" height="248.48"/>
      <g class="cls-76">
        <rect class="cls-18" x=".15" y="-.54" width="500" height="250"/>
      </g>
      <polygon class="cls-30" points="155.5 250.46 .15 250.46 .15 .46 294.8 .46 155.5 250.46"/>
      <text class="cls-59" transform="translate(18.55 37.37) scale(.96 1)"><tspan x="0" y="0">ADOBE</tspan><tspan x="0" y="32.89">PH</tspan><tspan class="cls-73" x="42.62" y="32.89">O</tspan><tspan class="cls-81" x="64.75" y="32.89">T</tspan><tspan class="cls-78" x="83.6" y="32.89">OSHOP</tspan></text>
      <text class="cls-58" transform="translate(17.48 111.68) scale(.96 1)"><tspan x="0" y="0">Professional Training </tspan><tspan x="0" y="24.37">Program</tspan></text>
      <g>
        <text class="cls-60" transform="translate(20.18 225.9) scale(.96 1)"><tspan x="0" y="0">O</tspan><tspan class="cls-77" x="8.75" y="0">f</tspan><tspan x="13.11" y="0">fline</tspan></text>
        <text class="cls-60" transform="translate(91.84 225.77) scale(.96 1)"><tspan x="0" y="0">Online</tspan></text>
        <g>
          <g>
            <path class="cls-49" d="M62.69,185.17c0,13.93-10.79,25.23-24.11,25.23s-24.11-11.29-24.11-25.23,10.79-25.23,24.11-25.23,24.11,11.29,24.11,25.23Z"/>
            <g class="cls-79">
              <path class="cls-68" d="M58.42,184.27c0,11.47-8.88,20.76-19.84,20.76s-19.84-9.3-19.84-20.76,8.88-20.76,19.84-20.76,19.84,9.3,19.84,20.76Z"/>
            </g>
            <path class="cls-53" d="M58.42,185.17c0,11.47-8.88,20.76-19.84,20.76s-19.84-9.3-19.84-20.76,8.88-20.76,19.84-20.76,19.84,9.3,19.84,20.76Z"/>
          </g>
          <g>
            <path class="cls-71" d="M48.83,184.48h-10.21c-.34,0-.62-.29-.62-.65v-9.35c0-.36.28-.65.62-.65h10.21c.34,0,.62.29.62.65v9.35c0,.35-.28.65-.62.65ZM41.18,177.8h5.09c.34,0,.62-.29.62-.65h0c0-.36-.28-.65-.62-.65h-5.09c-.34,0-.62.29-.62.65h0c0,.35.28.65.62.65ZM41.18,180.47h3.82c.34,0,.62-.29.62-.65h0c0-.36-.28-.65-.62-.65h-3.82c-.34,0-.62.29-.62.65h0c0,.35.28.65.62.65Z"/>
            <path class="cls-71" d="M33.16,173.82c.44.1.87.25,1.23.54.92.73,1.25,2.01.83,3.12-.42,1.08-1.52,1.78-2.6,1.65-1.18-.14-2.09-1.05-2.27-2.25-.21-1.44.72-2.78,2.1-3.02.04,0,.08-.03.12-.04.2,0,.4,0,.59,0Z"/>
            <path class="cls-71" d="M34.12,194.76c.18-1,.63-1.8,1.43-2.36.58-.41,1.23-.6,1.92-.56.77.04,1.44.35,2.01.89s.88,1.23,1,2.08c.08-.31.13-.56.22-.81.49-1.41,1.87-2.32,3.26-2.16,1.48.16,2.67,1.33,2.85,2.85.07.6.01,1.2.01,1.82h-19.07c-.06-1.31-.12-2.63.89-3.66.93-.94,2.03-1.28,3.27-.87,1.23.41,1.95,1.33,2.19,2.66,0,.04.01.07.02.1Z"/>
            <path class="cls-71" d="M36.01,184.79c-.74.29-1.38.78-1.86,1.51-1.16-1.56-2.63-2.11-4.47-1.55.04-1.03-.13-2.07.34-3.05.63-1.29,1.98-2.02,3.39-1.78,1.32.22,2.43,1.39,2.58,2.8.08.67.02,1.36.02,2.08Z"/>
            <path class="cls-71" d="M30.96,185.85c1.4,0,2.54,1.2,2.54,2.67,0,1.46-1.15,2.66-2.56,2.65-1.39,0-2.53-1.2-2.53-2.65,0-1.46,1.14-2.67,2.54-2.67Z"/>
            <path class="cls-71" d="M34.77,188.51c0-1.46,1.15-2.66,2.55-2.66s2.54,1.2,2.54,2.68c0,1.46-1.14,2.65-2.54,2.65-1.4,0-2.55-1.19-2.55-2.66Z"/>
            <path class="cls-71" d="M46.22,188.52c0,1.46-1.15,2.66-2.55,2.65s-2.54-1.21-2.54-2.68c0-1.46,1.15-2.65,2.54-2.65,1.4,0,2.55,1.2,2.54,2.67Z"/>
            <path class="cls-71" d="M40.55,177.8v-1.31"/>
          </g>
        </g>
        <g>
          <g>
            <path class="cls-14" d="M131.49,185.13c0,13.93-10.79,25.23-24.11,25.23s-24.11-11.29-24.11-25.23,10.79-25.23,24.11-25.23,24.11,11.29,24.11,25.23Z"/>
            <g class="cls-79">
              <path class="cls-68" d="M127.22,184.23c0,11.47-8.88,20.76-19.84,20.76s-19.84-9.3-19.84-20.76,8.88-20.76,19.84-20.76,19.84,9.3,19.84,20.76Z"/>
            </g>
            <path class="cls-45" d="M127.22,185.13c0,11.47-8.88,20.76-19.84,20.76s-19.84-9.3-19.84-20.76,8.88-20.76,19.84-20.76,19.84,9.3,19.84,20.76Z"/>
          </g>
          <g>
            <path class="cls-71" d="M113.64,173.21h4.26c.79,0,1.22.46,1.22,1.28v5.75c0,.83-.43,1.29-1.22,1.29-1.58,0-3.16,0-4.73,0-.27,0-.49.09-.68.29-.58.63-1.18,1.24-1.76,1.85-.18.19-.35.35-.63.23-.28-.12-.27-.38-.27-.63,0-.35,0-.71,0-1.06,0-.45-.18-.65-.6-.69-.72-.06-1.12-.51-1.12-1.27v-5.78c0-.81.45-1.27,1.21-1.27,1.44,0,2.87,0,4.31,0ZM110,177.34c0,.47.37.86.82.85.45,0,.82-.41.81-.87,0-.46-.37-.84-.81-.84-.45,0-.81.37-.81.85ZM112.81,177.32c0,.48.35.86.81.86s.82-.39.82-.86-.36-.84-.8-.85c-.45,0-.82.38-.83.85ZM115.64,177.33c0,.47.36.86.81.86s.81-.38.81-.86-.36-.84-.8-.84c-.45-.02-.82.36-.82.84Z"/>
            <path class="cls-71" d="M107.82,178.66v1.76h-8.15c-.6,0-.82.23-.82.86v10.16c0,.61.23.85.81.85h15.44c.56,0,.79-.24.79-.84v-9.61h1.67v11.52h-20.39v-12.84c0-1.18.66-1.88,1.8-1.88h8.85Z"/>
            <path class="cls-71" d="M107.38,193.69c3.72,0,7.45,0,11.17,0,.19,0,.4.05.56.14.27.16.36.5.27.81-.09.32-.18.65-.27.96-.23.82-.93,1.39-1.76,1.43h-19.79c-.7,0-1.33-.24-1.66-.88-.27-.51-.42-1.12-.56-1.7-.09-.39.25-.75.65-.79.1,0,.19,0,.3,0,3.7.02,7.4.02,11.09.02ZM107.37,195.85h1.51c.16,0,.32,0,.47-.02.24-.03.4-.21.4-.44,0-.24-.15-.44-.39-.49-.06,0-.12,0-.17,0h-3.62c-.06,0-.12,0-.17,0-.24.04-.4.23-.4.48s.17.43.42.46c.08,0,.17,0,.24,0h1.71Z"/>
            <path class="cls-71" d="M104.3,190.9h-3.19c-.41,0-.55-.14-.52-.56.04-.63.06-1.26.14-1.88.12-.96.91-1.65,1.84-1.66,1.15,0,2.31,0,3.46,0,.99,0,1.8.78,1.88,1.82.04.56.08,1.12.11,1.68.03.46-.1.6-.53.6h-3.19Z"/>
            <path class="cls-71" d="M106.33,184.25c-.01.56-.14,1.06-.45,1.52-.8,1.22-2.36,1.22-3.16,0-.58-.88-.58-2.12,0-3,.81-1.25,2.38-1.24,3.18,0,.28.44.4.95.42,1.48Z"/>
          </g>
        </g>
      </g>
      <text class="cls-57" transform="translate(388.37 112.24)"><tspan x="0" y="0">&lt;/&gt;</tspan></text>
      <g>
        <path class="cls-27" d="M447.96,182.42c7.31,4.26,17.01.33,17.01-11.68s-6.7-29.89-31.1-43.46c-24.4-13.57-42.88-78.93-74.39-78.27-31.51.66-32.4,37.26-45.54,50.2-13.14,12.94-37.97,32.03-41.47,51.01-3.49,18.98,4.29,30.65,4.29,30.65l171.2,1.53Z"/>
        <g>
          <line class="cls-66" x1="450.76" y1="128.24" x2="450.76" y2="183.86"/>
          <circle class="cls-37" cx="450.76" cy="128.24" r="12.44" transform="translate(221.26 536.84) rotate(-76.56)"/>
          <path class="cls-66" d="M459.76,152.92s-2.64,10.65-9,13.96"/>
          <path class="cls-66" d="M439.41,149.89s-1.23,15.18,11.35,23.15"/>
          <circle class="cls-32" cx="439.41" cy="149.89" r="8.81" transform="translate(-5.82 281.49) rotate(-35.3)"/>
          <circle class="cls-48" cx="459.76" cy="151.31" r="6.12"/>
        </g>
        <g>
          <line class="cls-66" x1="282.23" y1="117.5" x2="282.23" y2="173.11"/>
          <circle class="cls-52" cx="282.23" cy="117.5" r="12.44" transform="translate(5.42 247.24) rotate(-47.72)"/>
          <path class="cls-66" d="M291.23,142.18s-2.64,10.65-9,13.96"/>
          <path class="cls-66" d="M270.88,139.15s-1.23,15.18,11.35,23.15"/>
          <circle class="cls-35" cx="270.88" cy="139.15" r="8.81"/>
          <circle class="cls-46" cx="291.23" cy="140.57" r="6.12" transform="translate(-31.56 121.07) rotate(-22.31)"/>
        </g>
        <g>
          <g class="cls-63">
            <polygon class="cls-13" points="318 124.35 336.61 113.69 336.61 78.75 318 89.41 318 124.35"/>
            <polygon class="cls-13" points="339.41 89.1 339.41 124.04 358.02 113.38 358.02 78.45 339.41 89.1"/>
            <polygon class="cls-13" points="296.58 124.43 315.19 113.78 315.19 78.84 296.58 89.5 296.58 124.43"/>
          </g>
          <g>
            <g>
              <polygon class="cls-1" points="337.88 114.33 319.27 124.99 319.27 90.05 337.88 79.4 337.88 114.33"/>
              <polygon class="cls-23" points="336.61 109.74 320.55 118.93 320.55 91.59 336.61 82.4 336.61 109.74"/>
              <path class="cls-44" d="M334.48,91.65c0,2.79-1.6,5.97-3.57,7.1-1.97,1.13-3.57-.22-3.57-3.01s1.6-5.97,3.57-7.1c1.97-1.13,3.57.22,3.57,3.01Z"/>
              <path class="cls-30" d="M336.61,90.29s-3.45-.11-4.03,1.3c-.58,1.41.76.96-.14,4.84-.9,3.88-2.62,3.05-5.37,7.99-2.76,4.94-1.75,6.5-2.44,9.16-.69,2.66-2.38,4.38-2.38,4.38l14.35-8.22v-19.45Z"/>
              <path class="cls-44" d="M324.86,100.12s1.56.53,1.89,1.76c-1.19.04-1.89-1.76-1.89-1.76Z"/>
              <path class="cls-44" d="M322.45,100.76s1.56.53,1.89,1.76c-1.19.04-1.89-1.76-1.89-1.76Z"/>
              <path class="cls-44" d="M323.39,95.53s1.65.16,1.98,2.26c-1.25-.57-1.98-2.26-1.98-2.26Z"/>
              <path class="cls-44" d="M323.39,91.24s1.65.16,1.98,2.26c-1.25-.57-1.98-2.26-1.98-2.26Z"/>
            </g>
            <g>
              <polygon class="cls-1" points="359.3 114.02 340.69 124.68 340.69 89.74 359.3 79.09 359.3 114.02"/>
              <polygon class="cls-23" points="358.02 109.43 341.97 118.62 341.97 91.29 358.02 82.09 358.02 109.43"/>
              <path class="cls-1" d="M351.17,91.58c0,1.64-.94,3.51-2.1,4.17-1.16.66-2.1-.13-2.1-1.77s.94-3.51,2.1-4.17c1.16-.66,2.1.13,2.1,1.77Z"/>
              <path class="cls-30" d="M358.02,104.78s-1.49-2.01-2.21-1.35c-.73.66-.24,2.36-.85,2.71-.61.35-4.22-5.27-4.73-4.8-.51.47,1.85,2.95.42,3.88-1.42.93-1.67-9.07-6.12-8.42-1.99.29-2.26-4.09-.61-6.63l-1.95,1.12v27.34l16.05-9.19v-4.65Z"/>
              <path class="cls-44" d="M353.64,84.6s1.19,1.32,0,5.88c-1.19,4.56.78-1.29,2.06-1.5,1.28-.22.4,5.56,2.33,6.38v-13.27l-4.38,2.51Z"/>
            </g>
            <g>
              <polygon class="cls-1" points="316.47 114.42 297.86 125.07 297.86 90.14 316.47 79.48 316.47 114.42"/>
              <polygon class="cls-23" points="315.19 109.82 299.14 119.02 299.14 91.68 315.19 82.49 315.19 109.82"/>
              <ellipse class="cls-44" cx="303.8" cy="97.54" rx="3.35" ry="1.86" transform="translate(106.45 348.26) rotate(-69.59)"/>
              <path class="cls-30" d="M315.19,98.78c-1.97-2.56-2.84-11.85-3.93-11.07-1.17.84-1.02,17.32-2.24,17.76-1.22.44-1.1-7.39-2.38-6.41-1.28.98-2.44,9.09-4.21,12.17-.91,1.59-2.23,3.17-3.3,4.33v3.46l16.05-9.19v-11.05Z"/>
              <path class="cls-1" d="M307.16,88.16s.79,10.41,1.74,14.03c-.18-4.79-1.74-14.03-1.74-14.03Z"/>
              <path class="cls-1" d="M303.8,102.85s-2.8,6.09-3.62,9.62c1.43-2.16,3.25-8.29,3.62-9.62Z"/>
              <path class="cls-1" d="M313.84,84.98s-.27,5.47.67,8.55c.21-3.28-.67-8.55-.67-8.55Z"/>
            </g>
          </g>
        </g>
        <g>
          <path class="cls-22" d="M289.23,157.04l93.95,54.3,68.15-39.43c1.36-.79,1.36-2.75,0-3.53l-88.6-51.09c-1.43-.82-3.18-.82-4.6,0l-68.89,39.74Z"/>
          <path class="cls-5" d="M451.32,171.91l-68.15,39.43v4.15l-4.15,2.41v4.15l-4.15,2.41v4.15l-4.15,2.41v4.15l80.61-46.67s1.01-.61,1.01-1.87v-16.4c-.15,1.51-1.01,1.66-1.01,1.66Z"/>
          <polygon class="cls-25" points="289.23 157.04 289.23 161.19 383.18 215.49 383.18 211.34 289.23 157.04"/>
          <polygon class="cls-22" points="285.08 163.6 289.23 161.19 383.18 215.49 379.02 217.91 285.08 163.6"/>
          <polygon class="cls-33" points="285.08 163.6 285.08 167.76 379.02 222.06 379.02 217.91 285.08 163.6"/>
          <polygon class="cls-22" points="280.92 170.17 285.08 167.76 379.02 222.06 374.87 224.48 280.92 170.17"/>
          <polygon class="cls-50" points="280.92 170.17 280.92 174.33 374.87 228.63 374.87 224.48 280.92 170.17"/>
          <polygon class="cls-22" points="276.77 176.74 280.92 174.33 374.87 228.63 370.72 231.04 276.77 176.74"/>
          <polygon class="cls-17" points="276.77 176.74 276.77 180.89 370.72 235.2 370.72 231.04 276.77 176.74"/>
          <path class="cls-27" d="M298.27,158.16c-.71-.41-.71-1.08,0-1.5s1.88-.42,2.58,0c.7.42.7,1.09,0,1.5s-1.87.41-2.58,0ZM306.52,154.9c.71-.41.71-1.08,0-1.5-.7-.42-1.87-.42-2.58,0s-.72,1.09,0,1.5c.71.41,1.87.41,2.58,0ZM312.18,151.64c.71-.41.71-1.08,0-1.5-.7-.42-1.87-.42-2.58,0s-.72,1.09,0,1.5c.71.41,1.87.41,2.58,0ZM317.85,148.37c.71-.41.71-1.08,0-1.5-.7-.42-1.87-.42-2.58,0s-.72,1.09,0,1.5c.71.41,1.87.41,2.58,0ZM323.52,145.11c.71-.41.71-1.08,0-1.5-.7-.42-1.87-.42-2.58,0s-.72,1.09,0,1.5,1.87.41,2.58,0ZM329.19,141.85c.71-.41.71-1.08,0-1.5-.7-.42-1.87-.42-2.58,0s-.72,1.09,0,1.5c.71.41,1.87.41,2.58,0ZM334.86,138.58c.71-.41.71-1.08,0-1.5-.7-.42-1.87-.42-2.58,0-.72.42-.72,1.09,0,1.5.71.41,1.87.41,2.58,0ZM340.53,135.32c.71-.41.71-1.08,0-1.5s-1.87-.42-2.58,0-.72,1.09,0,1.5,1.87.41,2.58,0ZM346.19,132.06c.71-.41.71-1.08,0-1.5-.7-.42-1.87-.42-2.58,0s-.72,1.09,0,1.5c.71.41,1.87.41,2.58,0ZM351.86,128.8c.71-.41.71-1.08,0-1.5s-1.87-.42-2.58,0c-.72.42-.72,1.09,0,1.5.71.41,1.87.41,2.58,0ZM357.53,125.53c.71-.41.71-1.08,0-1.5-.7-.42-1.87-.42-2.58,0-.72.42-.72,1.09,0,1.5.71.41,1.87.41,2.58,0ZM363.2,122.27c.71-.41.71-1.08,0-1.5-.7-.42-1.87-.42-2.58,0-.72.42-.72,1.09,0,1.5s1.87.41,2.58,0ZM307.74,162.13c.71-.41.71-1.08,0-1.5-.7-.42-1.87-.42-2.58,0-.72.42-.72,1.09,0,1.5.71.41,1.87.41,2.58,0ZM313.41,158.87c.71-.41.71-1.08,0-1.5-.7-.42-1.87-.42-2.58,0s-.72,1.09,0,1.5c.71.41,1.87.41,2.58,0ZM319.08,155.61c.71-.41.71-1.08,0-1.5-.7-.42-1.87-.42-2.58,0-.72.42-.72,1.09,0,1.5.71.41,1.87.41,2.58,0ZM324.74,152.34c.71-.41.71-1.08,0-1.5-.7-.42-1.87-.42-2.58,0-.72.42-.72,1.09,0,1.5.71.41,1.87.41,2.58,0ZM330.41,149.08c.71-.41.71-1.08,0-1.5-.7-.42-1.87-.42-2.58,0-.72.42-.72,1.09,0,1.5s1.87.41,2.58,0ZM336.08,145.82c.71-.41.71-1.08,0-1.5-.7-.42-1.87-.42-2.58,0s-.72,1.09,0,1.5c.71.41,1.87.41,2.58,0ZM341.75,142.56c.71-.41.71-1.08,0-1.5s-1.87-.42-2.58,0c-.72.42-.72,1.09,0,1.5s1.87.41,2.58,0ZM347.42,139.29c.71-.41.71-1.08,0-1.5-.7-.42-1.87-.42-2.58,0s-.72,1.09,0,1.5c.71.41,1.87.41,2.58,0ZM353.08,136.03c.71-.41.71-1.08,0-1.5-.7-.42-1.87-.42-2.58,0-.72.42-.72,1.09,0,1.5.71.41,1.87.41,2.58,0ZM358.75,132.77c.71-.41.71-1.08,0-1.5-.7-.42-1.87-.42-2.58,0-.72.42-.72,1.09,0,1.5.71.41,1.87.41,2.58,0ZM364.42,129.5c.71-.41.71-1.08,0-1.5-.7-.42-1.87-.42-2.58,0-.72.42-.72,1.09,0,1.5s1.87.41,2.58,0ZM370.09,126.24c.71-.41.71-1.08,0-1.5-.7-.42-1.87-.42-2.58,0-.72.42-.72,1.09,0,1.5.71.41,1.87.41,2.58,0ZM314.63,166.1c.71-.41.71-1.08,0-1.5-.7-.42-1.87-.42-2.58,0-.72.42-.72,1.09,0,1.5.71.41,1.87.41,2.58,0ZM320.3,162.84c.71-.41.71-1.08,0-1.5-.7-.42-1.87-.42-2.58,0s-.72,1.09,0,1.5c.71.41,1.87.41,2.58,0ZM325.97,159.58c.71-.41.71-1.08,0-1.5-.7-.42-1.87-.42-2.58,0-.72.42-.72,1.09,0,1.5.71.41,1.87.41,2.58,0ZM331.64,156.32c.71-.41.71-1.08,0-1.5s-1.87-.42-2.58,0-.72,1.09,0,1.5,1.87.41,2.58,0ZM337.3,153.05c.71-.41.71-1.08,0-1.5-.7-.42-1.87-.42-2.58,0-.72.42-.72,1.09,0,1.5.71.41,1.87.41,2.58,0ZM342.97,149.79c.71-.41.71-1.08,0-1.5-.7-.42-1.87-.42-2.58,0s-.72,1.09,0,1.5c.71.41,1.87.41,2.58,0ZM348.64,146.53c.71-.41.71-1.08,0-1.5-.7-.42-1.87-.42-2.58,0-.72.42-.72,1.09,0,1.5.71.41,1.87.41,2.58,0ZM354.31,143.26c.71-.41.71-1.08,0-1.5-.7-.42-1.87-.42-2.58,0-.72.42-.72,1.09,0,1.5.71.41,1.87.41,2.58,0ZM359.98,140c.71-.41.71-1.08,0-1.5-.7-.42-1.87-.42-2.58,0-.72.42-.72,1.09,0,1.5.71.41,1.87.41,2.58,0ZM365.64,136.74c.71-.41.71-1.08,0-1.5-.7-.42-1.87-.42-2.58,0-.72.42-.72,1.09,0,1.5.71.41,1.87.41,2.58,0ZM371.31,133.48c.71-.41.71-1.08,0-1.5-.7-.42-1.87-.42-2.58,0-.72.42-.72,1.09,0,1.5s1.87.41,2.58,0ZM376.98,130.21c.71-.41.71-1.08,0-1.5-.7-.42-1.87-.42-2.58,0-.72.42-.72,1.09,0,1.5.71.41,1.87.41,2.58,0ZM321.52,170.08c.71-.41.71-1.08,0-1.5-.7-.42-1.87-.42-2.58,0-.72.42-.72,1.09,0,1.5.71.41,1.87.41,2.58,0ZM327.19,166.81c.71-.41.71-1.08,0-1.5-.7-.42-1.87-.42-2.58,0s-.72,1.09,0,1.5c.71.41,1.87.41,2.58,0ZM332.86,163.55c.71-.41.71-1.08,0-1.5-.7-.42-1.87-.42-2.58,0-.72.42-.72,1.09,0,1.5s1.87.41,2.58,0ZM338.53,160.29c.71-.41.71-1.08,0-1.5-.7-.42-1.87-.42-2.58,0s-.72,1.09,0,1.5c.71.41,1.87.41,2.58,0ZM344.2,157.02c.71-.41.71-1.08,0-1.5-.7-.42-1.87-.42-2.58,0-.72.42-.72,1.09,0,1.5.71.41,1.87.41,2.58,0ZM349.86,153.76c.71-.41.71-1.08,0-1.5-.7-.42-1.87-.42-2.58,0s-.72,1.09,0,1.5c.71.41,1.87.41,2.58,0ZM355.53,150.5c.71-.41.71-1.08,0-1.5-.7-.42-1.87-.42-2.58,0-.72.42-.72,1.09,0,1.5.71.41,1.87.41,2.58,0ZM361.2,147.24c.71-.41.71-1.08,0-1.5-.7-.42-1.87-.42-2.58,0-.72.42-.72,1.09,0,1.5.71.41,1.87.41,2.58,0ZM366.87,143.97c.71-.41.71-1.08,0-1.5-.7-.42-1.87-.42-2.58,0-.72.42-.72,1.09,0,1.5.71.41,1.87.41,2.58,0ZM372.54,140.71c.71-.41.71-1.08,0-1.5s-1.87-.42-2.58,0c-.72.42-.72,1.09,0,1.5s1.87.41,2.58,0ZM378.2,137.45c.71-.41.71-1.08,0-1.5-.7-.42-1.87-.42-2.58,0-.72.42-.72,1.09,0,1.5.71.41,1.87.41,2.58,0ZM383.87,134.18c.71-.41.71-1.08,0-1.5-.7-.42-1.87-.42-2.58,0-.72.42-.72,1.09,0,1.5.71.41,1.87.41,2.58,0ZM328.41,174.05c.71-.41.71-1.08,0-1.5-.7-.42-1.87-.42-2.58,0-.72.42-.72,1.09,0,1.5.71.41,1.87.41,2.58,0ZM334.08,170.79c.71-.41.71-1.08,0-1.5-.7-.42-1.87-.42-2.58,0s-.72,1.09,0,1.5,1.87.41,2.58,0ZM339.75,167.52c.71-.41.71-1.08,0-1.5-.7-.42-1.87-.42-2.58,0-.72.42-.72,1.09,0,1.5.71.41,1.87.41,2.58,0ZM345.42,164.26c.71-.41.71-1.08,0-1.5-.7-.42-1.87-.42-2.58,0s-.72,1.09,0,1.5,1.87.41,2.58,0ZM351.09,161c.71-.41.71-1.08,0-1.5-.7-.42-1.87-.42-2.58,0-.72.42-.72,1.09,0,1.5s1.87.41,2.58,0ZM356.76,157.73c.71-.41.71-1.08,0-1.5-.7-.42-1.87-.42-2.58,0-.72.42-.72,1.09,0,1.5.71.41,1.87.41,2.58,0ZM362.42,154.47c.71-.41.71-1.08,0-1.5-.7-.42-1.87-.42-2.58,0-.72.42-.72,1.09,0,1.5.71.41,1.87.41,2.58,0ZM368.09,151.21c.71-.41.71-1.08,0-1.5-.7-.42-1.87-.42-2.58,0-.72.42-.72,1.09,0,1.5.71.41,1.87.41,2.58,0ZM373.76,147.95c.71-.41.71-1.08,0-1.5-.7-.42-1.87-.42-2.58,0-.72.42-.72,1.09,0,1.5s1.87.41,2.58,0ZM379.43,144.68c.71-.41.71-1.08,0-1.5-.7-.42-1.87-.42-2.58,0-.72.42-.72,1.09,0,1.5.71.41,1.87.41,2.58,0ZM385.1,141.42c.71-.41.71-1.08,0-1.5-.7-.42-1.87-.42-2.58,0-.72.42-.72,1.09,0,1.5s1.87.41,2.58,0ZM390.76,138.16c.71-.41.71-1.08,0-1.5-.7-.42-1.87-.42-2.58,0-.72.42-.72,1.09,0,1.5.71.41,1.87.41,2.58,0ZM335.31,178.02c.71-.41.71-1.08,0-1.5-.7-.42-1.87-.42-2.58,0s-.72,1.09,0,1.5,1.87.41,2.58,0ZM340.97,174.76c.71-.41.71-1.08,0-1.5-.7-.42-1.87-.42-2.58,0s-.72,1.09,0,1.5,1.87.41,2.58,0ZM346.64,171.49c.71-.41.71-1.08,0-1.5-.7-.42-1.87-.42-2.58,0-.72.42-.72,1.09,0,1.5.71.41,1.87.41,2.58,0ZM352.31,168.23c.71-.41.71-1.08,0-1.5-.7-.42-1.87-.42-2.58,0s-.72,1.09,0,1.5,1.87.41,2.58,0ZM357.98,164.97c.71-.41.71-1.08,0-1.5-.7-.42-1.87-.42-2.58,0s-.72,1.09,0,1.5c.71.41,1.87.41,2.58,0ZM363.65,161.71c.71-.41.71-1.08,0-1.5s-1.87-.42-2.58,0c-.72.42-.72,1.09,0,1.5.71.41,1.87.41,2.58,0ZM369.32,158.44c.71-.41.71-1.08,0-1.5-.7-.42-1.87-.42-2.58,0-.72.42-.72,1.09,0,1.5.71.41,1.87.41,2.58,0ZM374.98,155.18c.71-.41.71-1.08,0-1.5-.7-.42-1.87-.42-2.58,0-.72.42-.72,1.09,0,1.5s1.87.41,2.58,0ZM380.65,151.92c.71-.41.71-1.08,0-1.5-.7-.42-1.87-.42-2.58,0-.72.42-.72,1.09,0,1.5.71.41,1.87.41,2.58,0ZM386.32,148.65c.71-.41.71-1.08,0-1.5-.7-.42-1.87-.42-2.58,0-.72.42-.72,1.09,0,1.5s1.87.41,2.58,0ZM391.99,145.39c.71-.41.71-1.08,0-1.5-.7-.42-1.87-.42-2.58,0-.72.42-.72,1.09,0,1.5.71.41,1.87.41,2.58,0ZM397.66,142.13c.71-.41.71-1.08,0-1.5-.7-.42-1.87-.42-2.58,0s-.72,1.09,0,1.5,1.87.41,2.58,0ZM342.2,181.99c.71-.41.71-1.08,0-1.5s-1.87-.42-2.58,0-.72,1.09,0,1.5c.71.41,1.87.41,2.58,0ZM347.87,178.73c.71-.41.71-1.08,0-1.5-.7-.42-1.87-.42-2.58,0s-.72,1.09,0,1.5c.71.41,1.87.41,2.58,0ZM353.53,175.47c.71-.41.71-1.08,0-1.5s-1.87-.42-2.58,0-.72,1.09,0,1.5c.71.41,1.87.41,2.58,0ZM359.2,172.2c.71-.41.71-1.08,0-1.5-.7-.42-1.87-.42-2.58,0s-.72,1.09,0,1.5c.71.41,1.87.41,2.58,0ZM364.87,168.94c.71-.41.71-1.08,0-1.5-.7-.42-1.87-.42-2.58,0-.72.42-.72,1.09,0,1.5.71.41,1.87.41,2.58,0ZM370.54,165.68c.71-.41.71-1.08,0-1.5-.7-.42-1.87-.42-2.58,0-.72.42-.72,1.09,0,1.5.71.41,1.87.41,2.58,0ZM376.21,162.41c.71-.41.71-1.08,0-1.5-.7-.42-1.87-.42-2.58,0-.72.42-.72,1.09,0,1.5s1.87.41,2.58,0ZM381.88,159.15c.71-.41.71-1.08,0-1.5-.7-.42-1.87-.42-2.58,0-.72.42-.72,1.09,0,1.5.71.41,1.87.41,2.58,0ZM387.54,155.89c.71-.41.71-1.08,0-1.5-.7-.42-1.87-.42-2.58,0-.72.42-.72,1.09,0,1.5s1.87.41,2.58,0ZM393.21,152.63c.71-.41.71-1.08,0-1.5-.7-.42-1.87-.42-2.58,0-.72.42-.72,1.09,0,1.5s1.87.41,2.58,0ZM398.88,149.36c.71-.41.71-1.08,0-1.5-.7-.42-1.87-.42-2.58,0-.72.42-.72,1.09,0,1.5.71.41,1.87.41,2.58,0ZM404.55,146.1c.71-.41.71-1.08,0-1.5-.7-.42-1.87-.42-2.58,0s-.72,1.09,0,1.5,1.87.41,2.58,0ZM349.09,185.96c.71-.41.71-1.08,0-1.5-.7-.42-1.87-.42-2.58,0s-.72,1.09,0,1.5c.71.41,1.87.41,2.58,0ZM354.76,182.7c.71-.41.71-1.08,0-1.5-.7-.42-1.87-.42-2.58,0-.72.42-.72,1.09,0,1.5.71.41,1.87.41,2.58,0ZM360.43,179.44c.71-.41.71-1.08,0-1.5-.7-.42-1.87-.42-2.58,0s-.72,1.09,0,1.5c.71.41,1.87.41,2.58,0ZM366.09,176.17c.71-.41.71-1.08,0-1.5-.7-.42-1.87-.42-2.58,0-.72.42-.72,1.09,0,1.5.71.41,1.87.41,2.58,0ZM371.76,172.91c.71-.41.71-1.08,0-1.5-.7-.42-1.87-.42-2.58,0-.72.42-.72,1.09,0,1.5.71.41,1.87.41,2.58,0ZM377.43,169.65c.71-.41.71-1.08,0-1.5-.7-.42-1.87-.42-2.58,0-.72.42-.72,1.09,0,1.5s1.87.41,2.58,0ZM383.1,166.39c.71-.41.71-1.08,0-1.5-.7-.42-1.87-.42-2.58,0-.72.42-.72,1.09,0,1.5.71.41,1.87.41,2.58,0ZM388.77,163.12c.71-.41.71-1.08,0-1.5-.7-.42-1.87-.42-2.58,0-.72.42-.72,1.09,0,1.5.71.41,1.87.41,2.58,0ZM394.44,159.86c.71-.41.71-1.08,0-1.5-.7-.42-1.87-.42-2.58,0-.72.42-.72,1.09,0,1.5.71.41,1.87.41,2.58,0ZM400.1,156.6c.71-.41.71-1.08,0-1.5-.7-.42-1.87-.42-2.58,0-.72.42-.72,1.09,0,1.5.71.41,1.87.41,2.58,0ZM405.77,153.33c.71-.41.71-1.08,0-1.5s-1.87-.42-2.58,0-.72,1.09,0,1.5c.71.41,1.87.41,2.58,0ZM411.44,150.07c.71-.41.71-1.08,0-1.5-.7-.42-1.87-.42-2.58,0-.72.42-.72,1.09,0,1.5.71.41,1.87.41,2.58,0ZM355.98,189.93c.71-.41.71-1.08,0-1.5-.7-.42-1.87-.42-2.58,0s-.72,1.09,0,1.5,1.87.41,2.58,0ZM361.65,186.67c.71-.41.71-1.08,0-1.5-.7-.42-1.87-.42-2.58,0-.72.42-.72,1.09,0,1.5.71.41,1.87.41,2.58,0ZM367.32,183.41c.71-.41.71-1.08,0-1.5-.7-.42-1.87-.42-2.58,0-.72.42-.72,1.09,0,1.5.71.41,1.87.41,2.58,0ZM372.99,180.15c.71-.41.71-1.08,0-1.5-.7-.42-1.87-.42-2.58,0-.72.42-.72,1.09,0,1.5.71.41,1.87.41,2.58,0ZM378.65,176.88c.71-.41.71-1.08,0-1.5-.7-.42-1.87-.42-2.58,0-.72.42-.72,1.09,0,1.5.71.41,1.87.41,2.58,0ZM384.32,173.62c.71-.41.71-1.08,0-1.5-.7-.42-1.87-.42-2.58,0-.72.42-.72,1.09,0,1.5s1.87.41,2.58,0ZM389.99,170.36c.71-.41.71-1.08,0-1.5-.7-.42-1.87-.42-2.58,0-.72.42-.72,1.09,0,1.5.71.41,1.87.41,2.58,0ZM395.66,167.09c.71-.41.71-1.08,0-1.5-.7-.42-1.87-.42-2.58,0-.72.42-.72,1.09,0,1.5s1.87.41,2.58,0ZM401.33,163.83c.71-.41.71-1.08,0-1.5-.7-.42-1.87-.42-2.58,0-.72.42-.72,1.09,0,1.5.71.41,1.87.41,2.58,0ZM407,160.57c.71-.41.71-1.08,0-1.5-.7-.42-1.87-.42-2.58,0-.72.42-.72,1.09,0,1.5s1.87.41,2.58,0ZM412.66,157.31c.71-.41.71-1.08,0-1.5-.7-.42-1.87-.42-2.58,0s-.72,1.09,0,1.5c.71.41,1.87.41,2.58,0ZM418.33,154.04c.71-.41.71-1.08,0-1.5-.7-.42-1.87-.42-2.58,0-.72.42-.72,1.09,0,1.5.71.41,1.87.41,2.58,0ZM362.87,193.91c.71-.41.71-1.08,0-1.5-.7-.42-1.87-.42-2.58,0s-.72,1.09,0,1.5,1.87.41,2.58,0ZM368.54,190.64c.71-.41.71-1.08,0-1.5-.7-.42-1.87-.42-2.58,0-.72.42-.72,1.09,0,1.5.71.41,1.87.41,2.58,0ZM374.21,187.38c.71-.41.71-1.08,0-1.5-.7-.42-1.87-.42-2.58,0-.72.42-.72,1.09,0,1.5.71.41,1.87.41,2.58,0ZM379.88,184.12c.71-.41.71-1.08,0-1.5-.7-.42-1.87-.42-2.58,0-.72.42-.72,1.09,0,1.5.71.41,1.87.41,2.58,0ZM385.55,180.86c.71-.41.71-1.08,0-1.5s-1.87-.42-2.58,0c-.72.42-.72,1.09,0,1.5s1.87.41,2.58,0ZM391.21,177.59c.71-.41.71-1.08,0-1.5-.7-.42-1.87-.42-2.58,0-.72.42-.72,1.09,0,1.5.71.41,1.87.41,2.58,0ZM396.88,174.33c.71-.41.71-1.08,0-1.5-.7-.42-1.87-.42-2.58,0-.72.42-.72,1.09,0,1.5s1.87.41,2.58,0ZM402.55,171.07c.71-.41.71-1.08,0-1.5-.7-.42-1.87-.42-2.58,0-.72.42-.72,1.09,0,1.5.71.41,1.87.41,2.58,0ZM408.22,167.8c.71-.41.71-1.08,0-1.5-.7-.42-1.87-.42-2.58,0s-.72,1.09,0,1.5,1.87.41,2.58,0ZM413.89,164.54c.71-.41.71-1.08,0-1.5-.7-.42-1.87-.42-2.58,0-.72.42-.72,1.09,0,1.5.71.41,1.87.41,2.58,0ZM419.56,161.28c.71-.41.71-1.08,0-1.5-.7-.42-1.87-.42-2.58,0s-.72,1.09,0,1.5c.71.41,1.87.41,2.58,0ZM425.22,158.02c.71-.41.71-1.08,0-1.5-.7-.42-1.87-.42-2.58,0-.72.42-.72,1.09,0,1.5.71.41,1.87.41,2.58,0ZM369.76,197.88c.71-.41.71-1.08,0-1.5-.7-.42-1.87-.42-2.58,0s-.72,1.09,0,1.5c.71.41,1.87.41,2.58,0ZM375.43,194.62c.71-.41.71-1.08,0-1.5-.7-.42-1.87-.42-2.58,0-.72.42-.72,1.09,0,1.5.71.41,1.87.41,2.58,0ZM381.1,191.35c.71-.41.71-1.08,0-1.5-.7-.42-1.87-.42-2.58,0-.72.42-.72,1.09,0,1.5.71.41,1.87.41,2.58,0ZM386.77,188.09c.71-.41.71-1.08,0-1.5-.7-.42-1.87-.42-2.58,0-.72.42-.72,1.09,0,1.5s1.87.41,2.58,0ZM392.44,184.83c.71-.41.71-1.08,0-1.5-.7-.42-1.87-.42-2.58,0-.72.42-.72,1.09,0,1.5.71.41,1.87.41,2.58,0ZM398.11,181.56c.71-.41.71-1.08,0-1.5-.7-.42-1.87-.42-2.58,0-.72.42-.72,1.09,0,1.5s1.87.41,2.58,0ZM403.77,178.3c.71-.41.71-1.08,0-1.5-.7-.42-1.87-.42-2.58,0-.72.42-.72,1.09,0,1.5.71.41,1.87.41,2.58,0ZM409.44,175.04c.71-.41.71-1.08,0-1.5-.7-.42-1.87-.42-2.58,0-.72.42-.72,1.09,0,1.5s1.87.41,2.58,0ZM415.11,171.78c.71-.41.71-1.08,0-1.5-.7-.42-1.87-.42-2.58,0s-.72,1.09,0,1.5,1.87.41,2.58,0ZM420.78,168.51c.71-.41.71-1.08,0-1.5-.7-.42-1.87-.42-2.58,0-.72.42-.72,1.09,0,1.5.71.41,1.87.41,2.58,0ZM426.45,165.25c.71-.41.71-1.08,0-1.5-.7-.42-1.87-.42-2.58,0-.72.42-.72,1.09,0,1.5.71.41,1.87.41,2.58,0ZM432.12,161.99c.71-.41.71-1.08,0-1.5-.7-.42-1.87-.42-2.58,0-.72.42-.72,1.09,0,1.5.71.41,1.87.41,2.58,0ZM376.66,201.85c.71-.41.71-1.08,0-1.5-.7-.42-1.87-.42-2.58,0-.72.42-.72,1.09,0,1.5.71.41,1.87.41,2.58,0ZM382.32,198.59c.71-.41.71-1.08,0-1.5-.7-.42-1.87-.42-2.58,0-.72.42-.72,1.09,0,1.5.71.41,1.87.41,2.58,0ZM387.99,195.32c.71-.41.71-1.08,0-1.5-.7-.42-1.87-.42-2.58,0-.72.42-.72,1.09,0,1.5s1.87.41,2.58,0ZM393.66,192.06c.71-.41.71-1.08,0-1.5-.7-.42-1.87-.42-2.58,0-.72.42-.72,1.09,0,1.5.71.41,1.87.41,2.58,0ZM399.33,188.8c.71-.41.71-1.08,0-1.5-.7-.42-1.87-.42-2.58,0-.72.42-.72,1.09,0,1.5s1.87.41,2.58,0ZM405,185.54c.71-.41.71-1.08,0-1.5-.7-.42-1.87-.42-2.58,0-.72.42-.72,1.09,0,1.5s1.87.41,2.58,0ZM410.67,182.27c.71-.41.71-1.08,0-1.5-.7-.42-1.87-.42-2.58,0-.72.42-.72,1.09,0,1.5.71.41,1.87.41,2.58,0ZM416.33,179.01c.71-.41.71-1.08,0-1.5-.7-.42-1.87-.42-2.58,0-.72.42-.72,1.09,0,1.5s1.87.41,2.58,0ZM422,175.75c.71-.41.71-1.08,0-1.5-.7-.42-1.87-.42-2.58,0s-.72,1.09,0,1.5c.71.41,1.87.41,2.58,0ZM427.67,172.48c.71-.41.71-1.08,0-1.5-.7-.42-1.87-.42-2.58,0-.72.42-.72,1.09,0,1.5.71.41,1.87.41,2.58,0ZM433.34,169.22c.71-.41.71-1.08,0-1.5-.7-.42-1.87-.42-2.58,0s-.72,1.09,0,1.5c.71.41,1.87.41,2.58,0ZM439.01,165.96c.71-.41.71-1.08,0-1.5-.7-.42-1.87-.42-2.58,0-.72.42-.72,1.09,0,1.5s1.87.41,2.58,0ZM383.55,205.82c.71-.41.71-1.08,0-1.5-.7-.42-1.87-.42-2.58,0-.72.42-.72,1.09,0,1.5.71.41,1.87.41,2.58,0ZM389.22,202.56c.71-.41.71-1.08,0-1.5-.7-.42-1.87-.42-2.58,0-.72.42-.72,1.09,0,1.5.71.41,1.87.41,2.58,0ZM394.88,199.3c.71-.41.71-1.08,0-1.5-.7-.42-1.87-.42-2.58,0-.72.42-.72,1.09,0,1.5s1.87.41,2.58,0ZM400.55,196.03c.71-.41.71-1.08,0-1.5-.7-.42-1.87-.42-2.58,0-.72.42-.72,1.09,0,1.5.71.41,1.87.41,2.58,0ZM406.22,192.77c.71-.41.71-1.08,0-1.5-.7-.42-1.87-.42-2.58,0-.72.42-.72,1.09,0,1.5s1.87.41,2.58,0ZM411.89,189.51c.71-.41.71-1.08,0-1.5-.7-.42-1.87-.42-2.58,0-.72.42-.72,1.09,0,1.5.71.41,1.87.41,2.58,0ZM417.56,186.24c.71-.41.71-1.08,0-1.5s-1.87-.42-2.58,0-.72,1.09,0,1.5,1.87.41,2.58,0ZM423.23,182.98c.71-.41.71-1.08,0-1.5-.7-.42-1.87-.42-2.58,0s-.72,1.09,0,1.5c.71.41,1.87.41,2.58,0ZM428.89,179.72c.71-.41.71-1.08,0-1.5-.7-.42-1.87-.42-2.58,0s-.72,1.09,0,1.5c.71.41,1.87.41,2.58,0ZM434.56,176.46c.71-.41.71-1.08,0-1.5-.7-.42-1.87-.42-2.58,0s-.72,1.09,0,1.5c.71.41,1.87.41,2.58,0ZM440.23,173.19c.71-.41.71-1.08,0-1.5-.7-.42-1.87-.42-2.58,0s-.72,1.09,0,1.5,1.87.41,2.58,0ZM445.9,169.93c.71-.41.71-1.08,0-1.5-.7-.42-1.87-.42-2.58,0-.72.42-.72,1.09,0,1.5.71.41,1.87.41,2.58,0Z"/>
        </g>
        <path class="cls-19" d="M352.54,242.38c-.37,0-.73-.1-1.07-.29-.67-.39-1.07-1.08-1.07-1.85v-10.69h.46v10.69c0,.61.31,1.15.84,1.45.52.3,1.15.3,1.67,0l88.98-51.36c1.2-.69,1.95-1.99,1.95-3.37v-9.61c0-1.75-.95-3.38-2.47-4.25l-17.18-9.8c-1.71-.97-2.77-2.8-2.77-4.76v-14.25h.46v14.25c0,1.8.97,3.47,2.53,4.36l17.18,9.8c1.67.95,2.7,2.73,2.7,4.65v9.61c0,1.55-.83,3-2.18,3.77l-88.98,51.36c-.33.19-.7.29-1.07.29Z"/>
        <g>
          <g>
            <path class="cls-30" d="M413.27,125l-19.92-14.92-2.97,1.7v26.24c0,.97-.52,1.87-1.36,2.35l-11.01,6.33v3.45l22.89,12.25,10.28-5.82,3.32-4.4-1.24-27.18Z"/>
            <polygon class="cls-2" points="378.01 146.71 400.9 159.93 400.9 163.38 378.01 150.15 378.01 146.71"/>
            <path class="cls-19" d="M413.27,125v26.24c0,.97-.52,1.87-1.36,2.35l-11.01,6.33v3.45l12.01-6.97c2.06-1.2,3.34-3.41,3.34-5.79v-27.31l-2.97,1.7Z"/>
            <polygon class="cls-29" points="390.37 134.03 413.27 151.24 416.24 150.62 416.15 136.86 390.37 125.84 390.37 134.03"/>
          </g>
          <g>
            <path class="cls-19" d="M445.36,87.8l-74.48-42.93c-.54-.31-1.02-.29-1.35-.02h0s-1.9,1.22-1.9,1.22l1.47,1.13v65.11c0,1.19.8,2.61,1.78,3.17l72.62,41.86,1.04,2.52,1.94-1.29c.4-.16.66-.61.66-1.28v-66.32c0-1.19-.8-2.61-1.78-3.17Z"/>
            <path class="cls-30" d="M443.34,159.73l-74.48-42.93c-.98-.57-1.78-1.99-1.78-3.17V47.31c0-1.19.8-1.69,1.78-1.12l74.48,42.93c.98.57,1.78,1.99,1.78,3.17v66.32c0,1.19-.8,1.69-1.78,1.12Z"/>
            <path class="cls-23" d="M442.13,151.29l-72.06-41.54c-.54-.31-.97-1.09-.97-1.73v-58.25c0-.65.44-.92.97-.61l72.06,41.54c.54.31.97,1.09.97,1.73v58.25c0,.65-.44.92-.97.61Z"/>
            <polygon class="cls-22" points="405.9 123.88 377.31 107.41 377.31 65.32 405.9 81.8 405.9 123.88"/>
            <path class="cls-22" d="M442.13,90.68l-29.34-16.91v60.6l29.34,16.91c.54.31.97.03.97-.61v-58.25c0-.65-.44-1.43-.97-1.73Z"/>
            <path class="cls-44" d="M442.13,90.68l-72.06-41.54c-.54-.31-.97-.03-.97.61v2.79l74.01,42.66v-2.79c0-.65-.44-1.43-.97-1.73Z"/>
            <g>
              <path class="cls-7" d="M447.96,129.98l-29.95-17.26c-.85-.49-1.53-1.71-1.53-2.73v-40.83c0-1.02.69-1.45,1.53-.97l29.95,17.26c.85.49,1.53,1.71,1.53,2.73v40.83c0,1.02-.69,1.45-1.53.97Z"/>
              <path class="cls-27" d="M446.43,130.62l-29.95-17.26c-.85-.49-1.53-1.71-1.53-2.73v-40.83c0-1.02.69-1.45,1.53-.97l29.95,17.26c.85.49,1.53,1.71,1.53,2.73v40.83c0,1.02-.69,1.45-1.53.97Z"/>
              <path class="cls-30" d="M446.43,86.09l-29.95-17.26c-.85-.49-1.53-.05-1.53.97v1.98l33.01,19.03v-1.98c0-1.02-.69-2.24-1.53-2.73Z"/>
              <g>
                <path class="cls-64" d="M418.53,71.92c0,.37-.25.52-.55.35-.3-.17-.55-.61-.55-.98s.25-.52.55-.35c.3.17.55.61.55.98Z"/>
                <polygon class="cls-64" points="420.56 73.75 419.46 73.12 419.46 71.8 420.56 72.43 420.56 73.75"/>
                <g>
                  <line class="cls-64" x1="421.47" y1="72.96" x2="422.61" y2="74.93"/>
                  <line class="cls-64" x1="422.61" y1="73.61" x2="421.47" y2="74.28"/>
                </g>
              </g>
              <g>
                <g>
                  <path class="cls-44" d="M444.53,94.48l-26.13-15.06c-.26-.15-.46-.52-.46-.83h0c0-.31.21-.44.46-.29l26.13,15.06c.26.15.46.52.46.83h0c0,.31-.21.44-.46.29Z"/>
                  <path class="cls-13" d="M434.87,88.36c0,.56-.37.8-.84.53-.46-.27-.84-.94-.84-1.49s.37-.8.84-.53c.46.27.84.94.84,1.49Z"/>
                </g>
                <g>
                  <path class="cls-1" d="M444.53,99.17l-26.13-15.06c-.26-.15-.46-.52-.46-.83h0c0-.31.21-.44.46-.29l26.13,15.06c.26.15.46.52.46.83h0c0,.31-.21.44-.46.29Z"/>
                  <path class="cls-13" d="M434.87,93.04c0,.56-.37.8-.84.53-.46-.27-.84-.94-.84-1.49s.37-.8.84-.53c.46.27.84.94.84,1.49Z"/>
                </g>
                <g>
                  <path class="cls-30" d="M444.53,103.85l-26.13-15.06c-.26-.15-.46-.52-.46-.83h0c0-.31.21-.44.46-.29l26.13,15.06c.26.15.46.52.46.83h0c0,.31-.21.44-.46.29Z"/>
                  <path class="cls-13" d="M434.87,97.72c0,.56-.37.8-.84.53-.46-.27-.84-.94-.84-1.49s.37-.8.84-.53c.46.27.84.94.84,1.49Z"/>
                </g>
                <g>
                  <path class="cls-9" d="M444.53,108.53l-26.13-15.06c-.26-.15-.46-.52-.46-.83h0c0-.31.21-.44.46-.29l26.13,15.06c.26.15.46.52.46.83h0c0,.31-.21.44-.46.29Z"/>
                  <path class="cls-13" d="M434.87,102.41c0,.56-.37.8-.84.53-.46-.27-.84-.94-.84-1.49s.37-.8.84-.53c.46.27.84.94.84,1.49Z"/>
                </g>
              </g>
              <path class="cls-23" d="M414.96,96.79v13.84c0,1.02.69,2.24,1.53,2.73l29.95,17.26c.85.49,1.53.05,1.53-.97v-13.84l-33.01-19.03Z"/>
              <g>
                <g>
                  <path class="cls-30" d="M422.33,105.55c0,1.08-.73,1.54-1.62,1.03-.9-.52-1.62-1.81-1.62-2.9s.73-1.54,1.62-1.03c.9.52,1.62,1.81,1.62,2.9Z"/>
                  <path class="cls-40" d="M427.71,108.65c0,1.08-.73,1.54-1.62,1.03s-1.62-1.81-1.62-2.9.73-1.54,1.62-1.03c.9.52,1.62,1.81,1.62,2.9Z"/>
                  <path class="cls-2" d="M433.08,111.75c0,1.08-.73,1.54-1.62,1.03-.9-.52-1.62-1.81-1.62-2.9s.73-1.54,1.62-1.03,1.62,1.81,1.62,2.9Z"/>
                  <path class="cls-54" d="M438.46,114.85c0,1.08-.73,1.54-1.62,1.03-.9-.52-1.62-1.81-1.62-2.9s.73-1.54,1.62-1.03c.9.52,1.62,1.81,1.62,2.9Z"/>
                  <path class="cls-22" d="M443.84,117.95c0,1.08-.73,1.54-1.62,1.03-.9-.52-1.62-1.81-1.62-2.9s.73-1.54,1.62-1.03c.9.52,1.62,1.81,1.62,2.9Z"/>
                </g>
                <g>
                  <path class="cls-10" d="M422.33,111.54c0,1.08-.73,1.54-1.62,1.03-.9-.52-1.62-1.81-1.62-2.9s.73-1.54,1.62-1.03c.9.52,1.62,1.81,1.62,2.9Z"/>
                  <path class="cls-1" d="M427.71,114.64c0,1.08-.73,1.54-1.62,1.03-.9-.52-1.62-1.81-1.62-2.9s.73-1.54,1.62-1.03c.9.52,1.62,1.81,1.62,2.9Z"/>
                  <path class="cls-43" d="M433.08,117.74c0,1.08-.73,1.54-1.62,1.03-.9-.52-1.62-1.81-1.62-2.9s.73-1.54,1.62-1.03c.9.52,1.62,1.81,1.62,2.9Z"/>
                  <path class="cls-26" d="M438.46,120.84c0,1.08-.73,1.54-1.62,1.03s-1.62-1.81-1.62-2.9.73-1.54,1.62-1.03,1.62,1.81,1.62,2.9Z"/>
                  <path class="cls-42" d="M443.84,123.94c0,1.08-.73,1.54-1.62,1.03-.9-.52-1.62-1.81-1.62-2.9s.73-1.54,1.62-1.03c.9.52,1.62,1.81,1.62,2.9Z"/>
                </g>
              </g>
            </g>
            <g>
              <path class="cls-70" d="M371.82,52.14c0,.37-.25.52-.55.35s-.55-.61-.55-.98.25-.52.55-.35c.3.17.55.61.55.98Z"/>
              <polygon class="cls-70" points="373.85 53.97 372.75 53.34 372.75 52.01 373.85 52.65 373.85 53.97"/>
              <g>
                <line class="cls-70" x1="374.77" y1="53.17" x2="375.9" y2="55.15"/>
                <line class="cls-70" x1="375.9" y1="53.83" x2="374.77" y2="54.5"/>
              </g>
            </g>
            <g>
              <path class="cls-7" d="M447.52,155.2l-29.74-17.14c-.9-.52-1.63-1.82-1.63-2.91v-17.9c0-1.09.73-1.55,1.63-1.03l29.74,17.14c.9.52,1.63,1.82,1.63,2.91v17.9c0,1.09-.73,1.55-1.63,1.03Z"/>
              <path class="cls-23" d="M446.33,155.99l-29.74-17.14c-.9-.52-1.63-1.82-1.63-2.91v-17.9c0-1.09.73-1.55,1.63-1.03l29.74,17.14c.9.52,1.63,1.82,1.63,2.91v17.9c0,1.09-.73,1.55-1.63,1.03Z"/>
              <g>
                <path class="cls-67" d="M432.99,133.86c0,1.4-.94,2-2.1,1.33-1.16-.67-2.1-2.35-2.1-3.75s.94-2,2.1-1.33c1.16.67,2.1,2.35,2.1,3.75Z"/>
                <polygon class="cls-1" points="434.14 134.52 430.88 132.65 430.88 128.71 434.14 130.59 434.14 134.52"/>
              </g>
              <g>
                <ellipse class="cls-1" cx="422.83" cy="128.01" rx="1.76" ry="3.04" transform="translate(-10.97 211.62) rotate(-27.75)"/>
                <polygon class="cls-67" points="426.09 129.88 422.83 128.01 422.83 124.07 426.09 125.95 426.09 129.88"/>
              </g>
              <path class="cls-1" d="M438.93,133.35v1.39c-1.16-.67-2.1-.07-2.1,1.33s.94,3.08,2.1,3.75,2.1.07,2.1-1.33l1.15.66v-3.94l-3.26-1.88Z"/>
              <g>
                <ellipse class="cls-67" cx="422.83" cy="136.37" rx="1.76" ry="3.04" transform="translate(-14.86 212.58) rotate(-27.75)"/>
                <polygon class="cls-67" points="426.09 138.25 422.83 136.37 422.83 132.43 426.09 134.31 426.09 138.25"/>
              </g>
              <path class="cls-1" d="M422.83,133.83v2.54l2.1,1.21c0-1.4-.94-3.08-2.1-3.75Z"/>
              <g>
                <path class="cls-1" d="M430.88,138.47c-1.16-.67-2.1-.07-2.1,1.33s.94,3.08,2.1,3.75c1.16.67,2.1.07,2.1-1.33l-2.1-1.21v-2.54Z"/>
                <path class="cls-1" d="M430.88,137.07v1.39c1.16.67,2.1,2.35,2.1,3.75l1.15.66v-3.94l-3.26-1.88Z"/>
              </g>
              <g>
                <path class="cls-1" d="M438.93,143.11c-1.16-.67-2.1-.07-2.1,1.33s.94,3.08,2.1,3.75c1.16.67,2.1.07,2.1-1.33l-2.1-1.21v-2.54Z"/>
                <path class="cls-1" d="M438.93,141.71v1.39c1.16.67,2.1,2.35,2.1,3.75l1.15.66v-3.94l-3.26-1.88Z"/>
                <path class="cls-26" d="M438.93,143.11v2.54l2.1,1.21c0-1.4-.94-3.08-2.1-3.75Z"/>
              </g>
            </g>
            <polygon class="cls-30" points="405.24 122.74 376.65 106.27 376.65 64.18 405.24 80.66 405.24 122.74"/>
            <polygon class="cls-1" points="402.18 110.84 379.71 97.89 379.71 83.12 402.18 96.07 402.18 110.84"/>
            <polygon class="cls-23" points="388.4 77 379.63 71.94 379.63 70.57 388.4 75.63 388.4 77"/>
            <polygon class="cls-23" points="388.4 108.15 379.63 103.09 379.63 101.72 388.4 106.78 388.4 108.15"/>
            <polygon class="cls-23" points="397.12 84.67 379.63 74.59 379.63 73.22 397.12 83.3 397.12 84.67"/>
            <polygon class="cls-23" points="393.42 85.18 379.63 77.24 379.63 75.87 393.42 83.81 393.42 85.18"/>
            <path class="cls-44" d="M379.63,79.66c-1.09-.63-2.1-.86-2.98-.76v12.65c.88,1.11,1.9,2.05,2.98,2.68,3.33,1.92,6.03.21,6.03-3.81s-2.7-8.84-6.03-10.76Z"/>
            <path class="cls-43" d="M379.71,94.27c3.29,1.85,5.95.14,5.95-3.85,0-1.42-.34-2.94-.92-4.4l-5.03-2.9v11.14Z"/>
          </g>
        </g>
        <g>
          <path class="cls-42" d="M321.1,99.87c1.86.2,3.28,3.37,3.93,6.31.65,2.94,1.72,6.44,1.42,8.64-.3,2.2-4.73,8.97-4.73,8.97l-1.05-1.32,2.2-7.96-2.39-5.55.61-9.08Z"/>
          <path class="cls-28" d="M325.03,106.18c-.65-2.94-2.07-6.11-3.93-6.31l-.61,9.08,2.36,5.49c1.4-1.76,2.19-4.5,2.61-6.45-.15-.61-.29-1.22-.42-1.8Z"/>
          <path class="cls-19" d="M315.81,93.19s-.94-.47-1.41.33c-.47.79.37,1.79.2,2.6-.17.81-.59,1.62-.51,2.09.08.47,1.23.81,2.13.78l-.42-5.79Z"/>
          <path class="cls-42" d="M326.64,158.73c.65.07.84-.76,1.2-1.95.36-1.19.93-2.38,1.12-3.33.1-.51-.35-.93-.78-1.2-.5-.32-.86-.81-1.02-1.38-1.3-4.62-2.5-7.54-3.43-9.38-2.14.42-3.22,1.76-3.75,2.86,2.55,4.01,6.09,8.75,6.09,8.75,0,0,.46,2.43.32,3.15-.24,1.27-.4,2.41.25,2.48Z"/>
          <path class="cls-42" d="M311.98,161.52c-.11-.58-.4-1.46-.4-1.46,0,0,.42-5.56.5-10.66-1.28,1.07-3.08,1.14-4.15.64.6,5.13,1.26,9.86,1.26,9.86,0,0-.65.14-1.36.14-.72,0-1.25.02-1.55.3-.46.42,1.98,1.27,3.44,1.88,1.44.6,2.41.1,2.26-.69Z"/>
          <path class="cls-30" d="M327.86,156.78c.36-1.19.93-2.38,1.12-3.33.1-.51-.35-.93-.78-1.2-.25-.16-.47-.36-.64-.6-.28.26-.66.71-.71,1.27l-.76.18s.46,2.43.32,3.15c-.24,1.27-.4,2.41.25,2.48.65.07.84-.76,1.2-1.95Z"/>
          <path class="cls-30" d="M320.35,115.6s3.05,2.55,2.88,6.87c-.17,4.32-.89,15.05-.89,15.05,0,0,2.76,4.71,4.47,9.98-2.51.26-1.63,3.52-6.5,5.29-4.87,1.77-13.44,2.82-13.66.74-.41-3.95-2.22-12.21-1.08-17.64,1.14-5.43,5.53-19.38,5.53-19.38l9.26-.92Z"/>
          <path class="cls-41" d="M321.73,117.22c-.29-.43-1.02-1.27-1.02-1.27l-9.82.93-1.32,4.59c7.05,1.55,11.18-2.79,12.16-4.25Z"/>
          <path class="cls-19" d="M313.65,102.45l-2.41,1.84s-.28,7.9-.85,9.76c-.58,1.87-.68,3.1,1.26,3.94,1.94.84,5.24.87,7.71-.15,2.07-.85,3.16-1.86,2.35-3.13,0,0,1.33-5.22,1.61-7.58.39-3.23-.35-4.38-1.03-6.18-.3-.8-1.13-1.28-1.98-1.14l-.94.16c-2.08.34-4.04,1.19-5.71,2.47Z"/>
          <path class="cls-34" d="M317.8,118.33c-4.11-1.45-3.94-7.07-3.61-9.71.11-.9-.21-1.81-.87-2.43h0l-2.48,4.66c-.12,1.39-.28,2.62-.47,3.22-.58,1.87-.68,3.1,1.26,3.94,1.56.68,3.99.83,6.17.33Z"/>
          <path class="cls-30" d="M309.2,159.89s-.65.14-1.36.14c-.72,0-1.25.02-1.55.3-.46.42,1.98,1.27,3.44,1.88,1.44.6,2.41.1,2.26-.69-.11-.58-.4-1.46-.4-1.46-1.68,1.05-2.39-.16-2.39-.16Z"/>
          <path class="cls-42" d="M318.49,96.99c.58-.74.41-2.75-.69-3.46-1.09-.71-2.79-.26-2.74.86,0,0-.25.85-.35,1.35-.1.5-.56,1.23-.44,1.79.16.71.92.91,1.37.92v2.74s1.16.55,2.51,0c.43-.17,1.02-.67.4-1.15-.18-.76-.65-2.31-.06-3.06Z"/>
          <path class="cls-19" d="M315.06,94.3s.24,1.22.75,1.78c0,0,.19-.41.62-.29.43.12.1,1.29-.36,1.3,0,0,.46.85.27,1.81-.04.22.09.44.31.5.44.12,1.21.21,2.28-.07,1.79-.48,1.2-1.78.78-2.98-.53-1.5-.32-2.64-1.86-3.33-1.31-.59-2.83-.46-2.78,1.27Z"/>
          <path class="cls-28" d="M315.64,98.46c.33.04,1.22-.44,1.22-.44l.17.27s-.62.87-1.39,1.09v-.93Z"/>
          <path class="cls-42" d="M311.23,104.11c-1.96.87-8.02,3.33-8.02,3.33,0,0-4.27-6.27-4.27-7.1,0-1.34-.55-2.25-.75-2.17-.13.05.13.99.13.99,0,0-.74-1.38-.91-1-.35.79.87,2.31.87,2.31,0,0,.11,6.15,2.06,9.68,2.31,4.18,7.96,1.48,10.89,0,2.93-1.48,2.99-7.38,0-6.04Z"/>
          <line class="cls-69" x1="303.21" y1="107.44" x2="301.74" y2="108.04"/>
        </g>
        <g>
          <path class="cls-42" d="M386.3,143.29s.69,1.78.67,2.49c-.02.71-.33-.23-.33-.23v1.26s-.82.12-1.24-.48c-.41-.58-.12-1.79-.12-1.79l-.61-1.65,1.63.4Z"/>
          <path class="cls-42" d="M416.81,109.8s.29-2.16.52-2.88,1.8-2.92,1.91-2.72c.11.2-.71,1.41-.71,1.41,0,0,1.26.57,1,1.42-.25.85-.96,1.1-.96,1.1l-.32,2.49-1.45-.82Z"/>
          <path class="cls-19" d="M390.74,116.4c-1.79-.61-3.73,1.01-4.7,3.24-.97,2.23-3.31,7.84-3.78,12.59-.38,3.8,2.43,11.75,2.43,11.75,0,0,1.47.26,1.82-.52l.25-10.11,3.81-6.27.18-10.67Z"/>
          <path class="cls-34" d="M386.05,119.64c.97-2.23,2.91-3.85,4.7-3.24l-.18,10.67-3.81,6.27c-.49-1.67-2.37-4.32-3.55-5.87.91-3.28,2.19-6.32,2.84-7.83Z"/>
          <path class="cls-19" d="M402.2,188.37s-.55,1.36-.32,2.29c.23.94,1.14,1.16,2.04.79.73-.3,1.32-.88,2.33-1.37,1-.49,3.13-1.47,2.18-2.22-.56-.44-3.7.05-3.7.05l-2.52.45Z"/>
          <path class="cls-19" d="M388.4,181.13s-.55,1.36-.32,2.29c.23.94,1.14,1.16,2.04.79.73-.3,1.32-.88,2.33-1.37,1-.49,3.13-1.47,2.18-2.22-.56-.44-3.7.05-3.7.05l-2.52.45Z"/>
          <path class="cls-1" d="M402.17,137.51s5.23,22.77,3.59,50.51c0,0-2.33,1.94-3.59,1.07-1.26-.87-2.62-22.98-2.81-22.68-.19.29-2.83-10.37-2.83-10.37,0,0-1.05,6.98-1.83,10.15-.91,3.73-3.3,15.43-3.3,15.43,0,0-2.42,1.47-3.19-.09-.78-1.55,1.16-21.71,1.16-21.71,0,0-1.22-21.12.5-24.47l12.29,2.17Z"/>
          <path class="cls-41" d="M389.37,159.81s-.18-3.14-.31-7.19c2.85-3.92,4.57-8.08,4.57-8.08l2.89,11.49s-1.05,6.98-1.83,10.15c-.23.93-.54,2.34-.89,3.95-.23,1.06-.95,1.94-1.94,2.38l-3.65,1.63c.38-6.31,1.15-14.33,1.15-14.33Z"/>
          <path class="cls-41" d="M389.42,136.96c.12-.71.27-1.27.46-1.62l12.29,2.17s.37,1.63.89,4.54c-6.93,3.73-12.28-3.11-13.64-5.09Z"/>
          <path class="cls-19" d="M404.37,126.22c-.15-1.41-.55-2.97-1.96-3.83-1.41-.86-4.58-2.76-4.58-2.76,0,0-1.8-.63-3.39-1.5-1.58-.87-2.44-1.24-3.23-1.58-1.39-.6-3.52.34-3.49,2.49.03,1.96,1.71,15.19,1.71,15.19,0,0-.44.99.52,2.42,1.74,2.62,8.9,4.47,11.29,3.14,2.39-1.32,3.12-13.56,3.12-13.56Z"/>
          <path class="cls-19" d="M402.08,122.18c2.61-.44,9.89-2.74,9.89-2.74l4.4-10.1s1.65-.44,2.13.73c0,0,.22,10.14-2.73,13.78-2.94,3.62-12,6.72-12,6.72,0,0-4.66-2.81-1.69-8.39Z"/>
          <path class="cls-42" d="M393.98,118.92l1.23-2.32-.43-2.39,3.39-2.38,1,2.03-.3.15s.98,1.78-.5,2.51l-.5,3.24c-.78-.03-2.47.5-3.32.2-.85-.3-.57-1.03-.57-1.03Z"/>
          <path class="cls-28" d="M398.37,116.52c-.28.18-.97.04-1.19-.1,0,0,.17.94,1.05.99l.14-.89Z"/>
          <path class="cls-19" d="M395.98,110.3c-1.1.27-1.48,1.5-1.48,1.5,0,0-1.45.2-1.1,2.11.43,2.33,1.94,2.74,1.94,2.74l1.33.37.34-1.57s-.97-.82-.71-1.61.96.04.96.04c0,0,1.51-1.13,1.19-2.41-.32-1.29-1.61-1.38-2.47-1.17Z"/>
        </g>
        <g>
          <polygon class="cls-12" points="369.27 159.2 337.65 177.48 337.65 154.34 369.27 136.06 369.27 159.2"/>
          <g>
            <path class="cls-19" d="M355.83,124.46l-1.1-.57c-.91-.47-1.99-.45-2.88.07l-4.02,2.33c-1.17.68-1.81,1.99-1.63,3.32l.51,3.85,9.13-9Z"/>
            <path class="cls-2" d="M369.27,127.34c0-.7-.27-.84-.71-1.09l-4.75-2.75c-.53-.31-1.18-.31-1.72,0l-23.6,13.55c-.63.44-.83.53-.83,1.76l1.77-.26,3.23,1.86,1.32,2.21,1.34-2.15,22.63-13.05,1.33-.08Z"/>
            <polygon class="cls-29" points="362.6 127.43 358.94 125.31 359.72 124.87 362.6 127.43"/>
            <g>
              <path class="cls-29" d="M364.99,127.87c1.1-.64,1.1-1.68,0-2.32s-2.91-.64-4.01,0-1.1,1.68,0,2.32c1.1.64,2.91.64,4.01,0Z"/>
              <path class="cls-10" d="M360.56,125.18c.12-.11.25-.21.42-.31,1.1-.64,2.91-.64,4.01,0,.16.09.3.2.42.31h.41v.8h0c.02.44-.25.87-.82,1.2-1.1.64-2.91.64-4.01,0-.55-.32-.83-.74-.83-1.16h0v-.85h.41Z"/>
              <path class="cls-1" d="M364.99,126.34c1.1-.64,1.1-1.68,0-2.32-1.1-.64-2.91-.64-4.01,0s-1.1,1.68,0,2.32c1.1.64,2.91.64,4.01,0Z"/>
            </g>
            <polygon class="cls-51" points="353.27 135.87 363.42 130.03 362.57 127.41 354.13 132.26 353.27 135.87"/>
            <polygon class="cls-30" points="346.89 132.2 353.27 135.87 354.13 132.26 347.75 128.59 346.89 132.2"/>
            <polygon class="cls-2" points="362.57 127.41 356.26 123.77 347.75 128.59 354.13 132.26 362.57 127.41"/>
            <g>
              <polygon class="cls-19" points="359.95 127.97 355.27 130.67 350.59 127.97 355.27 125.26 359.95 127.97"/>
              <polygon class="cls-23" points="355.52 129.9 355.02 130.54 350.84 128.13 351.93 127.83 355.52 129.9"/>
              <polygon class="cls-23" points="359.69 127.81 358.65 128.12 355.03 126.03 355.52 125.4 359.69 127.81"/>
            </g>
            <g>
              <path class="cls-29" d="M347.13,137.08c1.2-.69,1.2-1.83,0-2.53-1.2-.69-3.17-.69-4.38,0-1.2.69-1.2,1.83,0,2.53,1.2.69,3.17.69,4.38,0Z"/>
              <path class="cls-19" d="M342.3,134.15c.13-.12.28-.23.45-.34,1.2-.69,3.17-.69,4.38,0,.18.1.33.22.45.34h.45v.88h0c.02.48-.28.95-.9,1.31-1.2.69-3.17.69-4.38,0-.6-.35-.9-.81-.9-1.26h0v-.93h.45Z"/>
              <path class="cls-11" d="M347.13,135.41c1.2-.69,1.2-1.83,0-2.53-1.2-.69-3.17-.69-4.38,0-1.2.69-1.2,1.83,0,2.53s3.17.69,4.38,0Z"/>
            </g>
            <polygon class="cls-29" points="363.42 130.03 353.27 135.87 363.25 129.51 363.42 130.03"/>
            <path class="cls-51" d="M369.27,127.34c0-.32-.35-.52-.62-.36l-23.87,13.8c-.46.26-.74.75-.74,1.28v17.12c0,.43.47.71.85.49l23.73-13.72c.4-.23.65-.66.65-1.13v-17.47Z"/>
            <path class="cls-30" d="M344.9,141.22c-.54,0-1.08-.13-1.55-.4,0,0-.02,0-.02-.01l-4.71-2.71c-.43-.25-.97.06-.97.56v16.72c0,.68.36,1.31.95,1.65l4.94,2.83c.35.2.75.3,1.15.31,1.57,0,5.43-.31,5.66-3.67h0v-18.95c-.22,3.22-3.77,3.65-5.45,3.67Z"/>
            <path class="cls-2" d="M350.36,137.54s-.03,1.9-1.75,2.82c-1.73.92-3.65.98-4.63.73l6.38-3.54Z"/>
            <g>
              <path class="cls-24" d="M345.54,138.61c.06-.06.14-.12.23-.17.61-.35,1.62-.35,2.23,0,.09.05.17.11.23.17h.23v.45h0c.01.24-.14.49-.46.67-.61.35-1.62.35-2.23,0-.31-.18-.46-.41-.46-.64h0v-.47h.23Z"/>
              <path class="cls-23" d="M348.01,139.26c.61-.35.61-.94,0-1.29-.61-.35-1.62-.35-2.23,0-.61.35-.61.94,0,1.29.61.35,1.62.35,2.23,0Z"/>
            </g>
            <g>
              <polygon class="cls-29" points="352.88 149.54 354.71 153.99 358.46 151.82 352.88 149.54"/>
              <path class="cls-21" d="M352.2,146.54c0-4.27,3.03-9.51,6.73-11.65,1.8-1.04,3.44-1.15,4.65-.51h0s.06.03.06.03c.02.01.05.03.07.04l6.86,4.05-9.1,16.65-7.27-4.26s-.05-.03-.08-.04l-.11-.07h0c-1.13-.75-1.83-2.21-1.83-4.25Z"/>
              <path class="cls-30" d="M352.81,146.92c0-4.27,3.03-9.51,6.73-11.65,1.8-1.04,3.44-1.15,4.65-.51h0s.06.03.06.03c.02.01.05.03.07.04l6.24,3.67-9.1,16.65-6.65-3.88s-.05-.03-.08-.04l-.11-.07h0c-1.13-.75-1.83-2.21-1.83-4.25Z"/>
              <path class="cls-21" d="M368.46,137.26h-.97c-.88,0-1.87.3-2.9.9-3.76,2.17-6.81,7.46-6.81,11.8,0,1.78.52,3.14,1.47,3.9h0s-1.88-1.1-1.88-1.1c-.33-.79-.51-1.73-.51-2.8,0-4.63,3.26-10.27,7.27-12.59.98-.57,1.94-.89,2.84-.99l1.49.88Z"/>
              <path class="cls-2" d="M366.21,139.16c3.7-2.14,6.73-.39,6.73,3.88,0,4.27-3.03,9.51-6.73,11.65-3.7,2.14-6.73.39-6.73-3.88s3.03-9.51,6.73-11.65Z"/>
              <path class="cls-51" d="M366.21,139.56c3.51-2.03,6.38-.37,6.38,3.69,0,4.05-2.87,9.03-6.38,11.06-3.51,2.03-6.38.37-6.38-3.69s2.87-9.03,6.38-11.06Z"/>
              <path class="cls-19" d="M366.21,139.56c1.48-.85,2.84-1.05,3.93-.69.81.77,1.3,2.02,1.3,3.68,0,4.05-2.87,9.03-6.38,11.06-1.48.85-2.84,1.05-3.93.69-.81-.77-1.3-2.02-1.3-3.68,0-4.05,2.87-9.03,6.38-11.06Z"/>
              <path class="cls-4" d="M364.76,144.72c.58-.33,1.05-.06,1.05.61s-.47,1.49-1.05,1.82c-.58.33-1.05.06-1.05-.61s.47-1.49,1.05-1.82Z"/>
              <path class="cls-38" d="M366.21,144.59c1.11-.64,2.02-.12,2.02,1.17,0,1.28-.91,2.86-2.02,3.5-1.11.64-2.02.12-2.02-1.17s.91-2.86,2.02-3.5Z"/>
            </g>
            <g>
              <path class="cls-51" d="M342.4,146.12v-1.59c0-.61-.39-1.32-.88-1.6l-2.03-1.17c-.49-.28-.88-.02-.88.59v1.58l3.79,2.2Z"/>
              <polygon class="cls-51" points="338.62 144.18 338.62 147.3 342.4 149.51 342.4 146.39 338.62 144.18"/>
              <polygon class="cls-51" points="342.4 152.9 342.4 149.78 338.62 147.58 338.62 150.7 342.4 152.9"/>
              <path class="cls-51" d="M338.62,150.97v1.47c0,.61.39,1.32.88,1.6l2.03,1.17c.49.28.88.02.88-.59v-1.45l-3.79-2.2Z"/>
            </g>
            <path class="cls-23" d="M367.43,131.06l-2.78,1.6c-.1.06-.19.02-.19-.08v-.85c0-.1.08-.24.19-.3l2.78-1.6c.1-.06.19-.02.19.08v.85c0,.1-.08.24-.19.3Z"/>
          </g>
        </g>
        <g>
          <path class="cls-31" d="M326.27,71.14c.15-1.79,1.39-3.74,2.76-4.52l.21-.12c0-.12-.01-.23-.01-.35.03-2.42,1.61-5.27,3.54-6.36.25-.14.49-.24.72-.31,1.2-3.68,3.68-7.16,6.53-8.77,1.71-.97,3.26-1.1,4.48-.54h0s.02,0,.02,0c.24.11.47.26.69.43l2.62,1.62h0c.64-.2,1.21-.15,1.67.11h0s.09.04.09.04c.01,0,.03.02.04.02l2.15,1.37,1-.57c.75-.43,1.45-.43,1.95-.09h0s3.42,2.07,3.42,2.07l-2.2,3.54-1.25-1.06c-.48.89-1.15,1.66-1.9,2.08l-21.27,12.02-1.2,3.64-3.19-1.93h0c-.62-.31-.99-1.13-.89-2.32Z"/>
          <path class="cls-23" d="M332.5,68.73l.21-.12c0-.12-.01-.23-.01-.35.03-2.42,1.61-5.27,3.54-6.36.25-.14.49-.24.72-.31,1.2-3.68,3.68-7.16,6.53-8.77,3.1-1.75,5.7-.77,6.68,2.1.15-.11.3-.21.45-.29,1.54-.87,2.84-.38,3.31,1.07.15.47.57.59,1.04.33l1.28-.72c1.37-.78,2.58-.21,2.69,1.44.13,1.88-1.12,4.23-2.66,5.1l-23.98,13.56c-1.54.87-2.74-.09-2.57-2.15.15-1.79,1.39-3.74,2.76-4.52Z"/>
        </g>
        <g>
          <path class="cls-19" d="M355.03,228.64c0,1.66-1.98,3.01-4.42,3.01s-4.42-1.35-4.42-3.01,1.98-3.01,4.42-3.01,4.42,1.35,4.42,3.01Z"/>
          <g>
            <path class="cls-1" d="M370.34,185.84c0-10.8-8.68-19.56-19.44-19.71-10.74-.14-19.76,8.57-19.97,19.32-.08,4.39,1.27,8.47,3.63,11.78,3.13,4.41,4.98,9.6,5.41,14.99l.17,2.11c.09,1.08,4.78,2.11,10.5,2.11s10.41-1.03,10.5-2.11l.17-2.11c.44-5.46,2.4-10.65,5.53-15.15,2.22-3.19,3.52-7.06,3.52-11.23Z"/>
            <path class="cls-39" d="M356.19,212.44s-.07,0-.11-.01c-.27-.06-.43-.33-.37-.59.02-.07,1.68-7.31,2.38-13.12.52-4.26-.11-5.69-.54-6.16-.16-.18-.34-.28-.52-.28-.36,0-.66.09-.9.24.42.64.62,1.45.62,2.23,0,1.23-.51,2.03-1.31,2.03s-1.31-.8-1.31-2.03c0-.78.2-1.59.62-2.23-.24-.15-.54-.24-.9-.24s-.66.09-.9.24c.42.64.62,1.45.62,2.23,0,1.23-.51,2.03-1.31,2.03s-1.31-.8-1.31-2.03c0-.78.2-1.59.62-2.23-.24-.15-.54-.24-.9-.24s-.66.09-.9.24c.42.64.62,1.45.62,2.23,0,1.23-.51,2.03-1.31,2.03s-1.31-.8-1.31-2.03c0-.78.2-1.59.62-2.23-.24-.15-.54-.24-.9-.24s-.66.09-.9.24c.42.64.62,1.45.62,2.23,0,1.23-.51,2.03-1.31,2.03s-1.31-.8-1.31-2.03c0-.78.2-1.59.62-2.23-.24-.15-.54-.24-.9-.24-.18,0-.36.09-.52.28-.42.48-1.05,1.91-.54,6.16.7,5.8,2.36,13.04,2.38,13.12.06.27-.11.53-.37.59-.26.06-.53-.11-.59-.37-.02-.07-1.69-7.36-2.4-13.22-.43-3.54-.17-5.88.78-6.94.35-.39.8-.61,1.26-.61.64,0,1.17.19,1.6.49.42-.31.95-.49,1.6-.49s1.17.19,1.6.49c.42-.31.95-.49,1.6-.49s1.17.19,1.6.49c.42-.31.95-.49,1.6-.49s1.17.19,1.6.49c.42-.31.95-.49,1.6-.49.47,0,.92.22,1.26.61.94,1.07,1.21,3.4.78,6.94-.71,5.85-2.38,13.15-2.4,13.22-.05.23-.26.38-.48.38ZM355.43,193.3c-.23.47-.32,1.02-.32,1.44,0,.63.19,1.04.32,1.04s.32-.4.32-1.04c0-.42-.08-.97-.32-1.44ZM352.23,193.3c-.23.47-.32,1.02-.32,1.44,0,.63.19,1.04.32,1.04s.32-.4.32-1.04c0-.42-.08-.97-.32-1.44ZM349.04,193.3c-.23.47-.32,1.02-.32,1.44,0,.63.19,1.04.32,1.04s.32-.4.32-1.04c0-.42-.08-.97-.32-1.44ZM345.85,193.3c-.23.47-.32,1.02-.32,1.44,0,.63.19,1.04.32,1.04s.32-.4.32-1.04c0-.42-.08-.97-.32-1.44Z"/>
            <g>
              <path class="cls-36" d="M364.4,178.94c1.22,2.19,1.31,4.46.21,5.07s-2.99-.66-4.21-2.84c-1.22-2.19-1.31-4.46-.21-5.07,1.1-.62,2.99.66,4.21,2.84Z"/>
              <path class="cls-47" d="M359.14,173.06c.03.98-.74,1.79-1.71,1.82-.98.03-1.79-.74-1.82-1.71-.03-.98.74-1.79,1.71-1.82.98-.03,1.79.74,1.82,1.71Z"/>
            </g>
          </g>
          <path class="cls-30" d="M361.04,214.68h-20.86l1,9.35h0c0,1.42.91,2.84,2.74,3.92,3.66,2.15,9.67,2.14,13.35-.02,1.83-1.08,2.75-2.49,2.76-3.9h0l1-9.35Z"/>
          <path class="cls-15" d="M343.21,219.02c-4.05-2.38-4.05-6.28.01-8.66,4.06-2.38,10.71-2.39,14.77-.03,4.06,2.37,4.06,6.26-.01,8.66-4.07,2.4-10.72,2.41-14.77.03Z"/>
          <path class="cls-3" d="M343.92,218.6c-3.66-2.15-3.66-5.67.01-7.83,3.67-2.15,9.68-2.16,13.35-.02s3.67,5.66-.01,7.83c-3.68,2.17-9.69,2.18-13.35.02Z"/>
          <g>
            <path class="cls-19" d="M340.69,219.47l.08.76c2.16,1.94,5.76,3.21,9.84,3.21s7.68-1.27,9.84-3.21l.08-.76c-1.98,2.07-5.68,3.48-9.92,3.48s-7.94-1.4-9.92-3.48Z"/>
            <path class="cls-19" d="M350.61,227.3c4.01,0,7.52-1.43,9.46-3.57l.09-.85c-1.71,2.33-5.35,3.94-9.55,3.94s-7.84-1.61-9.55-3.94l.09.85c1.95,2.14,5.46,3.57,9.46,3.57Z"/>
          </g>
        </g>
        <g>
          <path class="cls-51" d="M304.37,183.88l-6.64-3.85-1.27,3.37-1.84,1.1-1.55-3.07,4.54-14.37,1.84-1.1,3.27,1.89,6.39,22.87-1.84,1.1-1.64-3.11-1.27-4.84ZM303.33,179.91l-2.27-8.65-2.27,6.02,4.53,2.63Z"/>
          <path class="cls-23" d="M302.53,184.98l-6.64-3.85-1.27,3.37-3.39-1.97,6.37-15.47,3.27,1.89,6.39,22.87-3.47-2.01-1.27-4.84ZM301.49,181.01l-2.27-8.65-2.27,6.02,4.53,2.63Z"/>
        </g>
        <g>
          <path class="cls-51" d="M312.79,176.14c-1.14-.66-2.28-.92-3.06-.63l-1.19.71,1.92,1.65c.51-.25,1.29-.14,2.05.3,1.11.64,1.64,1.64,1.64,2.82l-1.64-.95c-1.14-.66-1.93-.79-2.41-.52h0s-1.23.74-1.23.74l.63.38c-.02.15-.03.31-.03.49,0,1.65.99,3.46,2.65,4.42,1.04.6,1.78.57,2.16-.07v1.19l.74,1.83,1.19-.71v-5.43c0-2.88-1.25-4.96-3.42-6.21ZM314.15,183.58c-.24.73-.83.81-1.52.41-.73-.42-1.16-1.13-1.16-1.82,0-.64.3-.94,1.27-.38l1.41.82v.97Z"/>
          <path class="cls-23" d="M315.02,183.07v5.43l-1.93-1.12v-1.19c-.38.65-1.12.68-2.16.07-1.66-.96-2.65-2.78-2.65-4.42s.88-2.34,3.05-1.08l1.64.95c0-1.19-.53-2.18-1.64-2.82-.75-.44-1.53-.55-2.05-.3l-.74-2.36c.78-.29,1.93-.03,3.06.63,2.16,1.25,3.42,3.33,3.42,6.21ZM312.96,184.3v-.97l-1.41-.82c-.96-.56-1.27-.26-1.27.38,0,.69.44,1.4,1.16,1.82.69.4,1.28.32,1.52-.41Z"/>
        </g>
        <g>
          <path class="cls-8" d="M443.04,78.73l-15.86-9.17h0c-.2-.12-.33-.37-.33-.72,0-.71.5-1.58,1.11-1.94.31-.18.59-.19.79-.08h0l15.86,9.17-1.57,2.74Z"/>
          <path class="cls-6" d="M442.71,78.01c0,.71.5,1,1.12.64.61-.36,1.12-1.23,1.11-1.94,0-.71-.5-1-1.12-.64-.61.36-1.12,1.23-1.11,1.94Z"/>
        </g>
        <g>
          <g>
            <path class="cls-8" d="M364.53,68.97l-.04,16.05h0c0,.16-.11.33-.32.45-.43.25-1.13.25-1.56,0-.22-.12-.32-.29-.32-.45h0l.04-16.05h2.21Z"/>
            <path class="cls-6" d="M364.21,69.42c.43-.25.43-.65,0-.9-.43-.25-1.13-.25-1.56,0-.43.25-.43.65,0,.9.43.25,1.13.25,1.56,0Z"/>
          </g>
          <g>
            <path class="cls-8" d="M364.53,88.63l-.04,16.05h0c0,.16-.11.33-.32.45-.43.25-1.13.25-1.56,0-.22-.12-.32-.29-.32-.45h0l.04-16.05h2.21Z"/>
            <path class="cls-6" d="M364.21,89.08c.43-.25.43-.65,0-.9-.43-.25-1.13-.25-1.56,0-.43.25-.43.65,0,.9.43.25,1.13.25,1.56,0Z"/>
          </g>
        </g>
        <g>
          <path class="cls-16" d="M401.83,217.28s-2.61-14.64,3.31-22.63c3.41,2.82,3.82,11.92,3.82,11.92,0,0,1.22-18.44,8.12-25.05,6.29,2.63,6.29,15.58,6.29,15.58,0,0,1.4-12.31,6.27-15.15,4.44,2.21,3.25,13.41,3.25,13.41,0,0,2.71-9.19,5.22-10.07,1.07,5.58-1.3,11.75-1.3,11.75l-34.97,20.24Z"/>
          <path class="cls-20" d="M403.83,216.06s-2.61-14.64,3.31-22.63c3.41,2.82,3.82,11.92,3.82,11.92,0,0,1.22-18.44,8.12-25.05,6.29,2.63,6.29,15.58,6.29,15.58,0,0,1.4-12.31,6.27-15.15,4.44,2.21,3.25,13.41,3.25,13.41,0,0,2.71-9.19,5.22-10.07,1.07,5.58-1.3,11.75-1.3,11.75l-34.97,20.24Z"/>
          <path class="cls-65" d="M407.16,195.63s-.73,11.3,1.62,17.53"/>
          <path class="cls-65" d="M419.48,181.87s1.37,15.16-1.39,25.9"/>
          <path class="cls-65" d="M431.45,183.02s-.75,11.23-3,18.79"/>
          <path class="cls-65" d="M439.38,185.84s-1.86,7.44-3.53,11.64"/>
          <path class="cls-65" d="M408.66,197.26s-.05,2.06-1.6,3.49"/>
          <path class="cls-65" d="M404.46,201.43s.69,2.03,2.87,4.55"/>
          <path class="cls-65" d="M416.55,185.13s.38,4.31,3.27,7.46"/>
          <path class="cls-65" d="M424.22,190.13s-1.03,7.68-4.87,10.31"/>
          <path class="cls-65" d="M412.67,196.34s.24,5.33,5.98,8.92"/>
          <path class="cls-65" d="M433.19,183.29s-.36,2.21-2.08,3.49"/>
          <path class="cls-65" d="M428.66,184.78s-.39,3.41,1.92,6.43"/>
          <path class="cls-65" d="M434.49,189.31s-1.12,4.88-4.83,7.51"/>
          <path class="cls-65" d="M438.45,186.25s-.03,1.08.16,2.5"/>
          <path class="cls-65" d="M439.96,189.66s-.62,2.02-2.6,3.41"/>
        </g>
      </g>
      <text class="cls-61" transform="translate(384.04 97.77) rotate(25.42)"><tspan x="0" y="0">Nurtu</tspan><tspan class="cls-74" x="13.62" y="0">r</tspan><tspan x="15.45" y="0">e</tspan></text>
      <text class="cls-55" transform="translate(382.59 26.87)"><tspan x="0" y="0">NU</tspan><tspan class="cls-75" x="14.88" y="0">R</tspan><tspan class="cls-72" x="21.41" y="0">TURE IN</tspan><tspan class="cls-82" x="60.54" y="0">F</tspan><tspan class="cls-80" x="65.96" y="0">O</tspan><tspan class="cls-72" x="74.38" y="0">TECH</tspan></text>
      <text class="cls-56" transform="translate(363.43 39.18)"><tspan x="0" y="0">(An ISO 9001:2015 Certified Company)</tspan></text>
    </g>
  </g>
</svg>