<?xml version="1.0" encoding="UTF-8"?>
<svg xmlns="http://www.w3.org/2000/svg" xmlns:xlink="http://www.w3.org/1999/xlink" viewBox="0 0 500 250">
  <defs>
    <style>
      .cls-1 {
        fill: #f8b525;
      }

      .cls-1, .cls-2, .cls-3, .cls-4, .cls-5, .cls-6, .cls-7, .cls-8, .cls-9, .cls-10, .cls-11, .cls-12, .cls-13, .cls-14, .cls-15, .cls-16, .cls-17, .cls-18, .cls-19, .cls-20, .cls-21, .cls-22, .cls-23, .cls-24, .cls-25, .cls-26, .cls-27, .cls-28, .cls-29, .cls-30, .cls-31, .cls-32, .cls-33, .cls-34, .cls-35, .cls-36, .cls-37, .cls-38, .cls-39, .cls-40, .cls-41, .cls-42, .cls-43, .cls-44, .cls-45, .cls-46, .cls-47, .cls-48, .cls-49, .cls-50, .cls-51, .cls-52, .cls-53, .cls-54, .cls-55, .cls-56, .cls-57, .cls-58, .cls-59, .cls-60, .cls-61, .cls-62, .cls-63 {
        stroke-width: 0px;
      }

      .cls-2 {
        fill: #5267ff;
      }

      .cls-3 {
        fill: url(#linear-gradient-12);
      }

      .cls-64 {
        stroke-width: .12px;
      }

      .cls-64, .cls-65, .cls-66, .cls-23, .cls-67, .cls-68, .cls-69, .cls-70, .cls-71, .cls-72 {
        fill: none;
      }

      .cls-64, .cls-65, .cls-67, .cls-70, .cls-72 {
        stroke-linecap: round;
        stroke-linejoin: round;
      }

      .cls-64, .cls-70, .cls-72 {
        stroke: #0b4d27;
      }

      .cls-73 {
        fill: #2a2d7c;
        font-family: LEMONMILK-Medium, 'LEMON MILK';
        font-size: 9.92px;
      }

      .cls-73, .cls-74 {
        font-weight: 500;
      }

      .cls-4 {
        fill: url(#linear-gradient-8);
      }

      .cls-4, .cls-10, .cls-13, .cls-14, .cls-16, .cls-17, .cls-21, .cls-22, .cls-27, .cls-32, .cls-36, .cls-37, .cls-42, .cls-45, .cls-49, .cls-50, .cls-56, .cls-63 {
        mix-blend-mode: overlay;
      }

      .cls-4, .cls-10, .cls-13, .cls-14, .cls-16, .cls-17, .cls-27, .cls-32, .cls-42, .cls-56 {
        opacity: .78;
      }

      .cls-5 {
        fill: url(#linear-gradient-17);
      }

      .cls-6 {
        fill: #f84600;
      }

      .cls-7 {
        fill: #d90d65;
      }

      .cls-8 {
        fill: url(#linear-gradient-19);
      }

      .cls-9 {
        fill: url(#linear-gradient);
      }

      .cls-10 {
        fill: url(#linear-gradient-25);
      }

      .cls-11 {
        fill: #a9d4f2;
      }

      .cls-75 {
        font-family: Montserrat-Bold, Montserrat;
        font-size: 10.18px;
      }

      .cls-75, .cls-76 {
        font-weight: 700;
      }

      .cls-75, .cls-76, .cls-30, .cls-77, .cls-78 {
        fill: #fff;
      }

      .cls-12 {
        fill: #1cc967;
      }

      .cls-65 {
        stroke-width: .19px;
      }

      .cls-65, .cls-67, .cls-68 {
        stroke: #fff;
      }

      .cls-13 {
        fill: url(#linear-gradient-7);
      }

      .cls-14 {
        fill: url(#linear-gradient-5);
      }

      .cls-79 {
        isolation: isolate;
      }

      .cls-15 {
        fill: #020f70;
      }

      .cls-16 {
        fill: url(#linear-gradient-21);
      }

      .cls-17 {
        fill: url(#linear-gradient-6);
      }

      .cls-76 {
        font-family: CenturyGothic-Bold, 'Century Gothic';
        font-size: 20.31px;
      }

      .cls-18 {
        fill: url(#Degradado_sin_nombre_15-3);
        filter: url(#drop-shadow-3);
      }

      .cls-19 {
        fill: url(#linear-gradient-15);
      }

      .cls-20 {
        fill: url(#linear-gradient-11);
      }

      .cls-21 {
        opacity: .68;
      }

      .cls-22 {
        opacity: .53;
      }

      .cls-66 {
        stroke: #010838;
        stroke-width: .04px;
      }

      .cls-66, .cls-68, .cls-69, .cls-71 {
        stroke-miterlimit: 10;
      }

      .cls-24 {
        opacity: .28;
      }

      .cls-24, .cls-25 {
        fill: #010838;
      }

      .cls-80 {
        letter-spacing: 0em;
      }

      .cls-26 {
        fill: url(#linear-gradient-13);
      }

      .cls-27 {
        fill: url(#linear-gradient-23);
      }

      .cls-28 {
        fill: #8fd0ff;
      }

      .cls-29 {
        fill: url(#linear-gradient-16);
      }

      .cls-81 {
        letter-spacing: -.02em;
      }

      .cls-82, .cls-45 {
        opacity: .3;
      }

      .cls-83 {
        mix-blend-mode: multiply;
        opacity: .25;
      }

      .cls-31 {
        fill: url(#linear-gradient-20);
      }

      .cls-32 {
        fill: url(#linear-gradient-24);
      }

      .cls-33 {
        fill: url(#linear-gradient-14);
      }

      .cls-34 {
        fill: url(#linear-gradient-2);
      }

      .cls-35 {
        fill: #cfebff;
      }

      .cls-36 {
        opacity: .37;
      }

      .cls-37 {
        opacity: .7;
      }

      .cls-38 {
        fill: #2e45e8;
      }

      .cls-84 {
        letter-spacing: -.07em;
      }

      .cls-39 {
        fill: url(#linear-gradient-3);
      }

      .cls-85 {
        clip-path: url(#clippath);
      }

      .cls-40 {
        fill: url(#linear-gradient-27);
      }

      .cls-41 {
        fill: url(#radial-gradient);
      }

      .cls-42 {
        fill: url(#linear-gradient-9);
      }

      .cls-86 {
        letter-spacing: -.03em;
      }

      .cls-74 {
        font-family: FuturaBT-Medium, 'Futura Md BT';
        font-size: 7.09px;
      }

      .cls-43 {
        fill: #1f30a1;
      }

      .cls-67 {
        stroke-width: .22px;
      }

      .cls-44 {
        fill: #f87800;
      }

      .cls-46 {
        fill: url(#linear-gradient-26);
      }

      .cls-68 {
        stroke-width: 1.62px;
      }

      .cls-47 {
        fill: url(#linear-gradient-18);
      }

      .cls-69 {
        stroke: #1e1ec8;
        stroke-width: .31px;
      }

      .cls-48 {
        fill: #0e198f;
      }

      .cls-49 {
        fill: url(#linear-gradient-4);
      }

      .cls-87 {
        letter-spacing: .02em;
      }

      .cls-50 {
        opacity: .35;
      }

      .cls-51 {
        fill: #f78080;
      }

      .cls-52 {
        fill: #ff8e00;
      }

      .cls-88 {
        letter-spacing: 0em;
      }

      .cls-89 {
        mix-blend-mode: screen;
        opacity: .13;
      }

      .cls-53 {
        fill: url(#linear-gradient-29);
      }

      .cls-70 {
        stroke-width: .32px;
      }

      .cls-77 {
        font-size: 27.41px;
      }

      .cls-77, .cls-78 {
        font-family: Arial-Black, Arial;
        font-weight: 800;
      }

      .cls-54 {
        fill: #e6007e;
      }

      .cls-55 {
        fill: url(#Degradado_sin_nombre_17);
        filter: url(#drop-shadow-4);
      }

      .cls-56 {
        fill: url(#linear-gradient-22);
      }

      .cls-57 {
        fill: url(#linear-gradient-28);
      }

      .cls-58 {
        fill: #0470c9;
      }

      .cls-59 {
        fill: url(#linear-gradient-10);
      }

      .cls-71 {
        stroke: #000;
        stroke-width: .43px;
      }

      .cls-60 {
        fill: url(#Degradado_sin_nombre_15);
        filter: url(#drop-shadow-1);
      }

      .cls-90 {
        letter-spacing: -.04em;
      }

      .cls-91 {
        letter-spacing: -.03em;
      }

      .cls-78 {
        font-size: 10.51px;
      }

      .cls-92 {
        letter-spacing: -.02em;
      }

      .cls-61 {
        fill: #2133ab;
      }

      .cls-62 {
        fill: url(#Degradado_sin_nombre_15-2);
        filter: url(#drop-shadow-2);
      }

      .cls-63 {
        opacity: .4;
      }

      .cls-72 {
        stroke-width: .35px;
      }
    </style>
    <clipPath id="clippath">
      <rect class="cls-23" x=".15" y="-.5" width="499.7" height="249.48"/>
    </clipPath>
    <radialGradient id="Degradado_sin_nombre_15" data-name="Degradado sin nombre 15" cx="527.47" cy="245.54" fx="527.47" fy="245.54" r="119.24" gradientTransform="translate(-436.12 -3.05) scale(.84 .88)" gradientUnits="userSpaceOnUse">
      <stop offset="0" stop-color="#fff"/>
      <stop offset="1" stop-color="#f5f5f6"/>
    </radialGradient>
    <filter id="drop-shadow-1" filterUnits="userSpaceOnUse">
      <feOffset dx="1.3" dy="1.3"/>
      <feGaussianBlur result="blur" stdDeviation="1.3"/>
      <feFlood flood-color="#000" flood-opacity=".2"/>
      <feComposite in2="blur" operator="in"/>
      <feComposite in="SourceGraphic"/>
    </filter>
    <radialGradient id="Degradado_sin_nombre_15-2" data-name="Degradado sin nombre 15" cx="537.73" cy="246.22" fx="537.73" fy="246.22" r="103.27" xlink:href="#Degradado_sin_nombre_15"/>
    <filter id="drop-shadow-2" filterUnits="userSpaceOnUse">
      <feOffset dx="1.3" dy="1.3"/>
      <feGaussianBlur result="blur-2" stdDeviation="1.3"/>
      <feFlood flood-color="#000" flood-opacity=".2"/>
      <feComposite in2="blur-2" operator="in"/>
      <feComposite in="SourceGraphic"/>
    </filter>
    <radialGradient id="Degradado_sin_nombre_15-3" data-name="Degradado sin nombre 15" cx="649.33" cy="214.9" fx="649.33" fy="214.9" r="28.8" xlink:href="#Degradado_sin_nombre_15"/>
    <filter id="drop-shadow-3" filterUnits="userSpaceOnUse">
      <feOffset dx="1.3" dy="1.3"/>
      <feGaussianBlur result="blur-3" stdDeviation="1.3"/>
      <feFlood flood-color="#000" flood-opacity=".2"/>
      <feComposite in2="blur-3" operator="in"/>
      <feComposite in="SourceGraphic"/>
    </filter>
    <linearGradient id="Degradado_sin_nombre_17" data-name="Degradado sin nombre 17" x1="87.54" y1="185.17" x2="127.22" y2="185.17" gradientUnits="userSpaceOnUse">
      <stop offset="0" stop-color="#f5f5f6"/>
      <stop offset="1" stop-color="#fff"/>
    </linearGradient>
    <filter id="drop-shadow-4" filterUnits="userSpaceOnUse">
      <feOffset dx="1.3" dy="1.3"/>
      <feGaussianBlur result="blur-4" stdDeviation="1.3"/>
      <feFlood flood-color="#000" flood-opacity=".2"/>
      <feComposite in2="blur-4" operator="in"/>
      <feComposite in="SourceGraphic"/>
    </filter>
    <linearGradient id="linear-gradient" x1="396.5" y1="101.34" x2="381.57" y2="129.64" gradientUnits="userSpaceOnUse">
      <stop offset="0" stop-color="#1cc967"/>
      <stop offset=".17" stop-color="#19c16f"/>
      <stop offset=".43" stop-color="#14ad85"/>
      <stop offset=".76" stop-color="#0b8ca9"/>
      <stop offset="1" stop-color="#0470c9"/>
    </linearGradient>
    <linearGradient id="linear-gradient-2" x1="278.15" y1="179.66" x2="453.69" y2="179.66" gradientUnits="userSpaceOnUse">
      <stop offset="0" stop-color="#6dbaf2"/>
      <stop offset=".24" stop-color="#6bb8f0"/>
      <stop offset=".33" stop-color="#64b3ec"/>
      <stop offset=".39" stop-color="#58aae6"/>
      <stop offset=".44" stop-color="#479ddc"/>
      <stop offset=".49" stop-color="#318dcf"/>
      <stop offset=".52" stop-color="#1b7cc2"/>
      <stop offset=".55" stop-color="#318dcf"/>
      <stop offset=".59" stop-color="#479ddc"/>
      <stop offset=".64" stop-color="#58aae6"/>
      <stop offset=".69" stop-color="#64b3ec"/>
      <stop offset=".77" stop-color="#6bb8f0"/>
      <stop offset="1" stop-color="#6dbaf2"/>
    </linearGradient>
    <linearGradient id="linear-gradient-3" x1="315.03" y1="130.15" x2="334.63" y2="161.9" gradientUnits="userSpaceOnUse">
      <stop offset="0" stop-color="#2e45e8"/>
      <stop offset=".25" stop-color="#2d44e6"/>
      <stop offset=".35" stop-color="#2c42df"/>
      <stop offset=".41" stop-color="#293ed3"/>
      <stop offset=".46" stop-color="#263ac2"/>
      <stop offset=".51" stop-color="#2133ad"/>
      <stop offset=".51" stop-color="#2133ab"/>
      <stop offset=".51" stop-color="#2133ad"/>
      <stop offset=".56" stop-color="#263ac2"/>
      <stop offset=".61" stop-color="#293ed3"/>
      <stop offset=".67" stop-color="#2c42df"/>
      <stop offset=".76" stop-color="#2d44e6"/>
      <stop offset="1" stop-color="#2e45e8"/>
    </linearGradient>
    <linearGradient id="linear-gradient-4" x1="320.17" y1="135.74" x2="323.07" y2="149" gradientUnits="userSpaceOnUse">
      <stop offset="0" stop-color="#000"/>
      <stop offset=".99" stop-color="#000" stop-opacity=".01"/>
      <stop offset="1" stop-color="#000" stop-opacity="0"/>
    </linearGradient>
    <linearGradient id="linear-gradient-5" x1="321.3" y1="171.58" x2="321.3" y2="175.21" gradientUnits="userSpaceOnUse">
      <stop offset=".05" stop-color="#000"/>
      <stop offset="1" stop-color="#000" stop-opacity="0"/>
    </linearGradient>
    <linearGradient id="linear-gradient-6" x1="347.15" y1="185.11" x2="347.15" y2="188.74" xlink:href="#linear-gradient-5"/>
    <linearGradient id="linear-gradient-7" x1="359.86" y1="177.79" x2="359.86" y2="181.42" xlink:href="#linear-gradient-5"/>
    <linearGradient id="linear-gradient-8" x1="353.55" y1="192.21" x2="353.55" y2="195.84" gradientTransform="translate(82.57 .05) skewX(-21.54)" xlink:href="#linear-gradient-5"/>
    <linearGradient id="linear-gradient-9" x1="363.01" y1="184.65" x2="363.01" y2="188.27" gradientTransform="translate(82.57 .05) skewX(-21.54)" xlink:href="#linear-gradient-5"/>
    <linearGradient id="linear-gradient-10" x1="346.79" y1="151.95" x2="353.84" y2="151.95" gradientUnits="userSpaceOnUse">
      <stop offset=".11" stop-color="#e25344"/>
      <stop offset="1" stop-color="#e25344" stop-opacity="0"/>
    </linearGradient>
    <linearGradient id="linear-gradient-11" x1="258.9" y1="-532.49" x2="259.22" y2="-532.49" gradientTransform="translate(-45.9 578.41) rotate(15.91)" xlink:href="#linear-gradient"/>
    <linearGradient id="linear-gradient-12" x1="258.22" y1="-529.64" x2="258.92" y2="-529.53" gradientTransform="translate(-45.9 578.41) rotate(15.91)" gradientUnits="userSpaceOnUse">
      <stop offset="0" stop-color="#010838"/>
      <stop offset=".12" stop-color="#1d287c"/>
      <stop offset=".24" stop-color="#3343b4"/>
      <stop offset=".34" stop-color="#4456dd"/>
      <stop offset=".42" stop-color="#4e62f5"/>
      <stop offset=".46" stop-color="#5267ff"/>
      <stop offset=".52" stop-color="#4f63f8"/>
      <stop offset=".6" stop-color="#485be6"/>
      <stop offset=".69" stop-color="#3b4dc8"/>
      <stop offset=".8" stop-color="#2b399f"/>
      <stop offset=".9" stop-color="#15206b"/>
      <stop offset="1" stop-color="#010838"/>
    </linearGradient>
    <linearGradient id="linear-gradient-13" x1="257.97" y1="-528.07" x2="258.6" y2="-528.07" gradientTransform="translate(-45.9 578.41) rotate(15.91)" xlink:href="#linear-gradient"/>
    <linearGradient id="linear-gradient-14" x1="286.16" y1="117.02" x2="295.33" y2="117.02" gradientUnits="userSpaceOnUse">
      <stop offset=".29" stop-color="#000"/>
      <stop offset="1" stop-color="#000" stop-opacity="0"/>
    </linearGradient>
    <linearGradient id="linear-gradient-15" x1="301.86" y1="93.34" x2="323.74" y2="93.34" xlink:href="#linear-gradient-14"/>
    <linearGradient id="linear-gradient-16" x1="326.95" y1="78.74" x2="348.83" y2="78.74" xlink:href="#linear-gradient-14"/>
    <linearGradient id="linear-gradient-17" x1="301.86" y1="118.14" x2="323.74" y2="118.14" xlink:href="#linear-gradient-14"/>
    <linearGradient id="linear-gradient-18" x1="326.95" y1="103.53" x2="348.83" y2="103.53" xlink:href="#linear-gradient-14"/>
    <linearGradient id="linear-gradient-19" x1="311.47" y1="164.42" x2="297.95" y2="190.04" xlink:href="#linear-gradient"/>
    <linearGradient id="linear-gradient-20" x1="-5849.12" y1="86.46" x2="-5882.7" y2="112.12" gradientTransform="translate(-5481.46 31.62) rotate(179.33) scale(1 -1)" gradientUnits="userSpaceOnUse">
      <stop offset=".02" stop-color="#6dbaf2"/>
      <stop offset=".15" stop-color="#6bb8f0"/>
      <stop offset=".2" stop-color="#64b3ec"/>
      <stop offset=".23" stop-color="#58aae6"/>
      <stop offset=".26" stop-color="#479ddc"/>
      <stop offset=".28" stop-color="#318dcf"/>
      <stop offset=".3" stop-color="#1b7cc2"/>
      <stop offset=".5" stop-color="#1d7dc3"/>
      <stop offset=".61" stop-color="#2583c8"/>
      <stop offset=".7" stop-color="#338ed0"/>
      <stop offset=".78" stop-color="#469cdb"/>
      <stop offset=".85" stop-color="#5fafea"/>
      <stop offset=".88" stop-color="#6dbaf2"/>
    </linearGradient>
    <linearGradient id="linear-gradient-21" x1="411.88" y1="183.55" x2="416.79" y2="191.45" xlink:href="#linear-gradient-5"/>
    <linearGradient id="linear-gradient-22" x1="374.72" y1="205.22" x2="379.78" y2="213.35" xlink:href="#linear-gradient-5"/>
    <linearGradient id="linear-gradient-23" x1="393.03" y1="194.66" x2="397.98" y2="202.63" xlink:href="#linear-gradient-5"/>
    <linearGradient id="linear-gradient-24" x1="363.56" y1="211.84" x2="367.08" y2="217.49" xlink:href="#linear-gradient-5"/>
    <linearGradient id="linear-gradient-25" x1="-3254.39" y1="158.96" x2="-3254.39" y2="179.58" gradientTransform="translate(-2863.03) rotate(-180) scale(1 -1)" xlink:href="#linear-gradient-5"/>
    <linearGradient id="linear-gradient-26" x1="-3267.61" y1="162.36" x2="-3257.57" y2="162.36" gradientTransform="translate(-2863.03) rotate(-180) scale(1 -1)" gradientUnits="userSpaceOnUse">
      <stop offset="0" stop-color="#fff"/>
      <stop offset=".13" stop-color="#f7faff"/>
      <stop offset=".31" stop-color="#e3efff"/>
      <stop offset=".54" stop-color="#c3dcff"/>
      <stop offset=".79" stop-color="#96c3ff"/>
      <stop offset="1" stop-color="#6baaff"/>
    </linearGradient>
    <linearGradient id="linear-gradient-27" x1="-3255.08" y1="162.17" x2="-3268.36" y2="159.45" xlink:href="#linear-gradient-26"/>
    <linearGradient id="linear-gradient-28" x1="-3263.49" y1="154.73" x2="-3245.28" y2="154.73" xlink:href="#linear-gradient-26"/>
    <radialGradient id="radial-gradient" cx="392.25" cy="148.93" fx="392.25" fy="148.93" r="15.09" gradientUnits="userSpaceOnUse">
      <stop offset="0" stop-color="#f8b525"/>
      <stop offset=".16" stop-color="#f8ac22"/>
      <stop offset=".42" stop-color="#f89619"/>
      <stop offset=".74" stop-color="#f8720c"/>
      <stop offset="1" stop-color="#f84f00"/>
    </radialGradient>
    <linearGradient id="linear-gradient-29" x1="122.63" y1="1179.7" x2="108.04" y2="1191.98" gradientTransform="translate(-274.29 -834.54) rotate(-28.75)" gradientUnits="userSpaceOnUse">
      <stop offset=".07" stop-color="#fff" stop-opacity=".6"/>
      <stop offset=".19" stop-color="#fff" stop-opacity=".58"/>
      <stop offset=".35" stop-color="#fff" stop-opacity=".51"/>
      <stop offset=".54" stop-color="#fff" stop-opacity=".39"/>
      <stop offset=".74" stop-color="#fff" stop-opacity=".24"/>
      <stop offset=".96" stop-color="#fff" stop-opacity=".04"/>
      <stop offset="1" stop-color="#fff" stop-opacity="0"/>
    </linearGradient>
  </defs>
  <g class="cls-79">
    <g id="Layer_1" data-name="Layer 1">
      <rect class="cls-30" x=".15" y=".5" width="499.85" height="250"/>
      <g class="cls-85">
        <rect class="cls-23" x=".15" y="-.5" width="500" height="250"/>
      </g>
      <polygon class="cls-1" points="155.5 250.5 .15 250.5 .15 .5 294.8 .5 155.5 250.5"/>
      <text class="cls-77" transform="translate(18.55 37.41) scale(.96 1)"><tspan x="0" y="0">ABODE </tspan><tspan x="0" y="32.89">IL</tspan><tspan class="cls-86" x="28.95" y="32.89">L</tspan><tspan class="cls-88" x="46.52" y="32.89">USTR</tspan><tspan class="cls-84" x="130.25" y="32.89">A</tspan><tspan class="cls-91" x="149.69" y="32.89">T</tspan><tspan x="168.54" y="32.89">OR</tspan></text>
      <text class="cls-76" transform="translate(17.48 111.72) scale(.96 1)"><tspan x="0" y="0">Professional Training </tspan><tspan x="0" y="24.37">Program</tspan></text>
      <g>
        <text class="cls-78" transform="translate(20.18 225.94) scale(.96 1)"><tspan x="0" y="0">O</tspan><tspan class="cls-87" x="8.75" y="0">f</tspan><tspan x="13.11" y="0">fline</tspan></text>
        <text class="cls-78" transform="translate(91.84 225.81) scale(.96 1)"><tspan x="0" y="0">Online</tspan></text>
        <g>
          <g>
            <path class="cls-60" d="M62.69,185.21c0,13.93-10.79,25.23-24.11,25.23s-24.11-11.29-24.11-25.23,10.79-25.23,24.11-25.23,24.11,11.29,24.11,25.23Z"/>
            <g class="cls-89">
              <path class="cls-68" d="M58.42,184.31c0,11.47-8.88,20.76-19.84,20.76s-19.84-9.3-19.84-20.76,8.88-20.76,19.84-20.76,19.84,9.3,19.84,20.76Z"/>
            </g>
            <path class="cls-62" d="M58.42,185.21c0,11.47-8.88,20.76-19.84,20.76s-19.84-9.3-19.84-20.76,8.88-20.76,19.84-20.76,19.84,9.3,19.84,20.76Z"/>
          </g>
          <g>
            <path class="cls-71" d="M48.83,184.52h-10.21c-.34,0-.62-.29-.62-.65v-9.35c0-.36.28-.65.62-.65h10.21c.34,0,.62.29.62.65v9.35c0,.35-.28.65-.62.65ZM41.18,177.84h5.09c.34,0,.62-.29.62-.65h0c0-.36-.28-.65-.62-.65h-5.09c-.34,0-.62.29-.62.65h0c0,.35.28.65.62.65ZM41.18,180.51h3.82c.34,0,.62-.29.62-.65h0c0-.36-.28-.65-.62-.65h-3.82c-.34,0-.62.29-.62.65h0c0,.35.28.65.62.65Z"/>
            <path class="cls-71" d="M33.16,173.86c.44.1.87.25,1.23.54.92.73,1.25,2.01.83,3.12-.42,1.08-1.52,1.78-2.6,1.65-1.18-.14-2.09-1.05-2.27-2.25-.21-1.44.72-2.78,2.1-3.02.04,0,.08-.03.12-.04.2,0,.4,0,.59,0Z"/>
            <path class="cls-71" d="M34.12,194.8c.18-1,.63-1.8,1.43-2.36.58-.41,1.23-.6,1.92-.56.77.04,1.44.35,2.01.89s.88,1.23,1,2.08c.08-.31.13-.56.22-.81.49-1.41,1.87-2.32,3.26-2.16,1.48.16,2.67,1.33,2.85,2.85.07.6.01,1.2.01,1.82h-19.07c-.06-1.31-.12-2.63.89-3.66.93-.94,2.03-1.28,3.27-.87,1.23.41,1.95,1.33,2.19,2.66,0,.04.01.07.02.1Z"/>
            <path class="cls-71" d="M36.01,184.83c-.74.29-1.38.78-1.86,1.51-1.16-1.56-2.63-2.11-4.47-1.55.04-1.03-.13-2.07.34-3.05.63-1.29,1.98-2.02,3.39-1.78,1.32.22,2.43,1.39,2.58,2.8.08.67.02,1.36.02,2.08Z"/>
            <path class="cls-71" d="M30.96,185.89c1.4,0,2.54,1.2,2.54,2.67,0,1.46-1.15,2.66-2.56,2.65-1.39,0-2.53-1.2-2.53-2.65,0-1.46,1.14-2.67,2.54-2.67Z"/>
            <path class="cls-71" d="M34.77,188.55c0-1.46,1.15-2.66,2.55-2.66s2.54,1.2,2.54,2.68c0,1.46-1.14,2.65-2.54,2.65-1.4,0-2.55-1.19-2.55-2.66Z"/>
            <path class="cls-71" d="M46.22,188.56c0,1.46-1.15,2.66-2.55,2.65s-2.54-1.21-2.54-2.68c0-1.46,1.15-2.65,2.54-2.65,1.4,0,2.55,1.2,2.54,2.67Z"/>
            <path class="cls-71" d="M40.55,177.84v-1.31"/>
          </g>
        </g>
        <g>
          <g>
            <path class="cls-18" d="M131.49,185.17c0,13.93-10.79,25.23-24.11,25.23s-24.11-11.29-24.11-25.23,10.79-25.23,24.11-25.23,24.11,11.29,24.11,25.23Z"/>
            <g class="cls-89">
              <path class="cls-68" d="M127.22,184.27c0,11.47-8.88,20.76-19.84,20.76s-19.84-9.3-19.84-20.76,8.88-20.76,19.84-20.76,19.84,9.3,19.84,20.76Z"/>
            </g>
            <path class="cls-55" d="M127.22,185.17c0,11.47-8.88,20.76-19.84,20.76s-19.84-9.3-19.84-20.76,8.88-20.76,19.84-20.76,19.84,9.3,19.84,20.76Z"/>
          </g>
          <g>
            <path class="cls-71" d="M113.64,173.25h4.26c.79,0,1.22.46,1.22,1.28v5.75c0,.83-.43,1.29-1.22,1.29-1.58,0-3.16,0-4.73,0-.27,0-.49.09-.68.29-.58.63-1.18,1.24-1.76,1.85-.18.19-.35.35-.63.23-.28-.12-.27-.38-.27-.63,0-.35,0-.71,0-1.06,0-.45-.18-.65-.6-.69-.72-.06-1.12-.51-1.12-1.27v-5.78c0-.81.45-1.27,1.21-1.27,1.44,0,2.87,0,4.31,0ZM110,177.38c0,.47.37.86.82.85.45,0,.82-.41.81-.87,0-.46-.37-.84-.81-.84-.45,0-.81.37-.81.85ZM112.81,177.36c0,.48.35.86.81.86s.82-.39.82-.86-.36-.84-.8-.85c-.45,0-.82.38-.83.85ZM115.64,177.37c0,.47.36.86.81.86s.81-.38.81-.86-.36-.84-.8-.84c-.45-.02-.82.36-.82.84Z"/>
            <path class="cls-71" d="M107.82,178.7v1.76h-8.15c-.6,0-.82.23-.82.86v10.16c0,.61.23.85.81.85h15.44c.56,0,.79-.24.79-.84v-9.61h1.67v11.52h-20.39v-12.84c0-1.18.66-1.88,1.8-1.88h8.85Z"/>
            <path class="cls-71" d="M107.38,193.73c3.72,0,7.45,0,11.17,0,.19,0,.4.05.56.14.27.16.36.5.27.81-.09.32-.18.65-.27.96-.23.82-.93,1.39-1.76,1.43h-19.79c-.7,0-1.33-.24-1.66-.88-.27-.51-.42-1.12-.56-1.7-.09-.39.25-.75.65-.79.1,0,.19,0,.3,0,3.7.02,7.4.02,11.09.02ZM107.37,195.89h1.51c.16,0,.32,0,.47-.02.24-.03.4-.21.4-.44,0-.24-.15-.44-.39-.49-.06,0-.12,0-.17,0h-3.62c-.06,0-.12,0-.17,0-.24.04-.4.23-.4.48s.17.43.42.46c.08,0,.17,0,.24,0h1.71Z"/>
            <path class="cls-71" d="M104.3,190.94h-3.19c-.41,0-.55-.14-.52-.56.04-.63.06-1.26.14-1.88.12-.96.91-1.65,1.84-1.66,1.15,0,2.31,0,3.46,0,.99,0,1.8.78,1.88,1.82.04.56.08,1.12.11,1.68.03.46-.1.6-.53.6h-3.19Z"/>
            <path class="cls-71" d="M106.33,184.29c-.01.56-.14,1.06-.45,1.52-.8,1.22-2.36,1.22-3.16,0-.58-.88-.58-2.12,0-3,.81-1.25,2.38-1.24,3.18,0,.28.44.4.95.42,1.48Z"/>
          </g>
        </g>
      </g>
      <text class="cls-75" transform="translate(388.37 112.28)"><tspan x="0" y="0">&lt;/&gt;</tspan></text>
      <g>
        <path class="cls-35" d="M453.69,182.09s10.88-1.45,10.88-18.25-17.4-19.89-30.51-36.9c-13.11-17.01-13.37-56.12-39.91-71.44-26.54-15.32-39.33.67-55.23,23.78-15.9,23.12-22,29.94-40.58,42.06-25.79,16.83-42.42,51.34-17.32,55.54,25.11,4.2,93.57,2.13,93.57,2.13l79.09,3.08Z"/>
        <g>
          <path class="cls-63" d="M363.92,121.88s-1.83-17.24,1.54-17.15c3.37.1,6.88,12.81,6.88,12.81,0,0-.52-20.84,4.3-20.76,4.82.08,5.95,16.73,5.95,16.73,0,0,2.03-8.52,6.16-7.13,4.13,1.38,6.44,18.31,6.44,18.31,0,0,.28-7.31,4.3-6.1,6.71,2.02,7.87,28.46,7.87,28.46l-43.44-25.17Z"/>
          <path class="cls-9" d="M361.91,120.88s-1.83-17.24,1.54-17.15,6.88,12.81,6.88,12.81c0,0-.52-20.84,4.3-20.76,4.82.08,5.95,16.73,5.95,16.73,0,0,2.03-8.52,6.16-7.13,4.13,1.38,6.44,18.31,6.44,18.31,0,0,.28-7.31,4.3-6.1,6.71,2.02,7.87,28.46,7.87,28.46l-43.44-25.17Z"/>
          <line class="cls-72" x1="374.95" y1="100.01" x2="376.42" y2="129.29"/>
          <path class="cls-72" d="M373.43,102.58s-.02,3.4,1.98,6.65"/>
          <path class="cls-72" d="M378.72,109.55s.26,6.92-2.78,10.22"/>
          <line class="cls-72" x1="386.06" y1="108.53" x2="383.38" y2="133.16"/>
          <path class="cls-72" d="M388.62,110.45s-.45,2.86-3.41,5.81"/>
          <path class="cls-72" d="M381.29,115.57s-.53,5.86,2.83,10.84"/>
          <line class="cls-72" x1="397.9" y1="120.84" x2="395.3" y2="140.23"/>
          <path class="cls-72" d="M395.96,120.84s-.31,1.59,1.31,4.68"/>
          <path class="cls-72" d="M400.73,127.26s-.76,5.17-4.67,7.38"/>
          <line class="cls-72" x1="364.26" y1="107.03" x2="365.89" y2="123.19"/>
          <path class="cls-72" d="M365.62,107.24s.26,2.59-.89,4.46"/>
          <path class="cls-72" d="M362.9,112.52s-.26,3.04,2.51,5.93"/>
        </g>
        <g>
          <path class="cls-54" d="M270.87,161.37c.28.97.73,1.77,1.32,2.4l-4.02,6.38,3.99,1.65,4.02-6.38c.97.02,2.04-.16,3.17-.55v5.69l5.64-3.31v-5.69c1.13-.95,2.2-2.02,3.17-3.18l4.02,1.66,3.99-6.33-4.02-1.66c.59-1.32,1.03-2.65,1.32-3.95l5.69-3.34v-5.64l-5.69,3.34c-.28-.97-.73-1.77-1.32-2.4l4.02-6.38-3.99-1.65-4.02,6.38c-.97-.02-2.04.16-3.17.55v-5.69l-5.64,3.31v5.69c-1.13.95-2.2,2.02-3.17,3.18l-4.02-1.66-3.99,6.33,4.02,1.66c-.59,1.32-1.03,2.65-1.32,3.95l-5.69,3.34v5.64l5.69-3.34ZM276.33,155.35c0-3.23,2.61-7.37,5.84-9.26,3.23-1.89,5.84-.81,5.84,2.42s-2.61,7.37-5.84,9.26c-3.23,1.89-5.84.81-5.84-2.42Z"/>
          <path class="cls-54" d="M269.02,135.35c.18.63.47,1.15.85,1.55l-2.6,4.13,2.58,1.07,2.6-4.13c.63,0,1.32-.11,2.05-.35v3.68l3.65-2.14v-3.68c.73-.61,1.42-1.31,2.05-2.05l2.6,1.08,2.58-4.09-2.6-1.08c.38-.85.67-1.71.85-2.55l3.68-2.16v-3.65l-3.68,2.16c-.18-.63-.47-1.15-.85-1.55l2.6-4.13-2.58-1.07-2.6,4.13c-.63,0-1.32.11-2.05.35v-3.68l-3.65,2.14v3.68c-.73.61-1.42,1.3-2.05,2.05l-2.6-1.08-2.58,4.09,2.6,1.08c-.38.85-.67,1.71-.85,2.55l-3.68,2.16v3.65l3.68-2.16ZM272.55,131.45c0-2.09,1.69-4.77,3.78-5.99,2.09-1.22,3.78-.52,3.78,1.56s-1.69,4.77-3.78,5.99c-2.09,1.22-3.78.52-3.78-1.56Z"/>
        </g>
        <g>
          <path class="cls-34" d="M453.69,170.39l-17.19-.47-69.23-40.14c-3.43-1.99-7.66-1.99-11.1-.01l-62.8,36.22-15.21-.42v11.7h.01c.05,1.3.72,2.58,2,3.32l84.45,48.94c3.43,1.99,7.66,1.99,11.1.01l75.96-43.83c1.39-.8,2.05-2.22,2.01-3.62h0s0-11.7,0-11.7Z"/>
          <path class="cls-28" d="M280.16,168.55l84.45,48.94c3.43,1.99,7.66,1.99,11.1.01l75.96-43.83c2.69-1.55,2.69-5.43,0-6.99l-84.41-48.94c-3.43-1.99-7.66-1.99-11.1-.01l-76,43.83c-2.69,1.55-2.69,5.43,0,6.99Z"/>
          <g>
            <polygon class="cls-35" points="430.67 160.25 424.53 162.68 419.3 166.81 413.16 169.24 407.94 173.38 401.79 175.81 396.57 179.94 390.42 182.37 385.2 186.5 379.06 188.93 373.83 193.06 367.69 195.49 362.47 199.63 356.32 202.06 351.1 206.19 347.54 207.6 347.94 207.83 351.26 206.52 356.48 202.38 362.63 199.95 367.85 195.82 373.99 193.39 379.22 189.26 385.36 186.83 390.58 182.7 396.73 180.27 401.95 176.13 408.1 173.7 413.32 169.57 419.46 167.14 424.69 163.01 430.83 160.58 435.2 157.12 434.87 156.93 430.67 160.25"/>
            <polygon class="cls-35" points="371.03 204.81 376.26 200.67 382.4 198.24 387.62 194.11 393.77 191.68 398.99 187.55 405.13 185.12 410.36 180.99 416.5 178.56 421.72 174.42 427.87 171.99 433.09 167.86 439.24 165.43 443.59 161.98 443.26 161.79 439.08 165.1 432.93 167.53 427.71 171.66 421.56 174.09 416.34 178.23 410.2 180.66 404.97 184.79 398.83 187.22 393.61 191.35 387.46 193.78 382.24 197.92 376.1 200.35 370.87 204.48 364.73 206.91 359.51 211.04 355.93 212.46 356.33 212.69 359.67 211.37 364.89 207.24 371.03 204.81"/>
            <polygon class="cls-35" points="280.86 168.95 284.02 167.7 289.24 163.57 295.38 161.14 300.61 157.01 306.75 154.58 311.97 150.45 318.12 148.02 323.34 143.88 329.49 141.45 334.71 137.32 340.85 134.89 346.07 130.76 352.22 128.33 357.44 124.19 363.59 121.76 368.08 118.21 367.75 118.01 363.43 121.43 357.29 123.86 352.06 128 345.92 130.43 340.69 134.56 334.55 136.99 329.33 141.12 323.18 143.55 317.96 147.69 311.81 150.12 306.59 154.25 300.45 156.68 295.23 160.81 289.08 163.24 283.86 167.37 280.46 168.72 280.86 168.95"/>
            <polygon class="cls-35" points="422.27 155.4 416.12 157.83 410.9 161.96 404.75 164.39 399.53 168.52 393.39 170.95 388.16 175.09 382.02 177.52 376.8 181.65 370.65 184.08 365.43 188.21 359.29 190.64 354.06 194.77 347.92 197.2 342.7 201.33 339.16 202.74 339.56 202.97 342.86 201.66 348.08 197.53 354.22 195.1 359.44 190.97 365.59 188.54 370.81 184.41 376.95 181.98 382.18 177.85 388.32 175.42 393.55 171.28 399.69 168.85 404.91 164.72 411.06 162.29 416.28 158.16 422.43 155.73 426.81 152.26 426.48 152.06 422.27 155.4"/>
            <path class="cls-35" d="M451.67,166.67h-.02s-4.17,3.28-4.17,3.28l-6.14,2.43-5.23,4.13-6.14,2.43-5.22,4.13-6.14,2.43-5.22,4.13-6.14,2.43-5.22,4.13-6.14,2.43-5.22,4.13-6.14,2.43-5.22,4.13-6.14,2.43-5.22,4.13-3.6,1.42.29.17s.08.04.11.06l3.35-1.33,5.22-4.13,6.14-2.43,5.22-4.13,6.14-2.43,5.22-4.13,6.14-2.43,5.22-4.13,6.14-2.43,5.22-4.13,6.14-2.43,5.22-4.13,6.14-2.43,5.23-4.13,6.14-2.43,4.32-3.42c-.09-.07-.19-.13-.29-.19Z"/>
            <polygon class="cls-35" points="380.24 131.14 374.1 133.57 368.87 137.7 362.73 140.13 357.5 144.26 351.36 146.69 346.14 150.83 339.99 153.26 334.77 157.39 328.63 159.82 323.4 163.95 317.26 166.38 312.04 170.52 305.89 172.94 300.67 177.08 297.23 178.44 297.63 178.67 300.83 177.41 306.05 173.27 312.2 170.84 317.42 166.71 323.56 164.28 328.78 160.15 334.93 157.72 340.15 153.59 346.3 151.16 351.52 147.02 357.66 144.59 362.89 140.46 369.03 138.03 374.25 133.9 380.4 131.47 384.86 127.94 384.53 127.74 380.24 131.14"/>
            <polygon class="cls-35" points="413.86 150.55 407.72 152.98 402.49 157.11 396.35 159.54 391.13 163.67 384.98 166.1 379.76 170.24 373.61 172.66 368.39 176.8 362.25 179.23 357.02 183.36 350.88 185.79 345.66 189.92 339.51 192.35 334.29 196.48 330.77 197.88 331.17 198.11 334.45 196.81 339.67 192.68 345.82 190.25 351.04 186.12 357.18 183.69 362.41 179.56 368.55 177.13 373.77 172.99 379.92 170.56 385.14 166.43 391.29 164 396.51 159.87 402.65 157.44 407.88 153.3 414.02 150.87 418.42 147.39 418.09 147.2 413.86 150.55"/>
            <polygon class="cls-35" points="371.83 126.29 365.69 128.72 360.47 132.85 354.32 135.28 349.1 139.41 342.95 141.84 337.73 145.98 331.59 148.41 326.36 152.54 320.22 154.97 315 159.1 308.85 161.53 303.63 165.66 297.49 168.09 292.27 172.22 288.84 173.58 289.24 173.81 292.43 172.55 297.65 168.42 303.79 165.99 309.01 161.86 315.16 159.43 320.38 155.3 326.52 152.87 331.75 148.73 337.89 146.3 343.11 142.17 349.26 139.74 354.48 135.61 360.62 133.18 365.85 129.05 371.99 126.62 376.47 123.07 376.14 122.88 371.83 126.29"/>
            <polygon class="cls-35" points="388.65 135.99 382.5 138.42 377.28 142.55 371.13 144.98 365.91 149.12 359.77 151.55 354.54 155.68 348.4 158.11 343.17 162.24 337.03 164.67 331.81 168.8 325.66 171.23 320.44 175.37 314.3 177.8 309.08 181.93 305.61 183.3 306.02 183.53 309.24 182.26 314.46 178.13 320.6 175.7 325.82 171.56 331.97 169.13 337.19 165 343.33 162.57 348.56 158.44 354.7 156.01 359.92 151.88 366.07 149.44 371.29 145.31 377.44 142.88 382.66 138.75 388.8 136.32 393.25 132.8 392.92 132.61 388.65 135.99"/>
            <polygon class="cls-35" points="405.46 145.69 399.31 148.12 394.09 152.26 387.94 154.69 382.72 158.82 376.58 161.25 371.35 165.38 365.21 167.81 359.98 171.95 353.84 174.38 348.62 178.51 342.48 180.94 337.25 185.07 331.11 187.5 325.89 191.63 322.39 193.02 322.79 193.25 326.05 191.96 331.27 187.83 337.41 185.4 342.63 181.27 348.78 178.84 354 174.7 360.14 172.28 365.37 168.14 371.51 165.71 376.73 161.58 382.88 159.15 388.1 155.02 394.25 152.59 399.47 148.45 405.62 146.02 410.03 142.53 409.7 142.34 405.46 145.69"/>
            <polygon class="cls-35" points="397.05 140.84 390.91 143.27 385.68 147.41 379.54 149.84 374.32 153.97 368.17 156.4 362.95 160.53 356.8 162.96 351.58 167.09 345.44 169.52 340.21 173.66 334.07 176.09 328.85 180.22 322.7 182.65 317.48 186.78 314 188.16 314.4 188.39 317.64 187.11 322.86 182.98 329.01 180.55 334.23 176.41 340.37 173.99 345.59 169.85 351.74 167.42 356.96 163.29 363.11 160.86 368.33 156.73 374.47 154.3 379.7 150.16 385.84 147.73 391.07 143.6 397.21 141.17 401.64 137.66 401.31 137.47 397.05 140.84"/>
          </g>
        </g>
        <g>
          <path class="cls-15" d="M359.56,44.37l-1.86-1.09s-.06-.03-.08-.05l-.03-.02h0c-.51-.26-1.25-.19-2.07.28l-73.02,42.24c-1.55.9-2.81,2.88-2.81,4.43v64.1c0,.77.31,1.29.82,1.51h0s1.83,1.07,1.83,1.07l.38-1.52,72.8-42.11c1.55-.9,2.81-2.88,2.81-4.43v-63.11l.97.11.27-1.4Z"/>
          <path class="cls-15" d="M346.68,157.36s0-.02,0-.03v-1.39h-1.99l-14.14-8.1c-1.92-1.1-2.91-3.31-2.46-5.48l4.75-22.49-22.94,13.36-4.75,22.49c-.46,2.17.53,4.38,2.46,5.48l15.44,8.85c.7.4,1.57.4,2.27,0l21.14-12.29c.15-.09.22-.23.23-.38h0Z"/>
          <path class="cls-39" d="M329.26,142.29l4.87-23.06-22.94,13.36-4.87,23.07c-.39,1.83.45,3.69,2.07,4.62l14.65,8.39c.7.4,1.57.4,2.27,0l21.14-12.29c.3-.18.3-.62,0-.79l-15.11-8.66c-1.62-.93-2.46-2.79-2.07-4.62Z"/>
          <polygon class="cls-49" points="306.84 147.72 307.8 148.3 331.71 130.73 333.33 123.01 309.1 137 306.84 147.72"/>
          <path class="cls-38" d="M284.32,156.51l73.02-42.24c1.55-.9,2.81-2.88,2.81-4.43V45.75c0-1.55-1.26-2.08-2.81-1.18l-73.02,42.24c-1.55.9-2.81,2.88-2.81,4.43v64.1c0,1.55,1.26,2.08,2.81,1.18Z"/>
          <path class="cls-30" d="M284.46,149.38l72.74-42.07c.77-.44,1.39-1.42,1.39-2.19v-58.44c0-.77-.62-1.03-1.39-.58l-72.74,42.07c-.77.44-1.39,1.42-1.39,2.19v58.44c0,.77.62,1.03,1.39.58Z"/>
          <path class="cls-1" d="M357.2,46.09l-72.74,42.07c-.77.44-1.39,1.42-1.39,2.19v4.31l75.51-43.68v-4.31c0-.77-.62-1.03-1.39-.58Z"/>
          <g>
            <path class="cls-65" d="M288.43,88.72c0,.63-.51,1.43-1.14,1.79s-1.14.15-1.14-.48.51-1.43,1.14-1.79,1.14-.15,1.14.48Z"/>
            <polygon class="cls-65" points="292.42 87.55 290.15 88.86 290.15 86.59 292.42 85.27 292.42 87.55"/>
            <g>
              <line class="cls-67" x1="294.14" y1="84.28" x2="296.57" y2="85.15"/>
              <line class="cls-67" x1="296.57" y1="82.87" x2="294.14" y2="86.55"/>
            </g>
          </g>
        </g>
        <g>
          <path class="cls-14" d="M322.1,176.26h-1.58v-3.46c0-.44.35-.79.79-.79h0c.44,0,.79.35.79.79v3.46Z"/>
          <path class="cls-17" d="M347.95,189.79h-1.58v-3.46c0-.44.35-.79.79-.79h0c.44,0,.79.35.79.79v3.46Z"/>
          <path class="cls-13" d="M360.66,182.47h-1.58v-3.46c0-.44.35-.79.79-.79h0c.44,0,.79.35.79.79v3.46Z"/>
          <path class="cls-4" d="M359.19,196.94h-1.58l1.36-3.46c.17-.44.67-.79,1.11-.79h0c.44,0,.65.35.48.79l-1.36,3.46Z"/>
          <path class="cls-42" d="M371.64,189.38h-1.58l1.36-3.46c.17-.44.67-.79,1.11-.79h0c.44,0,.65.35.48.79l-1.36,3.46Z"/>
          <g>
            <path class="cls-25" d="M321.3,172.51h0c-.46,0-.83-.37-.83-.83v-19.73c0-.46.37-.83.83-.83h0c.46,0,.83.37.83.83v19.73c0,.46-.37.83-.83.83Z"/>
            <path class="cls-25" d="M335.63,180.65h0c-.46,0-.83-.37-.83-.83v-19.73c0-.46.37-.83.83-.83h0c.46,0,.83.37.83.83v19.73c0,.46-.37.83-.83.83Z"/>
          </g>
          <g>
            <polygon class="cls-25" points="319.15 151.87 335.58 161.37 362.62 145.78 362.62 144.43 346.25 136.39 319.15 150.52 319.15 151.87"/>
            <polygon class="cls-38" points="319.15 150.52 335.58 160.01 362.62 144.43 346.25 135.04 319.15 150.52"/>
          </g>
          <path class="cls-22" d="M350.21,143.93s0,0,0,0c-.03-.04-.07-.08-.12-.11l-5.18-2.99c-.22-.13-.59-.13-.81,0l-8.92,5.18c-.38.22-.29.64-.04.81,0,0,0,0,0,0,0,0,0,0,0,0h0s.02.01.03.02l5.18,2.99c.22.13.59.13.81,0l8.92-5.18s.03-.02.05-.03c0,0,.02-.01.02-.02,0,0,0,0,0,0,.21-.18.21-.48.05-.67Z"/>
          <path class="cls-22" d="M347.01,140.62s.36,1.1,1.94,1l4.62,4.29,1.27-2.83-6.1-2.35-1.73-.11Z"/>
          <path class="cls-22" d="M334.17,148.83s.14.76.53.7c.19.83,1.41,1.74,1.41,1.74l3.65,7.11,3.61-2.08-7.97-8.11-1.23.65Z"/>
          <g>
            <path class="cls-2" d="M350.08,143.45s-.05.14-.09.31l-5.09-2.94c-.22-.13-.59-.13-.81,0l-8.72,5.07-.2-.25c-.38.22-.29.64-.04.81,0,0,0,0,0,0,0,0,0,0,0,0h0s.02.01.03.02l5.18,2.99c.22.13.59.13.81,0l8.92-5.18s.03-.02.05-.03c0,0,.02-.01.02-.02,0,0,0,0,0,0,.26-.22.2-.62-.08-.78Z"/>
            <g>
              <path class="cls-28" d="M335.51,146.05c-.15-.09-.15-.23,0-.32l1.42-.82,5.49,3.17-1.42.82c-.15.09-.4.09-.55,0l-4.94-2.85M336.93,144.91l7.29-4.24c.14-.08.36-.08.5,0l4.99,2.88c.14.08.14.21,0,.29l-7.29,4.24-5.49-3.17M350.08,143.45l-5.18-2.99c-.22-.13-.59-.13-.81,0l-8.92,5.18c-.22.13-.22.34,0,.47l5.18,2.99c.22.13.59.13.81,0l8.92-5.18c.22-.13.22-.34,0-.47Z"/>
              <path class="cls-2" d="M338.32,147.28c-.28-.16-.28-.42,0-.58.28-.16.73-.16,1.01,0,.28.16.28.42,0,.58-.28.16-.73.16-1.01,0M336.11,146.16l1.28-.75.04.03-1.28.75-.04-.03M336.97,146.66l1.28-.75.04.03-1.28.75-.04-.03M339.36,148.04l1.28-.75.04.03-1.28.75-.04-.03M340.22,148.54l1.28-.75.04.03-1.28.75-.04-.03M342.42,148.08l-5.49-3.17-1.42.82c-.15.09-.15.23,0,.32l4.94,2.85c.15.09.4.09.55,0l1.42-.82"/>
              <path class="cls-38" d="M339.33,146.7c-.28-.16-.73-.16-1.01,0-.28.16-.28.42,0,.58.28.16.73.16,1.01,0,.28-.16.28-.42,0-.58"/>
              <polyline class="cls-38" points="337.43 145.44 337.39 145.42 336.11 146.16 336.15 146.19 337.43 145.44"/>
              <polyline class="cls-38" points="338.29 145.94 338.25 145.91 336.97 146.66 337.01 146.68 338.29 145.94"/>
              <polyline class="cls-38" points="340.69 147.32 340.64 147.3 339.36 148.04 339.41 148.07 340.69 147.32"/>
              <polyline class="cls-38" points="341.55 147.82 341.5 147.79 340.22 148.54 340.26 148.56 341.55 147.82"/>
              <path class="cls-30" d="M349.71,143.56l-4.99-2.88c-.14-.08-.36-.08-.5,0l-7.29,4.24,5.49,3.17,7.29-4.24c.14-.08.14-.21,0-.29"/>
            </g>
          </g>
          <path class="cls-51" d="M356.09,141.97l-6.7-1.59s-1.19-.56-1.89-.47c-.48.06-.79.7,0,1.15.29.16,1.55.19,1.55.19l5.12,3.25,1.91-2.53Z"/>
          <polygon class="cls-69" points="347.15 159.4 354.2 153.36 354.82 160.67 347.15 159.4"/>
          <path class="cls-48" d="M354.55,179.29s.46,1.32.1,1.93c-.36.61-1.43.09-2.54-.23-1.11-.33-2.61-1.02-2.48-1.24.13-.23,3.44-.59,3.44-.59l1.48.14Z"/>
          <path class="cls-44" d="M350.61,166.17l1.91,13.38s.47.84,1.5.17l.58-.23.72-12.43-4.72-.89Z"/>
          <path class="cls-36" d="M350.61,166.17l1.91,13.38s.47.84,1.5.17l.58-.23.72-12.43-4.72-.89Z"/>
          <g>
            <path class="cls-25" d="M347.1,186.15h0c-.41,0-.74-.33-.74-.74v-15.18c0-.41.33-.74.74-.74h0c.41,0,.74.33.74.74v15.18c0,.41-.33.74-.74.74Z"/>
            <path class="cls-25" d="M359.96,193.18h0c-.41.05-.78-.25-.82-.65l-1.99-16.22c-.05-.41.25-.78.65-.82h0c.41-.05.78.25.82.65l1.99,16.22c.05.41-.25.78-.65.82Z"/>
          </g>
          <g>
            <path class="cls-25" d="M359.86,178.68h0c-.41,0-.74-.33-.74-.74v-15.18c0-.41.33-.74.74-.74h0c.41,0,.74.33.74.74v15.18c0,.41-.33.74-.74.74Z"/>
            <path class="cls-25" d="M372.72,185.72h0c-.41.05-.78-.25-.82-.65l-1.99-16.22c-.05-.41.25-.78.65-.82h0c.41-.05.78.25.82.65l1.99,16.22c.05.41-.25.78-.65.82Z"/>
          </g>
          <path class="cls-38" d="M346.05,168.48l12.19-7.1c.32-.19.71-.2,1.04-.03l6.69,3.43-4.92,11.21-4.59-.22-10.42-7.29Z"/>
          <path class="cls-48" d="M336.09,179.95s.15,1.68-.23,1.97c-.39.29-1.97-.54-2.37-.72-1.07-.51-2.6-1.84-2.15-2.31.59-.6,3.56.53,3.56.53l1.19.53Z"/>
          <path class="cls-44" d="M354.81,159.46s-11.73-3.28-14.16-.82c-2.87,2.91-7.13,20.52-7.13,20.52,0,0,.38,1.78,2.61,1l8.75-14.44s13.62,7.49,17.34,5.54c3.72-1.94,5.08-9.3,4.91-11.29-.17-2-12.32-.5-12.32-.5Z"/>
          <path class="cls-51" d="M353.84,153.1s-2.28,6.19-6.6,5.66c-4.33-.53-10.82-8.35-10.82-8.35,0,0-1.47-.56-1.61-1.58,0,0-.61.36-.64,0-.03-.36.64-.89,1.3-.97.67-.08,1.28-.03,1.53.17,0,0-.11-.47,0-.39.11.08.61,1.99.61,1.99l8.66,3.37,2.22-3.23,5.35,3.34Z"/>
          <path class="cls-59" d="M346.79,152.24c1.65,1.23,5.3,1.75,6.59,1.9.31-.61.46-1.03.46-1.03l-5.35-3.34-1.71,2.48Z"/>
          <path class="cls-51" d="M356.78,129.88s-.87,4.11-.32,4.61c.54.5,1.85.26,1.85.26l.19,3.44s2.17-.05,3.42-1.6l-1.09-2.65-.87-3.49-3.18-.56Z"/>
          <path class="cls-25" d="M354.54,139.03c1.88-.91,8.33-3.89,10.1-3.77,1.78.11,3.16,2.22,3.55,5.94.39,3.72.11,14.15,0,16.21-.11,2.05-1.05,5.94-4.22,6.44-3.16.5-8.05-.22-10.16-2.94s-.32-3.33-.32-3.33c0,0-.68-7.22-1.07-9.88-.39-2.66-1.33-6.99,2.11-8.66Z"/>
          <path class="cls-21" d="M357.59,146.51l-4.97,2.66c.39,3.2.88,8.4.88,8.4,0,0-1.79.61.32,3.33,1.27,1.64,3.54,2.54,5.84,2.9-4.97-4.04-2.07-17.29-2.07-17.29Z"/>
          <path class="cls-45" d="M361.08,134.55h0l-.25-.62-.06-.25c-.11-.03-.19-.03-.19-.03l-1.45.63s-1.64.48-2.53.31h0c.6.36,1.71.16,1.71.16l.09,1.66c.94-.55,2.26-1.36,2.68-1.85Z"/>
          <path class="cls-2" d="M376.05,146.89l-1.77-1.06c-.12-.07-.26-.07-.38,0l-12.65,7.31c-.5.29-.83.8-.89,1.37l-1.27,12.2-9.16-5.2c-.45-.25-.99-.24-1.42.05-.43.28-.66.78-.6,1.29l.8,6.87-2.1-1.17c-.47-.26-1.06.08-1.06.62,0,.41.22.79.57.99l11.57,6.68c1.23.71,2.77.62,3.92-.23l10.57-7.86,3.93-20.96-.05-.9ZM357.13,174.4l-7.32-4.08-.89-7.61c-.02-.19.1-.29.15-.32.05-.03.19-.1.35-.01l9.55,5.42-.62,5.96c-.06.59-.7.92-1.22.63Z"/>
          <path class="cls-38" d="M375.65,146.89l-12.64,7.3c-.52.3-.87.83-.93,1.43l-2.05,19.47c-.1.97-1.33,2.33-2.61,1.59-.05-.03-.08-.04-.11-.05.23.15,2.31,1.42,4.16.38l11.65-6.72c.49-.28.82-.78.88-1.35l2.27-21.63c.04-.34-.33-.57-.62-.4Z"/>
          <path class="cls-25" d="M353.59,139.65c-2.2,1.9-7.15,12.98-7.15,12.98l-6.48-2.1s-1.29.52-1.24,2.82c0,0,4.59,6.1,8.44,6.04,3.85-.06,6.73-3.07,8.18-6.8s5.5-10.37-1.74-12.95Z"/>
          <g>
            <path class="cls-20" d="M349.32,137.55l-.26-.12.08-.17c.03-.07.12-.1.19-.07h0c.07.03.1.12.07.19l-.08.17Z"/>
            <path class="cls-3" d="M347.27,142.06l.3-.75,1.83-3.81s0-.05-.02-.06l-.29-.14s-.05,0-.06.02l-1.83,3.81-.4.7c-.04.07-.06.15-.07.23v.45s-.04.06-.04.06c0,.02,0,.04.02.05h0s.04,0,.05-.02l.03-.06.34-.29c.06-.05.11-.12.14-.2Z"/>
            <path class="cls-25" d="M346.73,142.52l-.03.06s0,.04.02.05h0s.04,0,.05-.02l.03-.06s-.03,0-.06-.03Z"/>
            <path class="cls-26" d="M347.3,141.98l.26-.66.16-.33c-.11-.07-.24-.13-.36-.17l-.16.33-.35.62c.16.05.31.12.45.22Z"/>
          </g>
          <path class="cls-51" d="M348.11,140.19c-.12.15-.73,0-.82.11-.09.11.08.31.82.31.74,0,.99.25.99.25l-.99-.67Z"/>
          <path class="cls-36" d="M337.31,165.9c-2.02,5.97-3.78,13.25-3.78,13.25,0,0,.38,1.78,2.61,1l8.75-14.44s-4.19,2.24-7.57.19Z"/>
          <path class="cls-25" d="M362.75,130.42c-.22-.8-.83-.73-.83-.73,0,0-.04-1.05-.66-1.4-.62-.36-1.51-.16-1.51-.16,0,0-.51-.97-1.38-1.08-.87-.11-1.43.6-1.43.6,0,0-1.36-.8-1.96.79-.3.8.29,2,1.46,1.75,0,0,.17.44,1.27.31.04.5.12.96.22,1.38.11-.28.29-.63.5-.54.54.24.59,1.73-.08,1.73.39.82.89,1.36,1.39,1.55.44.17,1-.42,1.22-.36.55-.58.97-2.47.97-2.47,0,0,1.05-.56.83-1.36Z"/>
        </g>
        <g>
          <g class="cls-83">
            <path class="cls-33" d="M294.69,138.2l-7.59,4.38c-.42.24-.94-.06-.94-.54v-45.09c0-.46.24-.88.64-1.1l7.59-4.38c.42-.24.94.06.94.54v45.09c0,.46-.24.88-.64,1.1Z"/>
          </g>
          <g>
            <path class="cls-15" d="M295.83,139.02l-7.59,4.38c-.42.24-.94-.06-.94-.54v-45.09c0-.46.24-.88.64-1.1l7.59-4.38c.42-.24.94.06.94.54v45.09c0,.46-.24.88-.64,1.1Z"/>
            <polygon class="cls-38" points="296.46 97.68 296.46 97.49 291.96 100.09 291.96 94.34 291.8 94.43 291.8 100.19 287.29 102.8 287.29 102.99 291.8 100.38 291.8 106.05 287.29 108.66 287.29 108.85 291.8 106.24 291.8 111.92 287.29 114.53 287.29 114.72 291.8 112.11 291.8 117.78 287.29 120.39 287.29 120.58 291.8 117.97 291.8 123.64 287.29 126.25 287.29 126.44 291.8 123.83 291.8 129.51 287.29 132.12 287.29 132.31 291.8 129.7 291.8 135.37 287.29 137.98 287.29 138.17 296.46 132.85 296.46 132.66 291.96 135.27 291.96 129.6 296.46 126.99 296.46 126.8 291.96 129.41 291.96 123.74 296.46 121.13 296.46 120.94 291.96 123.55 291.96 117.87 296.46 115.27 296.46 115.07 291.96 117.68 291.96 112.01 296.46 109.4 296.46 109.21 291.96 111.82 291.96 106.15 296.46 103.54 296.46 103.35 291.96 105.96 291.96 100.29 296.46 97.68"/>
          </g>
        </g>
        <g>
          <g class="cls-82">
            <path class="cls-19" d="M321.99,77.06l-18.38,10.7c-.97.56-1.75,1.8-1.75,2.77v18.38c0,.97.78,1.29,1.75.73l18.38-10.7c.97-.56,1.75-1.8,1.75-2.77v-18.38c0-.97-.78-1.29-1.75-.73Z"/>
            <path class="cls-29" d="M348.83,70.23v-.47h0v-6.59c0-.97-.78-1.29-1.75-.73l-18.38,10.7c-.97.56-1.75,1.8-1.75,2.77v18.38c0,.97.78,1.29,1.75.73l18.38-10.7c.97-.56,1.75-1.8,1.75-2.77v-2.66h0v-.47h0s0-8.21,0-8.21h0Z"/>
            <path class="cls-5" d="M321.99,101.85l-18.38,10.7c-.97.56-1.75,1.8-1.75,2.77v18.38c0,.97.78,1.29,1.75.73l18.38-10.7c.97-.56,1.75-1.8,1.75-2.77v-18.38c0-.97-.78-1.29-1.75-.73Z"/>
            <path class="cls-47" d="M348.83,87.98c0-.97-.78-1.29-1.75-.73l-18.38,10.7c-.97.56-1.75,1.8-1.75,2.77v18.38c0,.12.01.23.04.33.16.7.87.89,1.71.4l18.38-10.7c.97-.56,1.75-1.8,1.75-2.77v-4.59h0v-3.87h0s0-9.92,0-9.92Z"/>
          </g>
          <g>
            <polygon class="cls-30" points="338.11 72.72 330.59 77.1 330.59 75.6 338.11 71.23 338.11 72.72"/>
            <g>
              <path class="cls-1" d="M323.02,99.48l-18.38,10.7c-.97.56-1.75.24-1.75-.73v-18.38c0-.97.78-2.2,1.75-2.77l18.38-10.7c.97-.56,1.75-.24,1.75.73v18.38c0,.97-.78,2.2-1.75,2.77Z"/>
              <ellipse class="cls-7" cx="315.56" cy="96.34" rx="7.05" ry="3.97" transform="translate(49.1 290.92) rotate(-53.12)"/>
              <polygon class="cls-30" points="322.16 82.01 314.65 86.38 314.65 84.89 322.16 80.51 322.16 82.01"/>
              <polygon class="cls-30" points="322.16 84.29 311.99 90.21 311.99 88.72 322.16 82.79 322.16 84.29"/>
              <path class="cls-38" d="M302.89,96.44s0,0,0,0v.55s0,0,0,0c7.83-4.56,14.21-1.9,14.21,5.94l.55-.32c0-8.14-6.62-10.9-14.76-6.16Z"/>
            </g>
            <g>
              <path class="cls-1" d="M348.11,84.87l-18.38,10.7c-.97.56-1.75.24-1.75-.73v-18.38c0-.97.78-2.2,1.75-2.77l18.38-10.7c.97-.56,1.75-.24,1.75.73v18.38c0,.97-.78,2.2-1.75,2.77Z"/>
              <polygon class="cls-30" points="340.76 73.46 330.59 79.38 330.59 77.89 340.76 71.97 340.76 73.46"/>
              <path class="cls-7" d="M338.92,90.22l-5.19,3.02v-8.03c0-1.43,1.16-3.27,2.59-4.11h0c1.43-.83,2.59-.35,2.59,1.08v8.03Z"/>
              <polygon class="cls-38" points="349.86 78.98 336.56 86.72 336.56 78.52 349.86 70.77 349.86 70.31 336.09 78.32 336.09 87.46 349.86 79.45 349.86 78.98"/>
            </g>
            <g>
              <path class="cls-1" d="M323.02,124.28l-18.38,10.7c-.97.56-1.75.24-1.75-.73v-18.38c0-.97.78-2.2,1.75-2.77l18.38-10.7c.97-.56,1.75-.24,1.75.73v18.38c0,.97-.78,2.2-1.75,2.77Z"/>
              <path class="cls-38" d="M314.44,115.81c-5.21,3.03-9.43,9.72-9.43,14.93l9.43-5.49v-9.43Z"/>
              <g>
                <path class="cls-30" d="M307.06,115.78c0,.52-.42,1.18-.93,1.48s-.93.13-.93-.39.42-1.18.93-1.48.93-.13.93.39Z"/>
                <path class="cls-30" d="M309.72,114.23c0,.52-.42,1.18-.93,1.48-.52.3-.93.13-.93-.39s.42-1.18.93-1.48c.52-.3.93-.13.93.39Z"/>
                <ellipse class="cls-30" cx="311.45" cy="113.23" rx="1.25" ry=".7" transform="translate(33.95 294.38) rotate(-53.12)"/>
                <polygon class="cls-30" points="314.44 114.21 305.2 119.59 305.2 118.88 314.44 113.5 314.44 114.21"/>
              </g>
              <path class="cls-7" d="M324.77,119.23l-4.1,2.39c-2.38,1.39-4.32.58-4.32-1.8v-5.12l8.42-4.9v9.43Z"/>
            </g>
            <g>
              <path class="cls-1" d="M348.11,109.67l-18.38,10.7c-.97.56-1.75.24-1.75-.73v-18.38c0-.97.78-2.2,1.75-2.77l18.38-10.7c.97-.56,1.75-.24,1.75.73v18.38c0,.97-.78,2.2-1.75,2.77Z"/>
              <g>
                <ellipse class="cls-30" cx="346.66" cy="92.73" rx="1.25" ry=".7" transform="translate(64.43 314.35) rotate(-53.12)"/>
                <path class="cls-30" d="M343.07,94.82c0,.52.42.69.93.39.52-.3.93-.96.93-1.48s-.42-.69-.93-.39c-.52.3-.93.96-.93,1.48Z"/>
                <path class="cls-30" d="M340.41,96.37c0,.52.42.69.93.39.52-.3.93-.96.93-1.48s-.42-.69-.93-.39c-.52.3-.93.96-.93,1.48Z"/>
                <polygon class="cls-30" points="338.35 100.28 347.6 94.9 347.6 94.19 338.35 99.57 338.35 100.28"/>
              </g>
              <path class="cls-7" d="M327.98,108.02v11.62c0,.97.78,1.29,1.75.73l6.6-3.84v-3.75c0-4.9-3.63-6.84-8.34-4.76Z"/>
              <polygon class="cls-38" points="349.86 102.31 337.33 109.61 337.33 105.74 349.86 98.44 349.86 102.31"/>
            </g>
          </g>
        </g>
        <g>
          <path class="cls-63" d="M281.96,183.01s-1.66-15.62,1.4-15.53c3.05.09,6.23,11.61,6.23,11.61,0,0-.47-18.87,3.89-18.8,4.37.07,5.39,15.15,5.39,15.15,0,0,1.84-7.71,5.58-6.46,3.74,1.25,5.83,16.59,5.83,16.59,0,0,.25-6.62,3.89-5.53,6.07,1.83,7.13,25.78,7.13,25.78l-39.34-22.8Z"/>
          <path class="cls-8" d="M280.14,182.11s-1.66-15.62,1.4-15.53c3.05.09,6.23,11.61,6.23,11.61,0,0-.47-18.87,3.89-18.8,4.37.07,5.39,15.15,5.39,15.15,0,0,1.84-7.71,5.58-6.46,3.74,1.25,5.83,16.59,5.83,16.59,0,0,.25-6.62,3.89-5.53,6.07,1.83,7.13,25.78,7.13,25.78l-39.34-22.8Z"/>
          <line class="cls-70" x1="291.95" y1="163.21" x2="293.28" y2="189.73"/>
          <path class="cls-70" d="M290.57,165.54s-.02,3.08,1.8,6.02"/>
          <path class="cls-70" d="M295.37,171.85s.23,6.27-2.52,9.26"/>
          <line class="cls-70" x1="302.01" y1="170.93" x2="299.59" y2="193.23"/>
          <path class="cls-70" d="M304.33,172.67s-.4,2.59-3.08,5.26"/>
          <path class="cls-70" d="M297.69,177.31s-.48,5.3,2.56,9.82"/>
          <line class="cls-70" x1="312.73" y1="182.08" x2="310.39" y2="199.64"/>
          <path class="cls-70" d="M310.98,182.08s-.28,1.44,1.19,4.24"/>
          <path class="cls-70" d="M315.3,187.89s-.68,4.68-4.23,6.68"/>
          <line class="cls-70" x1="282.27" y1="169.57" x2="283.75" y2="184.2"/>
          <path class="cls-70" d="M283.5,169.76s.24,2.34-.81,4.04"/>
          <path class="cls-70" d="M281.03,174.54s-.24,2.75,2.28,5.37"/>
        </g>
        <g>
          <path class="cls-31" d="M408.23,79.86c-.16-1.85-1.43-3.86-2.85-4.66l-.22-.12c0-.12.01-.24.01-.36-.03-2.5-1.67-5.44-3.66-6.57-.26-.14-.51-.25-.75-.32-1.24-3.8-3.8-7.39-6.74-9.06-1.76-1-3.37-1.13-4.62-.56h0s-.02,0-.02,0c-.25.12-.49.27-.71.44l-2.71,1.67h0c-.66-.2-1.25-.15-1.72.12h0s-.09.05-.09.05c-.01,0-.03.02-.04.02l-2.22,1.41-1.04-.59c-.78-.44-1.5-.45-2.01-.1h0s-3.53,2.14-3.53,2.14l2.27,3.65,1.29-1.1c.5.92,1.19,1.71,1.96,2.15l21.95,12.41,1.24,3.76,3.3-1.99h0c.64-.32,1.02-1.17.92-2.4Z"/>
          <path class="cls-30" d="M401.8,77.38l-.22-.12c0-.12.01-.24.01-.36-.03-2.5-1.67-5.44-3.66-6.57-.26-.14-.51-.25-.75-.32-1.24-3.8-3.8-7.39-6.74-9.06-3.2-1.81-5.89-.8-6.89,2.17-.15-.11-.31-.21-.47-.3-1.59-.9-2.93-.39-3.41,1.11-.16.48-.59.61-1.08.34l-1.32-.75c-1.42-.8-2.66-.21-2.78,1.48-.13,1.94,1.16,4.37,2.74,5.27l24.75,13.99c1.58.9,2.83-.1,2.65-2.22-.16-1.85-1.43-3.86-2.85-4.66Z"/>
        </g>
        <g>
          <g>
            <path class="cls-16" d="M417.63,192.83l3.66-12.26-1.52-.92-3.66,2.11-.99,3.58-4.43,2.56-.4-.98-1.52-.92-3.73,2.15,4.37,9.55c3.23-1.91,6.06-3.59,8.22-4.88ZM413.48,191.33l-.57,2.07-.57-1.41,1.14-.66Z"/>
            <path class="cls-56" d="M386.36,211.22c.23-.94.35-1.91.35-2.88,0-2.19-.61-3.64-1.67-4.35h0s-1.65-1.01-1.65-1.01h-.02c-1.25-.74-3.09-.5-5.28.77l-6,3.47v12.07c3.98-2.18,8.98-5.02,14.27-8.08ZM377.21,209.57l2.27-1.31c.65-.37,1.23-.57,1.73-.58.23.45.35,1.06.35,1.84,0,2.68-1.45,5.1-3.61,6.34l-.74.43v-6.71Z"/>
            <path class="cls-27" d="M400.93,202.72l-.03-.02-5.11,2.95v-1.03l5.64-3.26v-3.28l-1.53-.92-4.11,2.38v-.81l6.4-3.7v-3.39l-1.53-.92-9.96,5.75v12.23c3.43-2,6.9-4.03,10.22-5.98Z"/>
            <path class="cls-32" d="M367.42,218.63v-6.92l-1.53-.92-3.59,2.07v3.28c.65.38,2.89,1.91,5.12,2.48Z"/>
          </g>
          <g>
            <g>
              <path class="cls-7" d="M362.31,197.27l3.59-2.07,1.53.92-1.53,14.6-3.59,2.07v-15.52Z"/>
              <path class="cls-7" d="M384.72,189.04l.32-.66-1.65-1h-.02c-1.25-.74-3.08-.5-5.28.77l-6,3.47v15.52l6-3.47c4.21-2.43,7.09-7.09,7.09-11.86,0-1.12-.16-2.04-.46-2.78ZM377.95,200.25l-2.27,1.31v-8.51l2.27-1.31c2.16-1.25,3.61-.51,3.61,2.17s-1.45,5.1-3.61,6.34Z"/>
              <path class="cls-7" d="M400.9,187.1l1.53.92-1.53,2.47-10.19,5.89v-15.52l9.96-5.75,1.53.92-1.53,2.47-6.4,3.7v2.62l5.64-3.26,1.53.92-1.53,2.36-5.64,3.26v2.84l6.64-3.83Z"/>
              <path class="cls-7" d="M415.04,179.31l-5.37,3.1-1,3.59-3.66,2.12,5.6-18.76,3.54-2.04,1.53.92,4.1,11.35-2.21,3.08-1.53-.92-1-2.44ZM413.98,176.68l-1.63-4.02-1.63,5.91,3.26-1.89Z"/>
            </g>
            <g>
              <path class="cls-1" d="M363.83,198.19l3.59-2.07v15.52l-3.59,2.07v-15.52Z"/>
              <path class="cls-1" d="M373.62,192.54l6-3.47c4.21-2.43,7.09-1.1,7.09,3.66s-2.88,9.43-7.09,11.86l-6,3.47v-15.52ZM379.47,201.18c2.16-1.25,3.61-3.66,3.61-6.34s-1.45-3.42-3.61-2.17l-2.27,1.31v8.51l2.27-1.31Z"/>
              <path class="cls-1" d="M402.42,188.03v3.39l-10.19,5.89v-15.52l9.96-5.75v3.39l-6.4,3.7v2.62l5.64-3.26v3.28l-5.64,3.26v2.84l6.64-3.83Z"/>
              <path class="cls-1" d="M416.56,180.24l-5.37,3.1-1,3.59-3.66,2.12,5.6-18.76,3.54-2.04,5.62,12.27-3.74,2.16-1-2.44ZM415.51,177.61l-1.63-4.02-1.63,5.91,3.26-1.89Z"/>
            </g>
            <polygon class="cls-43" points="410.61 169.36 412.14 170.29 406.53 189.04 405.01 188.12 410.61 169.36"/>
            <polygon class="cls-43" points="390.71 180.86 392.23 181.78 392.23 197.31 390.71 196.38 390.71 180.86"/>
            <polygon class="cls-43" points="372.09 191.62 373.62 192.54 373.62 208.06 372.09 207.14 372.09 191.62"/>
            <polygon class="cls-43" points="362.31 197.27 363.83 198.19 363.83 213.71 362.31 212.79 362.31 197.27"/>
          </g>
        </g>
        <g>
          <g>
            <path class="cls-63" d="M410.28,97.44l-31.15-18.02c-1.62-.93-2.93.2-2.93,2.53v7.19c0,2.33,1.31,4.98,2.93,5.92l28.97,16.76,2.18,1.26c1.79,1.03,3.24.3,3.24-1.63v-8.64c0-1.93-1.45-4.34-3.24-5.38Z"/>
            <g>
              <path class="cls-30" d="M409.02,98.37l-31.15-18.02c-1.62-.93-2.93.2-2.93,2.53v7.19c0,2.33,1.31,4.98,2.93,5.92l31.15,18.02c1.79,1.03,3.24.3,3.24-1.63v-8.64c0-1.93-1.45-4.34-3.24-5.38Z"/>
              <g>
                <path class="cls-2" d="M380.96,87.41l-3.05,2.64c-.21.18-.34.52-.35.95h0c0,.16-.05.28-.13.35l-.28.24c-.07.06-.07.22,0,.36.07.14.18.2.25.14l.28-.24c.08-.07.18-.07.29-.01h0c.3.16.58.14.8-.04l3.05-2.64-.86-1.74Z"/>
                <path class="cls-1" d="M382.38,88.7l-.12-.24.61-.53c.18-.15.18-.57,0-.93-.18-.36-.47-.53-.65-.37l-.61.53-.12-.24c-.07-.13-.17-.2-.24-.14l-.43.37,1.13,2.28.43-.37c.07-.06.07-.21,0-.35Z"/>
              </g>
            </g>
          </g>
          <g>
            <path class="cls-28" d="M389.36,92.55c0,.98-.79,1.31-1.77.75-.98-.57-1.77-1.82-1.77-2.8s.79-1.31,1.77-.75c.98.57,1.77,1.82,1.77,2.8Z"/>
            <path class="cls-2" d="M394.4,95.47c0,.98-.79,1.31-1.77.75-.98-.57-1.77-1.82-1.77-2.8s.79-1.31,1.77-.75,1.77,1.82,1.77,2.8Z"/>
            <path class="cls-61" d="M399.43,98.38c0,.98-.79,1.31-1.77.75s-1.77-1.82-1.77-2.8.79-1.31,1.77-.75,1.77,1.82,1.77,2.8Z"/>
            <path class="cls-58" d="M404.47,101.3c0,.98-.79,1.31-1.77.75-.98-.57-1.77-1.82-1.77-2.8s.79-1.31,1.77-.75c.98.57,1.77,1.82,1.77,2.8Z"/>
            <path class="cls-15" d="M409.5,104.22c0,.98-.79,1.31-1.77.75-.98-.57-1.77-1.82-1.77-2.8s.79-1.31,1.77-.75c.98.57,1.77,1.82,1.77,2.8Z"/>
            <path class="cls-6" d="M389.36,97.61c0,.98-.79,1.31-1.77.75-.98-.57-1.77-1.82-1.77-2.8s.79-1.31,1.77-.75c.98.57,1.77,1.82,1.77,2.8Z"/>
            <path class="cls-51" d="M394.4,100.53c0,.98-.79,1.31-1.77.75-.98-.57-1.77-1.82-1.77-2.8s.79-1.31,1.77-.75,1.77,1.82,1.77,2.8Z"/>
            <path class="cls-6" d="M399.43,103.45c0,.98-.79,1.31-1.77.75s-1.77-1.82-1.77-2.8.79-1.31,1.77-.75,1.77,1.82,1.77,2.8Z"/>
            <path class="cls-44" d="M404.47,106.37c0,.98-.79,1.31-1.77.75-.98-.57-1.77-1.82-1.77-2.8s.79-1.31,1.77-.75c.98.57,1.77,1.82,1.77,2.8Z"/>
            <path class="cls-1" d="M409.5,109.29c0,.98-.79,1.31-1.77.75-.98-.57-1.77-1.82-1.77-2.8s.79-1.31,1.77-.75c.98.57,1.77,1.82,1.77,2.8Z"/>
          </g>
          <line class="cls-64" x1="384.79" y1="85.8" x2="384.79" y2="99.01"/>
        </g>
        <g>
          <path class="cls-37" d="M377.49,135.91l1.15-1.93,3.98,2.3c.51.3.96.3,1.25.07h0s1.73-1,1.73-1h0c.26-.15.43-.44.43-.87l.15-16.89c0-.91-.69-2.05-1.56-2.55l-13.82-7.99c-.51-.3-.96-.3-1.25-.06h0s-1.74,1.01-1.74,1.01h0c-.26.15-.42.44-.42.87l-.15,16.89c0,.91.69,2.05,1.56,2.55l4.87,2.81,2,5.88,1.82-1.07Z"/>
          <g>
            <path class="cls-1" d="M378.37,133.19l3.96,2.29.33,1.66,1.73-1.01h0c.26-.15.43-.44.43-.87l.15-16.89c0-.91-.69-2.05-1.56-2.55l-13.82-7.99c-.51-.3-.96-.3-1.25-.06h0s-1.74,1.01-1.74,1.01l1.39,1.39-.14,15.29c0,.91.69,2.05,1.56,2.55l4.87,2.81.18,6.95,1.82-1.07,2.08-3.52Z"/>
            <path class="cls-30" d="M374.46,137.78l2.08-3.52,4.87,2.81c.87.5,1.58.17,1.59-.74l.15-16.89c0-.91-.69-2.05-1.56-2.55l-13.82-7.99c-.87-.5-1.58-.17-1.59.74l-.15,16.89c0,.91.69,2.05,1.56,2.55l4.87,2.81,2,5.88Z"/>
          </g>
          <g>
            <polygon class="cls-38" points="371.64 127.26 370.36 125.58 368.82 128.09 371.64 127.26"/>
            <path class="cls-7" d="M379.72,118.41l-9.36,7.17c-.16.12,0,.6.35,1.06.36.46.77.74.93.62l9.36-7.17-1.29-1.68Z"/>
            <path class="cls-38" d="M381.01,120.09c-.16.12-.58-.15-.93-.62-.36-.46-.51-.94-.35-1.06.16-.12.58.15.93.62.36.46.51.94.35,1.06Z"/>
            <path class="cls-38" d="M378.95,120.33c-.36-.46-.51-.94-.35-1.06l-.84.64c-.16.12,0,.6.35,1.06.36.46.77.74.93.62l.84-.64c-.16.12-.58-.15-.93-.62Z"/>
          </g>
        </g>
        <g>
          <g>
            <path class="cls-37" d="M446.78,128.1l1.15-1.93,3.98,2.3c.51.3.96.3,1.25.07h0s1.73-1,1.73-1h0c.26-.15.43-.44.43-.87l.15-16.89c0-.91-.69-2.05-1.56-2.55l-13.82-7.99c-.51-.3-.96-.3-1.25-.06h0s-1.74,1.01-1.74,1.01h0c-.26.15-.42.44-.42.87l-.15,16.89c0,.91.69,2.05,1.56,2.55l4.87,2.81,2,5.88,1.82-1.07Z"/>
            <g>
              <path class="cls-44" d="M447.66,125.38l3.96,2.29.33,1.66,1.73-1.01h0c.26-.15.43-.44.43-.87l.15-16.89c0-.91-.69-2.05-1.56-2.55l-13.82-7.99c-.51-.3-.96-.3-1.25-.06h0s-1.74,1.01-1.74,1.01l1.39,1.39-.14,15.29c0,.91.69,2.05,1.56,2.55l4.87,2.81.18,6.95,1.82-1.07,2.08-3.52Z"/>
              <path class="cls-1" d="M443.76,129.97l2.08-3.52,4.87,2.81c.87.5,1.58.17,1.59-.74l.15-16.89c0-.91-.69-2.05-1.56-2.55l-13.82-7.99c-.87-.5-1.58-.17-1.59.74l-.15,16.89c0,.91.69,2.05,1.56,2.55l4.87,2.81,2,5.88Z"/>
            </g>
          </g>
          <polygon class="cls-38" points="438.1 112.71 449.32 111.42 442.99 121.71 442.03 116.36 438.1 112.71"/>
        </g>
        <g>
          <g>
            <path class="cls-10" d="M391.35,182h9.1c-.62-5.85-1.04-9.13-1.72-12.43-.22-1.09-.7-2.22-2.15-3.06-1.44-.83-3.33-1.25-5.23-1.25s-3.79.42-5.23,1.25c-1.46.84-1.93,1.98-2.15,3.06-.68,3.3-1.1,6.58-1.72,12.43h9.1Z"/>
            <path class="cls-46" d="M394.53,162.36c0,2.88,2.25,5.21,5.02,5.21s5.02-2.33,5.02-5.21-2.25-5.21-5.02-5.21-5.02,2.33-5.02,5.21ZM396.19,162.36c0-1.93,1.5-3.49,3.36-3.49s3.36,1.56,3.36,3.49-1.5,3.49-3.36,3.49-3.36-1.56-3.36-3.49Z"/>
            <path class="cls-40" d="M391.35,154.73h9.1c-.62,5.85-1.04,9.13-1.72,12.43-.22,1.09-.7,2.22-2.15,3.06-1.44.83-3.33,1.25-5.23,1.25s-3.79-.42-5.23-1.25c-1.46-.84-1.93-1.98-2.15-3.06-.68-3.3-1.1-6.58-1.72-12.43h9.1Z"/>
            <path class="cls-57" d="M397.8,158.45c3.54-2.05,3.54-5.39,0-7.44-3.54-2.05-9.34-2.05-12.89,0-3.54,2.05-3.54,5.39,0,7.44,3.54,2.05,9.34,2.05,12.89,0Z"/>
            <path class="cls-41" d="M385.54,153.11c3.2-1.85,8.43-1.85,11.62,0,1.88,1.08,2.64,2.57,2.32,3.99-.42.49-.98.95-1.68,1.35-3.54,2.05-9.34,2.05-12.89,0-.7-.41-1.26-.86-1.68-1.35-.33-1.42.44-2.91,2.32-3.99Z"/>
            <path class="cls-30" d="M384.72,158.79c-1.84-1.06-2.85-2.5-2.85-4.05s1.01-2.99,2.85-4.05c3.66-2.11,9.62-2.11,13.27,0,1.84,1.06,2.85,2.5,2.85,4.05s-1.01,2.99-2.85,4.05c-1.83,1.06-4.23,1.58-6.64,1.58s-4.81-.53-6.64-1.58ZM385.1,151.35c-1.59.92-2.46,2.12-2.46,3.39s.88,2.47,2.47,3.39c3.45,1.99,9.05,1.99,12.5,0,1.59-.92,2.46-2.12,2.46-3.39s-.87-2.47-2.46-3.39c-1.72-1-3.99-1.49-6.25-1.49s-4.53.5-6.25,1.49Z"/>
          </g>
          <path class="cls-53" d="M390.26,159.53s-1.61-4.27.77-6.79c-1.73-3.49,1.33-6.36,3.16-6.66.64-3.49,5.19-6.87,8.73-5.14,3.54,1.73,2.95,6.32-.1,8.35-3.05,2.03-5.21,1.44-5.21,1.44,0,0-1,2.48-3.75,3.06-.13,2.52-1.46,4.47-3.6,5.74Z"/>
        </g>
        <g>
          <g>
            <path class="cls-25" d="M422.56,115.9l.1-.18c-.06-.04-.21-.07-.39.02,0,0-.02,0-.02.01l-8.98,5.29c-.15.09-.22.27-.17.44l2.44,7.93c.02.06.07.1.14.09h.09s9.27-5.57,9.27-5.57l-2.47-8.04Z"/>
            <path class="cls-38" d="M425.23,123.92l-9.47,5.57-2.47-8.02c-.05-.18.02-.37.18-.46l9-5.3c.1-.06.23,0,.26.1l2.49,8.1Z"/>
            <path class="cls-25" d="M431.11,127.31l-.21.16-5.68-3.27-9.47,5.29v.12c0,.1.05.19.14.24l5.62,3.23c.21.12.46.12.67,0l8.9-5.17s.01-.01.02-.02c0,0,.01,0,.02-.01,0,0,0,0,0,0,.22-.19.11-.49-.02-.56Z"/>
            <polygon class="cls-30" points="424.5 123.56 416.2 128.45 413.92 121.53 422.23 116.65 424.5 123.56"/>
            <path class="cls-38" d="M425.23,123.92l5.87,3.37c.13.07.13.26,0,.33l-8.9,5.17c-.21.12-.46.12-.67,0l-5.76-3.31,9.47-5.57Z"/>
            <path class="cls-2" d="M427.56,128.96l-1.05-.61c-.19-.11-.5-.11-.7,0l-2.47,1.43c-.19.11-.19.29,0,.4l1.05.61c.19.11.5.11.7,0l2.47-1.43c.19-.11.19-.29,0-.4"/>
            <polygon class="cls-24" points="425.01 124.66 428.42 126.6 420.58 131.15 417.22 129.24 425.01 124.66"/>
            <line class="cls-66" x1="425.23" y1="123.92" x2="415.76" y2="129.49"/>
          </g>
          <g>
            <path class="cls-51" d="M426.82,114.84s-.5,2.18.19,3.06c.35.45.98.41.98.41l.23,2.24s1.7.46,2.29.23c.58-.23-.43-2.57-.33-3.18.1-.61.53-3.02-.58-3.33-1.12-.3-2.57-.83-2.77.58Z"/>
            <path class="cls-51" d="M421.7,160.9l.64,9.92s-1.25.15-2.01.08c-.76-.07-.28.51.9,1.09,1.18.57,1.89.83,2.45.62.56-.22-.19-1.37-.07-2.12.12-.76,1.33-9.27,1.33-9.27l-3.23-.31Z"/>
            <path class="cls-51" d="M436.43,160.83l5.2,8.47s-.59,1.29-1.12,1.84c-.73.75-.44,1.19.96.5,1.17-.58,1.78-.94,2.17-1.39.39-.45-.81-1.12-1.05-1.85-.24-.73-3.16-8.82-3.16-8.82l-3,1.24Z"/>
            <path class="cls-61" d="M421.22,171.99c-1.18-.57-1.66-1.16-.9-1.09.45.04,1.06,0,1.49-.03-.12.55.63.98.63.98l1.32-.24c.12.47.22.87-.09.99-.56.22-1.27-.04-2.45-.62Z"/>
            <path class="cls-61" d="M443.12,169.19c.38.42.77.79.52,1.07-.39.45-1,.81-2.17,1.39-1.39.69-1.69.26-.96-.5.29-.3.6-.83.82-1.24.28.2.62.22.62.22l1.17-.95Z"/>
            <path class="cls-25" d="M422.71,133.97s-1.05,24.59-1.19,26.55c-.14,1.96,2.3,1.69,3.35,1.82s4.1,2.43,7.47,2.09c3.38-.34,5.24-3.07,6.15-3.42.91-.35,1.57-.67,1.57-.67l-6.9-21.23s.1-3.48-1.83-5.77l-8.63.64Z"/>
            <path class="cls-21" d="M422.61,136.46c.07-1.54.11-2.5.11-2.5l8.63-.64c1.25,1.48,1.65,3.44,1.77,4.65-4.78,2.99-8.7.24-10.51-1.52Z"/>
            <path class="cls-51" d="M434.48,125.59s1.29,4.33,0,5.87c-1.29,1.54-4.61-1.53-4.61-1.53l2.21-4.06,2.4-.28Z"/>
            <path class="cls-45" d="M434.17,131.72h0c-1.45.84-4.29-1.79-4.29-1.79l2.21-4.06.8-.09c-.2,1.32-.8,6.18,1.28,5.95Z"/>
            <path class="cls-1" d="M432.6,120.25c1.71.24,2.36,3.7,2.74,5.59,0,0-1.48,1.26-3.15.94-1.68-.31.42-6.53.42-6.53Z"/>
            <path class="cls-1" d="M431.56,131.09c1.36-4.53,2.26-9.96,2.26-9.96-1.07-1.16-2.19-1.7-3.26-1.86,0,0,0,0,0,0-.92.4-1.56.33-1.88.24-.19-.05-.39-.07-.58-.01-2.06.65-3.56,2.22-3.56,2.22l-2.57,12.95c7.38,3.48,10.93-.6,10.93-.6-.43-1.2-1.49-2.49-1.34-2.97Z"/>
            <path class="cls-50" d="M421.97,134.66l2.35-9.81s.66-.72,1.72-1.51l1.08-.17-.55,8.36.38,4.5c-1.41-.09-3.06-.48-4.98-1.38Z"/>
            <path class="cls-51" d="M414.91,127.39l.5,1.58c.1-.31.29-.99.35-.63.09.53.19,1.23.19,1.23l4.01,2.06,2.32-4.83,3.3,1.69s-2.07,6.23-4.73,6.3c-3.06.08-5.29-4.61-5.29-4.61,0,0-.84-.76-.9-1.36s.25-1.43.25-1.43Z"/>
            <path class="cls-1" d="M425.68,120.88s-2.44,1.03-4.16,5.92c0,0,1.12,1.89,4.3,2.07,0,0,1.32-3.67,1.29-5.69-.02-2.02-.83-2.49-1.43-2.3Z"/>
            <path class="cls-15" d="M427.48,113.32s-.93.58-.66,1.52c.27.94,1.13,1.58,1.13,1.58,0,0-.03-.65.31-.58s.58.77.14,1.43c0,0,.54,1,1.79.65,0,0,.15-.8.5-1.52.35-.71.56-1.81-.23-2.62-.53-.55-2.08-.98-2.98-.47Z"/>
            <path class="cls-15" d="M431.68,113.67c0,.66-.54,1.2-1.2,1.2s-1.2-.54-1.2-1.2.54-1.2,1.2-1.2,1.2.54,1.2,1.2Z"/>
          </g>
        </g>
        <g>
          <path class="cls-12" d="M279.3,78.23l17.37-9.97h0c.22-.13.53-.11.86.08.67.39,1.22,1.34,1.22,2.12,0,.39-.14.66-.36.79h0l-17.37,9.97-1.73-2.99Z"/>
          <path class="cls-11" d="M280.16,78.32c-.67-.39-1.22-.07-1.22.71,0,.78.55,1.73,1.22,2.12.67.39,1.22.07,1.22-.71,0-.78-.55-1.73-1.22-2.12Z"/>
        </g>
        <g>
          <path class="cls-12" d="M368.99,72.78l-.04,20.03h0c0,.26-.17.51-.5.71-.67.39-1.77.39-2.44,0-.34-.19-.5-.45-.5-.71h0l.04-20.03h3.45Z"/>
          <path class="cls-11" d="M368.48,73.49c.67-.39.67-1.02,0-1.41-.67-.39-1.77-.39-2.44,0s-.67,1.02,0,1.41c.67.39,1.77.39,2.44,0Z"/>
        </g>
        <g>
          <path class="cls-35" d="M434.12,98.41c.01-5-3.5-11.09-7.85-13.6-2.13-1.23-4.07-1.37-5.49-.61l-2.28,1.3.61.43c-.47.89-.74,2.03-.74,3.39-.01,5,3.5,11.09,7.85,13.6,1.24.72,2.42,1.06,3.47,1.08l.1.6,1.65-.93c1.67-.93,2.68-2.54,2.69-5.25Z"/>
          <path class="cls-38" d="M424.24,85.96c-4.35-2.51-7.89-.49-7.9,4.5-.01,5,3.5,11.09,7.85,13.6,4.35,2.51,7.89.5,7.9-4.5.01-5-3.5-11.09-7.85-13.6"/>
          <path class="cls-1" d="M424.23,87.92c-3.41-1.97-6.19-.39-6.2,3.53-.01,3.92,2.74,8.69,6.16,10.66,3.41,1.97,6.19.39,6.2-3.53.01-3.92-2.74-8.69-6.16-10.66"/>
          <path class="cls-52" d="M418.62,91.84c.01-3.92,2.78-5.5,6.2-3.53.07.04.14.09.21.13-.26-.19-.53-.37-.8-.53-3.41-1.97-6.19-.39-6.2,3.53-.01,3.84,2.63,8.49,5.94,10.53-3.03-2.2-5.37-6.53-5.36-10.13Z"/>
          <path class="cls-38" d="M428.53,93.69c-.06-.03-.12-.05-.18-.04l-4.16.94-3.34-3.98c-.05-.06-.1-.1-.14-.12-.11-.06-.21-.06-.27.03-.08.12-.02.37.13.55l3.51,4.18c.05.05.09.09.14.12.06.03.12.05.18.04l4.32-.97c.14-.03.17-.23.08-.45-.06-.13-.15-.24-.25-.29"/>
        </g>
      </g>
      <text class="cls-73" transform="translate(382.59 26.87)"><tspan x="0" y="0">NU</tspan><tspan class="cls-81" x="14.88" y="0">R</tspan><tspan class="cls-80" x="21.41" y="0">TURE IN</tspan><tspan class="cls-92" x="60.54" y="0">F</tspan><tspan class="cls-90" x="65.96" y="0">O</tspan><tspan class="cls-80" x="74.38" y="0">TECH</tspan></text>
      <text class="cls-74" transform="translate(363.43 39.18)"><tspan x="0" y="0">(An ISO 9001:2015 Certified Company)</tspan></text>
    </g>
  </g>
</svg>