<?xml version="1.0" encoding="UTF-8"?>
<svg xmlns="http://www.w3.org/2000/svg" xmlns:xlink="http://www.w3.org/1999/xlink" viewBox="0 0 500 250">
  <defs>
    <style>
      .cls-1 {
        fill: #a30730;
      }

      .cls-1, .cls-2, .cls-3, .cls-4, .cls-5, .cls-6, .cls-7, .cls-8, .cls-9, .cls-10, .cls-11, .cls-12, .cls-13, .cls-14, .cls-15, .cls-16, .cls-17, .cls-18, .cls-19, .cls-20, .cls-21, .cls-22, .cls-23, .cls-24, .cls-25, .cls-26, .cls-27, .cls-28, .cls-29, .cls-30, .cls-31, .cls-32, .cls-33, .cls-34, .cls-35, .cls-36, .cls-37, .cls-38, .cls-39, .cls-40 {
        stroke-width: 0px;
      }

      .cls-2 {
        fill: #fc8a8a;
      }

      .cls-41 {
        fill: #2a2d7c;
        font-family: LEMONMILK-Medium, 'LEMON MILK';
        font-size: 9.92px;
      }

      .cls-41, .cls-42 {
        font-weight: 500;
      }

      .cls-3 {
        fill: #31177a;
      }

      .cls-4 {
        fill: #ffe6ef;
      }

      .cls-5 {
        fill: #efd0da;
      }

      .cls-6 {
        fill: #fc5252;
      }

      .cls-7 {
        fill: #b5c1fb;
      }

      .cls-8 {
        fill: #fec5a7;
      }

      .cls-9 {
        fill: #8598dd;
      }

      .cls-10 {
        fill: #e9fdff;
      }

      .cls-43 {
        isolation: isolate;
      }

      .cls-11 {
        fill: #6a59e3;
      }

      .cls-44 {
        font-family: CenturyGothic-Bold, 'Century Gothic';
        font-size: 20.31px;
        font-weight: 700;
      }

      .cls-44, .cls-23, .cls-45, .cls-38, .cls-46 {
        fill: #fff;
      }

      .cls-12 {
        fill: url(#Degradado_sin_nombre_15-3);
        filter: url(#drop-shadow-3);
      }

      .cls-13 {
        opacity: .39;
      }

      .cls-13, .cls-35 {
        fill: #d2dcff;
      }

      .cls-14 {
        fill: url(#_Безымянный_градиент_94);
      }

      .cls-15 {
        fill: #231068;
      }

      .cls-16 {
        fill: #930323;
      }

      .cls-17 {
        fill: #efae95;
      }

      .cls-18 {
        fill: #3a238e;
      }

      .cls-19, .cls-47, .cls-48, .cls-49, .cls-50 {
        fill: none;
      }

      .cls-20, .cls-29 {
        fill: #99cad1;
      }

      .cls-20, .cls-51 {
        opacity: .67;
      }

      .cls-52 {
        letter-spacing: 0em;
      }

      .cls-53 {
        clip-path: url(#clippath-1);
      }

      .cls-21 {
        fill: #f9c5e0;
      }

      .cls-22 {
        fill: #ba0c42;
      }

      .cls-54 {
        letter-spacing: -.02em;
      }

      .cls-24 {
        fill: #0c0097;
      }

      .cls-25 {
        fill: #e08b03;
      }

      .cls-26 {
        opacity: .55;
      }

      .cls-26, .cls-31 {
        fill: #92a5ea;
      }

      .cls-55 {
        clip-path: url(#clippath);
      }

      .cls-47 {
        stroke: #efae95;
        stroke-width: .71px;
      }

      .cls-47, .cls-48, .cls-49, .cls-50 {
        stroke-miterlimit: 10;
      }

      .cls-27 {
        fill: #ff97d3;
      }

      .cls-28 {
        fill: #04061b;
      }

      .cls-42 {
        font-family: FuturaBT-Medium, 'Futura Md BT';
        font-size: 7.09px;
      }

      .cls-30 {
        fill: #5237b5;
      }

      .cls-48 {
        stroke: #fff;
        stroke-width: 1.62px;
      }

      .cls-56 {
        letter-spacing: .02em;
      }

      .cls-57 {
        mix-blend-mode: screen;
        opacity: .13;
      }

      .cls-49 {
        stroke: #fc8a8a;
        stroke-linecap: round;
        stroke-width: 1.42px;
      }

      .cls-32 {
        fill: #efb59e;
      }

      .cls-33 {
        fill: #e1e7ff;
      }

      .cls-45 {
        font-size: 27.41px;
      }

      .cls-45, .cls-46 {
        font-family: Arial-Black, Arial;
        font-weight: 800;
      }

      .cls-34 {
        fill: url(#Degradado_sin_nombre_17);
        filter: url(#drop-shadow-4);
      }

      .cls-50 {
        stroke: #000;
        stroke-width: .43px;
      }

      .cls-36 {
        fill: url(#Degradado_sin_nombre_15);
        filter: url(#drop-shadow-1);
      }

      .cls-37 {
        fill: #ffa400;
      }

      .cls-58 {
        letter-spacing: -.04em;
      }

      .cls-38 {
        opacity: .77;
      }

      .cls-46 {
        font-size: 10.51px;
      }

      .cls-59 {
        letter-spacing: -.02em;
      }

      .cls-39 {
        fill: url(#Degradado_sin_nombre_15-2);
        filter: url(#drop-shadow-2);
      }

      .cls-40 {
        fill: #d69580;
      }
    </style>
    <clipPath id="clippath">
      <rect class="cls-19" x="-.12" y=".3" width="499.7" height="249.48"/>
    </clipPath>
    <radialGradient id="Degradado_sin_nombre_15" data-name="Degradado sin nombre 15" cx="-1319.13" cy="284.73" fx="-1319.13" fy="284.73" r="119.24" gradientTransform="translate(1109.21 -36.58) scale(.84 .88)" gradientUnits="userSpaceOnUse">
      <stop offset="0" stop-color="#fff"/>
      <stop offset="1" stop-color="#f5f5f6"/>
    </radialGradient>
    <filter id="drop-shadow-1" filterUnits="userSpaceOnUse">
      <feOffset dx="1.3" dy="1.3"/>
      <feGaussianBlur result="blur" stdDeviation="1.3"/>
      <feFlood flood-color="#000" flood-opacity=".2"/>
      <feComposite in2="blur" operator="in"/>
      <feComposite in="SourceGraphic"/>
    </filter>
    <radialGradient id="Degradado_sin_nombre_15-2" data-name="Degradado sin nombre 15" cx="-1308.87" cy="285.42" fx="-1308.87" fy="285.42" r="103.27" xlink:href="#Degradado_sin_nombre_15"/>
    <filter id="drop-shadow-2" filterUnits="userSpaceOnUse">
      <feOffset dx="1.3" dy="1.3"/>
      <feGaussianBlur result="blur-2" stdDeviation="1.3"/>
      <feFlood flood-color="#000" flood-opacity=".2"/>
      <feComposite in2="blur-2" operator="in"/>
      <feComposite in="SourceGraphic"/>
    </filter>
    <radialGradient id="Degradado_sin_nombre_15-3" data-name="Degradado sin nombre 15" cx="-1197.26" cy="254.1" fx="-1197.26" fy="254.1" r="28.8" xlink:href="#Degradado_sin_nombre_15"/>
    <filter id="drop-shadow-3" filterUnits="userSpaceOnUse">
      <feOffset dx="1.3" dy="1.3"/>
      <feGaussianBlur result="blur-3" stdDeviation="1.3"/>
      <feFlood flood-color="#000" flood-opacity=".2"/>
      <feComposite in2="blur-3" operator="in"/>
      <feComposite in="SourceGraphic"/>
    </filter>
    <linearGradient id="Degradado_sin_nombre_17" data-name="Degradado sin nombre 17" x1="87.26" y1="185.97" x2="126.94" y2="185.97" gradientUnits="userSpaceOnUse">
      <stop offset="0" stop-color="#f5f5f6"/>
      <stop offset="1" stop-color="#fff"/>
    </linearGradient>
    <filter id="drop-shadow-4" filterUnits="userSpaceOnUse">
      <feOffset dx="1.3" dy="1.3"/>
      <feGaussianBlur result="blur-4" stdDeviation="1.3"/>
      <feFlood flood-color="#000" flood-opacity=".2"/>
      <feComposite in2="blur-4" operator="in"/>
      <feComposite in="SourceGraphic"/>
    </filter>
    <clipPath id="clippath-1">
      <path class="cls-19" d="M465.93,201.11c-3.76,2.68-141.22,2.4-158.23,2.4-7.05,0-13.39,2.03-18.32-3.2-5.14-5.45-9.16-13.32-12.96-19.76-7.83-13.29-14.16-27.84-15.08-43.42-.35-5.97.18-12.26,3.34-17.34,3.16-5.08,9.53-8.53,15.25-6.77,5.44,1.67,10.4,7.59,15.6,5.28,3.5-1.56,4.47-5.96,5.11-9.74,2.41-14.15,6.83-28.68,17.06-38.75,10.23-10.07,27.62-13.99,39.16-5.45,6.36,4.71,9.96,12.24,12.64,19.69,2.67,7.45,4.73,15.25,9.02,21.9,4.29,6.65,11.49,12.12,19.4,11.73,6.94-.34,12.87-4.99,17.85-9.84,4.97-4.86,9.74-10.29,16.16-12.94,6.42-2.66,15.17-1.38,18.35,4.79,2.77,5.38.37,11.82-1.68,17.51-2.39,6.62-4.3,13.67-3.28,20.63,1.02,6.96,5.63,13.8,12.45,15.54,6.24,1.58,12.98-1.25,19.19.42,9.22,2.48,13.22,14.33,10.36,23.44-2.86,9.11-10.49,15.83-18.17,21.51,0,0,0,0,0,0-1.23.91-2.27,1.69-3.21,2.37Z"/>
    </clipPath>
    <linearGradient id="_Безымянный_градиент_94" data-name="Безымянный градиент 94" x1="489.44" y1="120.57" x2="313.36" y2="140.8" gradientUnits="userSpaceOnUse">
      <stop offset=".4" stop-color="#ffdcec"/>
      <stop offset=".52" stop-color="#f6daee"/>
      <stop offset=".71" stop-color="#dfd7f5"/>
      <stop offset=".93" stop-color="#bed2ff"/>
    </linearGradient>
  </defs>
  <g class="cls-43">
    <g id="Layer_1" data-name="Layer 1">
      <rect class="cls-23" x="-.12" y=".3" width="499.7" height="249.18"/>
      <g class="cls-55">
        <rect class="cls-19" x="-.12" y=".3" width="500" height="250"/>
      </g>
      <polygon class="cls-1" points="155.22 250.3 -.12 250.3 -.12 .3 294.53 .3 155.22 250.3"/>
      <text class="cls-45" transform="translate(18.28 38.21) scale(.96 1)"><tspan x="0" y="0">ADOBE </tspan><tspan x="0" y="32.89">INDESIGN</tspan></text>
      <text class="cls-44" transform="translate(17.2 112.53) scale(.96 1)"><tspan x="0" y="0">Professional Training </tspan><tspan x="0" y="24.37">Program</tspan></text>
      <g>
        <text class="cls-46" transform="translate(19.9 226.74) scale(.96 1)"><tspan x="0" y="0">O</tspan><tspan class="cls-56" x="8.75" y="0">f</tspan><tspan x="13.11" y="0">fline</tspan></text>
        <text class="cls-46" transform="translate(91.57 226.61) scale(.96 1)"><tspan x="0" y="0">Online</tspan></text>
        <g>
          <g>
            <path class="cls-36" d="M62.42,186.01c0,13.93-10.79,25.23-24.11,25.23s-24.11-11.29-24.11-25.23,10.79-25.23,24.11-25.23,24.11,11.29,24.11,25.23Z"/>
            <g class="cls-57">
              <path class="cls-48" d="M58.15,185.11c0,11.47-8.88,20.76-19.84,20.76s-19.84-9.3-19.84-20.76,8.88-20.76,19.84-20.76,19.84,9.3,19.84,20.76Z"/>
            </g>
            <path class="cls-39" d="M58.15,186.01c0,11.47-8.88,20.76-19.84,20.76s-19.84-9.3-19.84-20.76,8.88-20.76,19.84-20.76,19.84,9.3,19.84,20.76Z"/>
          </g>
          <g>
            <path class="cls-50" d="M48.55,185.32h-10.21c-.34,0-.62-.29-.62-.65v-9.35c0-.36.28-.65.62-.65h10.21c.34,0,.62.29.62.65v9.35c0,.35-.28.65-.62.65ZM40.9,178.65h5.09c.34,0,.62-.29.62-.65h0c0-.36-.28-.65-.62-.65h-5.09c-.34,0-.62.29-.62.65h0c0,.35.28.65.62.65ZM40.9,181.31h3.82c.34,0,.62-.29.62-.65h0c0-.36-.28-.65-.62-.65h-3.82c-.34,0-.62.29-.62.65h0c0,.35.28.65.62.65Z"/>
            <path class="cls-50" d="M32.88,174.66c.44.1.87.25,1.23.54.92.73,1.25,2.01.83,3.12-.42,1.08-1.52,1.78-2.6,1.65-1.18-.14-2.09-1.05-2.27-2.25-.21-1.44.72-2.78,2.1-3.02.04,0,.08-.03.12-.04.2,0,.4,0,.59,0Z"/>
            <path class="cls-50" d="M33.84,195.6c.18-1,.63-1.8,1.43-2.36.58-.41,1.23-.6,1.92-.56.77.04,1.44.35,2.01.89s.88,1.23,1,2.08c.08-.31.13-.56.22-.81.49-1.41,1.87-2.32,3.26-2.16,1.48.16,2.67,1.33,2.85,2.85.07.6.01,1.2.01,1.82h-19.07c-.06-1.31-.12-2.63.89-3.66.93-.94,2.03-1.28,3.27-.87,1.23.41,1.95,1.33,2.19,2.66,0,.04.01.07.02.1Z"/>
            <path class="cls-50" d="M35.73,185.64c-.74.29-1.38.78-1.86,1.51-1.16-1.56-2.63-2.11-4.47-1.55.04-1.03-.13-2.07.34-3.05.63-1.29,1.98-2.02,3.39-1.78,1.32.22,2.43,1.39,2.58,2.8.08.67.02,1.36.02,2.08Z"/>
            <path class="cls-50" d="M30.68,186.69c1.4,0,2.54,1.2,2.54,2.67,0,1.46-1.15,2.66-2.56,2.65-1.39,0-2.53-1.2-2.53-2.65,0-1.46,1.14-2.67,2.54-2.67Z"/>
            <path class="cls-50" d="M34.5,189.35c0-1.46,1.15-2.66,2.55-2.66s2.54,1.2,2.54,2.68c0,1.46-1.14,2.65-2.54,2.65-1.4,0-2.55-1.19-2.55-2.66Z"/>
            <path class="cls-50" d="M45.95,189.36c0,1.46-1.15,2.66-2.55,2.65s-2.54-1.21-2.54-2.68c0-1.46,1.15-2.65,2.54-2.65,1.4,0,2.55,1.2,2.54,2.67Z"/>
            <path class="cls-50" d="M40.27,178.65v-1.31"/>
          </g>
        </g>
        <g>
          <g>
            <path class="cls-12" d="M131.21,185.97c0,13.93-10.79,25.23-24.11,25.23s-24.11-11.29-24.11-25.23,10.79-25.23,24.11-25.23,24.11,11.29,24.11,25.23Z"/>
            <g class="cls-57">
              <path class="cls-48" d="M126.94,185.07c0,11.47-8.88,20.76-19.84,20.76s-19.84-9.3-19.84-20.76,8.88-20.76,19.84-20.76,19.84,9.3,19.84,20.76Z"/>
            </g>
            <path class="cls-34" d="M126.94,185.97c0,11.47-8.88,20.76-19.84,20.76s-19.84-9.3-19.84-20.76,8.88-20.76,19.84-20.76,19.84,9.3,19.84,20.76Z"/>
          </g>
          <g>
            <path class="cls-50" d="M113.37,174.06h4.26c.79,0,1.22.46,1.22,1.28v5.75c0,.83-.43,1.29-1.22,1.29-1.58,0-3.16,0-4.73,0-.27,0-.49.09-.68.29-.58.63-1.18,1.24-1.76,1.85-.18.19-.35.35-.63.23-.28-.12-.27-.38-.27-.63,0-.35,0-.71,0-1.06,0-.45-.18-.65-.6-.69-.72-.06-1.12-.51-1.12-1.27v-5.78c0-.81.45-1.27,1.21-1.27,1.44,0,2.87,0,4.31,0ZM109.72,178.18c0,.47.37.86.82.85.45,0,.82-.41.81-.87,0-.46-.37-.84-.81-.84-.45,0-.81.37-.81.85ZM112.54,178.16c0,.48.35.86.81.86s.82-.39.82-.86-.36-.84-.8-.85c-.45,0-.82.38-.83.85ZM115.36,178.17c0,.47.36.86.81.86s.81-.38.81-.86-.36-.84-.8-.84c-.45-.02-.82.36-.82.84Z"/>
            <path class="cls-50" d="M107.55,179.5v1.76h-8.15c-.6,0-.82.23-.82.86v10.16c0,.61.23.85.81.85h15.44c.56,0,.79-.24.79-.84v-9.61h1.67v11.52h-20.39v-12.84c0-1.18.66-1.88,1.8-1.88h8.85Z"/>
            <path class="cls-50" d="M107.11,194.54c3.72,0,7.45,0,11.17,0,.19,0,.4.05.56.14.27.16.36.5.27.81-.09.32-.18.65-.27.96-.23.82-.93,1.39-1.76,1.43h-19.79c-.7,0-1.33-.24-1.66-.88-.27-.51-.42-1.12-.56-1.7-.09-.39.25-.75.65-.79.1,0,.19,0,.3,0,3.7.02,7.4.02,11.09.02ZM107.09,196.69h1.51c.16,0,.32,0,.47-.02.24-.03.4-.21.4-.44,0-.24-.15-.44-.39-.49-.06,0-.12,0-.17,0h-3.62c-.06,0-.12,0-.17,0-.24.04-.4.23-.4.48s.17.43.42.46c.08,0,.17,0,.24,0h1.71Z"/>
            <path class="cls-50" d="M104.02,191.74h-3.19c-.41,0-.55-.14-.52-.56.04-.63.06-1.26.14-1.88.12-.96.91-1.65,1.84-1.66,1.15,0,2.31,0,3.46,0,.99,0,1.8.78,1.88,1.82.04.56.08,1.12.11,1.68.03.46-.1.6-.53.6h-3.19Z"/>
            <path class="cls-50" d="M106.06,185.09c-.01.56-.14,1.06-.45,1.52-.8,1.22-2.36,1.22-3.16,0-.58-.88-.58-2.12,0-3,.81-1.25,2.38-1.24,3.18,0,.28.44.4.95.42,1.48Z"/>
          </g>
        </g>
      </g>
      <g class="cls-53">
        <path class="cls-14" d="M465.93,201.11c-3.76,2.68-141.22,2.4-158.23,2.4-7.05,0-13.39,2.03-18.32-3.2-5.14-5.45-9.16-13.32-12.96-19.76-7.83-13.29-14.16-27.84-15.08-43.42-.35-5.97.18-12.26,3.34-17.34,3.16-5.08,9.53-8.53,15.25-6.77,5.44,1.67,10.4,7.59,15.6,5.28,3.5-1.56,4.47-5.96,5.11-9.74,2.41-14.15,6.83-28.68,17.06-38.75,10.23-10.07,27.62-13.99,39.16-5.45,6.36,4.71,9.96,12.24,12.64,19.69,2.67,7.45,4.73,15.25,9.02,21.9,4.29,6.65,11.49,12.12,19.4,11.73,6.94-.34,12.87-4.99,17.85-9.84,4.97-4.86,9.74-10.29,16.16-12.94,6.42-2.66,15.17-1.38,18.35,4.79,2.77,5.38.37,11.82-1.68,17.51-2.39,6.62-4.3,13.67-3.28,20.63,1.02,6.96,5.63,13.8,12.45,15.54,6.24,1.58,12.98-1.25,19.19.42,9.22,2.48,13.22,14.33,10.36,23.44-2.86,9.11-10.49,15.83-18.17,21.51,0,0,0,0,0,0-1.23.91-2.27,1.69-3.21,2.37Z"/>
        <path class="cls-30" d="M329.98,203.34c-1.23-3.92-2.33-8.15-2.66-12.24-.34-4.15.33-8.51,2.66-11.97,2-2.96,5.12-5.13,6.65-8.35,2.09-4.38.7-9.75-2.07-13.74-1.65-2.37-3.8-4.5-4.69-7.25-.56-1.74-.57-3.61-.36-5.42.77-6.76,4.44-13.04,4.51-19.84.06-6.36-3.64-12.6-7.85-17.11-.65-.7-1.33-1.42-2.23-1.72-.9-.31-2.07-.04-2.47.82-.19.42-.17.9-.15,1.36.07,1.33.13,2.66.2,4,.19,3.77-.47,7.19-2.71,10.25-2.2,3-5,5.7-6.13,9.34-2.75,8.84,5.74,17.94,4.04,27.04-.47,2.51-1.69,4.8-2.61,7.18-2.46,6.36-2.78,13.45-1.46,20.14,1.17,5.93,3.6,11.57,6.75,16.74,3.53.22,7.06.49,10.58.78Z"/>
        <g>
          <g>
            <path class="cls-7" d="M391.25,132.28c1.35.02,2.62.63,3.76,1.36,4.79,3.07,7.87,8.33,9.35,13.83,1.48,5.5,1.52,11.27,1.34,16.96-.07,2.35.37,11.13-3.18,9.07-2.37-1.37-4.72-8.33-5.9-10.73-2.33-4.74-3.98-9.82-4.89-15.03-.22-1.26-1.55-15.48-.48-15.46Z"/>
            <path class="cls-7" d="M409.76,177.28c5.19-8,12.4-14.67,20.78-19.22.22,3.22-1.17,6.35-2.9,9.07-4.1,6.46-7.95,10.98-13.5,16.13-1.58,1.47-8.22,5.83-8.67,5.08-1.42-2.37,2.98-9.05,4.3-11.08Z"/>
            <path class="cls-3" d="M401.03,217.75l-.63-.16c1.29-5.15,2.23-10.58,2.78-16.13.52-5.25.72-10.76.59-16.39-.13-5.27-.55-10.8-1.25-16.43-.67-5.35-1.59-10.79-2.72-16.16-.9-4.27-2.25-9.84-4.66-15.04-.27-.57-.55-1.15-.83-1.7l.57-.3c.29.56.58,1.14.85,1.72,2.44,5.25,3.8,10.87,4.71,15.18,1.14,5.39,2.06,10.85,2.73,16.22.71,5.65,1.13,11.19,1.26,16.49.14,5.65-.06,11.19-.59,16.47-.56,5.59-1.5,11.04-2.8,16.22Z"/>
            <path class="cls-3" d="M403.97,195.11s0,0-.01,0c-.18,0-.32-.16-.31-.33.14-3.56,1.97-7.7,5.46-12.32,4.99-6.61,10.14-13.44,17.18-18.17.15-.1.35-.06.45.09.1.15.06.35-.09.45-6.95,4.67-12.07,11.46-17.02,18.02-3.41,4.51-5.2,8.54-5.33,11.96,0,.17-.15.31-.32.31Z"/>
            <path class="cls-3" d="M404.12,184.05s-.09,0-.13-.03c-.16-.07-.24-.26-.17-.42,3.06-7.1,6.24-15.51,6.7-24.11.1-4.08-.21-8.3-.5-12.38-.15-2.01-.3-4.1-.4-6.13-.26-6.15-.07-14.07,3.78-20.82l.24-.43.3.39c1.21,1.57,1.52,2.02,1.5,2.23,2.65,4.53,3.31,9.46,3.35,13.03.07,5.25-1.12,10.72-3.73,17.23-1.27,3.16-2.54,6.27-4.08,9.42,0,.02-.02.04-.03.06-.88,7.8-3.76,15.32-6.54,21.76-.05.12-.17.2-.3.2ZM413.64,121.07c-3.45,6.48-3.62,14-3.37,19.88.1,2.02.25,4.1.39,6.11.3,4.1.6,8.33.5,12.45-.01.25-.03.49-.05.74,1.22-2.62,2.28-5.22,3.34-7.87,2.58-6.43,3.75-11.83,3.69-16.99-.05-3.55-.71-8.48-3.41-12.96-.24-.25-.77-.83-1.1-1.36Z"/>
            <path class="cls-3" d="M411.32,161.33l-.64-.07c.14-1.27.42-2.96.71-4.75.35-2.12.71-4.31.84-5.82.41-4.95.71-9.98.89-14.94.18-4.96.25-10,.2-14.97h.65c.05,4.97-.02,10.02-.2,14.99-.18,4.97-.48,10.01-.89,14.97-.13,1.54-.49,3.74-.84,5.87-.29,1.78-.57,3.46-.71,4.71Z"/>
          </g>
          <path class="cls-30" d="M304.96,213.49c-5.62-3.86-10.7-8.61-14.45-14.31-3.75-5.7-6.12-12.38-6.24-19.2-.04-2.55.22-5.13-.29-7.63-1.86-9.07-13.15-14.29-13.94-23.52-.33-3.8,1.25-7.36,2.16-10.97.92-3.68.24-7.09-1.36-10.52-.56-1.21-1.13-2.42-1.69-3.63-.19-.42-.39-.85-.38-1.31.04-.95,1.02-1.64,1.97-1.69.95-.05,1.86.35,2.72.75,5.6,2.59,11.38,6.98,13.72,12.89,2.5,6.32,1.48,13.52,3.31,20.07.49,1.76,1.2,3.49,2.38,4.88,1.86,2.22,4.65,3.37,7.08,4.95,4.07,2.65,7.38,7.1,7.1,11.94-.21,3.57-2.28,6.75-3.01,10.24-.86,4.08.17,8.37,2.05,12.09,1.88,3.72,4.54,7.27,7.2,10.48l-8.33,4.47Z"/>
          <path class="cls-6" d="M316.42,204.8c-8.3-8.08-13.03-19.27-15.22-30.65-2.19-11.38-2.03-23.06-1.8-34.65,6.15,2.75,12.28,5.59,17.9,9.29,5.62,3.71,10.74,8.33,14.27,14.06,4.23,6.87,5.98,14.99,6.74,23.02.57,6.07.32,12.14-.16,18.22l-21.74.7Z"/>
          <g>
            <path class="cls-27" d="M268.8,155.2c1.26-.66,2.74-.73,4.15-.62,5.96.45,11.42,3.78,15.52,8.12,4.1,4.34,7.01,9.66,9.67,15.01,1.1,2.2,5.88,10.1,1.58,9.96-2.87-.09-8.5-5.34-10.79-6.98-4.51-3.22-8.56-7.09-11.99-11.45-.83-1.05-9.13-13.53-8.14-14.05Z"/>
            <path class="cls-21" d="M308.29,187.57c.82-9.97,4.16-19.72,9.64-28.09,1.81,2.87,2.07,6.45,1.83,9.83-.58,8.01-1.88,14.1-4.44,21.62-.73,2.14-4.7,9.48-5.48,9.01-2.49-1.48-1.75-9.85-1.54-12.37Z"/>
            <path class="cls-3" d="M319.71,229.46c-1.37-5.4-3.2-10.88-5.45-16.29-2.13-5.11-4.69-10.31-7.61-15.43-2.74-4.81-5.88-9.71-9.33-14.55-3.28-4.61-6.84-9.18-10.56-13.58-2.96-3.5-6.97-7.98-11.79-11.58-.54-.4-1.08-.79-1.62-1.15l.36-.53c.54.37,1.09.76,1.64,1.17,4.87,3.64,8.92,8.15,11.9,11.68,3.73,4.41,7.3,9,10.59,13.63,3.46,4.86,6.61,9.78,9.37,14.61,2.94,5.15,5.51,10.37,7.65,15.51,2.26,5.44,4.11,10.95,5.48,16.38l-.63.16Z"/>
            <path class="cls-3" d="M311.72,206.94c-.14.04-.3-.03-.37-.17-1.64-3.35-2-8.09-1.08-14.09,1.32-8.58,2.69-17.46,6.83-25.33.08-.16.28-.22.44-.14.16.08.22.28.14.44-4.1,7.78-5.46,16.6-6.77,25.13-.9,5.87-.56,10.48,1.02,13.71.08.16.01.35-.15.43-.02.01-.04.02-.07.02Z"/>
            <path class="cls-3" d="M306.36,196.64s-.03,0-.05,0c-.18.02-.33-.12-.35-.29-.71-8.08-1.95-17.44-5.8-25.62-1.94-3.82-4.32-7.57-6.62-11.19-1.14-1.79-2.31-3.64-3.41-5.46-3.3-5.55-7.06-12.96-6.87-21.11v-.49s.45.2.45.2c1.9.85,2.4,1.11,2.49,1.31,4.71,2.87,7.77,7.1,9.58,10.37,2.67,4.81,4.3,10.46,5.12,17.78.4,3.56.77,7.05.92,10.73,0,.02,0,.05,0,.07,3.06,7.64,4.14,16.03,4.78,23.36.01.16-.09.3-.24.34ZM283.9,133.67c.03,7.72,3.62,14.76,6.78,20.08,1.1,1.82,2.27,3.66,3.4,5.45,2.31,3.64,4.7,7.4,6.66,11.25.12.26.24.52.36.78-.18-3.06-.49-6.02-.83-9.03-.81-7.23-2.42-12.8-5.05-17.53-1.81-3.26-4.88-7.49-9.61-10.28-.34-.11-1.15-.39-1.72-.72Z"/>
            <path class="cls-3" d="M301.18,172.31c-.5-1.24-1.09-2.94-1.7-4.74-.73-2.13-1.48-4.33-2.12-5.8-2.08-4.78-4.31-9.57-6.61-14.25-2.3-4.68-4.75-9.36-7.26-13.93l.57-.31c2.52,4.57,4.97,9.27,7.28,13.95,2.31,4.69,4.54,9.49,6.63,14.27.65,1.49,1.41,3.7,2.14,5.84.61,1.79,1.19,3.48,1.69,4.71l-.6.24Z"/>
          </g>
          <path class="cls-11" d="M300.12,211.27c-4.93-.75-9.38-3.48-13-6.91-3.61-3.43-6.48-7.56-9.3-11.67,2.84-.58,5.7-1.12,8.59-1.23,2.89-.11,5.84.23,8.51,1.35,3.2,1.34,5.85,3.75,8.12,6.36,1.72,1.98,3.15,4.17,4.51,6.41l-7.43,5.69Z"/>
          <g>
            <polygon class="cls-7" points="341.85 203.44 284.13 189.79 378.15 176.38 425.04 182.6 341.85 203.44"/>
            <path class="cls-26" d="M394.24,184.21c-4.92-2.09-10.51-2.47-15.76-3.04-2.28-.25-5.13-.29-7.03-1.7-.68-.5-1.16-1.19-1.26-1.98l-67.27,9.6c.06.73.58,1.28,1.27,1.68,2.04,1.16,4.71,1.32,7,1.44,2.47.13,4.9-.06,7.37-.15.93-.03,8.08.09,6.67,2.43-.34.57-1.07.93-1.54,1.37-.12.11-.34.28-.41.41-.24.43-.21.15.09.46.25.26.82.38,1.15.46,1.76.42,3.69.13,5.45-.13,3.88-.57,7.97-1.24,11.86-.48.2.04.27.33.12.46-.67.6-1.52.96-2.19,1.56-1.08.98-.5,1.8.61,2.3,1.69.76,3.74,1.08,5.54,1.49,1.51.34,3.03.63,4.56.87l47.85-11.99c.04-.22.07-.44.08-.67.06-2.29-2.31-3.63-4.14-4.41Z"/>
            <g>
              <path class="cls-27" d="M336.77,120.6c.93-.04,1.82.33,2.63.78,3.4,1.91,5.71,5.39,6.94,9.1,1.23,3.7,1.48,7.65,1.58,11.55.04,1.61.69,7.6-1.82,6.33-1.67-.85-3.56-5.51-4.46-7.11-1.78-3.15-3.1-6.56-3.93-10.09-.2-.85-1.66-10.53-.93-10.56Z"/>
              <path class="cls-7" d="M351.19,150.67c3.24-5.67,7.91-10.52,13.47-13.96.28,2.2-.56,4.39-1.63,6.32-2.56,4.58-5.01,7.82-8.61,11.57-1.02,1.07-5.4,4.31-5.74,3.82-1.06-1.56,1.69-6.31,2.51-7.75Z"/>
              <path class="cls-3" d="M346.79,178.7l-.43-.08c.68-3.57,1.11-7.32,1.28-11.15.15-3.61.07-7.39-.24-11.24-.29-3.6-.8-7.37-1.5-11.19-.67-3.64-1.51-7.32-2.49-10.96-.78-2.89-1.92-6.65-3.78-10.11-.21-.38-.42-.76-.64-1.13l.38-.23c.22.37.44.76.65,1.15,1.88,3.5,3.02,7.29,3.81,10.2.99,3.64,1.83,7.34,2.5,10.99.7,3.84,1.21,7.62,1.5,11.24.31,3.86.39,7.66.24,11.29-.16,3.84-.6,7.62-1.28,11.21Z"/>
              <path class="cls-3" d="M347.92,163.09s0,0,0,0c-.12,0-.22-.09-.23-.22-.04-2.44,1.05-5.35,3.26-8.64,3.15-4.71,6.42-9.59,11.05-13.1.1-.07.24-.05.31.04.07.1.05.24-.04.31-4.57,3.47-7.81,8.31-10.95,13-2.16,3.22-3.23,6.04-3.18,8.39,0,.12-.09.22-.21.23Z"/>
              <path class="cls-3" d="M347.52,155.52s-.04,0-.06,0c-.08-.03-.12-.12-.09-.2,1.27-3.49,2.57-7.61,2.56-11.74-.06-1.96-.33-3.97-.58-5.92-.12-.96-.25-1.96-.36-2.93-.29-2.94-.42-6.75,1.24-10.09l.1-.21.15.18c.62.72.78.93.78,1.03,1.4,2.1,1.84,4.45,1.96,6.16.18,2.51-.24,5.17-1.32,8.37-.52,1.55-1.05,3.07-1.7,4.63,0,0,0,.02-.02.03-.21,3.76-1.39,7.45-2.54,10.61-.02.06-.08.1-.14.1ZM350.37,125.06c-1.48,3.2-1.35,6.81-1.07,9.63.1.97.23,1.96.36,2.92.25,1.96.52,3.98.58,5.96,0,.12,0,.24,0,.36.51-1.29.95-2.57,1.39-3.87,1.06-3.15,1.48-5.77,1.3-8.25-.12-1.7-.57-4.05-1.99-6.12-.12-.11-.39-.38-.56-.62Z"/>
            </g>
            <g>
              <path class="cls-27" d="M383.27,150.56c-.78-.24-1.63-.13-2.42.08-3.33.87-6.08,3.32-7.96,6.21-1.88,2.89-2.98,6.2-3.93,9.51-.4,1.36-2.29,6.33.13,5.81,1.62-.35,4.27-3.91,5.4-5.07,2.22-2.29,4.12-4.91,5.61-7.73.36-.68,3.78-8.61,3.16-8.8Z"/>
              <path class="cls-7" d="M364.22,172.98c-1.49-5.57-4.39-10.75-8.36-14.93-.73,1.81-.51,3.87-.02,5.76,1.15,4.48,2.52,7.8,4.75,11.8.63,1.14,3.64,4.89,4.04,4.54,1.26-1.1-.03-5.76-.4-7.17Z"/>
              <path class="cls-3" d="M380.59,151.7c-.27.27-.54.55-.81.83-2.39,2.56-4.21,5.54-5.54,7.85-1.66,2.89-3.21,5.85-4.6,8.82-1.46,3.11-2.74,6.23-3.8,9.25-.13.36-.25.72-.37,1.08.18-.14.37-.27.55-.4.06-.18.12-.37.19-.55,1.06-3.01,2.33-6.11,3.79-9.21,1.39-2.95,2.93-5.91,4.58-8.79,1.32-2.29,3.13-5.24,5.49-7.78.26-.28.53-.56.8-.82l-.27-.28Z"/>
              <path class="cls-3" d="M364.67,180.35c-.16-1.29-.5-2.71-1.04-4.27-1.63-4.73-3.32-9.62-6.49-13.66-.07-.08-.19-.1-.27-.03-.08.07-.1.19-.03.27,3.13,3.98,4.8,8.84,6.43,13.54.56,1.63.91,3.11,1.05,4.44.12-.1.24-.2.36-.3Z"/>
              <path class="cls-3" d="M366.07,177.76c-.39-4.22-.65-9.08.3-13.73,0-.01,0-.03,0-.04-.3-2.1-.45-4.12-.59-6.18-.29-4.23.05-7.6,1.07-10.61.69-2.04,1.99-4.76,4.36-6.87.03-.13.29-.33,1.28-1l.24-.17.06.29c.95,4.6-.42,9.19-1.71,12.68-.44,1.15-.91,2.32-1.37,3.45-.93,2.29-1.89,4.66-2.6,7.03-1.34,5.03-1.08,10.47-.64,15.12,0,.11-.07.2-.18.21-.03,0-.05,0-.08,0-.07-.02-.13-.09-.13-.17ZM371.6,140.51c-2.39,2.07-3.69,4.78-4.38,6.82-1,2.95-1.33,6.28-1.05,10.46.12,1.72.24,3.42.45,5.15.04-.14.07-.29.11-.43.71-2.39,1.68-4.77,2.61-7.07.46-1.13.93-2.3,1.37-3.44,1.24-3.34,2.55-7.69,1.77-12.06-.29.25-.7.48-.89.58Z"/>
              <path class="cls-3" d="M366.31,163.52l.38.08c.16-.75.31-1.78.48-2.86.19-1.28.39-2.61.6-3.5.69-2.92,1.46-5.87,2.28-8.76.82-2.89,1.72-5.8,2.68-8.64l-.37-.12c-.96,2.85-1.86,5.77-2.69,8.66-.82,2.89-1.59,5.85-2.28,8.78-.21.91-.42,2.24-.61,3.53-.16,1.08-.32,2.1-.47,2.84Z"/>
            </g>
            <g>
              <path class="cls-11" d="M357.16,179.47l-35.01,5.99-7.23-27.88c-.44-1.71.71-3.43,2.46-3.67l31.03-4.24c1.55-.21,3,.82,3.3,2.35l5.45,27.44Z"/>
              <path class="cls-7" d="M356.24,179.01l-32.67,5.65-6.74-26.27c-.41-1.62.66-3.23,2.3-3.46l28.95-4c1.45-.2,2.8.77,3.08,2.22l5.08,25.86Z"/>
              <polygon class="cls-9" points="383.88 184.31 353.93 194.21 322.14 185.46 357.16 179.47 383.88 184.31"/>
              <polygon class="cls-7" points="371.21 187.3 361.53 190.53 354.39 188.22 364.3 185.69 371.21 187.3"/>
              <path class="cls-7" d="M340.28,182.86l-3.88.69c1.21.4,2.41.8,3.61,1.22l3.59-.71c-1.1-.41-2.21-.81-3.31-1.2Z"/>
              <path class="cls-7" d="M357.54,181.32l3.53-.7-4.38-.69-1.95.35c.95.31,1.88.66,2.8,1.04Z"/>
              <path class="cls-7" d="M353.55,180.49l-3.24.58c1.06.35,2.12.7,3.18,1.05l3.07-.6c-.99-.38-1.99-.73-3-1.02Z"/>
              <path class="cls-7" d="M349.18,181.27l-3,.54c1.16.38,2.33.73,3.5,1.06l2.71-.53c-1.07-.35-2.14-.7-3.21-1.06Z"/>
              <path class="cls-7" d="M345.05,182.01l-3.68.66c1.09.39,2.18.79,3.26,1.19l3.86-.76c-1.16-.34-2.3-.7-3.44-1.09Z"/>
              <path class="cls-7" d="M335.26,183.76l-3.99.71c1.33.39,2.66.79,3.97,1.24l3.68-.73c-1.22-.41-2.44-.82-3.67-1.23Z"/>
              <path class="cls-7" d="M330.07,184.69l-5.62,1,5.07,1.15,4.65-.92c-1.36-.44-2.73-.84-4.1-1.24Z"/>
              <path class="cls-7" d="M346.72,184.29l-3.87.76c1.21.38,2.42.76,3.63,1.15l3.57-.77c-1.11-.39-2.22-.77-3.33-1.14Z"/>
              <path class="cls-7" d="M363.95,182.43l3.51-.76-4.39-.61-1.95.38c.95.29,1.89.63,2.82.99Z"/>
              <path class="cls-7" d="M359.95,181.68l-3.23.64c1.06.33,2.13.66,3.19.99l3.05-.66c-.99-.37-2-.69-3.02-.97Z"/>
              <path class="cls-7" d="M355.59,182.54l-2.99.59c1.17.36,2.34.69,3.52.99l2.7-.58c-1.08-.33-2.15-.66-3.23-1Z"/>
              <path class="cls-7" d="M351.47,183.35l-3.67.72c1.1.37,2.19.75,3.28,1.14l3.85-.83c-1.16-.32-2.32-.66-3.46-1.03Z"/>
              <path class="cls-7" d="M341.72,185.28l-3.97.78c1.34.37,2.67.75,3.99,1.17l3.67-.79c-1.23-.39-2.46-.77-3.69-1.16Z"/>
              <path class="cls-7" d="M336.54,186.3l-5.6,1.11,5.09,1.06,4.63-1c-1.36-.41-2.74-.79-4.12-1.16Z"/>
              <path class="cls-7" d="M353.16,185.5l-3.85.85c1.22.35,2.44.7,3.66,1.07l3.56-.85c-1.12-.36-2.24-.72-3.36-1.07Z"/>
              <path class="cls-7" d="M369.21,181.96l-1.7.38c.96.27,1.9.58,2.84.92l2.76-.66c-1.29-.24-2.58-.51-3.9-.64Z"/>
              <path class="cls-7" d="M366.32,182.59l-3.21.71c1.07.31,2.14.61,3.22.92l3.04-.73c-1-.34-2.01-.65-3.04-.9Z"/>
              <path class="cls-7" d="M361.98,183.55l-2.98.66c1.17.33,2.36.64,3.54.92l2.68-.64c-1.08-.31-2.17-.62-3.25-.93Z"/>
              <path class="cls-7" d="M357.89,184.45l-3.65.81c1.1.35,2.21.7,3.31,1.06l3.83-.92c-1.17-.29-2.33-.6-3.48-.95Z"/>
              <path class="cls-7" d="M348.18,186.59l-3.95.87c1.35.34,2.69.69,4.02,1.08l3.65-.87c-1.24-.37-2.48-.72-3.71-1.08Z"/>
              <path class="cls-7" d="M343.03,187.73l-5.57,1.23,5.11.95,4.61-1.1c-1.37-.38-2.76-.73-4.14-1.07Z"/>
              <polygon class="cls-3" points="353.93 196.98 322.14 187.3 322.14 185.46 353.93 194.21 353.93 196.98"/>
              <polygon class="cls-15" points="383.88 184.31 353.93 194.21 353.93 196.98 383.88 186.84 383.88 184.31"/>
              <path class="cls-20" d="M318.66,155.62l28.95-4c1.45-.2,2.8.77,3.08,2.22l4.97,25.27.58-.1-5.08-25.86c-.28-1.45-1.63-2.42-3.08-2.22l-28.95,4c-.97.13-1.73.75-2.12,1.57.42-.46.99-.79,1.66-.88Z"/>
              <path class="cls-3" d="M316.3,157.58c-.44-1.71.71-3.43,2.46-3.67l30.69-4.19c-.33-.07-.69-.1-1.04-.05l-31.03,4.24c-1.75.24-2.91,1.96-2.46,3.67l7.23,27.88,1.38.69-7.23-28.57Z"/>
              <g>
                <g>
                  <polygon class="cls-5" points="343.63 166.52 332.41 169.06 331.89 157.92 340.51 156.44 343.33 158.22 343.63 166.52"/>
                  <polygon class="cls-4" points="343.35 158.73 343.33 158.22 340.54 156.45 340.54 158.73 343.35 158.73"/>
                  <path class="cls-49" d="M341.38,165.26c.43-.08.86-.15,1.29-.21"/>
                  <path class="cls-49" d="M338.32,165.91c.79-.18,1.57-.36,2.37-.51"/>
                  <path class="cls-49" d="M333.01,166.9c1.53-.17,3.05-.48,4.55-.82"/>
                  <path class="cls-49" d="M341.35,163.97c.43-.09.87-.17,1.3-.25"/>
                  <path class="cls-49" d="M337.26,164.8c1.16-.23,2.33-.48,3.49-.71"/>
                  <path class="cls-49" d="M333.01,165.56c1.13-.17,2.25-.38,3.37-.59"/>
                  <path class="cls-49" d="M341.36,162.64c.44-.08.87-.16,1.31-.23"/>
                  <path class="cls-49" d="M336.13,163.61c1.54-.29,3.08-.58,4.63-.86"/>
                  <path class="cls-49" d="M333.02,164.19c.74-.14,1.48-.28,2.21-.42"/>
                  <path class="cls-49" d="M341.39,161.23c.43-.08.86-.17,1.28-.26"/>
                  <path class="cls-49" d="M334.83,162.31c1.95-.36,3.92-.61,5.87-.96"/>
                  <path class="cls-49" d="M333.01,162.67c.3-.07.6-.13.91-.19"/>
                  <line class="cls-49" x1="335.99" y1="158.29" x2="339.89" y2="157.63"/>
                  <line class="cls-49" x1="335.99" y1="159.78" x2="339.89" y2="159.11"/>
                  <path class="cls-2" d="M334.82,161.12l-.99.2c-.5.1-.98-.28-.98-.8v-1.29c0-.39.27-.72.65-.8l.99-.2c.5-.1.98.28.98.8v1.29c0,.39-.27.72-.65.8Z"/>
                </g>
                <path class="cls-25" d="M345.02,166.34c-.03-.59-.56-1.02-1.13-.93l-1.09.17-.04-.89c0-.22-.21-.39-.43-.35l-5.37.85c-.19.03-.32.2-.31.39l.05.96-7,1.1c-.5.08-.86.52-.83,1.02l.84,11.54c.03.59,1.34,1.44,1.93,1.33l13.1-2.69c.48-.09.82-.52.8-1.01l-.51-11.51Z"/>
                <g>
                  <polygon class="cls-23" points="340.91 170.01 330.43 172.39 329.95 161.99 338 160.6 340.63 162.26 340.91 170.01"/>
                  <polygon class="cls-10" points="340.65 162.74 340.63 162.26 338.03 160.62 338.03 162.74 340.65 162.74"/>
                  <g class="cls-51">
                    <path class="cls-29" d="M338.81,169.42c-.27,0-.52-.19-.57-.47-.06-.31.15-.61.46-.67.44-.08.84-.14,1.23-.2.32-.04.61.18.65.49.04.31-.18.61-.49.65-.38.05-.76.11-1.19.19-.03,0-.07,0-.1,0Z"/>
                  </g>
                  <g class="cls-51">
                    <path class="cls-29" d="M335.95,170.02c-.26,0-.5-.18-.56-.45-.07-.31.12-.62.43-.69.72-.16,1.47-.33,2.22-.48.31-.06.62.14.68.45.06.31-.14.62-.45.68-.74.15-1.48.32-2.2.48-.04,0-.09.01-.13.01Z"/>
                  </g>
                  <g class="cls-51">
                    <path class="cls-29" d="M330.99,170.95c-.29,0-.54-.22-.57-.51-.03-.32.19-.6.51-.64,1.33-.15,2.64-.41,4.19-.76.31-.07.62.13.69.44.07.31-.13.62-.44.69-1.59.36-2.93.63-4.31.78-.02,0-.04,0-.06,0Z"/>
                  </g>
                  <g class="cls-51">
                    <path class="cls-29" d="M338.78,168.21c-.27,0-.51-.19-.56-.46-.06-.31.14-.61.45-.68.41-.08.81-.16,1.22-.23.31-.06.61.15.67.46.06.31-.15.61-.46.67-.4.07-.81.15-1.21.23-.04,0-.08.01-.11.01Z"/>
                  </g>
                  <g class="cls-51">
                    <path class="cls-29" d="M334.96,168.98c-.27,0-.51-.19-.56-.46-.06-.31.14-.62.45-.68.57-.11,1.14-.23,1.71-.35.52-.11,1.04-.21,1.55-.32.31-.06.62.14.68.45s-.14.62-.45.68c-.52.1-1.03.21-1.55.32-.57.12-1.14.23-1.71.35-.04,0-.08.01-.11.01Z"/>
                  </g>
                  <g class="cls-51">
                    <path class="cls-29" d="M331,169.7c-.28,0-.52-.2-.57-.49-.05-.31.17-.61.48-.66.94-.14,1.96-.32,3.13-.55.31-.06.61.14.68.46.06.31-.14.61-.46.68-1.18.23-2.22.41-3.17.56-.03,0-.06,0-.09,0Z"/>
                  </g>
                  <g class="cls-51">
                    <path class="cls-29" d="M338.79,166.97c-.27,0-.52-.2-.57-.47-.06-.31.15-.61.47-.67.41-.07.82-.15,1.23-.22.31-.05.61.15.67.47.05.31-.15.61-.47.67-.41.07-.81.14-1.22.22-.03,0-.07,0-.1,0Z"/>
                  </g>
                  <g class="cls-51">
                    <path class="cls-29" d="M333.9,167.87c-.27,0-.51-.19-.57-.47-.06-.31.15-.61.46-.67,1.74-.33,3.08-.57,4.33-.8.31-.06.61.15.67.46.06.31-.15.61-.46.67-1.25.23-2.58.47-4.32.8-.04,0-.07,0-.11,0Z"/>
                  </g>
                  <g class="cls-51">
                    <path class="cls-29" d="M331,168.42c-.27,0-.51-.19-.57-.47-.06-.31.15-.61.46-.67l2.07-.39c.31-.06.61.15.67.46.06.31-.15.61-.46.67l-2.07.39s-.07,0-.11,0Z"/>
                  </g>
                  <g class="cls-51">
                    <path class="cls-29" d="M338.82,165.65c-.27,0-.51-.19-.57-.47-.06-.31.15-.61.46-.67.42-.08.81-.16,1.18-.24.31-.07.62.13.69.44.07.31-.13.62-.44.69-.39.08-.78.17-1.22.25-.04,0-.07,0-.11,0Z"/>
                  </g>
                  <g class="cls-51">
                    <path class="cls-29" d="M332.69,166.66c-.27,0-.51-.19-.57-.47-.06-.31.15-.61.46-.67.99-.18,1.99-.34,2.96-.49.83-.13,1.69-.26,2.52-.41.31-.06.61.15.67.47.05.31-.15.61-.47.67-.85.15-1.71.28-2.55.41-.96.15-1.96.3-2.93.48-.04,0-.07,0-.1,0Z"/>
                  </g>
                  <g class="cls-51">
                    <path class="cls-29" d="M331,167c-.26,0-.5-.18-.56-.45-.07-.31.13-.62.44-.69.29-.06.57-.12.86-.18.31-.06.62.14.68.45.06.31-.14.62-.45.68-.28.06-.56.11-.84.18-.04,0-.08.01-.13.01Z"/>
                  </g>
                  <g class="cls-51">
                    <path class="cls-29" d="M333.78,162.91c-.28,0-.52-.2-.57-.48-.05-.31.16-.61.47-.66l3.64-.62c.31-.05.61.16.66.47.05.31-.16.61-.47.66l-3.64.62s-.07,0-.1,0Z"/>
                  </g>
                  <g class="cls-51">
                    <path class="cls-29" d="M333.78,164.29c-.28,0-.52-.2-.57-.48-.05-.31.16-.61.47-.66l3.64-.62c.31-.05.61.16.66.47.05.31-.16.61-.47.66l-3.64.62s-.07,0-.1,0Z"/>
                  </g>
                  <path class="cls-29" d="M332.68,164.97l-.92.19c-.47.1-.91-.26-.91-.74v-1.2c0-.36.25-.67.61-.74l.92-.19c.47-.1.91.26.91.74v1.2c0,.36-.25.67-.61.74Z"/>
                </g>
                <path class="cls-37" d="M345.92,166.47c-.03-.58-.55-1.01-1.12-.92l-1.08.17-.04-.88c0-.22-.21-.38-.43-.35l-5.32.84c-.19.03-.32.2-.31.38l.05.96-6.94,1.09c-.49.08-.85.52-.82,1.01l.63,11.81c.03.59.57,1.01,1.15.9l13.95-2.61c.48-.09.82-.52.79-1l-.51-11.42Z"/>
              </g>
              <g>
                <path class="cls-38" d="M348.93,162.15c1.36,2.35.56,5.35-1.79,6.71-2.35,1.36-5.35.56-6.71-1.79-1.36-2.35-.56-5.35,1.79-6.71,2.35-1.36,5.35-.56,6.71,1.79Z"/>
                <path class="cls-35" d="M342.23,160.36c-2.35,1.36-3.15,4.36-1.79,6.71.07.12.14.23.22.35-.88-1.91-.18-4.21,1.68-5.28,1.97-1.14,4.49-.47,5.62,1.5,1.07,1.86.54,4.2-1.18,5.42.12-.06.24-.12.36-.19,2.35-1.36,3.15-4.36,1.79-6.71-1.36-2.35-4.36-3.15-6.71-1.79Z"/>
                <path class="cls-3" d="M347.3,169.13c-2.49,1.44-5.7.59-7.14-1.91-1.44-2.49-.59-5.7,1.91-7.14,2.49-1.44,5.7-.59,7.14,1.91,1.44,2.49.59,5.7-1.91,7.14ZM342.39,160.63c-2.19,1.27-2.94,4.08-1.67,6.27,1.27,2.19,4.08,2.94,6.27,1.67,2.19-1.27,2.94-4.08,1.67-6.27-1.27-2.19-4.08-2.94-6.27-1.67Z"/>
                <path class="cls-3" d="M346.31,169.03c.43.89.95,1.88,1.54,2.9,2.05,3.54,4.16,6.14,4.71,5.82.55-.32-.65-3.45-2.7-6.98-.59-1.02-1.19-1.96-1.75-2.78l-1.8,1.04Z"/>
              </g>
              <path class="cls-13" d="M317.97,162.87l9.03-9.03-7.88,1.09c-1.64.23-2.71,1.84-2.3,3.46l1.15,4.48Z"/>
              <path class="cls-13" d="M343.23,151.6l-3.44.47c-6.52,6.52-13.04,13.04-19.57,19.57l.61,2.36,22.4-22.4Z"/>
              <polygon class="cls-13" points="352.58 160.4 351.24 153.59 322.87 181.95 323.57 184.66 329.31 183.66 352.58 160.4"/>
              <polygon class="cls-13" points="353.73 166.27 352.7 161.05 330.25 183.5 337.8 182.2 353.73 166.27"/>
            </g>
            <polygon class="cls-33" points="341.85 210.28 284.22 196.64 284.13 189.79 341.85 203.44 341.85 210.28"/>
            <polygon class="cls-31" points="425.04 187.23 341.85 210.28 341.85 203.44 425.04 182.87 425.04 187.23"/>
            <path class="cls-8" d="M382.53,143.19c.56.12,1.25.24,1.6.26.01-1.38-.42-3.17-.76-4.54-.55,1.36-.92,2.48-1.32,3.63-.09.27.13.57.48.65Z"/>
            <path class="cls-8" d="M399.37,147.64c.25,1.07.5,2.13,1.02,3.11.56,1.04,1.45,1.89.96,3.16-.25.62-.71,1.13-1.17,1.62-1.31,1.39-2.7,2.77-4.45,3.55-1.62.72-4.37,1.23-6.02.4-.71-.36-1.33-.89-1.94-1.4-.35-.3-.71-.61-.87-1.04-.04-.12-.07-.25-.05-.38.03-.16.14-.29.24-.42.78-.96,1.72-2.24,1.8-3.49.08-1.26-.39-2.83-.54-4.1-.1-.82-.16-1.75.38-2.37.54-.62,1.42-.68,2.08-1.1.91-.58,1.86-.97,2.88-1.36.81-.3,1.62-.6,2.47-.78.62-.13,1.74-2.2,2.33-1.86.55.31.2,3.68.86,6.47Z"/>
            <path class="cls-17" d="M388.91,152.58c2.22-.49,4.31-3.13,6-4.34,1.16-.83,2.65-1.66,4.19-2.16-.29-2.36-.14-4.67-.59-4.92-.6-.34-1.71,1.73-2.33,1.86-.85.18-1.66.48-2.47.78-1.03.39-1.97.78-2.88,1.36-.66.42-1.54.49-2.08,1.1-.54.62-.48,1.55-.38,2.37.14,1.22.57,2.72.54,3.95Z"/>
            <path class="cls-8" d="M398.08,129.67c1.37,1.23,1.74,3.19,1.8,5.02.08,2.72-.38,5.5-1.61,7.97-1.23,2.47-3.27,4.61-5.84,5.75-2.09.93-4.75,1.08-6.44-.37-1.02-.87-1.52-2.16-1.88-3.44-.85-3.03-1.37-8.5-1.37-11.67,0-1.84,3.78-2.89,5.53-3.69,2.89-1.32,7.4-1.75,9.82.41Z"/>
            <path class="cls-16" d="M408.19,150.41c-1.18-.48-2.4-.84-3.66-1.01-1.97-.27-3.98-.08-5.94.29-.78.14-1.55.32-2.31.51-6.15,1.59-11.13,5.04-16.28,8.59-.17.12-.36.26-.42.46-.06.19.01.4.08.59,1.48,4.17,2.55,8.47,3.62,12.77,1.92,7.71,3.84,15.41,5.76,23.12.08.31.17.65.44.84.17.12.38.15.59.18,9.67,1.39,19.62.78,29.06-1.77.57-.16,1.17-.33,1.6-.75.48-.47.66-1.17.81-1.83.72-3.33,1.13-6.73,1.21-10.13.09-3.47-.5-6.82-.65-10.25-.24-5.53-2.3-12.07-6.05-16.27-1.7-1.9-3.82-3.39-6.09-4.54-.57-.29-1.16-.56-1.75-.8Z"/>
            <path class="cls-3" d="M392.98,126.56c-1.71.08-3.41.26-5.11.44-.93.1-12.63.95-11.23,3.42.24.43.74.65,1.22.77,1.65.44,3.4.13,5.08-.17-.93.14-1.82.55-2.53,1.17-.56.49-1.03,1.31-.64,1.95.14.22.36.38.59.51.96.54,2.14.69,3.2.41,1.82-.48,5.65-4.81,7.43-2.11.52.79.37,1.85-.01,2.71-.38.86-.95,1.64-1.27,2.53-.29.82-.36,1.7-.35,2.57,0,.41.03.84.28,1.17.24.33.79.46,1.06.16-.17-.88-.09-1.81.22-2.66.17-.44.52-.93.99-.86.27.04.48.26.63.5.5.8.54,1.8.56,2.75.03,1.56.06,3.12.09,4.68,0,.39.11.9.5.96.54.09.91-.67,1.08-1.06.52.33.7,1.27,1.49,1.26.49,0,.83-.48,1.01-.93.21-.54.3-1.13.26-1.7.1.65.36,1.28.77,1.8.11.14.23.27.39.34.29.14.66.03.88-.2.23-.23.33-.56.35-.88.05-.73-.37-1.34-.42-2.01-.05-.65.32-1.43.49-2.05.41-1.45.84-2.9,1.13-4.38.4-2.08.5-4.26-.15-6.27-.65-2.01-2.13-3.83-4.13-4.5-1.06-.35-2.19-.37-3.31-.34-.19,0-.37.01-.56.02Z"/>
            <path class="cls-3" d="M345.11,195.61c-2.07-.67-4.7-.29-6.66.21-.65.17-1.3.38-1.85.76-1.26.88-1.61,2.66-.25,3.63.63.45,1.42.61,2.18.73,3.16.5,6.38.45,9.57.39,1.18-.02.8-.64.53-1.43-.18-.55-.32-1.16-.58-1.67-.44-.88-1.05-1.67-1.91-2.17-.32-.19-.67-.34-1.03-.45Z"/>
            <path class="cls-18" d="M348.64,199.91c-.18-.55-.32-1.16-.58-1.67-.08-.15-.16-.3-.25-.44-.45.45-1.08.65-1.96.59-1.34-.1-2.38-.49-3.74,0-1.06.38-1.99.93-3.11,1.15-1.14.22-2.54.13-3.48-.59.09.47.35.92.83,1.26.63.45,1.42.61,2.18.73,3.16.5,6.38.45,9.57.39,1.18-.02.8-.64.53-1.43Z"/>
            <path class="cls-8" d="M390.22,169.62c-1.1-3.99-2.7-9.17-6.27-11.4-3.62-2.26-7.73,3.65-8.73,6.83-.75,2.36-3.09,15.43-4.11,23.17-.11.87-.83,1.53-1.7,1.58-5.01.29-10.03.49-15.05.69-1.51.06-3.05.07-4.55.23-1.21.13-2.42.08-3.65.19-2.58.23-5.11,1.1-7.27,2.53-1,.66-1.95,1.46-2.44,2.55-.1.22-.18.46-.14.7.01.09.04.17.08.23,1.46-.1,2.9-.91,4.39-1.12,1.3-.19,2.61-.13,3.86.3.33.12.65.26.95.42.88.35,1.67.95,2.1,1.79.49.65.86,1.39,1.1,2.2.14.11.3.2.5.25,1.4.39,3.18.26,4.63.34,6.13.37,12.26.67,18.4.76.89.01,1.77.02,2.66.02,2.9,0,5.86-.05,8.61-.98,2.28-.76,4.42-2.21,5.66-4.23-.05-.02-.11-.03-.17-.05.67-1.03,1.18-2.18,1.52-3.35.84-2.9.79-5.98.79-9,0-4.91.15-9.91-1.16-14.65Z"/>
            <path class="cls-1" d="M390.22,169.62c-1.1-3.99-2.7-9.17-6.27-11.4-3.62-2.26-7.73,3.65-8.73,6.83-.8,2.52-3.82,16.22-4.7,23.63-6.35.4-15.03,1.06-22.86,1.4.68,2.12,1.43,5.07,1.43,7.27,0,.98-.13,3.02-.22,4,2.59.31,20.02.51,26.1.53,2.9,0,5.86-.05,8.61-.98,2.28-.76,4.42-2.21,5.66-4.23-.05-.02-.11-.03-.17-.05.67-1.03,1.18-2.18,1.52-3.35.84-2.9.79-5.98.79-9,0-4.91.15-9.91-1.16-14.65Z"/>
            <path class="cls-22" d="M351.31,201.62c.75-4.06.48-8.28-.91-12.19-.92.05-2.13.17-3.04.21.77,2.46,1.27,3.55,1.45,6.54.06,1.03-.09,4.32-.18,5.35.44.05,1.53.04,2.68.09Z"/>
            <path class="cls-24" d="M383.29,137.13c0-.09.08-.16.15-.21.41-.31.87-.34,1.35-.26.44.07.84.24,1.12.69.03.04.05.09.06.14.03.14-.05.27-.14.35-.25.22-.54.17-.84.15-.35-.03-.72-.13-1.06-.25-.23-.08-.48-.2-.6-.45-.02-.05-.04-.11-.04-.16Z"/>
            <path class="cls-28" d="M383.59,139.69c.11.36.49.56.85.45.36-.11.56-.49.45-.85-.11-.36-.49-.56-.85-.45-.36.11-.56.49-.45.85Z"/>
            <path class="cls-17" d="M386.06,141.9c.05-.13.08-.27.06-.41-.06-.35-.43-.55-.78-.61-.47-.08-1.32.05-1.94.33.1.63.2,1.23.31,1.79.25.04.5.04.69,0,.68-.14,1.4-.46,1.66-1.11Z"/>
            <path class="cls-47" d="M385.15,146.93c.77.43.45-2.02.36-2.35"/>
            <g>
              <path class="cls-32" d="M391.77,138.15c.38-.19.81-.29,1.23-.25.77.07,1.48.61,1.77,1.33.3.72.18,1.58-.26,2.22-.44.64-1.19,1.05-1.97,1.1-.26.02-.52,0-.76-.09-.75-.29-1.21-1.33-1.32-2.08-.13-.89.53-1.84,1.29-2.23Z"/>
              <path class="cls-17" d="M390.57,140.79c.13-.33.33-.63.56-.89.34-.38.82-.72,1.36-.67.65.07,1.15.67.97,1.32-.32,1.14-1.53,1.4-2.53,1.08-.16-.27-.28-.56-.36-.84Z"/>
              <path class="cls-40" d="M392.17,139.29s0,0,0,0c0,0,0,0,0,0-.01-.02-.02-.04-.02-.07.03-.21.46-.22.61-.23.36,0,.68.25.84.56.02.04-.04.07-.07.04-.15-.18-.49-.4-.73-.41-.08,0-.43.01-.49.09-.03.04-.09.04-.13.02,0,0,0,0,0,0,0,0,0,0,0,0Z"/>
              <path class="cls-40" d="M392.35,140.73c-.1-.25-.11-.52,0-.77.02-.05.1-.02.09.04-.04.2.02.48.09.66.07.16.12.32.26.42.06.04.12.07.16.13.03.05,0,.12-.06.12-.32,0-.45-.35-.55-.59Z"/>
            </g>
          </g>
          <g>
            <path class="cls-27" d="M419.93,207.78h15.96c.45-1.79,1.58-3.17,2.78-4.57,2.16-2.54,3.74-5.58,4.58-8.81.16-.61.29-1.29,0-1.85-.43-.84-1.54-1.01-2.31-1.55-1.71-1.21-1.29-3.98.07-5.57,1.36-1.59,3.35-2.5,4.87-3.94,1.52-1.44,2.51-3.91,1.27-5.59-1.06-1.44-3.16-1.55-4.92-1.23-1.12.2-2.45.46-3.25-.35-1.2-1.22.11-3.18,1.25-4.46,3.71-4.16,5.89-9.66,6.03-15.24.04-1.6-.1-3.27-.94-4.63-1.3-2.11-4.03-2.97-6.5-2.76-5.35.46-9.57,5.17-11.16,10.31-1.59,5.13-1.11,10.65-.61,16,.09,1.01.18,2.07-.18,3.02-.36.95-1.31,1.76-2.32,1.61-1.11-.17-1.74-1.34-2.64-2.01-1.46-1.08-3.81-.61-4.74.95-1.4,2.36.5,5.19,1.57,7.71.72,1.68,1.07,3.51,1.03,5.34-.01.46-.05.93-.25,1.34-1.11,2.24-4.8.27-6.98,1.5-1.17.66-1.63,2.19-1.42,3.53.2,1.33.93,2.52,1.64,3.67,1.95,3.16,3.99,5.62,7.14,7.6Z"/>
            <path class="cls-3" d="M427.18,207.31c-.15,0-.28-.12-.28-.28-.04-11.74,2.69-23.32,5.32-34.52,1.74-7.4,3.72-15.79,8.6-22.37.09-.12.27-.15.39-.06.12.09.15.27.06.39-4.82,6.49-6.78,14.82-8.51,22.17-2.63,11.17-5.35,22.71-5.31,34.39,0,.15-.12.28-.28.28h0Z"/>
            <path class="cls-3" d="M422.48,183.38c-.09,0-.17-.04-.23-.12-1.19-1.67-2.31-3.41-3.34-5.19-.08-.13-.03-.3.1-.38.13-.08.3-.03.38.1,1.02,1.76,2.13,3.49,3.31,5.15.09.12.06.3-.06.39-.05.03-.11.05-.16.05Z"/>
            <path class="cls-3" d="M428.2,193.96c-.11,0-.22-.07-.26-.18-1.28-3.29-3.03-6.37-5.2-9.16-.09-.12-.07-.3.05-.39.12-.09.3-.07.39.05,2.2,2.83,3.98,5.96,5.28,9.3.06.14-.02.3-.16.36-.03.01-.07.02-.1.02Z"/>
            <path class="cls-3" d="M426.35,207.84c-.08,0-.16-.04-.22-.1-3.69-4.63-7.93-8.84-12.6-12.49-.12-.09-.14-.27-.05-.39.09-.12.27-.14.39-.05,4.7,3.68,8.97,7.91,12.69,12.58.1.12.08.29-.04.39-.05.04-.11.06-.17.06Z"/>
            <path class="cls-3" d="M427.61,201.57s-.07,0-.11-.02c-.14-.06-.21-.22-.15-.36,4.03-9.81,10.24-17.5,18.99-23.49.13-.09.3-.05.39.07.09.13.05.3-.07.39-8.66,5.93-14.81,13.53-18.79,23.24-.04.11-.15.17-.26.17Z"/>
            <path class="cls-3" d="M433.23,169.78s-.06,0-.08-.01c-.15-.05-.23-.2-.18-.35.73-2.3,2.31-5.35,4.53-7.01.12-.09.3-.07.39.06.09.12.07.3-.06.39-2.12,1.58-3.63,4.51-4.33,6.73-.04.12-.15.19-.26.19Z"/>
            <path class="cls-3" d="M427.19,207.59c-.06,0-.12-.02-.17-.06-.12-.09-.14-.27-.05-.39,2.4-3.12,5.02-6.11,7.79-8.9.11-.11.28-.11.39,0,.11.11.11.28,0,.39-2.76,2.77-5.36,5.74-7.75,8.84-.05.07-.14.11-.22.11Z"/>
            <path class="cls-3" d="M436.48,197.21c-.07,0-.15-.03-.2-.09-.1-.11-.1-.29.01-.39l2.68-2.5c.11-.1.29-.1.39.01.1.11.1.29-.01.39l-2.68,2.5c-.05.05-.12.07-.19.07Z"/>
          </g>
          <g>
            <path class="cls-11" d="M393.72,207.76c-4.15-2.76-7.04-7.12-8.86-11.75-1.83-4.64-2.68-9.59-3.5-14.51,2.82.67,5.64,1.39,8.31,2.51,2.67,1.12,5.2,2.67,7.15,4.82,2.33,2.57,3.72,5.86,4.67,9.2.72,2.52,1.1,5.11,1.38,7.72l-9.14,2.02Z"/>
            <path class="cls-3" d="M395.5,207.72c-.15-.39-.27-.8-.36-1.22-2.65-8.58-7.52-17.17-13.81-24.29-.12-.13-.11-.34.03-.46.13-.12.34-.11.46.03,5.75,6.52,10.33,14.24,13.13,22.08.16-3.93,2.1-8.47,4.49-11.13.12-.13.32-.14.46-.02.13.12.14.32.02.46-2.83,3.16-4.98,9.13-4.14,13.19.12.39.23.77.34,1.15l-.61.21Z"/>
            <path class="cls-3" d="M392.37,198.81c-.16,0-.29-.11-.32-.27-.55-3.3-.2-8.31,2.57-11.56.12-.14.32-.15.46-.04.14.12.15.32.04.46-2.46,2.88-2.98,7.62-2.42,11.03.03.18-.09.34-.27.37-.02,0-.04,0-.05,0Z"/>
            <path class="cls-3" d="M390.48,184.32c-.05.02-.11.04-.15.09-.49.55-1.05,1.19-1.42,1.95-.54,1.12-.63,2.38-.64,3.23,0,.56.17,1.21.33,1.84.11.4.21.78.25,1.1.02.16.16.28.32.28.02,0,.03,0,.05,0,.18-.02.3-.19.27-.36-.05-.36-.16-.76-.27-1.18-.16-.59-.32-1.19-.31-1.66.01-.79.09-1.95.57-2.96.33-.68.83-1.26,1.32-1.8.1-.11.1-.27.02-.39-.12-.04-.24-.08-.36-.13Z"/>
            <g>
              <path class="cls-3" d="M385.97,186.46c-.32-1.26-.2-2.63.33-3.81h-.02c-.23,0-.45-.02-.66-.05-.51,1.27-.61,2.7-.27,4.02,0,.01.34,1.18.53,1.35.06.06.14.09.22.09.09,0,.17-.03.24-.1.11-.12.12-.3.02-.42-.08-.16-.35-.96-.38-1.08Z"/>
              <path class="cls-3" d="M386.32,187.5s0,0,0,0c0,0,0,0,0,0Z"/>
            </g>
            <path class="cls-3" d="M398.09,206.79s-.03,0-.05,0c-.18-.02-.3-.19-.27-.36.38-2.72,1.62-5.32,3.49-7.33.12-.13.33-.14.46-.02.13.12.14.33.02.46-1.78,1.91-2.96,4.39-3.32,6.98-.02.16-.16.28-.32.28Z"/>
            <path class="cls-3" d="M392.94,200.43c-.06,0-.12-.02-.17-.05-2.22-1.36-4.87-2.08-7.47-2.03-.18-.01-.33-.14-.33-.32,0-.18.14-.33.32-.33,2.73-.06,5.5.71,7.82,2.13.15.09.2.29.11.44-.06.1-.17.15-.28.15Z"/>
            <path class="cls-3" d="M390.99,196.04s-.06,0-.08-.01c-.14-.04-.23-.16-.24-.29-.05-.06-.21-.2-.71-.48l-.05-.03c-1.9-1.08-4.04-2.31-6.35-2.31-.03,0-.06,0-.09,0-.19,0-.32-.14-.33-.32,0-.18.14-.33.32-.33.03,0,.07,0,.1,0,2.49,0,4.81,1.33,6.67,2.4l.05.03c.61.34,1.14.68,1.03,1.11-.04.14-.17.24-.31.24Z"/>
          </g>
          <g>
            <path class="cls-7" d="M407.22,206.86c3.05-2.16,5.12-5.48,6.38-8.99,1.27-3.51,1.8-7.24,2.31-10.94-2.09.57-4.19,1.16-6.17,2.06-1.97.9-3.84,2.11-5.25,3.76-1.69,1.97-2.66,4.47-3.3,6.99-.49,1.9-.71,3.85-.86,5.81l6.89,1.31Z"/>
            <path class="cls-3" d="M416.08,187.21c.13-.12.13-.33,0-.46-.12-.13-.33-.13-.46,0-.86.83-1.69,1.7-2.49,2.6.11-.53.17-1.06.18-1.61,0-.18-.14-.32-.32-.33h0c-.18,0-.32.14-.32.32-.01.96-.2,1.9-.56,2.79,0,0,0,0,0,0-1.08,1.28-2.09,2.61-3.05,3.99.13-1.63.1-3.49-.44-4.76-.07-.16-.26-.24-.42-.17-.16.07-.24.26-.17.42.56,1.34.54,3.69.26,5.67-.87,1.34-1.68,2.71-2.42,4.12.26-2.39.06-5.33-.82-7.55-.07-.17-.25-.25-.42-.18-.17.07-.25.25-.18.42,1.14,2.88,1.08,7.05.36,9.42,0,0,0,0,0,0-.55,1.17-1.06,2.36-1.52,3.57-.06.17.02.35.19.42.04.01.08.02.11.02.13,0,.25-.08.3-.21.16-.42.33-.84.5-1.26.07-.02.13-.05.18-.11.55-.7,2-2.38,3.59-2.83,1.38-.4,2.8-.5,4.38-.59.18,0,.31-.16.3-.34,0-.18-.17-.33-.34-.3-1.56.09-3.08.2-4.52.61-1.08.31-2.07,1.08-2.84,1.84.66-1.44,1.38-2.85,2.18-4.23.02-.01.04-.02.05-.04,1.77-2.37,4.6-3.95,7.55-4.21.18-.02.31-.17.29-.35s-.17-.31-.35-.29c-2.16.19-4.26,1.05-5.97,2.39,0-.03,0-.05.01-.08,2.07-3.16,4.47-6.09,7.17-8.7Z"/>
          </g>
        </g>
        <path class="cls-3" d="M321.72,151.29c-.12,0-.23-.06-.29-.17-2.41-4.58-2.22-10.45.59-17.94.21-.56.43-1.12.64-1.67.66-1.7,1.34-3.45,1.79-5.24,1.31-5.25.79-11.18-1.64-18.68-.06-.17.04-.35.21-.41.17-.06.35.04.41.21,2.47,7.61,2.99,13.66,1.65,19.03-.46,1.83-1.15,3.6-1.81,5.32-.22.55-.43,1.11-.64,1.67-2.74,7.31-2.94,13.01-.62,17.42.08.16.02.35-.14.44-.05.03-.1.04-.15.04Z"/>
      </g>
      <text class="cls-41" transform="translate(382.59 26.87)"><tspan x="0" y="0">NU</tspan><tspan class="cls-54" x="14.88" y="0">R</tspan><tspan class="cls-52" x="21.41" y="0">TURE IN</tspan><tspan class="cls-59" x="60.54" y="0">F</tspan><tspan class="cls-58" x="65.96" y="0">O</tspan><tspan class="cls-52" x="74.38" y="0">TECH</tspan></text>
      <text class="cls-42" transform="translate(363.43 39.18)"><tspan x="0" y="0">(An ISO 9001:2015 Certified Company)</tspan></text>
    </g>
  </g>
</svg>