<?xml version="1.0" encoding="UTF-8"?>
<svg xmlns="http://www.w3.org/2000/svg" xmlns:xlink="http://www.w3.org/1999/xlink" viewBox="0 0 500 250">
  <defs>
    <style>
      .cls-1 {
        fill-rule: evenodd;
      }

      .cls-1, .cls-2, .cls-3, .cls-4, .cls-5, .cls-6, .cls-7, .cls-8, .cls-9, .cls-10, .cls-11, .cls-12, .cls-13, .cls-14, .cls-15, .cls-16, .cls-17, .cls-18, .cls-19 {
        stroke-width: 0px;
      }

      .cls-1, .cls-5 {
        fill: #e0e0e0;
      }

      .cls-20 {
        fill: #2a2d7c;
        font-family: LEMONMILK-Medium, 'LEMON MILK';
        font-size: 9.92px;
      }

      .cls-20, .cls-21 {
        font-weight: 500;
      }

      .cls-2 {
        fill: #b52e31;
      }

      .cls-3 {
        fill: #aa6550;
      }

      .cls-22 {
        isolation: isolate;
      }

      .cls-23 {
        opacity: .2;
      }

      .cls-24 {
        font-family: CenturyGothic-Bold, 'Century Gothic';
        font-size: 20.31px;
        font-weight: 700;
      }

      .cls-24, .cls-8, .cls-25, .cls-26 {
        fill: #fff;
      }

      .cls-6 {
        fill: url(#Degradado_sin_nombre_15-3);
        filter: url(#drop-shadow-3);
      }

      .cls-7, .cls-27, .cls-28 {
        fill: none;
      }

      .cls-29 {
        letter-spacing: 0em;
      }

      .cls-30 {
        opacity: .4;
      }

      .cls-31 {
        letter-spacing: -.02em;
      }

      .cls-32 {
        letter-spacing: -.02em;
      }

      .cls-33 {
        opacity: .3;
      }

      .cls-9 {
        fill: #fafafa;
      }

      .cls-10 {
        fill: #263238;
      }

      .cls-34 {
        clip-path: url(#clippath);
      }

      .cls-21 {
        font-family: FuturaBT-Medium, 'Futura Md BT';
        font-size: 7.09px;
      }

      .cls-11 {
        fill: #e8505b;
      }

      .cls-12 {
        fill: #ebebeb;
      }

      .cls-27 {
        stroke: #fff;
        stroke-width: 1.62px;
      }

      .cls-27, .cls-28 {
        stroke-miterlimit: 10;
      }

      .cls-35 {
        letter-spacing: .02em;
      }

      .cls-13 {
        fill: #ffbe9d;
      }

      .cls-36 {
        letter-spacing: 0em;
      }

      .cls-37 {
        mix-blend-mode: screen;
        opacity: .13;
      }

      .cls-14 {
        fill: #eb996e;
      }

      .cls-25 {
        font-size: 27.41px;
      }

      .cls-25, .cls-26 {
        font-family: Arial-Black, Arial;
        font-weight: 800;
      }

      .cls-15 {
        fill: #455a64;
      }

      .cls-16 {
        fill: url(#Degradado_sin_nombre_17);
        filter: url(#drop-shadow-4);
      }

      .cls-28 {
        stroke: #000;
        stroke-width: .43px;
      }

      .cls-17 {
        fill: url(#Degradado_sin_nombre_15);
        filter: url(#drop-shadow-1);
      }

      .cls-38 {
        letter-spacing: -.04em;
      }

      .cls-18 {
        fill: #b78876;
      }

      .cls-26 {
        font-size: 10.51px;
      }

      .cls-39 {
        letter-spacing: -.02em;
      }

      .cls-19 {
        fill: url(#Degradado_sin_nombre_15-2);
        filter: url(#drop-shadow-2);
      }
    </style>
    <clipPath id="clippath">
      <rect class="cls-7" x="1.16" y=".46" width="499.7" height="249.48"/>
    </clipPath>
    <radialGradient id="Degradado_sin_nombre_15" data-name="Degradado sin nombre 15" cx="629.93" cy="246.63" fx="629.93" fy="246.63" r="119.24" gradientTransform="translate(-520.88 -3.05) scale(.84 .88)" gradientUnits="userSpaceOnUse">
      <stop offset="0" stop-color="#fff"/>
      <stop offset="1" stop-color="#f5f5f6"/>
    </radialGradient>
    <filter id="drop-shadow-1" filterUnits="userSpaceOnUse">
      <feOffset dx="1.3" dy="1.3"/>
      <feGaussianBlur result="blur" stdDeviation="1.3"/>
      <feFlood flood-color="#000" flood-opacity=".2"/>
      <feComposite in2="blur" operator="in"/>
      <feComposite in="SourceGraphic"/>
    </filter>
    <radialGradient id="Degradado_sin_nombre_15-2" data-name="Degradado sin nombre 15" cx="640.19" cy="247.32" fx="640.19" fy="247.32" r="103.27" xlink:href="#Degradado_sin_nombre_15"/>
    <filter id="drop-shadow-2" filterUnits="userSpaceOnUse">
      <feOffset dx="1.3" dy="1.3"/>
      <feGaussianBlur result="blur-2" stdDeviation="1.3"/>
      <feFlood flood-color="#000" flood-opacity=".2"/>
      <feComposite in2="blur-2" operator="in"/>
      <feComposite in="SourceGraphic"/>
    </filter>
    <radialGradient id="Degradado_sin_nombre_15-3" data-name="Degradado sin nombre 15" cx="751.8" cy="216" fx="751.8" fy="216" r="28.8" xlink:href="#Degradado_sin_nombre_15"/>
    <filter id="drop-shadow-3" filterUnits="userSpaceOnUse">
      <feOffset dx="1.3" dy="1.3"/>
      <feGaussianBlur result="blur-3" stdDeviation="1.3"/>
      <feFlood flood-color="#000" flood-opacity=".2"/>
      <feComposite in2="blur-3" operator="in"/>
      <feComposite in="SourceGraphic"/>
    </filter>
    <linearGradient id="Degradado_sin_nombre_17" data-name="Degradado sin nombre 17" x1="88.54" y1="186.13" x2="128.23" y2="186.13" gradientUnits="userSpaceOnUse">
      <stop offset="0" stop-color="#f5f5f6"/>
      <stop offset="1" stop-color="#fff"/>
    </linearGradient>
    <filter id="drop-shadow-4" filterUnits="userSpaceOnUse">
      <feOffset dx="1.3" dy="1.3"/>
      <feGaussianBlur result="blur-4" stdDeviation="1.3"/>
      <feFlood flood-color="#000" flood-opacity=".2"/>
      <feComposite in2="blur-4" operator="in"/>
      <feComposite in="SourceGraphic"/>
    </filter>
  </defs>
  <g class="cls-22">
    <g id="Layer_1" data-name="Layer 1">
      <rect class="cls-8" x=".16" y=".46" width="499.84" height="248.91"/>
      <g>
        <g class="cls-34">
          <rect class="cls-7" x="1.16" y=".46" width="500" height="250"/>
        </g>
        <polygon class="cls-2" points="155.51 250.46 .16 250.46 .16 .46 294.81 .46 155.51 250.46"/>
        <text class="cls-25" transform="translate(19.56 38.37) scale(.96 1)"><tspan x="0" y="0">ANGULAR JS </tspan><tspan x="0" y="32.89">P</tspan><tspan class="cls-31" x="19.79" y="32.89">R</tspan><tspan class="cls-36" x="40.64" y="32.89">OGRAMMING</tspan></text>
        <text class="cls-24" transform="translate(18.49 112.68) scale(.96 1)"><tspan x="0" y="0">Professional Training </tspan><tspan x="0" y="24.37">Program</tspan></text>
        <g>
          <text class="cls-26" transform="translate(21.19 226.9) scale(.96 1)"><tspan x="0" y="0">O</tspan><tspan class="cls-35" x="8.75" y="0">f</tspan><tspan x="13.11" y="0">fline</tspan></text>
          <text class="cls-26" transform="translate(92.85 226.77) scale(.96 1)"><tspan x="0" y="0">Online</tspan></text>
          <g>
            <g>
              <path class="cls-17" d="M63.7,186.17c0,13.93-10.79,25.23-24.11,25.23s-24.11-11.29-24.11-25.23,10.79-25.23,24.11-25.23,24.11,11.29,24.11,25.23Z"/>
              <g class="cls-37">
                <path class="cls-27" d="M59.43,185.27c0,11.47-8.88,20.76-19.84,20.76s-19.84-9.3-19.84-20.76,8.88-20.76,19.84-20.76,19.84,9.3,19.84,20.76Z"/>
              </g>
              <path class="cls-19" d="M59.43,186.17c0,11.47-8.88,20.76-19.84,20.76s-19.84-9.3-19.84-20.76,8.88-20.76,19.84-20.76,19.84,9.3,19.84,20.76Z"/>
            </g>
            <g>
              <path class="cls-28" d="M49.83,185.48h-10.21c-.34,0-.62-.29-.62-.65v-9.35c0-.36.28-.65.62-.65h10.21c.34,0,.62.29.62.65v9.35c0,.35-.28.65-.62.65ZM42.18,178.8h5.09c.34,0,.62-.29.62-.65h0c0-.36-.28-.65-.62-.65h-5.09c-.34,0-.62.29-.62.65h0c0,.35.28.65.62.65ZM42.18,181.47h3.82c.34,0,.62-.29.62-.65h0c0-.36-.28-.65-.62-.65h-3.82c-.34,0-.62.29-.62.65h0c0,.35.28.65.62.65Z"/>
              <path class="cls-28" d="M34.17,174.82c.44.1.87.25,1.23.54.92.73,1.25,2.01.83,3.12-.42,1.08-1.52,1.78-2.6,1.65-1.18-.14-2.09-1.05-2.27-2.25-.21-1.44.72-2.78,2.1-3.02.04,0,.08-.03.12-.04.2,0,.4,0,.59,0Z"/>
              <path class="cls-28" d="M35.12,195.76c.18-1,.63-1.8,1.43-2.36.58-.41,1.23-.6,1.92-.56.77.04,1.44.35,2.01.89s.88,1.23,1,2.08c.08-.31.13-.56.22-.81.49-1.41,1.87-2.32,3.26-2.16,1.48.16,2.67,1.33,2.85,2.85.07.6.01,1.2.01,1.82h-19.07c-.06-1.31-.12-2.63.89-3.66.93-.94,2.03-1.28,3.27-.87,1.23.41,1.95,1.33,2.19,2.66,0,.04.01.07.02.1Z"/>
              <path class="cls-28" d="M37.01,185.79c-.74.29-1.38.78-1.86,1.51-1.16-1.56-2.63-2.11-4.47-1.55.04-1.03-.13-2.07.34-3.05.63-1.29,1.98-2.02,3.39-1.78,1.32.22,2.43,1.39,2.58,2.8.08.67.02,1.36.02,2.08Z"/>
              <path class="cls-28" d="M31.97,186.85c1.4,0,2.54,1.2,2.54,2.67,0,1.46-1.15,2.66-2.56,2.65-1.39,0-2.53-1.2-2.53-2.65,0-1.46,1.14-2.67,2.54-2.67Z"/>
              <path class="cls-28" d="M35.78,189.51c0-1.46,1.15-2.66,2.55-2.66s2.54,1.2,2.54,2.68c0,1.46-1.14,2.65-2.54,2.65-1.4,0-2.55-1.19-2.55-2.66Z"/>
              <path class="cls-28" d="M47.23,189.52c0,1.46-1.15,2.66-2.55,2.65s-2.54-1.21-2.54-2.68c0-1.46,1.15-2.65,2.54-2.65,1.4,0,2.55,1.2,2.54,2.67Z"/>
              <path class="cls-28" d="M41.56,178.8v-1.31"/>
            </g>
          </g>
          <g>
            <g>
              <path class="cls-6" d="M132.49,186.13c0,13.93-10.79,25.23-24.11,25.23s-24.11-11.29-24.11-25.23,10.79-25.23,24.11-25.23,24.11,11.29,24.11,25.23Z"/>
              <g class="cls-37">
                <path class="cls-27" d="M128.23,185.23c0,11.47-8.88,20.76-19.84,20.76s-19.84-9.3-19.84-20.76,8.88-20.76,19.84-20.76,19.84,9.3,19.84,20.76Z"/>
              </g>
              <path class="cls-16" d="M128.23,186.13c0,11.47-8.88,20.76-19.84,20.76s-19.84-9.3-19.84-20.76,8.88-20.76,19.84-20.76,19.84,9.3,19.84,20.76Z"/>
            </g>
            <g>
              <path class="cls-28" d="M114.65,174.21h4.26c.79,0,1.22.46,1.22,1.28v5.75c0,.83-.43,1.29-1.22,1.29-1.58,0-3.16,0-4.73,0-.27,0-.49.09-.68.29-.58.63-1.18,1.24-1.76,1.85-.18.19-.35.35-.63.23-.28-.12-.27-.38-.27-.63,0-.35,0-.71,0-1.06,0-.45-.18-.65-.6-.69-.72-.06-1.12-.51-1.12-1.27v-5.78c0-.81.45-1.27,1.21-1.27,1.44,0,2.87,0,4.31,0ZM111.01,178.34c0,.47.37.86.82.85.45,0,.82-.41.81-.87,0-.46-.37-.84-.81-.84-.45,0-.81.37-.81.85ZM113.82,178.32c0,.48.35.86.81.86s.82-.39.82-.86-.36-.84-.8-.85c-.45,0-.82.38-.83.85ZM116.65,178.33c0,.47.36.86.81.86s.81-.38.81-.86-.36-.84-.8-.84c-.45-.02-.82.36-.82.84Z"/>
              <path class="cls-28" d="M108.83,179.66v1.76h-8.15c-.6,0-.82.23-.82.86v10.16c0,.61.23.85.81.85h15.44c.56,0,.79-.24.79-.84v-9.61h1.67v11.52h-20.39v-12.84c0-1.18.66-1.88,1.8-1.88h8.85Z"/>
              <path class="cls-28" d="M108.39,194.69c3.72,0,7.45,0,11.17,0,.19,0,.4.05.56.14.27.16.36.5.27.81-.09.32-.18.65-.27.96-.23.82-.93,1.39-1.76,1.43h-19.79c-.7,0-1.33-.24-1.66-.88-.27-.51-.42-1.12-.56-1.7-.09-.39.25-.75.65-.79.1,0,.19,0,.3,0,3.7.02,7.4.02,11.09.02ZM108.38,196.85h1.51c.16,0,.32,0,.47-.02.24-.03.4-.21.4-.44,0-.24-.15-.44-.39-.49-.06,0-.12,0-.17,0h-3.62c-.06,0-.12,0-.17,0-.24.04-.4.23-.4.48s.17.43.42.46c.08,0,.17,0,.24,0h1.71Z"/>
              <path class="cls-28" d="M105.31,191.9h-3.19c-.41,0-.55-.14-.52-.56.04-.63.06-1.26.14-1.88.12-.96.91-1.65,1.84-1.66,1.15,0,2.31,0,3.46,0,.99,0,1.8.78,1.88,1.82.04.56.08,1.12.11,1.68.03.46-.1.6-.53.6h-3.19Z"/>
              <path class="cls-28" d="M107.34,185.25c-.01.56-.14,1.06-.45,1.52-.8,1.22-2.36,1.22-3.16,0-.58-.88-.58-2.12,0-3,.81-1.25,2.38-1.24,3.18,0,.28.44.4.95.42,1.48Z"/>
            </g>
          </g>
        </g>
        <g>
          <g>
            <path class="cls-1" d="M475.08,98.77c1.68.88,3.22,1.97,4.59,3.23l4.9-1.74,4.61,7.27-3.67,3.69c.56,1.77.89,3.63.96,5.53l4.7,2.23-1.88,8.4h-5.2c-.88,1.7-1.97,3.24-3.23,4.6l1.74,4.9-7.27,4.6-3.69-3.67c-1.77.56-3.63.89-5.53.96l-2.23,4.7-8.4-1.88v-5.2c-1.7-.88-3.23-1.97-4.6-3.23l-4.9,1.74-4.61-7.27,3.67-3.69c-.56-1.77-.89-3.63-.96-5.53l-4.7-2.23,1.88-8.4h5.2c.88-1.7,1.97-3.23,3.23-4.6l-1.74-4.9,7.27-4.6,3.69,3.67c1.77-.56,3.63-.89,5.53-.96l2.23-4.7,8.4,1.88v5.2h.01ZM467.67,108.65c-4.97-1.12-9.91,2.01-11.03,6.99-1.12,4.97,2.01,9.91,6.99,11.03,4.97,1.12,9.91-2.01,11.03-6.99,1.12-4.97-2.01-9.91-6.99-11.03Z"/>
            <g>
              <path class="cls-5" d="M428.89,82.7s.61.04,1.61.5c.98.45,2.36,1.45,3.21,3.25.41.89.7,1.97.66,3.14-.05,1.16-.36,2.41-1.08,3.52-.34.56-.79,1.08-1.31,1.52-.51.46-1.11.84-1.77,1.12-1.31.59-2.85.75-4.34.43-1.48-.35-2.81-1.15-3.74-2.24-.47-.54-.85-1.14-1.12-1.77-.28-.63-.46-1.29-.53-1.94-.18-1.31.08-2.58.53-3.64.46-1.07,1.18-1.93,1.93-2.56,1.54-1.27,3.22-1.57,4.29-1.57,1.1,0,1.67.23,1.67.23,0,.05-.6-.12-1.67-.08-1.05.04-2.66.38-4.12,1.63-.71.62-1.39,1.44-1.81,2.47-.42,1.02-.65,2.23-.47,3.47.07.62.25,1.24.52,1.83.26.6.62,1.17,1.07,1.67.88,1.03,2.14,1.78,3.54,2.11,1.4.3,2.86.16,4.1-.4.62-.26,1.19-.63,1.68-1.06.5-.42.92-.91,1.25-1.44.69-1.04,1-2.23,1.06-3.34.06-1.11-.2-2.15-.58-3.01-.79-1.75-2.09-2.74-3.03-3.23-.95-.49-1.56-.59-1.54-.64Z"/>
              <path class="cls-5" d="M434.36,75.4s0-.08-.01-.24c0-.18,0-.42-.02-.73,0-.67-.02-1.63-.04-2.87l.05.06c-1.59-.35-3.68-.8-6.21-1.35l.11-.05c-.49,1.05-1.04,2.22-1.63,3.47l-.03.06h-.07c-1.29.06-2.66.28-4.05.72l-.07.02-.06-.06c-.85-.84-1.77-1.75-2.73-2.7l.17.02c-1.69,1.07-3.48,2.21-5.36,3.41l.06-.18c.4,1.12.84,2.35,1.29,3.61l.03.09-.07.07c-.87.94-1.7,2.08-2.35,3.35l-.05.09h-.1c-1.19,0-2.5,0-3.84.01l.17-.14c-.43,1.95-.9,4.05-1.38,6.2l-.1-.2c1.08.51,2.27,1.07,3.47,1.64l.1.05v.11c.05,1.28.28,2.68.71,4.03l.03.11-.08.08c-.85.85-1.77,1.78-2.71,2.72l.03-.24c1.08,1.7,2.23,3.52,3.4,5.36l-.23-.08c1.14-.41,2.38-.85,3.62-1.29l.11-.04.09.08c.95.88,2.09,1.71,3.34,2.35h0s0,0,0,0c.05.08-.1-.17.11.17h0s0,.03,0,.03v.03s0,.06,0,.06v.12s0,.24,0,.24v.48s0,.96,0,.96c0,.64,0,1.28,0,1.91l-.15-.19c2.09.47,4.16.93,6.2,1.39l-.22.11c.55-1.17,1.1-2.32,1.65-3.47l.05-.11h.12c1.38-.06,2.74-.3,4.03-.7l.11-.03.08.08c.92.92,1.82,1.82,2.72,2.71l-.23-.03c1.83-1.16,3.62-2.29,5.37-3.39l-.07.21c-.44-1.23-.86-2.43-1.28-3.62l-.04-.1.07-.08c.95-1.03,1.74-2.16,2.36-3.34l.05-.09h.1c1.32,0,2.59,0,3.84,0l-.16.13c.49-2.18.96-4.24,1.4-6.2l.08.17c-1.22-.58-2.36-1.13-3.46-1.65l-.08-.04v-.08c-.06-1.46-.31-2.81-.7-4.05l-.02-.07.05-.05c.99-.99,1.88-1.87,2.72-2.71l-.02.14c-1.31-2.08-2.42-3.86-3.38-5.38l.1.04c-1.45.51-2.64.92-3.63,1.26h-.04s-.03-.01-.03-.01c-1.02-.95-1.89-1.53-2.47-1.9-.28-.17-.5-.3-.66-.4-.15-.09-.22-.13-.22-.13,0,0,.08.03.23.11.15.08.38.2.68.37.59.35,1.48.92,2.52,1.86h-.06c.98-.37,2.17-.8,3.61-1.32l.07-.02.04.06c.97,1.51,2.1,3.28,3.42,5.35l.05.08-.07.07c-.83.84-1.72,1.74-2.7,2.73l.03-.13c.4,1.25.67,2.62.73,4.11l-.08-.12c1.1.52,2.25,1.06,3.47,1.64l.11.05-.03.12c-.44,1.96-.89,4.02-1.38,6.2l-.03.13h-.13c-1.25,0-2.52.01-3.84.02l.15-.09c-.63,1.22-1.44,2.38-2.41,3.43l.04-.18c.42,1.18.85,2.39,1.29,3.62l.05.14-.12.08c-1.74,1.11-3.53,2.24-5.36,3.4l-.13.08-.11-.11c-.9-.89-1.8-1.79-2.72-2.71l.19.05c-1.32.42-2.71.67-4.13.72l.17-.11c-.54,1.14-1.09,2.3-1.64,3.47l-.07.14-.15-.03c-2.04-.46-4.1-.92-6.2-1.39l-.15-.03v-.16c0-.64,0-1.27,0-1.91v-.96s0-.48,0-.48v-.24s0-.12,0-.12v-.06s0-.03,0-.03v-.02h0c.21.33.06.08.1.16h0s0,0,0,0c-1.28-.66-2.45-1.51-3.42-2.41l.2.04c-1.24.44-2.48.88-3.62,1.29l-.15.05-.08-.13c-1.17-1.85-2.32-3.67-3.4-5.37l-.08-.13.11-.11c.94-.94,1.86-1.87,2.71-2.72l-.05.19c-.44-1.39-.67-2.82-.72-4.13l.11.16c-1.2-.57-2.39-1.14-3.46-1.65l-.13-.06.03-.14c.49-2.15.96-4.25,1.4-6.2l.03-.14h.14c1.34,0,2.65,0,3.84,0l-.15.09c.68-1.3,1.53-2.47,2.42-3.42l-.03.16c-.45-1.27-.88-2.5-1.28-3.62l-.04-.12.1-.07c1.89-1.19,3.68-2.32,5.37-3.39l.09-.06.08.08c.95.95,1.87,1.87,2.71,2.72l-.13-.03c1.41-.44,2.81-.66,4.11-.7l-.1.07c.6-1.25,1.16-2.41,1.66-3.46l.03-.07.08.02c2.52.58,4.61,1.06,6.19,1.43h.05s0,.06,0,.06c-.01,1.24-.02,2.19-.03,2.85,0,.31-.01.56-.01.74,0,.17,0,.25-.01.25Z"/>
            </g>
          </g>
          <g>
            <g>
              <path class="cls-7" d="M267.51,165.99c.77.58,1.45,1.25,2.03,1.99l2.59-.47,1.71,4.01-2.14,1.54c.14.93.15,1.89.03,2.84l2.17,1.5-1.63,4.05-2.6-.42c-.58.77-1.25,1.45-1.99,2.03l.47,2.59-4.01,1.71-1.55-2.14c-.93.14-1.89.15-2.84.03l-1.5,2.17-4.05-1.63.42-2.6c-.77-.58-1.45-1.25-2.03-1.99l-2.59.47-1.71-4.01,2.14-1.54c-.14-.93-.15-1.89-.03-2.84l-2.17-1.5,1.63-4.05,2.6.42c.58-.77,1.25-1.45,1.99-2.03l-.47-2.59,4.01-1.71,1.55,2.14c.93-.14,1.89-.15,2.84-.03l1.5-2.17,4.05,1.63-.42,2.6h0ZM263,170.33c-2.4-.96-5.12.2-6.09,2.6-.96,2.4.2,5.12,2.6,6.09,2.4.96,5.12-.2,6.09-2.6.96-2.4-.2-5.12-2.6-6.09Z"/>
              <path class="cls-5" d="M263,170.33s.41.1,1.04.52c.61.42,1.44,1.24,1.82,2.56.18.65.26,1.41.1,2.2-.16.78-.51,1.6-1.12,2.27-.29.34-.65.64-1.06.89-.4.25-.85.45-1.32.57-.95.26-2.02.19-2.99-.19-.97-.4-1.78-1.09-2.29-1.93-.26-.42-.45-.87-.56-1.33-.12-.46-.17-.92-.15-1.37.02-.91.34-1.74.76-2.41.43-.68,1.01-1.18,1.59-1.52,1.19-.69,2.35-.71,3.08-.59.74.13,1.11.34,1.11.34-.01.03-.39-.15-1.12-.24-.72-.09-1.84-.03-2.97.65-.55.34-1.1.83-1.5,1.48-.4.65-.69,1.44-.7,2.3-.02.43.03.87.15,1.3.11.43.29.86.54,1.25.48.8,1.25,1.44,2.16,1.82.92.36,1.92.42,2.82.18.45-.11.88-.29,1.26-.53.38-.23.72-.51,1.01-.84.58-.63.92-1.4,1.09-2.14.16-.75.1-1.48-.06-2.11-.34-1.27-1.12-2.09-1.7-2.52-.59-.44-.99-.57-.97-.6Z"/>
              <path class="cls-5" d="M267.51,165.99s0-.05.02-.16c.02-.12.04-.28.07-.49.07-.45.16-1.1.29-1.95l.03.05c-1.04-.41-2.4-.95-4.06-1.6l.08-.02c-.45.66-.95,1.39-1.49,2.17l-.03.04h-.05c-.88-.11-1.83-.11-2.82.03h-.05s-.03-.04-.03-.04c-.48-.66-1.01-1.38-1.55-2.13l.12.03c-1.26.54-2.6,1.12-4.01,1.72l.06-.12c.15.8.31,1.69.48,2.59v.07s-.04.04-.04.04c-.69.54-1.38,1.22-1.97,2.01l-.04.06h-.07c-.81-.14-1.7-.28-2.6-.43l.13-.07c-.51,1.27-1.06,2.64-1.62,4.05l-.04-.15c.68.47,1.42.98,2.17,1.5l.06.04v.08c-.12.87-.12,1.84.02,2.81v.08s-.05.05-.05.05c-.67.48-1.4,1.01-2.14,1.55l.04-.16c.54,1.27,1.12,2.63,1.71,4.01l-.15-.08c.82-.15,1.7-.31,2.59-.47h.08s.05.05.05.05c.55.7,1.23,1.39,2,1.96h0s0,0,0,0c.02.06-.05-.13.05.13h0s0,0,0,0h0s0,.03,0,.03v.04s-.02.08-.02.08l-.03.16-.05.33-.1.65c-.07.43-.14.87-.21,1.3l-.08-.15c1.37.55,2.72,1.09,4.05,1.63l-.16.05c.5-.73,1-1.45,1.5-2.17l.05-.07h.08c.94.13,1.89.11,2.81-.02h.08s.05.05.05.05c.52.72,1.04,1.43,1.54,2.14l-.15-.04c1.37-.58,2.71-1.15,4.01-1.71l-.07.14c-.16-.88-.32-1.74-.47-2.59v-.07s.04-.04.04-.04c.76-.59,1.42-1.27,1.97-2.01l.04-.06h.07c.89.16,1.76.3,2.6.43l-.12.07c.58-1.42,1.12-2.77,1.63-4.04l.04.12c-.76-.53-1.48-1.02-2.16-1.5l-.05-.03v-.06c.13-1,.11-1.94-.02-2.82v-.05s.04-.03.04-.03c.78-.56,1.48-1.06,2.14-1.54l-.03.1c-.66-1.56-1.22-2.88-1.69-4.02l.07.04c-1.04.18-1.89.33-2.6.46h-.03s-.02-.02-.02-.02c-.59-.76-1.11-1.25-1.46-1.56-.17-.15-.31-.26-.4-.34-.09-.08-.14-.11-.13-.11,0,0,.05.03.15.1.09.07.24.17.42.33.36.3.9.78,1.5,1.54l-.04-.02c.71-.13,1.56-.29,2.59-.49h.05s.02.04.02.04c.49,1.13,1.06,2.45,1.73,4l.03.06-.05.04c-.66.48-1.36.99-2.13,1.55l.04-.08c.13.89.16,1.85.04,2.87l-.04-.09c.69.48,1.41.97,2.17,1.49l.07.05-.03.08c-.51,1.28-1.05,2.63-1.62,4.05l-.03.08h-.09c-.84-.15-1.71-.29-2.6-.43l.11-.05c-.56.75-1.24,1.45-2.01,2.06l.04-.12c.16.85.31,1.71.48,2.59l.02.1-.09.04c-1.3.56-2.64,1.13-4.01,1.72l-.09.04-.06-.08c-.51-.7-1.02-1.41-1.55-2.13l.12.05c-.94.14-1.91.15-2.88.03l.12-.06c-.49.72-.99,1.44-1.5,2.17l-.06.09-.1-.04c-1.33-.53-2.68-1.08-4.05-1.62l-.1-.04.02-.11c.07-.43.14-.86.21-1.3l.1-.65.05-.33.03-.16v-.08s.02-.04.02-.04v-.02s0-.01,0-.01h0s0,0,0,0c.1.26.03.07.05.13h0s0,0,0,0c-.79-.59-1.49-1.29-2.05-2.01l.13.05c-.89.16-1.77.32-2.59.47l-.1.02-.04-.1c-.59-1.38-1.17-2.74-1.71-4.01l-.04-.1.09-.06c.74-.53,1.47-1.06,2.14-1.54l-.05.12c-.14-.99-.14-1.98-.03-2.88l.05.12c-.75-.52-1.49-1.03-2.17-1.5l-.08-.06.04-.09c.57-1.4,1.12-2.77,1.63-4.04l.04-.09.09.02c.91.15,1.79.29,2.6.42l-.11.05c.6-.81,1.31-1.5,2.01-2.05l-.04.11c-.16-.91-.32-1.79-.47-2.59l-.02-.08.08-.03c1.41-.6,2.75-1.17,4.01-1.7l.07-.03.04.06c.54.75,1.06,1.47,1.54,2.14l-.08-.04c1-.14,1.97-.14,2.87-.02l-.07.03c.54-.78,1.05-1.51,1.51-2.16l.03-.05.05.02c1.64.67,3,1.23,4.04,1.65h.03s0,.05,0,.05c-.14.84-.25,1.48-.33,1.93-.04.21-.07.38-.09.5-.02.11-.03.17-.04.17Z"/>
            </g>
            <path class="cls-1" d="M301.91,187.86c1.35,1.01,2.54,2.19,3.56,3.49l4.54-.83,3,7.03-3.74,2.71c.24,1.63.26,3.31.06,4.98l3.8,2.63-2.85,7.09-4.56-.73c-1.01,1.35-2.19,2.54-3.49,3.56l.83,4.54-7.03,3-2.71-3.74c-1.63.24-3.31.26-4.98.05l-2.62,3.8-7.09-2.85.73-4.56c-1.35-1.01-2.54-2.19-3.56-3.49l-4.54.83-3-7.03,3.74-2.71c-.24-1.63-.26-3.31-.05-4.98l-3.8-2.63,2.85-7.09,4.56.73c1.01-1.35,2.19-2.55,3.49-3.56l-.83-4.54,7.03-3,2.71,3.74c1.63-.24,3.31-.26,4.98-.05l2.62-3.8,7.09,2.85-.73,4.56h0ZM294.01,195.47c-4.2-1.69-8.98.35-10.66,4.55-1.69,4.2.35,8.98,4.55,10.66,4.2,1.69,8.98-.35,10.66-4.55,1.69-4.2-.35-8.98-4.55-10.66Z"/>
          </g>
          <g>
            <g>
              <polygon class="cls-12" points="301.6 142.6 252 142.6 252 80.92 289.94 81.03 301.6 93.69 301.6 142.6"/>
              <g>
                <path class="cls-10" d="M266.84,116.11c-.06.06-.89-.68-2.17-1.93-1.28-1.25-3.02-3.01-4.91-4.99l-.21-.22.21-.22.02-.02c1.89-1.99,3.62-3.77,4.89-5.03,1.28-1.26,2.1-2.01,2.16-1.95.06.06-.64.92-1.83,2.27-1.19,1.34-2.87,3.17-4.76,5.16l-.02.02v-.44c1.89,1.97,3.58,3.78,4.77,5.12,1.2,1.33,1.9,2.19,1.84,2.25Z"/>
                <path class="cls-10" d="M286.74,101.74c.06-.06.89.68,2.17,1.93,1.28,1.25,3.02,3.01,4.91,4.99l.21.22-.21.22-.02.02c-1.89,1.99-3.62,3.77-4.89,5.03s-2.1,2.01-2.16,1.95c-.06-.06.64-.92,1.83-2.27,1.19-1.34,2.87-3.17,4.76-5.16l.02-.02v.44c-1.89-1.97-3.58-3.78-4.77-5.12-1.2-1.33-1.9-2.19-1.84-2.25Z"/>
                <path class="cls-10" d="M270.75,118.37c-.15-.09,2.42-4.58,5.75-10.01,3.33-5.44,6.15-9.77,6.3-9.68.15.09-2.42,4.58-5.75,10.02-3.33,5.44-6.15,9.77-6.3,9.68Z"/>
              </g>
              <path class="cls-5" d="M289.94,81.03l-.04,10.33c0,1.5,1.23,2.71,2.74,2.67l8.97-.34-11.66-12.66Z"/>
            </g>
            <g>
              <rect class="cls-11" x="246.21" y="122.7" width="22" height="13.37"/>
              <g>
                <path class="cls-8" d="M252.46,132.12l.57-.67c.37.53.86.82,1.44.82.78,0,1.18-.47,1.18-1.4v-3.88h-2.5v-.86h3.47v4.69c0,1.54-.75,2.3-2.16,2.3-.82,0-1.57-.36-2.01-1Z"/>
                <path class="cls-8" d="M258.01,132.24l.36-.77c.51.46,1.39.8,2.28.8,1.19,0,1.71-.46,1.71-1.07,0-1.69-4.18-.62-4.18-3.19,0-1.07.83-1.97,2.64-1.97.81,0,1.65.22,2.22.61l-.33.79c-.6-.38-1.28-.56-1.89-.56-1.17,0-1.68.49-1.68,1.09,0,1.69,4.18.63,4.18,3.17,0,1.06-.85,1.96-2.67,1.96-1.06,0-2.09-.36-2.64-.87Z"/>
              </g>
            </g>
          </g>
          <g>
            <g>
              <path class="cls-11" d="M343.86,84.57c-1.1.55-1.8,1.7-1.8,2.95l.15,24.47c0,1.15.61,2.21,1.58,2.79l20.32,12.11s0,0,0,0l19.45-12.61c.93-.6,1.48-1.65,1.48-2.77l-.16-25.55c0-1.3-.77-2.47-1.94-2.98l-19.16-8.28-19.94,9.86Z"/>
              <g class="cls-23">
                <path class="cls-4" d="M363.8,74.7l.33,52.19,19.42-12.59c.94-.61,1.52-1.64,1.51-2.76l-.15-25.65c0-1.27-.76-2.41-1.93-2.91l-19.18-8.28Z"/>
              </g>
            </g>
            <path class="cls-8" d="M369.49,104.01l-11.85.07-2.42,5.73-3.28.02,9.96-22.91,3.15-.02,10.27,22.78-3.34.02-2.49-5.7ZM368.35,101.41l-4.88-11.16-4.74,11.22,9.62-.06Z"/>
          </g>
          <g>
            <rect class="cls-10" x="354.55" y="114.7" width="111.86" height="65.18"/>
            <path class="cls-5" d="M363.3,176.59c-.06,0-.11-13.33-.11-29.77s.05-29.77.11-29.77.11,13.33.11,29.77-.05,29.77-.11,29.77Z"/>
            <path class="cls-5" d="M361,119.57c0,.06-.83.11-1.85.11s-1.85-.05-1.85-.11.83-.11,1.85-.11,1.85.05,1.85.11Z"/>
            <path class="cls-5" d="M361,123.49c0,.06-.83.11-1.85.11s-1.85-.05-1.85-.11.83-.11,1.85-.11,1.85.05,1.85.11Z"/>
            <path class="cls-5" d="M361,127.42c0,.06-.83.11-1.85.11s-1.85-.05-1.85-.11.83-.11,1.85-.11,1.85.05,1.85.11Z"/>
            <path class="cls-5" d="M361,131.34c0,.06-.83.11-1.85.11s-1.85-.05-1.85-.11.83-.11,1.85-.11,1.85.05,1.85.11Z"/>
            <path class="cls-5" d="M361,135.26c0,.06-.83.11-1.85.11s-1.85-.05-1.85-.11.83-.11,1.85-.11,1.85.05,1.85.11Z"/>
            <path class="cls-5" d="M361,139.19c0,.06-.83.11-1.85.11s-1.85-.05-1.85-.11.83-.11,1.85-.11,1.85.05,1.85.11Z"/>
            <path class="cls-5" d="M361,143.11c0,.06-.83.11-1.85.11s-1.85-.05-1.85-.11.83-.11,1.85-.11,1.85.05,1.85.11Z"/>
            <path class="cls-5" d="M361,147.03c0,.06-.83.11-1.85.11s-1.85-.05-1.85-.11.83-.11,1.85-.11,1.85.05,1.85.11Z"/>
            <path class="cls-5" d="M361,150.95c0,.06-.83.11-1.85.11s-1.85-.05-1.85-.11.83-.11,1.85-.11,1.85.05,1.85.11Z"/>
            <path class="cls-5" d="M361,154.88c0,.06-.83.11-1.85.11s-1.85-.05-1.85-.11.83-.11,1.85-.11,1.85.05,1.85.11Z"/>
            <path class="cls-5" d="M361,158.8c0,.06-.83.11-1.85.11s-1.85-.05-1.85-.11.83-.11,1.85-.11,1.85.05,1.85.11Z"/>
            <path class="cls-5" d="M361,162.72c0,.06-.83.11-1.85.11s-1.85-.05-1.85-.11.83-.11,1.85-.11,1.85.05,1.85.11Z"/>
            <path class="cls-5" d="M361,166.65c0,.06-.83.11-1.85.11s-1.85-.05-1.85-.11.83-.11,1.85-.11,1.85.05,1.85.11Z"/>
            <path class="cls-5" d="M361,170.57c0,.06-.83.11-1.85.11s-1.85-.05-1.85-.11.83-.11,1.85-.11,1.85.05,1.85.11Z"/>
            <path class="cls-5" d="M361,174.49c0,.06-.83.11-1.85.11s-1.85-.05-1.85-.11.83-.11,1.85-.11,1.85.05,1.85.11Z"/>
            <path class="cls-11" d="M375.85,119.34c0,.06-2.15.11-4.81.11s-4.81-.05-4.81-.11,2.15-.11,4.81-.11,4.81.05,4.81.11Z"/>
            <path class="cls-11" d="M375.85,174.49c0,.06-2.15.11-4.81.11s-4.81-.05-4.81-.11,2.15-.11,4.81-.11,4.81.05,4.81.11Z"/>
            <path class="cls-11" d="M389.23,127.42c0,.06-4.03.11-8.99.11s-8.99-.05-8.99-.11,4.03-.11,8.99-.11,8.99.05,8.99.11Z"/>
            <path class="cls-5" d="M410.03,127.42c0,.06-4.03.11-8.99.11s-8.99-.05-8.99-.11,4.03-.11,8.99-.11,8.99.05,8.99.11Z"/>
            <path class="cls-5" d="M402.09,131.34c0,.06-5.93.11-13.25.11s-13.26-.05-13.26-.11,5.93-.11,13.26-.11,13.25.05,13.25.11Z"/>
            <path class="cls-5" d="M402.09,135.26c0,.06-5.93.11-13.25.11s-13.26-.05-13.26-.11,5.93-.11,13.26-.11,13.25.05,13.25.11Z"/>
            <path class="cls-5" d="M420.33,147.03c0,.06-5.93.11-13.25.11s-13.26-.05-13.26-.11,5.93-.11,13.26-.11,13.25.05,13.25.11Z"/>
            <path class="cls-5" d="M412.46,139.19c0,.06-5.93.11-13.25.11s-13.26-.05-13.26-.11,5.93-.11,13.26-.11,13.25.05,13.25.11Z"/>
            <path class="cls-5" d="M444.85,139.19c0,.06-5.93.11-13.25.11s-13.26-.05-13.26-.11,5.93-.11,13.26-.11,13.25.05,13.25.11Z"/>
            <path class="cls-9" d="M433.59,131.34c0,.06-5.93.11-13.25.11s-13.26-.05-13.26-.11,5.93-.11,13.26-.11,13.25.05,13.25.11Z"/>
            <path class="cls-9" d="M451.9,147.03c0,.06-5.93.11-13.25.11s-13.26-.05-13.26-.11,5.93-.11,13.26-.11,13.25.05,13.25.11Z"/>
            <path class="cls-15" d="M448.24,135.26c0,.06-9.22.11-20.58.11s-20.58-.05-20.58-.11,9.21-.11,20.58-.11,20.58.05,20.58.11Z"/>
            <path class="cls-9" d="M375.85,123.49c0,.06-2.15.11-4.81.11s-4.81-.05-4.81-.11,2.15-.11,4.81-.11,4.81.05,4.81.11Z"/>
            <path class="cls-9" d="M375.85,170.57c0,.06-2.15.11-4.81.11s-4.81-.05-4.81-.11,2.15-.11,4.81-.11,4.81.05,4.81.11Z"/>
            <path class="cls-9" d="M380.61,139.19c0,.06-2.15.11-4.81.11s-4.81-.05-4.81-.11,2.15-.11,4.81-.11,4.81.05,4.81.11Z"/>
            <path class="cls-11" d="M457.66,139.19c0,.06-2.15.11-4.81.11s-4.81-.05-4.81-.11,2.15-.11,4.81-.11,4.81.05,4.81.11Z"/>
            <path class="cls-11" d="M389.23,154.85c0,.06-4.03.11-8.99.11s-8.99-.05-8.99-.11,4.03-.11,8.99-.11,8.99.05,8.99.11Z"/>
            <path class="cls-5" d="M410.03,154.85c0,.06-4.03.11-8.99.11s-8.99-.05-8.99-.11,4.03-.11,8.99-.11,8.99.05,8.99.11Z"/>
            <path class="cls-5" d="M402.09,158.78c0,.06-5.93.11-13.25.11s-13.26-.05-13.26-.11,5.93-.11,13.26-.11,13.25.05,13.25.11Z"/>
            <path class="cls-5" d="M402.09,162.7c0,.06-5.93.11-13.25.11s-13.26-.05-13.26-.11,5.93-.11,13.26-.11,13.25.05,13.25.11Z"/>
            <path class="cls-5" d="M412.46,166.62c0,.06-5.93.11-13.25.11s-13.26-.05-13.26-.11,5.93-.11,13.26-.11,13.25.05,13.25.11Z"/>
            <path class="cls-5" d="M444.85,166.62c0,.06-5.93.11-13.25.11s-13.26-.05-13.26-.11,5.93-.11,13.26-.11,13.25.05,13.25.11Z"/>
            <path class="cls-9" d="M433.59,158.78c0,.06-5.93.11-13.25.11s-13.26-.05-13.26-.11,5.93-.11,13.26-.11,13.25.05,13.25.11Z"/>
            <path class="cls-15" d="M448.24,162.7c0,.06-9.22.11-20.58.11s-20.58-.05-20.58-.11,9.21-.11,20.58-.11,20.58.05,20.58.11Z"/>
            <path class="cls-9" d="M380.61,166.62c0,.06-2.15.11-4.81.11s-4.81-.05-4.81-.11,2.15-.11,4.81-.11,4.81.05,4.81.11Z"/>
            <path class="cls-11" d="M457.66,166.62c0,.06-2.15.11-4.81.11s-4.81-.05-4.81-.11,2.15-.11,4.81-.11,4.81.05,4.81.11Z"/>
          </g>
          <g>
            <path class="cls-11" d="M481.2,178.97c-.08.04-.77-1.11-2.17-3.1-.7-.99-1.59-2.18-2.68-3.51-1.1-1.32-2.42-2.78-4.03-4.2-.81-.71-1.68-1.42-2.66-2.05-.97-.62-2.05-1.2-3.22-1.45-.58-.12-1.18-.16-1.73-.02-.56.12-1.04.45-1.42.91-.38.45-.62,1.05-.78,1.68-.16.63-.23,1.31-.24,2-.02,1.39.17,2.83.47,4.28.31,1.45.73,2.91,1.25,4.37,1.02,2.92,2.41,5.84,4.05,8.7,1.65,2.85,3.49,5.51,5.51,7.86,1.01,1.18,2.06,2.27,3.16,3.26,1.1.99,2.26,1.87,3.47,2.54.61.33,1.23.61,1.86.79.63.18,1.26.27,1.85.16.58-.1,1.11-.35,1.49-.77.39-.41.67-.95.85-1.51.36-1.14.41-2.36.36-3.51-.06-1.16-.23-2.27-.44-3.33-.43-2.11-1.04-3.98-1.63-5.59-.6-1.61-1.19-2.98-1.7-4.08-1.01-2.21-1.67-3.39-1.59-3.43.03-.02.23.26.58.8.34.55.83,1.36,1.39,2.45.57,1.08,1.22,2.43,1.88,4.05.65,1.62,1.32,3.49,1.81,5.65.24,1.08.44,2.22.53,3.44.07,1.21.06,2.51-.33,3.83-.2.65-.52,1.32-1.03,1.88-.5.57-1.24.94-2.01,1.07-.77.14-1.54.03-2.26-.16-.72-.2-1.41-.5-2.07-.85-1.31-.72-2.53-1.63-3.68-2.65-1.15-1.02-2.24-2.14-3.28-3.34-2.08-2.4-3.96-5.1-5.64-8.01-1.67-2.91-3.07-5.88-4.11-8.89-.52-1.5-.95-3-1.26-4.51-.3-1.5-.49-3.01-.45-4.51.02-.75.11-1.49.3-2.22.19-.72.48-1.44.99-2.04.49-.59,1.19-1.05,1.93-1.2.74-.17,1.47-.11,2.14.05,1.34.32,2.47.96,3.48,1.63,1.01.68,1.9,1.43,2.71,2.17,1.62,1.5,2.91,3.02,3.99,4.39,1.07,1.38,1.91,2.62,2.56,3.65.66,1.03,1.12,1.86,1.42,2.43.3.57.44.88.4.9Z"/>
            <path class="cls-11" d="M468.49,178.95c.08.05-.59,1.17-1.63,3.28-.52,1.05-1.12,2.36-1.74,3.9-.6,1.55-1.23,3.34-1.67,5.38-.22,1.02-.4,2.09-.46,3.21-.06,1.11-.02,2.29.33,3.39.18.54.44,1.06.82,1.47.37.41.88.68,1.43.8.56.12,1.18.09,1.79-.05.62-.14,1.23-.37,1.83-.66,1.21-.58,2.36-1.38,3.47-2.28,1.1-.91,2.17-1.92,3.19-3.02,2.04-2.19,3.9-4.7,5.59-7.4,1.67-2.71,3.08-5.5,4.13-8.31.53-1.4.96-2.81,1.28-4.2.31-1.39.51-2.79.49-4.12,0-.67-.08-1.32-.23-1.93-.15-.61-.39-1.18-.75-1.62-.36-.44-.82-.77-1.36-.93-.53-.16-1.11-.16-1.68-.08-1.14.17-2.21.67-3.18,1.22-.98.55-1.85,1.2-2.67,1.85-1.62,1.31-2.95,2.67-4.06,3.9-1.11,1.24-2.01,2.36-2.72,3.3-1.42,1.87-2.13,2.97-2.2,2.92-.03-.02.11-.31.42-.86.31-.54.78-1.33,1.45-2.31.67-.98,1.52-2.15,2.6-3.45,1.09-1.29,2.4-2.71,4.03-4.09.82-.69,1.71-1.37,2.73-1.98,1.02-.6,2.14-1.16,3.46-1.38.65-.11,1.37-.12,2.07.07.71.19,1.36.63,1.83,1.21.48.58.78,1.27.96,1.98.18.71.26,1.43.28,2.16.03,1.45-.17,2.91-.48,4.37-.32,1.45-.76,2.91-1.3,4.35-1.07,2.89-2.5,5.73-4.21,8.5-1.72,2.76-3.62,5.31-5.73,7.56-1.05,1.12-2.15,2.16-3.31,3.1-1.16.93-2.38,1.76-3.69,2.38-.66.31-1.34.56-2.05.71-.71.15-1.46.19-2.2.02-.73-.16-1.42-.55-1.9-1.1-.49-.54-.79-1.19-.99-1.82-.39-1.28-.39-2.54-.31-3.71.08-1.18.3-2.29.55-3.33.51-2.08,1.19-3.88,1.86-5.43.68-1.55,1.34-2.84,1.92-3.87.58-1.03,1.07-1.81,1.42-2.33.35-.51.55-.77.58-.76Z"/>
            <path class="cls-11" d="M474.03,174.21c0,.09-1.31.11-3.65.34-1.17.11-2.6.28-4.24.58-1.63.3-3.49.71-5.45,1.41-.98.35-1.99.76-2.97,1.3-.98.54-1.96,1.19-2.71,2.07-.37.44-.67.93-.82,1.47-.15.53-.12,1.1.07,1.64.19.54.54,1.05.98,1.5.44.45.96.85,1.53,1.21,1.13.72,2.42,1.28,3.77,1.75,1.35.46,2.78.83,4.25,1.12,2.94.58,6.05.85,9.24.85,3.19,0,6.3-.27,9.24-.85,1.47-.29,2.89-.66,4.25-1.12,1.35-.47,2.64-1.03,3.77-1.75.57-.36,1.08-.76,1.53-1.21.44-.45.79-.96.98-1.5.19-.54.22-1.11.07-1.64-.15-.53-.45-1.03-.82-1.47-.75-.88-1.73-1.53-2.71-2.07-.98-.54-2-.95-2.97-1.3-1.96-.69-3.82-1.1-5.45-1.4-1.64-.29-3.07-.46-4.23-.58-2.34-.23-3.65-.25-3.65-.34,0-.04.33-.07.95-.1.62-.02,1.54-.03,2.73.02,1.18.05,2.63.16,4.3.4,1.67.25,3.56.62,5.6,1.28,1.01.34,2.07.73,3.12,1.28,1.04.55,2.11,1.22,3,2.22.44.5.82,1.1,1.03,1.8.21.7.18,1.49-.07,2.2-.24.71-.67,1.33-1.18,1.86-.5.53-1.08.98-1.69,1.37-1.22.79-2.57,1.39-3.97,1.89-1.41.49-2.87.88-4.38,1.18-3.02.61-6.19.89-9.44.9-3.25,0-6.43-.29-9.44-.9-1.51-.3-2.97-.69-4.38-1.18-1.4-.5-2.75-1.1-3.97-1.89-.61-.39-1.18-.84-1.69-1.37-.5-.52-.94-1.14-1.18-1.85-.24-.71-.28-1.5-.07-2.2.21-.7.59-1.3,1.03-1.8.88-1,1.95-1.67,3-2.22,1.05-.55,2.1-.95,3.12-1.28,2.03-.66,3.93-1.03,5.6-1.28,1.67-.24,3.12-.35,4.3-.4,1.18-.05,2.1-.04,2.73-.02.62.03.95.06.95.1Z"/>
            <circle class="cls-11" cx="475.05" cy="183.01" r="3.45" transform="translate(218.13 622.5) rotate(-80.76)"/>
          </g>
          <g>
            <g>
              <path class="cls-15" d="M295.82,147.29h122.39c1.53,0,2.77,1.24,2.77,2.77v76.11c0,3.31-2.69,5.99-5.99,5.99h-116.37c-3.31,0-5.99-2.69-5.99-5.99v-75.7c0-1.76,1.43-3.19,3.19-3.19Z"/>
              <path class="cls-15" d="M287.26,225.89h139.07v1.78c0,3.12-2.53,5.65-5.65,5.65h-127.77c-3.12,0-5.65-2.53-5.65-5.65v-1.78h0Z"/>
              <rect class="cls-5" x="296.07" y="150.66" width="121.11" height="71.68"/>
              <polygon class="cls-10" points="344.15 225.89 345.88 228.63 370.16 228.63 371.76 225.89 344.15 225.89"/>
            </g>
            <rect class="cls-10" x="292.65" y="225.86" width="128.36" height=".41"/>
            <g>
              <rect class="cls-10" x="299.67" y="154.81" width="114.21" height="67.53"/>
              <path class="cls-5" d="M308.43,220.36c-.06,0-.11-14.38-.11-32.12s.05-32.12.11-32.12.11,14.38.11,32.12-.05,32.12-.11,32.12Z"/>
              <path class="cls-5" d="M306.13,161.94c0,.06-.83.11-1.86.11s-1.86-.05-1.86-.11.83-.11,1.86-.11,1.86.05,1.86.11Z"/>
              <path class="cls-5" d="M306.27,158.29c0,.06-.83.11-1.86.11s-1.86-.05-1.86-.11.83-.11,1.86-.11,1.86.05,1.86.11Z"/>
              <path class="cls-5" d="M306.13,165.87c0,.06-.83.11-1.86.11s-1.86-.05-1.86-.11.83-.11,1.86-.11,1.86.05,1.86.11Z"/>
              <path class="cls-5" d="M306.13,169.8c0,.06-.83.11-1.86.11s-1.86-.05-1.86-.11.83-.11,1.86-.11,1.86.05,1.86.11Z"/>
              <path class="cls-5" d="M306.13,173.73c0,.06-.83.11-1.86.11s-1.86-.05-1.86-.11.83-.11,1.86-.11,1.86.05,1.86.11Z"/>
              <path class="cls-5" d="M306.13,177.66c0,.06-.83.11-1.86.11s-1.86-.05-1.86-.11.83-.11,1.86-.11,1.86.05,1.86.11Z"/>
              <path class="cls-5" d="M306.13,181.58c0,.06-.83.11-1.86.11s-1.86-.05-1.86-.11.83-.11,1.86-.11,1.86.05,1.86.11Z"/>
              <path class="cls-5" d="M306.13,185.51c0,.06-.83.11-1.86.11s-1.86-.05-1.86-.11.83-.11,1.86-.11,1.86.05,1.86.11Z"/>
              <path class="cls-5" d="M306.13,189.44c0,.06-.83.11-1.86.11s-1.86-.05-1.86-.11.83-.11,1.86-.11,1.86.05,1.86.11Z"/>
              <path class="cls-5" d="M306.13,193.37c0,.06-.83.11-1.86.11s-1.86-.05-1.86-.11.83-.11,1.86-.11,1.86.05,1.86.11Z"/>
              <path class="cls-5" d="M306.13,197.3c0,.06-.83.11-1.86.11s-1.86-.05-1.86-.11.83-.11,1.86-.11,1.86.05,1.86.11Z"/>
              <path class="cls-5" d="M306.13,201.23c0,.06-.83.11-1.86.11s-1.86-.05-1.86-.11.83-.11,1.86-.11,1.86.05,1.86.11Z"/>
              <path class="cls-5" d="M306.13,205.16c0,.06-.83.11-1.86.11s-1.86-.05-1.86-.11.83-.11,1.86-.11,1.86.05,1.86.11Z"/>
              <path class="cls-5" d="M306.13,209.09c0,.06-.83.11-1.86.11s-1.86-.05-1.86-.11.83-.11,1.86-.11,1.86.05,1.86.11Z"/>
              <path class="cls-5" d="M306.13,213.02c0,.06-.83.11-1.86.11s-1.86-.05-1.86-.11.83-.11,1.86-.11,1.86.05,1.86.11Z"/>
              <path class="cls-5" d="M306.13,216.95c0,.06-.83.11-1.86.11s-1.86-.05-1.86-.11.83-.11,1.86-.11,1.86.05,1.86.11Z"/>
              <path class="cls-11" d="M321,161.71c0,.06-2.16.11-4.81.11s-4.82-.05-4.82-.11,2.16-.11,4.82-.11,4.81.05,4.81.11Z"/>
              <path class="cls-11" d="M321,216.95c0,.06-2.16.11-4.81.11s-4.82-.05-4.82-.11,2.16-.11,4.82-.11,4.81.05,4.81.11Z"/>
              <path class="cls-11" d="M334.41,169.8c0,.06-4.03.11-9.01.11s-9.01-.05-9.01-.11,4.03-.11,9.01-.11,9.01.05,9.01.11Z"/>
              <path class="cls-5" d="M355.24,169.8c0,.06-4.03.11-9.01.11s-9.01-.05-9.01-.11,4.03-.11,9.01-.11,9.01.05,9.01.11Z"/>
              <path class="cls-5" d="M347.28,173.73c0,.06-5.94.11-13.28.11s-13.28-.05-13.28-.11,5.94-.11,13.28-.11,13.28.05,13.28.11Z"/>
              <path class="cls-5" d="M347.28,177.66c0,.06-5.94.11-13.28.11s-13.28-.05-13.28-.11,5.94-.11,13.28-.11,13.28.05,13.28.11Z"/>
              <path class="cls-5" d="M365.56,189.44c0,.06-5.94.11-13.28.11s-13.28-.05-13.28-.11,5.94-.11,13.28-.11,13.28.05,13.28.11Z"/>
              <path class="cls-5" d="M357.67,181.58c0,.06-5.94.11-13.28.11s-13.28-.05-13.28-.11,5.94-.11,13.28-.11,13.28.05,13.28.11Z"/>
              <path class="cls-5" d="M390.12,181.58c0,.06-5.94.11-13.28.11s-13.28-.05-13.28-.11,5.94-.11,13.28-.11,13.28.05,13.28.11Z"/>
              <path class="cls-9" d="M378.83,173.73c0,.06-5.94.11-13.28.11s-13.28-.05-13.28-.11,5.94-.11,13.28-.11,13.28.05,13.28.11Z"/>
              <path class="cls-9" d="M397.17,189.44c0,.06-5.94.11-13.28.11s-13.28-.05-13.28-.11,5.94-.11,13.28-.11,13.28.05,13.28.11Z"/>
              <path class="cls-15" d="M393.51,177.66c0,.06-9.23.11-20.61.11s-20.62-.05-20.62-.11,9.23-.11,20.62-.11,20.61.05,20.61.11Z"/>
              <path class="cls-9" d="M321,165.87c0,.06-2.16.11-4.81.11s-4.82-.05-4.82-.11,2.16-.11,4.82-.11,4.81.05,4.81.11Z"/>
              <path class="cls-9" d="M321,213.02c0,.06-2.16.11-4.81.11s-4.82-.05-4.82-.11,2.16-.11,4.82-.11,4.81.05,4.81.11Z"/>
              <path class="cls-9" d="M325.77,181.58c0,.06-2.16.11-4.81.11s-4.82-.05-4.82-.11,2.16-.11,4.82-.11,4.81.05,4.81.11Z"/>
              <path class="cls-11" d="M402.95,181.58c0,.06-2.16.11-4.81.11s-4.82-.05-4.82-.11,2.16-.11,4.82-.11,4.81.05,4.81.11Z"/>
              <path class="cls-11" d="M334.41,197.28c0,.06-4.03.11-9.01.11s-9.01-.05-9.01-.11,4.03-.11,9.01-.11,9.01.05,9.01.11Z"/>
              <path class="cls-5" d="M355.24,197.28c0,.06-4.03.11-9.01.11s-9.01-.05-9.01-.11,4.03-.11,9.01-.11,9.01.05,9.01.11Z"/>
              <path class="cls-5" d="M347.28,201.21c0,.06-5.94.11-13.28.11s-13.28-.05-13.28-.11,5.94-.11,13.28-.11,13.28.05,13.28.11Z"/>
              <path class="cls-5" d="M347.28,205.14c0,.06-5.94.11-13.28.11s-13.28-.05-13.28-.11,5.94-.11,13.28-.11,13.28.05,13.28.11Z"/>
              <path class="cls-5" d="M357.67,209.07c0,.06-5.94.11-13.28.11s-13.28-.05-13.28-.11,5.94-.11,13.28-.11,13.28.05,13.28.11Z"/>
              <path class="cls-5" d="M390.12,209.07c0,.06-5.94.11-13.28.11s-13.28-.05-13.28-.11,5.94-.11,13.28-.11,13.28.05,13.28.11Z"/>
              <path class="cls-9" d="M378.83,201.21c0,.06-5.94.11-13.28.11s-13.28-.05-13.28-.11,5.94-.11,13.28-.11,13.28.05,13.28.11Z"/>
              <path class="cls-15" d="M393.51,205.14c0,.06-9.23.11-20.61.11s-20.62-.05-20.62-.11,9.23-.11,20.62-.11,20.61.05,20.61.11Z"/>
              <path class="cls-9" d="M325.77,209.07c0,.06-2.16.11-4.81.11s-4.82-.05-4.82-.11,2.16-.11,4.82-.11,4.81.05,4.81.11Z"/>
              <path class="cls-11" d="M402.95,209.07c0,.06-2.16.11-4.81.11s-4.82-.05-4.82-.11,2.16-.11,4.82-.11,4.81.05,4.81.11Z"/>
            </g>
          </g>
          <path class="cls-10" d="M500.85,233.32c0,.06-59.96.11-133.9.11s-133.91-.05-133.91-.11,59.94-.11,133.91-.11,133.9.05,133.9.11Z"/>
          <g>
            <path class="cls-13" d="M446.65,210.1l1.64,5.14c.63,2.12,2.41,3.72,4.61,4.13l10.97,2.06,2.98-.1-2.98-3.69-8.25-2.81c-.81-.18-1.45-.79-1.66-1.58l-3.28-7.14-4.16,2.55.13,1.44Z"/>
            <g>
              <path class="cls-11" d="M438.79,175.58c.09-.78-.19-1.6-.62-2.28-.42-.66-1.03-1.27-1.8-1.39-.88-.14-1.79.44-2.14,1.26-.35.82-.18,1.81.33,2.54.26.38.61.69,1,.93-1.14.75-2.04,1.86-2.49,3.15-.15.44-.25.89-.44,1.31-.19.42-.49.82-.91,1.01-.31.14-.66.15-.98.27-.54.2-.95.69-1.08,1.25-.14.56-.01,1.17.29,1.65.15.24.36.48.37.77,0,.19-.07.38-.12.57-.15.64.15,1.37.72,1.71.57.34,1.35.26,1.84-.18.21.48.48.96.95,1.19.47.22,1.16.02,1.25-.49.23.49.81.78,1.35.68.53-.1.96-.59,1-1.13l8.85-9.67c-1.32-3.54-6.48-3.23-7.38-3.15Z"/>
              <g>
                <g>
                  <g>
                    <g>
                      <path class="cls-13" d="M437.29,178.94c-.57.06-1,.55-.99,1.12h0l.63,14.9c.02,1.76,3.22,3.84,5.1,3.8h0c1.9-.04,1.34-2.06,1.37-3.73.05-2.8.04-3.85.05-3.83,0,0,2.4-.4,2.9-3.53.25-1.56.17-4.12.04-6.21-.12-1.88-1.36-4.19-3.24-3.99l-5.85,1.48Z"/>
                      <g>
                        <path class="cls-10" d="M445.57,183.48c0,.21-.17.39-.39.41-.22.01-.41-.15-.41-.36,0-.21.17-.39.39-.41.22-.01.41.15.42.36Z"/>
                        <path class="cls-10" d="M445.83,182.78c-.05.05-.35-.17-.79-.17-.43,0-.75.22-.8.16-.02-.02.03-.12.17-.22.14-.1.37-.2.64-.2.27,0,.5.1.63.2.13.1.18.2.15.22Z"/>
                      </g>
                      <g>
                        <path class="cls-10" d="M441.34,183.48c0,.21-.17.39-.39.41-.22.01-.41-.15-.41-.36,0-.21.17-.39.39-.41.22-.01.41.15.41.36Z"/>
                        <path class="cls-10" d="M441.57,182.87c-.05.05-.36-.17-.79-.17-.43,0-.75.22-.8.16-.02-.02.03-.12.17-.22.14-.1.37-.2.64-.2.27,0,.5.1.63.2.13.1.18.2.15.22Z"/>
                      </g>
                      <path class="cls-10" d="M443.14,186.07s.27-.07.7-.13c.11-.01.22-.03.23-.11.03-.08-.02-.2-.07-.33-.1-.27-.21-.55-.33-.84-.45-1.2-.78-2.18-.73-2.2.05-.02.46.94.91,2.14.11.3.21.58.31.85.04.13.11.27.06.43-.03.08-.11.14-.18.16-.07.02-.13.02-.19.03-.44.02-.71.03-.71,0Z"/>
                      <path class="cls-14" d="M443.44,191.2s-2.11.14-4.2-1.12c0,0,1.02,2.15,4.16,1.86l.04-.74Z"/>
                      <path class="cls-14" d="M442.96,187.12c-.16-.21-.43-.32-.7-.29-.19.02-.38.11-.49.26-.11.15-.14.37-.03.52.12.16.36.2.57.14.21-.06.38-.19.55-.33.05-.04.09-.08.12-.13.03-.05.04-.12,0-.16"/>
                      <path class="cls-10" d="M441.87,186.37c.07,0,.07.47.47.8.4.33.9.28.91.35,0,.03-.11.09-.32.1-.21,0-.51-.06-.76-.26-.25-.2-.35-.48-.37-.67-.02-.2.03-.31.07-.31Z"/>
                    </g>
                    <path class="cls-11" d="M441.77,182.11c-.04.12-.47.06-.98.12-.51.05-.92.2-.99.09-.03-.05.04-.16.21-.28.16-.11.43-.22.73-.26.3-.03.58.02.77.09.19.08.28.17.26.22Z"/>
                    <path class="cls-11" d="M445.67,181.53c-.08.1-.37,0-.73,0-.36-.02-.66.07-.73-.04-.03-.05.02-.15.15-.24.13-.09.35-.17.6-.16.25,0,.46.1.58.2.13.1.17.2.13.25Z"/>
                  </g>
                  <path class="cls-13" d="M436.65,183.96c-.24-.16-.57-.1-.82.04-.58.33-.86,1.1-.65,1.73.21.63.9,1.06,1.56.97"/>
                  <path class="cls-11" d="M441.58,176.42c1.14.04,2.01.39,3.01.93,1,.55,1.84,1.45,2.15,2.56.07.23.1.5-.03.71-.17.27-.57.32-.86.19-.29-.13-.5-.39-.7-.64-.15.58-.72,1.01-1.31,1.01-.59,0-1.15-.46-1.29-1.03,0,.6-.61,1.1-1.21,1.08-.6-.02-1.13-.49-1.33-1.05-.11.54-.23,1.09-.55,1.53-.32.44-.9.75-1.42.58.07.47.15.96-.02,1.4-.17.44-.66.8-1.11.65-.43-.15-.6-.66-.7-1.11-.2-.86-.36-1.74-.34-2.63.03-.89.26-1.79.81-2.49.56-.72,1.41-1.18,2.3-1.42.89-.23,1.81-.26,2.73-.25"/>
                  <path class="cls-14" d="M436.43,185.76s-.12.03-.27-.04c-.15-.06-.28-.28-.27-.54,0-.26.18-.45.33-.5.16-.06.27-.03.28-.06.01-.02-.11-.1-.31-.05-.1.02-.22.08-.31.19-.09.11-.15.26-.16.41-.02.32.18.6.39.65.21.06.33-.05.31-.07Z"/>
                  <path class="cls-10" d="M435.24,185.93s-.05,0-.13.04c-.08.03-.2.08-.35.16-.29.16-.71.44-1.02.96-.15.26-.27.58-.28.94-.02.36.08.74.26,1.1.19.36.47.68.83.93.36.25.81.41,1.28.41.95,0,1.76-.61,2.12-1.32.19-.36.25-.75.22-1.11-.03-.36-.15-.68-.3-.94-.31-.53-.73-.82-1.04-.94-.15-.07-.28-.1-.37-.11-.09-.01-.13-.02-.13-.01,0,.02.18.04.47.18.29.14.68.43.96.94.14.25.24.56.27.89.02.33-.04.7-.22,1.03-.34.67-1.11,1.23-1.98,1.23-.88,0-1.63-.59-1.98-1.25-.37-.67-.31-1.43-.01-1.92.28-.5.68-.8.95-.97.28-.17.45-.23.45-.25Z"/>
                </g>
                <path class="cls-5" d="M437.83,176.21s-.1-.27-.29-.68c-.19-.41-.54-.94-1.08-1.37-.54-.43-1.14-.64-1.58-.73-.44-.09-.73-.09-.73-.13,0-.02.29-.08.76-.02.47.06,1.11.26,1.69.71.57.45.92,1.03,1.09,1.47.17.44.18.74.15.74Z"/>
                <path class="cls-5" d="M430.62,188.12s-.05-.02-.11-.1c-.06-.08-.11-.24-.07-.43.03-.19.16-.41.39-.57.22-.16.5-.27.78-.43.28-.15.52-.41.54-.78.02-.36-.12-.75-.21-1.18-.05-.21-.09-.45-.07-.69.02-.24.12-.5.29-.69.35-.38.85-.55,1.32-.7.47-.15.93-.32,1.18-.68.26-.36.24-.82.2-1.24-.05-.42-.12-.84-.08-1.24.03-.4.13-.75.26-1.06.27-.62.64-1.03.93-1.26.14-.12.26-.2.35-.25.09-.05.13-.07.13-.06.01.02-.16.12-.43.37-.26.25-.61.66-.84,1.25-.11.3-.21.64-.22,1.02-.03.37.05.77.1,1.21.05.42.08.95-.22,1.38-.3.43-.82.61-1.29.77-.47.14-.94.31-1.23.63-.3.32-.29.79-.19,1.19.09.41.23.82.2,1.24-.02.21-.1.4-.22.56-.12.15-.28.25-.43.34-.3.16-.58.25-.78.39-.21.14-.34.32-.37.49-.08.36.13.51.1.51Z"/>
                <path class="cls-5" d="M441.8,180.03s-.06-.33-.23-.83c-.16-.5-.49-1.17-1.06-1.74-.57-.57-1.24-.9-1.74-1.06-.5-.16-.84-.19-.84-.23,0-.02.34-.05.88.08.53.13,1.25.45,1.85,1.05.6.6.92,1.32,1.05,1.85.13.53.11.88.08.88Z"/>
                <path class="cls-5" d="M444.32,178.65s-.14-.42-.54-.97c-.4-.55-1.15-1.18-2.15-1.5-1-.31-1.97-.28-2.65-.21-.69.07-1.11.17-1.12.14,0-.02.4-.17,1.1-.29.69-.11,1.69-.17,2.74.16,1.05.33,1.83,1.02,2.21,1.61.2.3.31.56.36.75.06.19.07.3.06.3Z"/>
                <path class="cls-10" d="M438.85,175.42s-.08.21-.32.46c-.24.25-.64.54-1.14.72-.5.18-1,.21-1.34.17-.35-.04-.54-.13-.54-.15,0-.07.85.13,1.8-.22.96-.33,1.49-1.02,1.53-.97Z"/>
              </g>
            </g>
            <g>
              <path class="cls-10" d="M441.05,233.35c-7.53-2.49-2.37-12.46-2.37-12.46l32.93,3.1c2.64-.02,4.8,2.12,4.8,4.76h0c0,2.63-2.13,4.76-4.76,4.76l-30.59-.17"/>
              <path class="cls-10" d="M433.34,233.34c-7.34-2.48-2.28-12.45-2.28-12.45l32.1,3.03c3.14.04,4.67,1.55,4.67,4.75h0c0,2.63-.98,4.85-4.66,4.77l-29.83-.1"/>
              <path class="cls-15" d="M440.8,222.57s.03,0,.09,0c.07,0,.16,0,.27,0,.25.01.59.02,1.03.04.9.04,2.19.11,3.78.19,3.2.18,7.6.42,12.46.68.61.03,1.21.08,1.8.09.59,0,1.18.03,1.75.07.57.04,1.14.08,1.69.14.55.06,1.1.12,1.61.33.5.2.96.48,1.34.86.37.37.64.83.81,1.3.17.47.27.95.33,1.4.06.46.09.9.09,1.33,0,.85-.15,1.62-.42,2.24-.27.62-.64,1.07-1,1.36-.35.3-.68.44-.91.51-.23.07-.23.05-.01-.03.22-.08.54-.23.88-.53.34-.3.7-.74.95-1.35.26-.6.4-1.36.39-2.2,0-.42-.04-.86-.1-1.31-.06-.45-.16-.92-.33-1.37-.17-.45-.43-.89-.78-1.24-.36-.35-.8-.63-1.29-.82-.49-.2-1.02-.25-1.57-.31-.55-.06-1.11-.1-1.68-.13-.57-.03-1.16-.06-1.75-.07-.6,0-1.19-.06-1.8-.09-4.86-.29-9.26-.55-12.46-.73-1.58-.1-2.87-.18-3.77-.24-.44-.03-.78-.06-1.03-.07-.11,0-.2-.02-.27-.02-.06,0-.09-.01-.09-.01Z"/>
            </g>
            <g>
              <path class="cls-11" d="M452.21,223.22l-2.64-1.3-1.84-6.13-.18-7.8,3.73-1.57-2.96-7.43c-.54-1.1-1.63-4-4.43-4.96-.02-.54,0-1.07.1-1.23.22-.36-6.82-.58-7.22-.44-.37.14.06,1.43.02,1.65-2.5.69-4.94,1.72-5.85,5.17-.36,1.34-.24,4.17-.05,5.54l1.96,10.34-1.1,3.39s-3.85,8.02-2.39,11.15c1.46,3.13,3.94,3.84,3.94,3.84l19.17-.04-.26-10.18Z"/>
              <g>
                <g>
                  <g class="cls-33">
                    <path class="cls-4" d="M432.98,210.95c.34,1.42.86,3.54,1.41,4.89.41,1,.85,1.99,1.54,2.82.94,1.13,2.28,1.88,3.69,2.25,1.42.37,2.91.39,4.37.21l-7.25-4.1-1.93-6.71-1.82.62Z"/>
                  </g>
                  <path class="cls-10" d="M447.73,215.58s-.03-.2-.05-.55c-.02-.39-.04-.9-.07-1.51-.05-1.28-.12-3.04-.18-4.99-.06-1.95-.1-3.71-.13-4.99,0-.62-.01-1.13-.02-1.51,0-.36,0-.56.02-.56.01,0,.03.2.05.55.02.39.04.9.07,1.51.05,1.28.12,3.04.18,4.99.06,1.95.1,3.71.13,4.99,0,.62.01,1.13.02,1.51,0,.36,0,.56-.02.56Z"/>
                </g>
                <g>
                  <path class="cls-10" d="M440.63,208.28s-.04.02-.13.05c-.11.04-.24.09-.41.15-.38.13-.91.32-1.58.56-1.4.48-3.38,1.17-5.78,2l-.1.03-.02-.1c-.39-2.1-.85-4.56-1.35-7.23h0s0-.01,0-.01c-.08-1.31-.34-2.68-.23-4.12.03-.36.16-.69.28-1.01.13-.32.29-.63.48-.91.38-.57.93-1.01,1.52-1.3,1.2-.61,2.67-.41,3.61.39.46.42.72.96.96,1.48.23.52.41,1.04.57,1.55.3,1.01.54,1.97.77,2.85.44,1.73.8,3.14,1.05,4.13.12.47.21.84.28,1.11.03.12.05.21.07.29.01.06.02.1.02.09,0,0-.02-.04-.04-.1-.02-.08-.05-.18-.09-.3-.08-.27-.18-.65-.31-1.12-.27-.98-.65-2.38-1.12-4.09-.24-.86-.47-1.81-.79-2.81-.16-.5-.34-1.01-.57-1.52-.24-.5-.5-1.02-.92-1.4-.87-.74-2.27-.93-3.39-.35-.57.28-1.08.69-1.44,1.23-.18.27-.33.56-.46.87-.12.31-.24.62-.27.95-.11,1.39.15,2.76.22,4.09h0c.48,2.65.93,5.11,1.32,7.22l-.11-.07c2.39-.79,4.37-1.44,5.76-1.9.68-.22,1.23-.4,1.61-.52.18-.06.32-.1.43-.13.1-.03.15-.04.15-.04Z"/>
                  <path class="cls-10" d="M434.86,210.19c-.06.02-.21-.3-.34-.71-.13-.41-.19-.76-.14-.78.06-.02.21.3.34.71.13.41.19.76.14.78Z"/>
                  <path class="cls-10" d="M436.75,209.66c-.06.01-.18-.3-.28-.69-.1-.4-.13-.73-.07-.74.06-.01.18.3.28.69.1.4.13.73.07.74Z"/>
                  <path class="cls-10" d="M438.65,208.98c-.06.02-.18-.24-.28-.57-.1-.33-.13-.61-.08-.63.06-.02.18.24.28.57.1.33.13.61.08.63Z"/>
                </g>
                <g>
                  <path class="cls-10" d="M448.96,207.4s-.27-.24-.42-.64c-.15-.4-.17-.74-.11-.75.06-.01.17.3.31.68.14.38.27.69.22.72Z"/>
                  <path class="cls-10" d="M450.39,206.59c-.05.03-.23-.21-.39-.53-.16-.32-.25-.6-.19-.62.05-.03.23.21.39.53.16.32.25.6.19.62Z"/>
                </g>
                <g>
                  <path class="cls-10" d="M437.88,194.32s.03.07.04.19h-.11c-.05-.2-.1-.57-.13-.98-.05-.64-.05-1.17.01-1.17.06,0,.15.51.2,1.16.03.41.04.78.03.99h-.11c.03-.12.06-.18.08-.18Z"/>
                  <path class="cls-10" d="M439.59,194.33c-.06,0-.14-.42-.18-.95-.04-.53-.02-.96.03-.97s.14.42.18.95c.04.53.02.96-.03.97Z"/>
                  <path class="cls-10" d="M441.38,194.71c-.06,0-.11-.52-.12-1.15,0-.64.03-1.15.09-1.16.06,0,.11.52.12,1.15,0,.64-.03,1.15-.09,1.16Z"/>
                  <path class="cls-10" d="M442.85,194.47c-.06,0-.11-.44-.11-.99s.05-.99.11-.99.11.44.11.99-.05.99-.11.99Z"/>
                </g>
              </g>
              <path class="cls-10" d="M452.33,223.44c0,.06-3.58-.14-7.98-.44-4.4-.3-7.97-.59-7.96-.65,0-.06,3.58.14,7.98.44,4.4.3,7.97.59,7.96.65Z"/>
            </g>
            <g>
              <path class="cls-13" d="M433.83,210.68l1.77,5.75c.63,2.15,2.41,3.76,4.61,4.18l10.97,2.09,2.98-.1-1.01-2.55-10.22-4.04c-.81-.18-1.45-.8-1.66-1.6l-1.54-5.78-5.89,2.05Z"/>
              <g>
                <polygon class="cls-15" points="443.53 222.78 443.62 222.07 452.05 221.73 456.19 211.3 471.94 212.37 466.63 223.95 443.53 222.78"/>
                <path class="cls-8" d="M462.39,218.07c-.24.39-.75.5-1.14.26-.39-.24-.5-.75-.26-1.14.24-.39.75-.5,1.14-.26.39.24.5.75.26,1.14Z"/>
              </g>
            </g>
          </g>
          <g>
            <g>
              <path class="cls-10" d="M329.09,147.87c6.87-2.49,3.34-12.85,3.34-12.85l-34.85,3.19c-2.73-.02-4.95,2.19-4.95,4.91h0c0,2.71,2.2,4.91,4.91,4.91l31.55-.17"/>
              <g>
                <g>
                  <path class="cls-11" d="M284.21,176.55l-.07-3.46,6.63-2.35.27,4.81-.37.18c-1.66.79-8.52,3.88-9.8,4-1.43.13,3.34-3.18,3.34-3.18Z"/>
                  <g class="cls-30">
                    <path class="cls-8" d="M281.92,178.26s-1.62,1.28-1.27,1.49c.35.21,7.4-2.66,10.39-4.19l-.07-.13-8.19,3.41s-.5-.7-.87-.57Z"/>
                  </g>
                  <path class="cls-10" d="M291.08,175.37s-.03.02-.1.05c-.09.04-.19.09-.3.14-.3.14-.67.31-1.1.5-.93.42-2.23.98-3.68,1.57-1.45.59-2.77,1.1-3.73,1.45-.45.16-.83.3-1.14.41-.12.04-.22.07-.31.11-.07.02-.11.03-.11.03,0,0,.04-.02.11-.05.09-.04.19-.08.31-.12.31-.12.69-.26,1.13-.43.95-.37,2.27-.88,3.72-1.47,1.44-.59,2.74-1.14,3.68-1.55.44-.19.81-.35,1.11-.48.11-.05.21-.09.3-.13.07-.03.11-.04.11-.04Z"/>
                  <path class="cls-10" d="M282.83,178.93s-.15-.25-.43-.45c-.28-.21-.56-.25-.56-.27,0-.02.31-.01.6.21.3.22.4.51.38.52Z"/>
                  <path class="cls-10" d="M284.28,177.26s-.14-.05-.29-.16c-.15-.11-.26-.21-.24-.22.01-.02.14.05.29.16.15.11.26.21.24.22Z"/>
                  <path class="cls-10" d="M284.67,176.79s-.13,0-.28-.06c-.15-.05-.26-.11-.25-.13,0-.02.13,0,.28.06.15.05.26.11.25.13Z"/>
                  <path class="cls-10" d="M284.75,176.08s-.13.1-.31.17c-.18.07-.33.12-.34.1,0-.02.13-.1.31-.17.18-.07.33-.12.34-.1Z"/>
                  <path class="cls-10" d="M284.69,175.63s-.11.15-.32.25c-.2.1-.39.12-.39.1,0-.02.16-.08.36-.17.19-.1.34-.2.35-.18Z"/>
                  <path class="cls-10" d="M283.85,176.81s-.14.09-.4.16c-.13.04-.28.06-.46.08-.09,0-.18.02-.28,0-.05-.01-.11-.03-.15-.08-.04-.05-.04-.13,0-.18.3-.35.77-.29.99-.15.12.07.19.15.24.21.04.06.06.1.05.1-.01.01-.09-.15-.32-.26-.11-.06-.26-.1-.43-.08-.16.02-.36.09-.46.22-.04.07.01.14.1.15.08.02.18,0,.26,0,.17,0,.32-.03.45-.06.25-.05.41-.12.41-.1Z"/>
                  <path class="cls-10" d="M283.75,176.87s-.1-.07-.16-.26c-.03-.09-.04-.21,0-.33.03-.12.07-.27.25-.34.1-.03.18.06.2.13.02.07.01.14,0,.2-.02.12-.05.23-.09.32-.07.17-.15.26-.16.25-.01,0,.05-.1.11-.27.03-.08.06-.19.07-.31.02-.11,0-.27-.11-.25-.1.03-.16.17-.19.27-.03.11-.02.22,0,.3.04.17.11.26.1.27Z"/>
                  <path class="cls-10" d="M290.26,173.74s-.18.06-.45.2c-.26.14-.6.41-.83.81-.23.4-.28.83-.26,1.13.01.3.08.48.06.49,0,0-.02-.04-.05-.12-.03-.08-.05-.21-.07-.36-.03-.31.02-.75.25-1.17.24-.42.59-.69.87-.83.14-.07.26-.11.34-.13.08-.02.13-.03.13-.02Z"/>
                  <path class="cls-10" d="M288.58,171.43s.28.55.57,1.25c.29.7.52,1.27.5,1.28-.02,0-.28-.55-.57-1.25-.29-.7-.52-1.27-.49-1.28Z"/>
                  <path class="cls-10" d="M287.77,176.12s-.36.25-.86.46c-.5.21-.93.32-.93.29,0-.02.41-.16.9-.37.5-.21.88-.4.9-.38Z"/>
                  <path class="cls-10" d="M288.98,175.63s0,.1,0,.21c0,.11,0,.2-.01.21-.02,0-.07-.08-.07-.21,0-.13.06-.21.08-.2Z"/>
                  <path class="cls-10" d="M289.2,174.88s0,.09-.03.18c-.04.09-.08.16-.11.15-.02,0,0-.09.03-.18.04-.09.08-.16.11-.15Z"/>
                  <path class="cls-10" d="M289.75,174.35s-.08.06-.16.12c-.08.07-.12.14-.15.14-.02,0,0-.11.09-.2.1-.08.21-.08.21-.06Z"/>
                  <path class="cls-10" d="M290.16,174.04s0,.06-.05.1c-.04.04-.09.06-.11.04-.02-.02,0-.06.05-.1.04-.04.09-.06.11-.04Z"/>
                </g>
                <g>
                  <g>
                    <path class="cls-10" d="M310.82,137.74l-19.46.36c-3.11.06-5.71,2.4-6.09,5.49l-3.86,31.37h10.57l3.23-27.09h15.35l.26-10.12Z"/>
                    <path class="cls-15" d="M281.54,172.97c0,.05,2.32.11,5.17.12,2.86.02,5.12-.05,5.17-.06.33-.03-2.31-.11-5.17-.12-2.86-.02-5.17,0-5.17.06Z"/>
                  </g>
                  <path class="cls-15" d="M321.53,136.75s-.03,0-.1,0c-.07,0-.17,0-.28,0-.26.01-.63.02-1.09.04-.96.05-2.33.11-4.02.19-3.41.18-8.09.42-13.27.69-.65.03-1.29.08-1.92.09-.63,0-1.26.03-1.87.07-.61.04-1.21.08-1.8.14-.58.06-1.17.12-1.71.33-.54.2-1.03.49-1.42.86-.4.38-.68.84-.86,1.31-.18.47-.29.95-.35,1.42-.06.46-.1.91-.09,1.34,0,.86.16,1.64.45,2.26.29.62.69,1.08,1.06,1.37.38.3.73.45.97.52.24.07.25.05.01-.03-.23-.08-.57-.24-.94-.54-.36-.3-.75-.75-1.02-1.36-.27-.61-.42-1.37-.42-2.22,0-.42.04-.86.1-1.32.07-.46.17-.93.35-1.38.18-.46.45-.9.83-1.25.38-.36.85-.63,1.37-.82.52-.2,1.09-.25,1.67-.32.58-.06,1.18-.1,1.79-.13.61-.03,1.23-.06,1.86-.07.63,0,1.27-.06,1.92-.09,5.18-.29,9.86-.55,13.27-.74,1.69-.1,3.06-.19,4.02-.24.46-.03.83-.06,1.09-.08.12,0,.21-.02.28-.02.06,0,.1-.01.1-.01Z"/>
                </g>
              </g>
            </g>
            <path class="cls-18" d="M315.33,123.74l-1.69,5.3c-.65,2.19-2.49,3.83-4.75,4.26l-9.83,2.72-.77-1.82-.72-2.69,8.5-2.9c.84-.18,1.5-.81,1.72-1.63l3.39-7.36,4.29,2.63-.13,1.49Z"/>
            <g>
              <g>
                <path class="cls-11" d="M319.45,107.16c-3.6.42-4.76,1.88-6.23,4.01-.61.88-1.1,1.84-1.45,2.85l-2.73,7.73,5.69,1.75-.19,6.31-2.59,7.68,21.86,1.72-.06-11.16-.16-6.74c.21-2.55.74-7.96.28-9.24-1.95-5.48-6.24-4.43-9.39-5.21-.65-.16-3.79-.13-4.34,0"/>
                <path class="cls-9" d="M333.81,127.35c0,.06-4.28.11-9.55.11s-9.55-.05-9.55-.11,4.28-.11,9.55-.11,9.55.05,9.55.11Z"/>
                <path class="cls-9" d="M333.49,131.17c0,.06-4.28.11-9.55.11s-9.55-.05-9.55-.11,4.28-.11,9.55-.11,9.55.05,9.55.11Z"/>
                <path class="cls-9" d="M333.59,135.55c0,.06-4.52.11-10.1.11s-10.1-.05-10.1-.11,4.52-.11,10.1-.11,10.1.05,10.1.11Z"/>
                <g>
                  <g class="cls-33">
                    <path class="cls-4" d="M330.93,124.91c-.29,1.48-.41,3.08-.91,4.5-.37,1.04-.79,2.09-1.46,2.98-.91,1.2-2.26,2.04-3.71,2.48-1.44.45-8.39,2-9.89,1.88l12.7-6.01,1.53-6.32,1.75.49Z"/>
                  </g>
                  <path class="cls-18" d="M330.19,124.69l-1.4,5.37c-.55,2.24-2.32,3.98-4.57,4.51l-11.21,2.63-3.08.03v-4.23l11.28-3.05c.83-.22,1.46-.89,1.64-1.72l1.09-4.73,6.24,1.18Z"/>
                </g>
                <path class="cls-9" d="M333.92,111.76c0,.06-4.71.11-10.53.11s-10.53-.05-10.53-.11,4.71-.11,10.53-.11,10.53.05,10.53.11Z"/>
                <path class="cls-9" d="M334.05,115.4c0,.06-5.08.11-11.34.11s-11.35-.05-11.35-.11,5.08-.11,11.35-.11,11.34.05,11.34.11Z"/>
                <path class="cls-9" d="M333.75,119.34c0,.06-5.35.15-11.94.2-6.6.05-11.95.05-11.95-.01s5.35-.15,11.94-.2c6.6-.05,11.94-.05,11.94.01Z"/>
                <path class="cls-9" d="M333.59,123.51c0,.06-4.28.11-9.55.11s-9.55-.05-9.55-.11,4.28-.11,9.55-.11,9.55.05,9.55.11Z"/>
                <path class="cls-10" d="M332.11,125.14s0-.03,0-.09c0-.07.02-.15.04-.26.04-.24.09-.58.15-1,.13-.87.33-2.13.55-3.72.21-1.58.47-3.49.6-5.63.04-1.06.13-2.24-.42-3.28-.26-.51-.66-.97-1.16-1.31-.49-.34-1.09-.57-1.69-.66h-.01s-.01,0-.01,0c-.65-.2-1.4-.09-2.08.14-.69.23-1.37.57-1.93,1.05-.12.1-.21.21-.29.33-.08.13-.15.27-.22.41-.13.28-.23.57-.32.86-.17.59-.28,1.19-.38,1.79-.21,1.19-.42,2.35-.62,3.46-.4,2.23-.77,4.29-1.1,6.11l-.06-.1c2.64.56,4.8,1.03,6.33,1.36.74.16,1.33.29,1.74.39.19.04.34.08.45.11.1.03.15.04.15.05s-.05,0-.16-.02c-.12-.02-.27-.05-.46-.08-.42-.08-1.01-.2-1.75-.34-1.53-.31-3.7-.75-6.35-1.29l-.08-.02v-.08c.33-1.82.69-3.89,1.08-6.12.2-1.12.4-2.28.61-3.47.1-.6.21-1.2.38-1.81.09-.3.19-.6.33-.89.07-.15.14-.29.23-.43.09-.14.21-.27.33-.38.6-.51,1.29-.85,2-1.09.71-.23,1.48-.36,2.21-.14h-.02c.66.09,1.26.33,1.79.69.52.36.94.84,1.22,1.39.15.27.23.56.32.84.05.29.13.58.13.87,0,.14.02.29.02.43,0,.14,0,.28,0,.42,0,.28-.02.55-.04.82-.14,2.16-.41,4.06-.64,5.64-.24,1.58-.45,2.84-.61,3.71-.08.42-.14.75-.19.99-.02.1-.04.19-.05.26-.01.06-.02.09-.03.09Z"/>
              </g>
              <path class="cls-10" d="M314.66,129.72s.02-.2.03-.57c0-.4,0-.93,0-1.56,0-1.32-.01-3.14-.04-5.15-.02-2.01-.06-3.83-.09-5.15-.02-.63-.04-1.16-.05-1.56-.02-.37-.03-.57-.04-.57-.01,0-.02.2-.03.57,0,.4,0,.93,0,1.56,0,1.32.01,3.14.04,5.15.02,2.01.06,3.83.09,5.15.02.63.04,1.16.05,1.56.02.37.03.57.04.57Z"/>
            </g>
            <g>
              <polygon class="cls-15" points="321.53 138.15 321.72 137.24 313.23 136.33 309.53 125.69 292.24 125.57 297.9 137.91 321.53 138.15"/>
              <path class="cls-8" d="M303.32,132.38c.4-.25.52-.78.26-1.17-.25-.4-.78-.52-1.17-.26-.4.25-.52.78-.26,1.18.25.4.78.52,1.17.26"/>
            </g>
            <g>
              <g>
                <path class="cls-10" d="M315.08,89.65c-.92.14-1.72.91-1.9,1.83-.18.92.27,1.93,1.08,2.41.35.21.79.32,1.15.13.34-.17.52-.54.63-.9.36-1.16.26-2.45-.28-3.54"/>
                <g>
                  <g>
                    <g>
                      <path class="cls-18" d="M322.22,110.65h0c-2.05,0-3.71-1.68-3.69-3.73.01-1.28.04-2.39.04-2.39,0,0-2.96-.28-3.18-3.21-.22-2.93-.12-9.71-.12-9.71h0c3.31-1.67,7.26-1.42,10.33.66l.46.31-.14,14.42c-.02,2.02-1.67,3.65-3.69,3.65Z"/>
                      <path class="cls-3" d="M318.56,104.49s1.86.04,3.76-1.32c0,0-.77,2.17-3.72,2.09l-.04-.76Z"/>
                    </g>
                    <g>
                      <path class="cls-18" d="M325.29,95.83c.05-.02,1.86-.25,1.69,1.87-.17,2.13-2.26,1.25-2.26,1.19,0-.06.58-3.07.58-3.07Z"/>
                      <path class="cls-3" d="M325.42,98.2s.04.03.1.06c.06.03.16.06.28.03.23-.06.45-.41.49-.79.02-.19,0-.38-.06-.54-.05-.16-.14-.28-.26-.31-.11-.04-.2.03-.23.08-.03.06-.02.1-.03.1,0,0-.04-.04-.02-.13.01-.04.04-.09.09-.13.05-.04.13-.05.21-.04.16.02.3.19.36.36.07.18.1.39.08.6-.05.43-.3.81-.61.88-.15.03-.27-.03-.33-.08-.06-.06-.07-.11-.06-.11Z"/>
                    </g>
                    <path class="cls-10" d="M317.28,92.83c.41-.18,1.03-.72,1.38-1,.35.56.97.95,1.63,1.03.66.08,1.35-.15,1.83-.61.02.38.25.74.58.93.33.18.76.18,1.09,0,.01,1.13.03,2.26.04,3.4,0,.33.02.68.21.94.2.26.65.34.83.07-.03-.42-.06-.85.12-1.23.18-.38.65-.65,1.02-.46.14-.7.14-1.31.12-2.01,0-.12.02-.51.08-.61.12-.19.17-.04.38-.09.63-.13,1.1-.73,1.15-1.37.05-.64-.29-1.27-.81-1.65-.52-.38-1.19-.51-1.82-.44.42-.38.38-1.11.01-1.55-.37-.43-.98-.6-1.55-.57-.57.03-1.21.35-1.28.92-.15-1.09-1.16-2.01-2.26-2.04-1.1-.03-2.17.82-2.37,1.91-.68-.3-1.64-.64-2.32-.33-.68.31-1.27.8-1.41,1.95,0,0-.17,2.33,1.3,2.8,1.47.47,2.04,0,2.04,0Z"/>
                  </g>
                  <g>
                    <g>
                      <g>
                        <path class="cls-10" d="M316.03,96.31c0,.22.17.4.4.42.23.01.42-.15.42-.37,0-.22-.17-.4-.4-.42-.23-.01-.42.15-.42.37Z"/>
                        <path class="cls-10" d="M315.94,95.85c.05.05.36-.18.81-.18.44,0,.77.22.82.17.02-.02-.03-.12-.17-.22-.14-.1-.38-.2-.65-.2-.28,0-.51.1-.64.21-.14.1-.18.2-.16.23Z"/>
                      </g>
                      <g>
                        <path class="cls-10" d="M320.37,96.42c0,.22.17.4.4.42.23.01.42-.15.42-.37,0-.22-.17-.4-.4-.42-.23-.01-.42.15-.42.37Z"/>
                        <path class="cls-10" d="M320.3,95.93c.05.05.36-.18.81-.18.44,0,.77.22.82.17.02-.02-.03-.12-.17-.22-.14-.1-.38-.2-.65-.2-.28,0-.51.1-.64.21-.14.1-.18.2-.16.23Z"/>
                      </g>
                      <path class="cls-10" d="M318.69,99.22s-.27-.07-.72-.13c-.11-.01-.22-.03-.24-.11-.03-.08.02-.2.08-.34.11-.27.22-.56.33-.86.46-1.23.8-2.23.75-2.25-.05-.02-.47.96-.93,2.19-.11.3-.22.59-.32.87-.04.13-.12.27-.06.44.03.08.11.15.19.17.07.02.14.02.19.03.45.02.73.03.73,0Z"/>
                      <path class="cls-10" d="M319.99,99.52c-.07,0-.07.48-.48.82-.41.34-.92.29-.93.36,0,.03.11.09.33.1.21,0,.52-.06.77-.27.25-.21.36-.49.38-.69.02-.2-.04-.32-.07-.32Z"/>
                    </g>
                    <path class="cls-10" d="M320.18,94.2c.04.12.49.06,1.01.13.52.05.94.2,1.01.1.03-.05-.04-.16-.21-.28-.17-.12-.44-.23-.75-.26-.31-.03-.6.02-.79.09-.19.08-.29.17-.27.23Z"/>
                    <path class="cls-10" d="M316.11,94.57c.08.1.38,0,.75,0,.37-.02.68.07.75-.04.03-.05-.02-.15-.15-.25-.13-.09-.36-.17-.61-.16-.25,0-.47.1-.6.2-.13.1-.17.21-.14.26Z"/>
                  </g>
                </g>
              </g>
              <path class="cls-15" d="M316.95,89.51s-.04-.02-.11-.03c-.07-.01-.19,0-.31.08-.12.08-.19.25-.14.45.05.19.21.38.44.48.23.09.54.1.79-.05.26-.14.44-.43.48-.76.04-.33-.1-.68-.37-.93-.27-.25-.65-.38-1.04-.33-.39.04-.75.23-1,.5-.26.27-.41.61-.48.94-.15.69.04,1.33.3,1.79.26.47.6.76.84.94.25.17.4.25.39.26,0,.01-.17-.03-.44-.19-.26-.16-.63-.45-.92-.93-.29-.47-.51-1.16-.36-1.91.07-.37.24-.75.53-1.05.29-.3.69-.52,1.13-.57.44-.06.9.1,1.21.39.31.28.48.71.42,1.11-.05.39-.27.74-.59.9-.32.16-.67.15-.94.03-.27-.12-.45-.36-.5-.59-.05-.23.06-.46.21-.54.14-.09.29-.08.36-.05.08.03.11.07.1.08Z"/>
            </g>
          </g>
          <g>
            <path class="cls-11" d="M248.05,225.69c.28-1.09-.45-2.19-1.25-2.98-.81-.79-1.77-1.49-2.2-2.54-.69-1.69.21-3.9-.95-5.31-.68-.83-1.9-1.1-2.51-1.99-.32-.47-.42-1.04-.55-1.59-.65-2.8-2.07-5.42-4.06-7.5-.12,2.5.44,5.03,1.62,7.24.47.89,1.05,1.75,1.21,2.75.26,1.61-.63,3.28-.23,4.87.46,1.81,2.51,3.01,2.61,4.88.09,1.58-1.28,2.97-1.17,4.55.05.67.36,1.29.71,1.87,1.23,2.02,3.03,3.41,5.75,3.35l3.33.1-2.31-7.69Z"/>
            <g class="cls-33">
              <path class="cls-4" d="M248.05,225.69c.28-1.09-.45-2.19-1.25-2.98-.81-.79-1.77-1.49-2.2-2.54-.69-1.69.21-3.9-.95-5.31-.68-.83-1.9-1.1-2.51-1.99-.32-.47-.42-1.04-.55-1.59-.65-2.8-2.07-5.42-4.06-7.5-.12,2.5.44,5.03,1.62,7.24.47.89,1.05,1.75,1.21,2.75.26,1.61-.63,3.28-.23,4.87.46,1.81,2.51,3.01,2.61,4.88.09,1.58-1.28,2.97-1.17,4.55.05.67.36,1.29.71,1.87,1.23,2.02,3.03,3.41,5.75,3.35l3.33.1-2.31-7.69Z"/>
            </g>
            <g>
              <g>
                <path class="cls-10" d="M251.04,233.46s.32.07.92-.03c.3-.05.66-.13,1.08-.28.41-.15.88-.37,1.33-.74.22-.19.43-.43.55-.74.11-.31.13-.65.15-1,.02-.35.01-.71.07-1.08.05-.37.2-.73.4-1.07.39-.69,1.04-1.35,1.24-2.28.22-.92.05-1.92-.11-2.92-.16-1-.32-2.08.06-3.13.35-1.04,1.08-1.99,1.43-3.16.36-1.19.18-2.46.25-3.72.03-.63.15-1.26.42-1.85.27-.59.64-1.15.92-1.77.58-1.26.68-2.68.83-4.07.07-.7.15-1.41.23-2.13.08-.72.13-1.44.36-2.13.2-.7.49-1.37.78-2.06.14-.35.29-.69.38-1.08.06-.39.08-.76.1-1.15.03-.76,0-1.54-.1-2.3-.09-.77-.24-1.53-.32-2.3,0-.05-.01-.09-.02-.13l-.02-.15-.14.07c-.71.36-1.32.9-1.78,1.52-.47.62-.82,1.32-1.09,2.03-.55,1.43-.74,2.93-1.01,4.36-.27,1.43-.62,2.84-1.34,4.03-.36.59-.8,1.14-1.18,1.72-.38.58-.72,1.21-.81,1.9-.19,1.41.59,2.64.44,3.89-.05.62-.3,1.2-.6,1.73-.3.53-.65,1.03-.99,1.53-.33.5-.65,1-.88,1.54-.24.54-.37,1.11-.4,1.67-.07,1.12.09,2.19.01,3.19-.06,1.01-.41,1.92-.81,2.74-.4.82-.84,1.56-1.21,2.28-.19.36-.36.71-.5,1.06-.15.35-.22.71-.29,1.05-.11.69-.09,1.33-.01,1.9.15,1.14.58,1.96.97,2.42.09.12.19.21.27.29.08.08.16.14.22.18.12.09.19.13.19.13.01-.02-.27-.17-.65-.63-.37-.46-.78-1.27-.92-2.4-.07-.56-.08-1.19.03-1.87.07-.34.14-.69.29-1.03.14-.34.31-.69.5-1.05.37-.71.82-1.45,1.23-2.28.4-.82.77-1.75.83-2.79.08-1.03-.08-2.09,0-3.19.04-.55.16-1.1.39-1.61.23-.52.54-1.02.87-1.51.33-.49.69-.99,1-1.54.31-.54.57-1.15.62-1.8.15-1.33-.62-2.57-.43-3.88.09-.65.41-1.25.79-1.82.38-.57.82-1.11,1.19-1.72.75-1.23,1.11-2.66,1.38-4.1.27-1.44.47-2.92,1-4.33.27-.7.6-1.38,1.06-1.98.45-.6,1.03-1.11,1.71-1.46l-.15-.08s.01.09.02.13c.09.78.23,1.54.33,2.3.1.76.13,1.52.1,2.27-.02.37-.04.76-.1,1.11-.08.35-.23.7-.37,1.04-.29.69-.59,1.37-.79,2.09-.23.71-.29,1.45-.36,2.17-.08.72-.15,1.43-.22,2.13-.15,1.4-.25,2.8-.81,4.01-.28.6-.65,1.16-.92,1.77-.28.61-.41,1.28-.44,1.92-.07,1.28.11,2.54-.23,3.68-.34,1.13-1.06,2.08-1.42,3.16-.39,1.09-.22,2.21-.05,3.2.17,1,.33,1.98.12,2.86-.19.89-.82,1.55-1.21,2.26-.21.35-.35.73-.41,1.12-.06.38-.05.74-.06,1.09-.02.34-.03.68-.14.97-.1.29-.31.52-.51.7-.43.36-.89.58-1.3.74-.41.16-.77.24-1.06.3-.29.06-.52.06-.68.07-.15,0-.23,0-.23,0Z"/>
                <path class="cls-10" d="M261.33,194.2s-.01.03-.03.1c-.02.08-.04.18-.07.3-.06.26-.14.66-.26,1.15-.13.49-.43,1.05-.68,1.74-.26.68-.53,1.48-.78,2.36-.25.89-.47,1.88-.7,2.93-.24,1.06-.47,2.19-1.05,3.26-.27.54-.57,1.09-.81,1.69-.25.6-.38,1.25-.47,1.91-.15,1.32-.39,2.66-.69,4.03-.65,2.73-1.27,5.33-1.84,7.7-.58,2.36-1.1,4.49-1.54,6.28-.43,1.78-.78,3.22-1.02,4.24-.11.49-.2.87-.27,1.15-.03.12-.05.22-.06.3-.01.07-.02.1-.01.1,0,0,.02-.03.04-.1.02-.08.05-.18.08-.3.07-.28.18-.66.31-1.15.26-1.01.63-2.45,1.09-4.22.45-1.79.99-3.91,1.59-6.27.57-2.37,1.2-4.97,1.86-7.7.31-1.37.54-2.73.69-4.05.09-.65.21-1.28.45-1.87.23-.58.53-1.13.8-1.68.58-1.09.82-2.26,1.04-3.31.22-1.06.43-2.04.67-2.93.23-.89.49-1.68.74-2.36.24-.69.53-1.25.65-1.76.11-.51.17-.9.22-1.17.02-.12.04-.22.05-.3.01-.07.01-.1.01-.11Z"/>
              </g>
              <g>
                <path class="cls-11" d="M251.63,233.47c2.17-1.3,2.77-5.23,1.85-7.58-.92-2.36-2.52-4.5-2.78-7.02-.2-1.93.42-3.92-.04-5.81-.62-2.55-3.13-4.51-3.11-7.13,0-1.47.84-2.86.76-4.33-.09-1.8-1.48-3.23-2.35-4.81-1.33-2.42-1.43-5.3-1.89-8.02-.46-2.72-1.52-5.64-3.94-6.96-.34,2.32-.94,3.91-.73,7.04.08,1.13,1.4,3.27,1.59,5.74.11,1.47.2,2.95.3,4.43.1,1.44.2,2.9.72,4.24.4,1.03,1.04,1.96,1.34,3.02.56,2-.15,4.17.31,6.19.39,1.72,1.58,3.19,1.84,4.93.36,2.44-1.21,5-.39,7.32.41,1.16,1.37,2.08,1.64,3.27.21.93,0,1.91.19,2.84.31,1.5,3.19,2.65,4.71,2.55"/>
                <path class="cls-10" d="M240.73,184.09s0,.04.01.13c.01.1.03.22.05.38.05.33.11.82.23,1.46.13.64.46,1.35.73,2.22.28.86.56,1.86.81,2.97.25,1.11.47,2.35.69,3.67.23,1.32.47,2.77,1.14,4.15.31.69.65,1.39.92,2.13.27.74.39,1.53.47,2.35.12,1.64.35,3.34.67,5.06.69,3.43,1.34,6.69,1.93,9.66.63,2.96,1.19,5.62,1.66,7.87.48,2.23.87,4.03,1.14,5.3.14.61.24,1.1.32,1.44.04.15.07.28.09.37.02.08.03.13.04.13,0,0,0-.04-.02-.13-.02-.1-.04-.22-.07-.38-.07-.34-.16-.83-.28-1.45-.26-1.27-.62-3.08-1.07-5.31-.46-2.25-1.01-4.91-1.62-7.88-.59-2.97-1.24-6.23-1.91-9.66-.32-1.72-.54-3.4-.67-5.04-.08-.82-.21-1.64-.49-2.39-.27-.76-.62-1.45-.93-2.14-.66-1.36-.9-2.78-1.14-4.1-.23-1.32-.46-2.56-.72-3.68-.26-1.12-.55-2.11-.85-2.98-.28-.87-.62-1.58-.76-2.2-.13-.62-.2-1.12-.27-1.45-.03-.16-.05-.28-.07-.38-.02-.08-.03-.13-.03-.13Z"/>
              </g>
            </g>
          </g>
          <g>
            <path class="cls-11" d="M485.42,222.55c-.5.72-1.48.48-1.93.04-.45-.44-.64-1.07-.82-1.68-.4-1.38-.8-2.83-.5-4.23.09-.42.25-.84.54-1.15.3-.31.75-.5,1.16-.39.49.13.8.61,1.02,1.07.65,1.35.99,2.84,1,4.33,0,.7-.08,1.43-.47,2.01"/>
            <g class="cls-23">
              <path class="cls-4" d="M485.42,222.55c-.5.72-1.48.48-1.93.04-.45-.44-.64-1.07-.82-1.68-.4-1.38-.8-2.83-.5-4.23.09-.42.25-.84.54-1.15.3-.31.75-.5,1.16-.39.49.13.8.61,1.02,1.07.65,1.35.99,2.84,1,4.33,0,.7-.08,1.43-.47,2.01"/>
            </g>
            <path class="cls-11" d="M483.54,226.18c-.82-.42-1.79-.48-2.7-.33-.49.08-1,.23-1.33.59-.33.37-.4,1.01-.01,1.33.23.19.54.22.84.21.71,0,1.5-.13,2.07.3.32.24.54.65.93.77.38.12.81-.11,1.01-.45.2-.34.21-.77.11-1.16,0,0-.1-.84-.93-1.27Z"/>
            <path class="cls-11" d="M486.79,223.58c-.54-.65-.65-1.59-.41-2.4.24-.81.79-1.5,1.42-2.06.74-.66,1.61-1.17,2.54-1.5.37-.13.76-.23,1.14-.19.39.04.78.24.96.58.27.51.01,1.13-.27,1.64-.49.89-1.05,1.74-1.67,2.54-.5.65-1.07,1.28-1.84,1.57-.76.29-1.56.26-1.96-.27"/>
            <path class="cls-10" d="M485.45,233.35s-.02-.12-.05-.33c-.02-.24-.05-.53-.09-.89-.04-.37-.1-.82-.2-1.3-.1-.48-.27-1.01-.47-1.54-.22-.53-.48-1.01-.79-1.39-.3-.39-.66-.66-.99-.83-.33-.16-.63-.23-.84-.26-.21-.02-.32-.04-.32-.05,0,0,.12-.01.33,0,.21.01.52.07.87.23.35.16.73.44,1.05.83.32.39.59.88.81,1.42.21.54.37,1.07.47,1.56.1.49.14.94.17,1.32.03.38.04.68.04.89,0,.21,0,.33,0,.33Z"/>
            <path class="cls-10" d="M485.39,232.67s0-.05,0-.15c0-.11,0-.26,0-.43,0-.37,0-.92-.02-1.59-.03-1.34-.15-3.19-.37-5.22-.22-2.03-.52-3.86-.79-5.17-.06-.33-.13-.62-.19-.88-.06-.26-.11-.48-.16-.66-.04-.17-.07-.31-.1-.42-.02-.1-.03-.15-.03-.15,0,0,.02.05.05.14.03.11.07.25.13.41.06.18.11.4.18.66.07.26.14.55.21.88.3,1.31.61,3.14.83,5.18.22,2.04.32,3.89.33,5.23,0,.67,0,1.21-.02,1.59-.01.18-.02.32-.03.43,0,.1-.01.15-.02.15Z"/>
            <path class="cls-10" d="M485.38,229.09s0-.16,0-.45c.02-.29.06-.71.14-1.22.09-.51.21-1.12.4-1.78.18-.66.43-1.38.74-2.11.62-1.47,1.46-2.66,2.19-3.41.17-.2.36-.34.51-.48.08-.07.15-.13.22-.19.07-.05.14-.1.2-.14.24-.16.37-.25.38-.24.02.03-.54.36-1.24,1.11-.7.75-1.52,1.94-2.13,3.39-.31.72-.56,1.43-.75,2.09-.2.65-.32,1.26-.42,1.76-.09.51-.15.92-.18,1.21-.03.29-.05.45-.06.45Z"/>
          </g>
        </g>
      </g>
      <text class="cls-20" transform="translate(382.59 26.87)"><tspan x="0" y="0">NU</tspan><tspan class="cls-32" x="14.88" y="0">R</tspan><tspan class="cls-29" x="21.41" y="0">TURE IN</tspan><tspan class="cls-39" x="60.54" y="0">F</tspan><tspan class="cls-38" x="65.96" y="0">O</tspan><tspan class="cls-29" x="74.38" y="0">TECH</tspan></text>
      <text class="cls-21" transform="translate(363.43 39.18)"><tspan x="0" y="0">(An ISO 9001:2015 Certified Company)</tspan></text>
    </g>
  </g>
</svg>