<?xml version="1.0" encoding="UTF-8"?>
<svg xmlns="http://www.w3.org/2000/svg" xmlns:xlink="http://www.w3.org/1999/xlink" viewBox="0 0 500 250">
  <defs>
    <style>
      .cls-1 {
        fill: #2a2d7c;
        font-family: LEMONMILK-Medium, 'LEMON MILK';
        font-size: 9.92px;
      }

      .cls-1, .cls-2 {
        font-weight: 500;
      }

      .cls-3 {
        isolation: isolate;
      }

      .cls-4 {
        fill: #ffc517;
      }

      .cls-4, .cls-5, .cls-6, .cls-7, .cls-8, .cls-9, .cls-10 {
        stroke-width: 0px;
      }

      .cls-11 {
        font-family: CenturyGothic-Bold, 'Century Gothic';
        font-size: 20.31px;
        font-weight: 700;
      }

      .cls-11, .cls-12, .cls-7, .cls-13, .cls-14 {
        fill: #fff;
      }

      .cls-12 {
        font-family: JosefinSans-Regular, 'Josefin Sans';
        font-size: 8.74px;
      }

      .cls-5 {
        fill: url(#Degradado_sin_nombre_15-3);
        filter: url(#drop-shadow-3);
      }

      .cls-6, .cls-15, .cls-16 {
        fill: none;
      }

      .cls-17 {
        letter-spacing: -.04em;
      }

      .cls-18 {
        letter-spacing: 0em;
      }

      .cls-19 {
        letter-spacing: -.02em;
      }

      .cls-20 {
        letter-spacing: -.02em;
      }

      .cls-21 {
        letter-spacing: -.08em;
      }

      .cls-22 {
        clip-path: url(#clippath);
      }

      .cls-2 {
        font-family: FuturaBT-Medium, 'Futura Md BT';
        font-size: 7.09px;
      }

      .cls-15 {
        stroke: #fff;
        stroke-width: 1.62px;
      }

      .cls-15, .cls-16 {
        stroke-miterlimit: 10;
      }

      .cls-23 {
        letter-spacing: -.07em;
      }

      .cls-24 {
        letter-spacing: .02em;
      }

      .cls-25 {
        mix-blend-mode: screen;
        opacity: .13;
      }

      .cls-13 {
        font-size: 27.41px;
      }

      .cls-13, .cls-14 {
        font-family: Arial-Black, Arial;
        font-weight: 800;
      }

      .cls-8 {
        fill: url(#Degradado_sin_nombre_17);
        filter: url(#drop-shadow-4);
      }

      .cls-26 {
        letter-spacing: 0em;
      }

      .cls-16 {
        stroke: #000;
        stroke-width: .43px;
      }

      .cls-9 {
        fill: url(#Degradado_sin_nombre_15);
        filter: url(#drop-shadow-1);
      }

      .cls-27 {
        letter-spacing: 0em;
      }

      .cls-28 {
        letter-spacing: -.04em;
      }

      .cls-14 {
        font-size: 10.51px;
      }

      .cls-29 {
        letter-spacing: -.02em;
      }

      .cls-10 {
        fill: url(#Degradado_sin_nombre_15-2);
        filter: url(#drop-shadow-2);
      }

      .cls-30 {
        letter-spacing: -.07em;
      }
    </style>
    <clipPath id="clippath">
      <rect class="cls-6" x=".15" y=".17" width="499.7" height="249.48"/>
    </clipPath>
    <radialGradient id="Degradado_sin_nombre_15" data-name="Degradado sin nombre 15" cx="324.94" cy="246.31" fx="324.94" fy="246.31" r="119.24" gradientTransform="translate(-266.61 -3.05) scale(.84 .88)" gradientUnits="userSpaceOnUse">
      <stop offset="0" stop-color="#fff"/>
      <stop offset="1" stop-color="#f5f5f6"/>
    </radialGradient>
    <filter id="drop-shadow-1" filterUnits="userSpaceOnUse">
      <feOffset dx="1.3" dy="1.3"/>
      <feGaussianBlur result="blur" stdDeviation="1.3"/>
      <feFlood flood-color="#000" flood-opacity=".2"/>
      <feComposite in2="blur" operator="in"/>
      <feComposite in="SourceGraphic"/>
    </filter>
    <radialGradient id="Degradado_sin_nombre_15-2" data-name="Degradado sin nombre 15" cx="335.2" cy="246.99" fx="335.2" fy="246.99" r="103.27" xlink:href="#Degradado_sin_nombre_15"/>
    <filter id="drop-shadow-2" filterUnits="userSpaceOnUse">
      <feOffset dx="1.3" dy="1.3"/>
      <feGaussianBlur result="blur-2" stdDeviation="1.3"/>
      <feFlood flood-color="#000" flood-opacity=".2"/>
      <feComposite in2="blur-2" operator="in"/>
      <feComposite in="SourceGraphic"/>
    </filter>
    <radialGradient id="Degradado_sin_nombre_15-3" data-name="Degradado sin nombre 15" cx="446.81" cy="215.67" fx="446.81" fy="215.67" r="28.8" xlink:href="#Degradado_sin_nombre_15"/>
    <filter id="drop-shadow-3" filterUnits="userSpaceOnUse">
      <feOffset dx="1.3" dy="1.3"/>
      <feGaussianBlur result="blur-3" stdDeviation="1.3"/>
      <feFlood flood-color="#000" flood-opacity=".2"/>
      <feComposite in2="blur-3" operator="in"/>
      <feComposite in="SourceGraphic"/>
    </filter>
    <linearGradient id="Degradado_sin_nombre_17" data-name="Degradado sin nombre 17" x1="87.54" y1="185.84" x2="127.22" y2="185.84" gradientUnits="userSpaceOnUse">
      <stop offset="0" stop-color="#f5f5f6"/>
      <stop offset="1" stop-color="#fff"/>
    </linearGradient>
    <filter id="drop-shadow-4" filterUnits="userSpaceOnUse">
      <feOffset dx="1.3" dy="1.3"/>
      <feGaussianBlur result="blur-4" stdDeviation="1.3"/>
      <feFlood flood-color="#000" flood-opacity=".2"/>
      <feComposite in2="blur-4" operator="in"/>
      <feComposite in="SourceGraphic"/>
    </filter>
  </defs>
  <g class="cls-3">
    <g id="Layer_1" data-name="Layer 1">
      <rect class="cls-7" x=".15" y=".17" width="499.85" height="248.77"/>
      <image width="740" height="493" transform="translate(254.99 56.06) scale(.32)" xlink:href="../../../Course illustrations/data analytics/clean-vector-illustration-team-presenting-design-blog-interesting-composition_941097-100499.jpg"/>
      <g class="cls-22">
        <rect class="cls-6" x=".15" y=".17" width="500" height="250"/>
      </g>
      <polygon class="cls-4" points="155.5 250.17 .15 250.17 .15 .17 294.8 .17 155.5 250.17"/>
      <text class="cls-13" transform="translate(18.55 38.08) scale(.96 1)"><tspan class="cls-17" x="0" y="0">D</tspan><tspan class="cls-30" x="20.14" y="0">A</tspan><tspan class="cls-23" x="39.57" y="0">T</tspan><tspan class="cls-27" x="57.51" y="0">A </tspan><tspan x="0" y="32.89">A</tspan><tspan class="cls-26" x="21.32" y="32.89">N</tspan><tspan x="43.88" y="32.89">A</tspan><tspan class="cls-21" x="65.2" y="32.89">L</tspan><tspan x="81.37" y="32.89">YTICS</tspan></text>
      <text class="cls-11" transform="translate(17.48 112.4) scale(.96 1)"><tspan x="0" y="0">Professional Training </tspan><tspan x="0" y="24.37">Program</tspan></text>
      <g>
        <text class="cls-14" transform="translate(20.18 226.61) scale(.96 1)"><tspan x="0" y="0">O</tspan><tspan class="cls-24" x="8.75" y="0">f</tspan><tspan x="13.11" y="0">fline</tspan></text>
        <text class="cls-14" transform="translate(91.84 226.48) scale(.96 1)"><tspan x="0" y="0">Online</tspan></text>
        <g>
          <g>
            <path class="cls-9" d="M62.69,185.88c0,13.93-10.79,25.23-24.11,25.23s-24.11-11.29-24.11-25.23,10.79-25.23,24.11-25.23,24.11,11.29,24.11,25.23Z"/>
            <g class="cls-25">
              <path class="cls-15" d="M58.42,184.98c0,11.47-8.88,20.76-19.84,20.76s-19.84-9.3-19.84-20.76,8.88-20.76,19.84-20.76,19.84,9.3,19.84,20.76Z"/>
            </g>
            <path class="cls-10" d="M58.42,185.88c0,11.47-8.88,20.76-19.84,20.76s-19.84-9.3-19.84-20.76,8.88-20.76,19.84-20.76,19.84,9.3,19.84,20.76Z"/>
          </g>
          <g>
            <path class="cls-16" d="M48.83,185.19h-10.21c-.34,0-.62-.29-.62-.65v-9.35c0-.36.28-.65.62-.65h10.21c.34,0,.62.29.62.65v9.35c0,.35-.28.65-.62.65ZM41.18,178.52h5.09c.34,0,.62-.29.62-.65h0c0-.36-.28-.65-.62-.65h-5.09c-.34,0-.62.29-.62.65h0c0,.35.28.65.62.65ZM41.18,181.18h3.82c.34,0,.62-.29.62-.65h0c0-.36-.28-.65-.62-.65h-3.82c-.34,0-.62.29-.62.65h0c0,.35.28.65.62.65Z"/>
            <path class="cls-16" d="M33.16,174.53c.44.1.87.25,1.23.54.92.73,1.25,2.01.83,3.12-.42,1.08-1.52,1.78-2.6,1.65-1.18-.14-2.09-1.05-2.27-2.25-.21-1.44.72-2.78,2.1-3.02.04,0,.08-.03.12-.04.2,0,.4,0,.59,0Z"/>
            <path class="cls-16" d="M34.12,195.47c.18-1,.63-1.8,1.43-2.36.58-.41,1.23-.6,1.92-.56.77.04,1.44.35,2.01.89s.88,1.23,1,2.08c.08-.31.13-.56.22-.81.49-1.41,1.87-2.32,3.26-2.16,1.48.16,2.67,1.33,2.85,2.85.07.6.01,1.2.01,1.82h-19.07c-.06-1.31-.12-2.63.89-3.66.93-.94,2.03-1.28,3.27-.87,1.23.41,1.95,1.33,2.19,2.66,0,.04.01.07.02.1Z"/>
            <path class="cls-16" d="M36.01,185.51c-.74.29-1.38.78-1.86,1.51-1.16-1.56-2.63-2.11-4.47-1.55.04-1.03-.13-2.07.34-3.05.63-1.29,1.98-2.02,3.39-1.78,1.32.22,2.43,1.39,2.58,2.8.08.67.02,1.36.02,2.08Z"/>
            <path class="cls-16" d="M30.96,186.56c1.4,0,2.54,1.2,2.54,2.67,0,1.46-1.15,2.66-2.56,2.65-1.39,0-2.53-1.2-2.53-2.65,0-1.46,1.14-2.67,2.54-2.67Z"/>
            <path class="cls-16" d="M34.77,189.22c0-1.46,1.15-2.66,2.55-2.66s2.54,1.2,2.54,2.68c0,1.46-1.14,2.65-2.54,2.65-1.4,0-2.55-1.19-2.55-2.66Z"/>
            <path class="cls-16" d="M46.22,189.23c0,1.46-1.15,2.66-2.55,2.65s-2.54-1.21-2.54-2.68c0-1.46,1.15-2.65,2.54-2.65,1.4,0,2.55,1.2,2.54,2.67Z"/>
            <path class="cls-16" d="M40.55,178.52v-1.31"/>
          </g>
        </g>
        <g>
          <g>
            <path class="cls-5" d="M131.49,185.84c0,13.93-10.79,25.23-24.11,25.23s-24.11-11.29-24.11-25.23,10.79-25.23,24.11-25.23,24.11,11.29,24.11,25.23Z"/>
            <g class="cls-25">
              <path class="cls-15" d="M127.22,184.95c0,11.47-8.88,20.76-19.84,20.76s-19.84-9.3-19.84-20.76,8.88-20.76,19.84-20.76,19.84,9.3,19.84,20.76Z"/>
            </g>
            <path class="cls-8" d="M127.22,185.84c0,11.47-8.88,20.76-19.84,20.76s-19.84-9.3-19.84-20.76,8.88-20.76,19.84-20.76,19.84,9.3,19.84,20.76Z"/>
          </g>
          <g>
            <path class="cls-16" d="M113.64,173.93h4.26c.79,0,1.22.46,1.22,1.28v5.75c0,.83-.43,1.29-1.22,1.29-1.58,0-3.16,0-4.73,0-.27,0-.49.09-.68.29-.58.63-1.18,1.24-1.76,1.85-.18.19-.35.35-.63.23-.28-.12-.27-.38-.27-.63,0-.35,0-.71,0-1.06,0-.45-.18-.65-.6-.69-.72-.06-1.12-.51-1.12-1.27v-5.78c0-.81.45-1.27,1.21-1.27,1.44,0,2.87,0,4.31,0ZM110,178.05c0,.47.37.86.82.85.45,0,.82-.41.81-.87,0-.46-.37-.84-.81-.84-.45,0-.81.37-.81.85ZM112.81,178.03c0,.48.35.86.81.86s.82-.39.82-.86-.36-.84-.8-.85c-.45,0-.82.38-.83.85ZM115.64,178.04c0,.47.36.86.81.86s.81-.38.81-.86-.36-.84-.8-.84c-.45-.02-.82.36-.82.84Z"/>
            <path class="cls-16" d="M107.82,179.37v1.76h-8.15c-.6,0-.82.23-.82.86v10.16c0,.61.23.85.81.85h15.44c.56,0,.79-.24.79-.84v-9.61h1.67v11.52h-20.39v-12.84c0-1.18.66-1.88,1.8-1.88h8.85Z"/>
            <path class="cls-16" d="M107.38,194.41c3.72,0,7.45,0,11.17,0,.19,0,.4.05.56.14.27.16.36.5.27.81-.09.32-.18.65-.27.96-.23.82-.93,1.39-1.76,1.43h-19.79c-.7,0-1.33-.24-1.66-.88-.27-.51-.42-1.12-.56-1.7-.09-.39.25-.75.65-.79.1,0,.19,0,.3,0,3.7.02,7.4.02,11.09.02ZM107.37,196.56h1.51c.16,0,.32,0,.47-.02.24-.03.4-.21.4-.44,0-.24-.15-.44-.39-.49-.06,0-.12,0-.17,0h-3.62c-.06,0-.12,0-.17,0-.24.04-.4.23-.4.48s.17.43.42.46c.08,0,.17,0,.24,0h1.71Z"/>
            <path class="cls-16" d="M104.3,191.61h-3.19c-.41,0-.55-.14-.52-.56.04-.63.06-1.26.14-1.88.12-.96.91-1.65,1.84-1.66,1.15,0,2.31,0,3.46,0,.99,0,1.8.78,1.88,1.82.04.56.08,1.12.11,1.68.03.46-.1.6-.53.6h-3.19Z"/>
            <path class="cls-16" d="M106.33,184.96c-.01.56-.14,1.06-.45,1.52-.8,1.22-2.36,1.22-3.16,0-.58-.88-.58-2.12,0-3,.81-1.25,2.38-1.24,3.18,0,.28.44.4.95.42,1.48Z"/>
          </g>
        </g>
      </g>
      <text class="cls-12" transform="translate(342.14 214.19)"><tspan x="0" y="0">Nurtu</tspan><tspan class="cls-19" x="23.31" y="0">r</tspan><tspan x="26.44" y="0">e</tspan></text>
      <text class="cls-1" transform="translate(382.59 26.87)"><tspan x="0" y="0">NU</tspan><tspan class="cls-20" x="14.88" y="0">R</tspan><tspan class="cls-18" x="21.41" y="0">TURE IN</tspan><tspan class="cls-29" x="60.54" y="0">F</tspan><tspan class="cls-28" x="65.96" y="0">O</tspan><tspan class="cls-18" x="74.38" y="0">TECH</tspan></text>
      <text class="cls-2" transform="translate(363.43 39.18)"><tspan x="0" y="0">(An ISO 9001:2015 Certified Company)</tspan></text>
    </g>
  </g>
</svg>