<?xml version="1.0" encoding="UTF-8"?>
<svg xmlns="http://www.w3.org/2000/svg" xmlns:xlink="http://www.w3.org/1999/xlink" viewBox="0 0 500 250">
  <defs>
    <style>
      .cls-1 {
        fill: #2a2d7c;
        font-family: LEMONMILK-Medium, 'LEMON MILK';
        font-size: 9.92px;
      }

      .cls-1, .cls-2 {
        font-weight: 500;
      }

      .cls-3 {
        fill: url(#linear-gradient);
      }

      .cls-3, .cls-4, .cls-5, .cls-6, .cls-7, .cls-8, .cls-9, .cls-10, .cls-11, .cls-12, .cls-13, .cls-14, .cls-15, .cls-16, .cls-17, .cls-18, .cls-19, .cls-20, .cls-21, .cls-22, .cls-23, .cls-24, .cls-25, .cls-26, .cls-27, .cls-28, .cls-29, .cls-30, .cls-31, .cls-32 {
        stroke-width: 0px;
      }

      .cls-4 {
        fill: #596c82;
      }

      .cls-5 {
        fill: url(#linear-gradient-6);
      }

      .cls-6 {
        fill: #bdd3dd;
      }

      .cls-7 {
        fill: #ffbd91;
      }

      .cls-33 {
        isolation: isolate;
      }

      .cls-34 {
        font-family: CenturyGothic-Bold, 'Century Gothic';
        font-size: 20.31px;
        font-weight: 700;
      }

      .cls-34, .cls-19, .cls-35, .cls-36 {
        fill: #fff;
      }

      .cls-8 {
        fill: url(#Degradado_sin_nombre_15-3);
        filter: url(#drop-shadow-3);
      }

      .cls-9 {
        fill: url(#linear-gradient-11);
      }

      .cls-10 {
        fill: url(#linear-gradient-5);
      }

      .cls-11 {
        fill: #9eb7c7;
      }

      .cls-12, .cls-37, .cls-38 {
        fill: none;
      }

      .cls-13 {
        fill: #d7e8ef;
      }

      .cls-13, .cls-17, .cls-28, .cls-39 {
        mix-blend-mode: multiply;
      }

      .cls-14 {
        fill: url(#radial-gradient);
      }

      .cls-14, .cls-40, .cls-24, .cls-41 {
        mix-blend-mode: screen;
      }

      .cls-42 {
        letter-spacing: 0em;
      }

      .cls-43 {
        letter-spacing: -.02em;
      }

      .cls-15 {
        fill: #ea845c;
      }

      .cls-16 {
        fill: #002745;
      }

      .cls-17 {
        fill: #47329e;
        opacity: .3;
      }

      .cls-18 {
        fill: #001b32;
      }

      .cls-44 {
        letter-spacing: -.02em;
      }

      .cls-20 {
        fill: #ff9f72;
      }

      .cls-21 {
        fill: url(#linear-gradient-2);
      }

      .cls-22 {
        fill: #00457f;
      }

      .cls-23 {
        fill: url(#linear-gradient-3);
      }

      .cls-45 {
        clip-path: url(#clippath);
      }

      .cls-24 {
        fill: url(#linear-gradient-7);
      }

      .cls-25 {
        fill: url(#linear-gradient-9);
      }

      .cls-2 {
        font-family: FuturaBT-Medium, 'Futura Md BT';
        font-size: 7.09px;
      }

      .cls-26 {
        fill: url(#linear-gradient-8);
      }

      .cls-37 {
        stroke: #fff;
        stroke-width: 1.62px;
      }

      .cls-37, .cls-38 {
        stroke-miterlimit: 10;
      }

      .cls-46 {
        letter-spacing: .02em;
      }

      .cls-41 {
        opacity: .13;
      }

      .cls-35 {
        font-size: 27.41px;
      }

      .cls-35, .cls-36 {
        font-family: Arial-Black, Arial;
        font-weight: 800;
      }

      .cls-27 {
        fill: url(#Degradado_sin_nombre_17);
        filter: url(#drop-shadow-4);
      }

      .cls-28 {
        fill: #bcbec0;
      }

      .cls-29 {
        fill: url(#linear-gradient-10);
      }

      .cls-38 {
        stroke: #000;
        stroke-width: .43px;
      }

      .cls-30 {
        fill: url(#Degradado_sin_nombre_15);
        filter: url(#drop-shadow-1);
      }

      .cls-31 {
        fill: url(#linear-gradient-4);
      }

      .cls-47 {
        letter-spacing: 0em;
      }

      .cls-48 {
        letter-spacing: -.04em;
      }

      .cls-36 {
        font-size: 10.51px;
      }

      .cls-49 {
        letter-spacing: -.02em;
      }

      .cls-32 {
        fill: url(#Degradado_sin_nombre_15-2);
        filter: url(#drop-shadow-2);
      }
    </style>
    <clipPath id="clippath">
      <rect class="cls-12" x=".53" y=".3" width="499.7" height="249.48"/>
    </clipPath>
    <linearGradient id="linear-gradient" x1=".53" y1="125.3" x2="295.18" y2="125.3" gradientUnits="userSpaceOnUse">
      <stop offset="0" stop-color="#0087ff"/>
      <stop offset="1" stop-color="#9635ee"/>
    </linearGradient>
    <radialGradient id="Degradado_sin_nombre_15" data-name="Degradado sin nombre 15" cx="-812.04" cy="284.73" fx="-812.04" fy="284.73" r="119.24" gradientTransform="translate(685.43 -36.58) scale(.84 .88)" gradientUnits="userSpaceOnUse">
      <stop offset="0" stop-color="#fff"/>
      <stop offset="1" stop-color="#f5f5f6"/>
    </radialGradient>
    <filter id="drop-shadow-1" filterUnits="userSpaceOnUse">
      <feOffset dx="1.3" dy="1.3"/>
      <feGaussianBlur result="blur" stdDeviation="1.3"/>
      <feFlood flood-color="#000" flood-opacity=".2"/>
      <feComposite in2="blur" operator="in"/>
      <feComposite in="SourceGraphic"/>
    </filter>
    <radialGradient id="Degradado_sin_nombre_15-2" data-name="Degradado sin nombre 15" cx="-801.78" cy="285.42" fx="-801.78" fy="285.42" r="103.27" xlink:href="#Degradado_sin_nombre_15"/>
    <filter id="drop-shadow-2" filterUnits="userSpaceOnUse">
      <feOffset dx="1.3" dy="1.3"/>
      <feGaussianBlur result="blur-2" stdDeviation="1.3"/>
      <feFlood flood-color="#000" flood-opacity=".2"/>
      <feComposite in2="blur-2" operator="in"/>
      <feComposite in="SourceGraphic"/>
    </filter>
    <radialGradient id="Degradado_sin_nombre_15-3" data-name="Degradado sin nombre 15" cx="-690.17" cy="254.1" fx="-690.17" fy="254.1" r="28.8" xlink:href="#Degradado_sin_nombre_15"/>
    <filter id="drop-shadow-3" filterUnits="userSpaceOnUse">
      <feOffset dx="1.3" dy="1.3"/>
      <feGaussianBlur result="blur-3" stdDeviation="1.3"/>
      <feFlood flood-color="#000" flood-opacity=".2"/>
      <feComposite in2="blur-3" operator="in"/>
      <feComposite in="SourceGraphic"/>
    </filter>
    <linearGradient id="Degradado_sin_nombre_17" data-name="Degradado sin nombre 17" x1="87.91" y1="185.97" x2="127.6" y2="185.97" gradientUnits="userSpaceOnUse">
      <stop offset="0" stop-color="#f5f5f6"/>
      <stop offset="1" stop-color="#fff"/>
    </linearGradient>
    <filter id="drop-shadow-4" filterUnits="userSpaceOnUse">
      <feOffset dx="1.3" dy="1.3"/>
      <feGaussianBlur result="blur-4" stdDeviation="1.3"/>
      <feFlood flood-color="#000" flood-opacity=".2"/>
      <feComposite in2="blur-4" operator="in"/>
      <feComposite in="SourceGraphic"/>
    </filter>
    <linearGradient id="linear-gradient-2" x1="367.15" y1="71.7" x2="367.15" y2="227.6" xlink:href="#linear-gradient"/>
    <linearGradient id="linear-gradient-3" x1="367.94" y1="132.89" x2="367.94" y2="210.43" gradientUnits="userSpaceOnUse">
      <stop offset=".02" stop-color="#72839c"/>
      <stop offset="1" stop-color="#324053"/>
    </linearGradient>
    <linearGradient id="linear-gradient-4" x1="387.4" y1="103.74" x2="390.86" y2="148.99" xlink:href="#linear-gradient-3"/>
    <linearGradient id="linear-gradient-5" x1="344.28" y1="107.04" x2="347.75" y2="152.29" xlink:href="#linear-gradient-3"/>
    <radialGradient id="radial-gradient" cx="549.86" cy="-466.04" fx="549.86" fy="-466.04" r="74.67" gradientTransform="translate(-216.44 445.12) rotate(.34) scale(1.05 .56) skewX(-.1)" gradientUnits="userSpaceOnUse">
      <stop offset="0" stop-color="#fff"/>
      <stop offset="1" stop-color="#000"/>
    </radialGradient>
    <linearGradient id="linear-gradient-6" x1="351.1" y1="165.57" x2="403.08" y2="259.06" gradientUnits="userSpaceOnUse">
      <stop offset="0" stop-color="#2b3c88"/>
      <stop offset="1" stop-color="#002745"/>
    </linearGradient>
    <linearGradient id="linear-gradient-7" x1="365.48" y1="162.4" x2="365.48" y2="166.3" xlink:href="#linear-gradient-6"/>
    <linearGradient id="linear-gradient-8" x1="365.48" y1="187.47" x2="365.48" y2="214.83" xlink:href="#linear-gradient"/>
    <linearGradient id="linear-gradient-9" x1="367.94" y1="39.93" x2="367.94" y2="86.58" xlink:href="#linear-gradient-3"/>
    <linearGradient id="linear-gradient-10" x1="351.99" y1="94.14" x2="351.99" y2="114.75" xlink:href="#linear-gradient"/>
    <linearGradient id="linear-gradient-11" x1="383.9" y1="94.14" x2="383.9" y2="114.75" xlink:href="#linear-gradient"/>
  </defs>
  <g class="cls-33">
    <g id="Layer_1" data-name="Layer 1">
      <rect class="cls-19" x=".53" width="499.7" height="251.28"/>
      <g class="cls-45">
        <rect class="cls-12" x=".53" y=".3" width="500" height="250"/>
      </g>
      <polygon class="cls-3" points="155.88 250.3 .53 250.3 .53 .3 295.18 .3 155.88 250.3"/>
      <g>
        <text class="cls-35" transform="translate(18.93 38.21) scale(.96 1)"><tspan x="0" y="0">ETHECAL </tspan><tspan x="0" y="32.89">H</tspan><tspan class="cls-43" x="22.83" y="32.89">A</tspan><tspan class="cls-47" x="43.65" y="32.89">CKING</tspan></text>
        <text class="cls-34" transform="translate(17.86 112.53) scale(.96 1)"><tspan x="0" y="0">Professional Training </tspan><tspan x="0" y="24.37">Program</tspan></text>
        <g>
          <text class="cls-36" transform="translate(20.56 226.74) scale(.96 1)"><tspan x="0" y="0">O</tspan><tspan class="cls-46" x="8.75" y="0">f</tspan><tspan x="13.11" y="0">fline</tspan></text>
          <text class="cls-36" transform="translate(92.22 226.61) scale(.96 1)"><tspan x="0" y="0">Online</tspan></text>
          <g>
            <g>
              <path class="cls-30" d="M63.07,186.01c0,13.93-10.79,25.23-24.11,25.23s-24.11-11.29-24.11-25.23,10.79-25.23,24.11-25.23,24.11,11.29,24.11,25.23Z"/>
              <g class="cls-41">
                <path class="cls-37" d="M58.8,185.11c0,11.47-8.88,20.76-19.84,20.76s-19.84-9.3-19.84-20.76,8.88-20.76,19.84-20.76,19.84,9.3,19.84,20.76Z"/>
              </g>
              <path class="cls-32" d="M58.8,186.01c0,11.47-8.88,20.76-19.84,20.76s-19.84-9.3-19.84-20.76,8.88-20.76,19.84-20.76,19.84,9.3,19.84,20.76Z"/>
            </g>
            <g>
              <path class="cls-38" d="M49.2,185.32h-10.21c-.34,0-.62-.29-.62-.65v-9.35c0-.36.28-.65.62-.65h10.21c.34,0,.62.29.62.65v9.35c0,.35-.28.65-.62.65ZM41.55,178.65h5.09c.34,0,.62-.29.62-.65h0c0-.36-.28-.65-.62-.65h-5.09c-.34,0-.62.29-.62.65h0c0,.35.28.65.62.65ZM41.55,181.31h3.82c.34,0,.62-.29.62-.65h0c0-.36-.28-.65-.62-.65h-3.82c-.34,0-.62.29-.62.65h0c0,.35.28.65.62.65Z"/>
              <path class="cls-38" d="M33.53,174.66c.44.1.87.25,1.23.54.92.73,1.25,2.01.83,3.12-.42,1.08-1.52,1.78-2.6,1.65-1.18-.14-2.09-1.05-2.27-2.25-.21-1.44.72-2.78,2.1-3.02.04,0,.08-.03.12-.04.2,0,.4,0,.59,0Z"/>
              <path class="cls-38" d="M34.49,195.6c.18-1,.63-1.8,1.43-2.36.58-.41,1.23-.6,1.92-.56.77.04,1.44.35,2.01.89.57.55.88,1.23,1,2.08.08-.31.13-.56.22-.81.49-1.41,1.87-2.32,3.26-2.16,1.48.16,2.67,1.33,2.85,2.85.07.6.01,1.2.01,1.82h-19.07c-.06-1.31-.12-2.63.89-3.66.93-.94,2.03-1.28,3.27-.87,1.23.41,1.95,1.33,2.19,2.66,0,.04.01.07.02.1Z"/>
              <path class="cls-38" d="M36.38,185.64c-.74.29-1.38.78-1.86,1.51-1.16-1.56-2.63-2.11-4.47-1.55.04-1.03-.13-2.07.34-3.05.63-1.29,1.98-2.02,3.39-1.78,1.32.22,2.43,1.39,2.58,2.8.08.67.02,1.36.02,2.08Z"/>
              <path class="cls-38" d="M31.34,186.69c1.4,0,2.54,1.2,2.54,2.67,0,1.46-1.15,2.66-2.56,2.65-1.39,0-2.53-1.2-2.53-2.65,0-1.46,1.14-2.67,2.54-2.67Z"/>
              <path class="cls-38" d="M35.15,189.35c0-1.46,1.15-2.66,2.55-2.66s2.54,1.2,2.54,2.68c0,1.46-1.14,2.65-2.54,2.65-1.4,0-2.55-1.19-2.55-2.66Z"/>
              <path class="cls-38" d="M46.6,189.36c0,1.46-1.15,2.66-2.55,2.65s-2.54-1.21-2.54-2.68c0-1.46,1.15-2.65,2.54-2.65,1.4,0,2.55,1.2,2.54,2.67Z"/>
              <path class="cls-38" d="M40.92,178.65v-1.31"/>
            </g>
          </g>
          <g>
            <g>
              <path class="cls-8" d="M131.86,185.97c0,13.93-10.79,25.23-24.11,25.23s-24.11-11.29-24.11-25.23,10.79-25.23,24.11-25.23,24.11,11.29,24.11,25.23Z"/>
              <g class="cls-41">
                <path class="cls-37" d="M127.6,185.07c0,11.47-8.88,20.76-19.84,20.76s-19.84-9.3-19.84-20.76,8.88-20.76,19.84-20.76,19.84,9.3,19.84,20.76Z"/>
              </g>
              <path class="cls-27" d="M127.6,185.97c0,11.47-8.88,20.76-19.84,20.76s-19.84-9.3-19.84-20.76,8.88-20.76,19.84-20.76,19.84,9.3,19.84,20.76Z"/>
            </g>
            <g>
              <path class="cls-38" d="M114.02,174.06h4.26c.79,0,1.22.46,1.22,1.28v5.75c0,.83-.43,1.29-1.22,1.29-1.58,0-3.16,0-4.73,0-.27,0-.49.09-.68.29-.58.63-1.18,1.24-1.76,1.85-.18.19-.35.35-.63.23-.28-.12-.27-.38-.27-.63,0-.35,0-.71,0-1.06,0-.45-.18-.65-.6-.69-.72-.06-1.12-.51-1.12-1.27v-5.78c0-.81.45-1.27,1.21-1.27,1.44,0,2.87,0,4.31,0ZM110.37,178.18c0,.47.37.86.82.85.45,0,.82-.41.81-.87,0-.46-.37-.84-.81-.84-.45,0-.81.37-.81.85ZM113.19,178.16c0,.48.35.86.81.86s.82-.39.82-.86-.36-.84-.8-.85c-.45,0-.82.38-.83.85ZM116.01,178.17c0,.47.36.86.81.86s.81-.38.81-.86-.36-.84-.8-.84c-.45-.02-.82.36-.82.84Z"/>
              <path class="cls-38" d="M108.2,179.5v1.76h-8.15c-.6,0-.82.23-.82.86v10.16c0,.61.23.85.81.85h15.44c.56,0,.79-.24.79-.84v-9.61h1.67v11.52h-20.39v-12.84c0-1.18.66-1.88,1.8-1.88h8.85Z"/>
              <path class="cls-38" d="M107.76,194.54c3.72,0,7.45,0,11.17,0,.19,0,.4.05.56.14.27.16.36.5.27.81-.09.32-.18.65-.27.96-.23.82-.93,1.39-1.76,1.43h-19.79c-.7,0-1.33-.24-1.66-.88-.27-.51-.42-1.12-.56-1.7-.09-.39.25-.75.65-.79.1,0,.19,0,.3,0,3.7.02,7.4.02,11.09.02ZM107.75,196.69h1.51c.16,0,.32,0,.47-.02.24-.03.4-.21.4-.44,0-.24-.15-.44-.39-.49-.06,0-.12,0-.17,0h-3.62c-.06,0-.12,0-.17,0-.24.04-.4.23-.4.48s.17.43.42.46c.08,0,.17,0,.24,0h1.71Z"/>
              <path class="cls-38" d="M104.68,191.74h-3.19c-.41,0-.55-.14-.52-.56.04-.63.06-1.26.14-1.88.12-.96.91-1.65,1.84-1.66,1.15,0,2.31,0,3.46,0,.99,0,1.8.78,1.88,1.82.04.56.08,1.12.11,1.68.03.46-.1.6-.53.6h-3.19Z"/>
              <path class="cls-38" d="M106.71,185.09c-.01.56-.14,1.06-.45,1.52-.8,1.22-2.36,1.22-3.16,0-.58-.88-.58-2.12,0-3,.81-1.25,2.38-1.24,3.18,0,.28.44.4.95.42,1.48Z"/>
            </g>
          </g>
        </g>
      </g>
      <g>
        <g>
          <ellipse class="cls-16" cx="367.15" cy="139.31" rx="107.08" ry="90.78"/>
          <ellipse class="cls-21" cx="367.15" cy="139.31" rx="101.86" ry="85.74"/>
        </g>
        <path class="cls-18" d="M411.27,110c0,.26-.02.53-.04.8-1,8.38-16.95,20.2-25.45,26.4-.4.3-.81.58-1.19.86l-.3-.4c2.88-2.02,4.35-3.87,4.35-3.87l.23-9.2c1.28-1.3,2.55-2.75,3.79-4.34,5.85-7.56,5.61-26.71,5.61-26.71l-.02-.1v-2.7c.79.81,1.58,1.63,2.35,2.46.45.48.89.96,1.34,1.44,5.14,5.65,9.32,11.28,9.32,15.37Z"/>
        <path class="cls-18" d="M351.6,137.66l-.3.4c-.39-.28-.79-.56-1.19-.86-8.51-6.2-24.46-18.01-25.45-26.4-.03-.27-.04-.54-.04-.8,0-3.67,3.39-8.61,7.83-13.68.9-1.04,1.85-2.09,2.83-3.13.77-.82,1.55-1.64,2.35-2.45v2.79s-.26,19.15,5.6,26.71c1.23,1.59,2.51,3.04,3.79,4.34l.23,9.2s1.48,1.85,4.35,3.87Z"/>
        <path class="cls-15" d="M376.2,133.78c-3.57,1.62-7.81,1.48-8.26,1.46-.45.02-4.69.16-8.26-1.46-2.99-1.35-7.87-4.29-12.67-9.2l.23,12.04s1.48.49,4.35,2.51c1.14.8,2.51,1.46,4.08,2,5.79,4.06,9.99,7.23,12.27,13.02,2.34-5.94,6.71-9.13,12.73-13.34,1.63-.6,3.03-1.31,4.16-2.1,2.87-2.02,3.8-.86,3.8-.86l.23-13.26c-4.8,4.91-9.69,7.85-12.67,9.2Z"/>
        <path class="cls-6" d="M367.94,139.73c-7.59,0-14.69-1.53-20.72-4.17l.02,1.06s1.48.49,4.35,2.51c1.14.8,2.51,1.46,4.08,2,5.79,4.06,9.99,7.23,12.27,13.02,2.34-5.94,6.71-9.13,12.73-13.34,1.63-.6,3.03-1.31,4.16-2.1,2.87-2.02,3.8-.86,3.8-.86l.04-2.3c-6.03,2.65-13.13,4.18-20.74,4.18Z"/>
        <path class="cls-13" d="M367.94,144.64c-7.59,0-14.69-1.53-20.72-4.17l.02,1.06s1.48.49,4.35,2.51c1.14.8,2.51,1.46,4.08,2,5.79,4.06,9.99,7.23,12.27,13.02,2.34-5.94,6.71-9.13,12.73-13.34,1.63-.6,3.03-1.31,4.16-2.1,2.87-2.02,3.8-.86,3.8-.86l.04-2.3c-6.03,2.65-13.13,4.18-20.74,4.18Z"/>
        <path class="cls-23" d="M440.48,128.9c-8.25-10.87-25.51-12.92-29.19-13.24-.33-.03-.55-.04-.64-.05-1.85,10.88-5.33,21.46-11.53,25.61-12.73,8.56-25.47,9.15-31.18,14.38-5.72-5.23-18.46-5.82-31.19-14.38-6.18-4.15-9.67-14.73-11.52-25.61-.1,0-.31.03-.64.05-3.67.32-20.93,2.37-29.19,13.24-6.94,9.15-25.67,33.49-30.83,53.94-1.73,6.85-1.93,13.26.33,18.51,8.37,19.46,48,25.06,53.72,25.78h98.64c5.72-.72,45.34-6.32,53.71-25.78,9.03-20.98-21.22-60.25-30.49-72.45ZM300.41,190.01s4.41-10.16,5.58-12.39t0,0c.16-.3.25-.45.27-.41.1.33,3.06,15.09,3.58,17.67l-9.43-4.86ZM426.05,194.88c.51-2.58,3.47-17.34,3.58-17.67.12-.36,5.85,12.8,5.85,12.8l-9.43,4.86Z"/>
        <g class="cls-39">
          <path class="cls-11" d="M435.48,190.02s.29-.31.87-.79c.59-.45,1.43-1.15,2.58-1.74,1.13-.61,2.51-1.26,4.07-1.74.79-.2,1.6-.46,2.45-.57.43-.07.85-.13,1.28-.2l1.31-.09c1.75-.08,3.51.08,5.11.42.81.11,1.55.44,2.26.66.72.21,1.34.54,1.93.8,1.2.48,2.05,1.18,2.68,1.58.6.44.94.69.94.69,0,0-.41-.11-1.13-.32-.69-.24-1.7-.53-2.9-.81-.59-.16-1.23-.35-1.93-.42-.7-.08-1.41-.27-2.16-.31-1.5-.14-3.1-.26-4.7-.14l-1.2.05c-.4.05-.79.09-1.18.14-.79.06-1.55.25-2.3.35-1.48.32-2.89.59-4.05,1.01-1.17.39-2.18.69-2.85.98-.7.25-1.08.43-1.08.43Z"/>
          <path class="cls-11" d="M449.87,180.62s-.29.05-.78.19c-.49.09-1.18.34-1.99.53-.81.2-1.72.56-2.66.91-.93.38-1.92.78-2.82,1.33l-.69.38-.64.44c-.44.27-.83.6-1.22.91-.41.29-.74.64-1.09.95-.17.16-.35.3-.5.46-.14.17-.28.33-.41.49-.25.32-.55.58-.76.86-.21.27-.4.51-.55.71-.33.4-.52.62-.52.62,0,0,.05-.29.14-.8.07-.25.13-.56.21-.92.08-.36.26-.73.46-1.14.1-.2.2-.42.31-.64.11-.22.26-.42.4-.65.28-.44.58-.92.99-1.32.39-.43.8-.86,1.3-1.21.24-.18.48-.38.73-.55l.79-.48c1.08-.6,2.23-1.02,3.34-1.27,1.11-.25,2.17-.28,3.05-.29.89-.01,1.63.16,2.14.25.51.13.79.23.79.23Z"/>
          <path class="cls-11" d="M300.41,190.02s-.38-.19-1.08-.43c-.67-.29-1.68-.6-2.85-.98-1.16-.42-2.58-.69-4.05-1.01-.75-.1-1.51-.29-2.3-.35-.39-.05-.79-.09-1.18-.14l-1.2-.05c-1.6-.12-3.2,0-4.7.14-.76.04-1.47.23-2.16.31-.7.07-1.34.26-1.93.42-1.2.28-2.21.57-2.9.81-.72.2-1.13.32-1.13.32,0,0,.34-.25.94-.69.62-.4,1.48-1.09,2.68-1.58.59-.26,1.22-.59,1.93-.8.71-.22,1.45-.54,2.26-.66,1.6-.35,3.36-.51,5.11-.42l1.31.09c.43.07.86.13,1.28.2.85.11,1.66.37,2.45.57,1.56.49,2.94,1.13,4.07,1.74,1.15.59,1.99,1.29,2.58,1.74.57.49.87.79.87.79Z"/>
          <path class="cls-11" d="M286.01,180.62s.28-.1.79-.23c.5-.09,1.24-.26,2.14-.25.89.01,1.95.04,3.05.29,1.11.25,2.26.67,3.34,1.27l.79.48c.25.18.49.37.73.55.49.35.91.78,1.3,1.21.42.4.71.88.99,1.32.14.22.28.43.4.65.11.22.21.44.31.64.19.41.37.78.46,1.14.08.36.15.67.21.92.09.51.14.8.14.8,0,0-.19-.23-.52-.62-.14-.2-.34-.44-.55-.71-.21-.27-.51-.53-.76-.86-.13-.15-.27-.32-.41-.49-.15-.16-.33-.3-.5-.46-.35-.31-.68-.65-1.09-.95-.39-.31-.77-.64-1.22-.91l-.64-.44-.69-.38c-.9-.55-1.89-.95-2.82-1.33-.95-.35-1.85-.71-2.66-.91-.81-.2-1.49-.45-1.99-.53-.49-.14-.78-.19-.78-.19Z"/>
        </g>
        <path class="cls-17" d="M417.12,227.14c5.72-.72,45.34-6.32,53.72-25.78,2.26-5.26,2.06-11.67.33-18.51-.7,7.26-7.33,24.17-52.71,28.66l-1.34,15.64Z"/>
        <path class="cls-31" d="M410.65,115.61c-1.85,10.87-5.33,21.46-11.52,25.61-12.73,8.56-25.47,9.14-31.19,14.37v-1.44c2.83-7.15,8.58-10.32,16.64-16.1.39-.28.79-.56,1.19-.86,8.51-6.2,24.46-18.01,25.45-26.4l.14.02c-.2,1.59-.44,3.19-.71,4.8Z"/>
        <path class="cls-7" d="M392.67,120.24c-1.23,1.59-2.51,3.04-3.79,4.34-4.8,4.91-9.69,7.84-12.68,9.2-3.57,1.62-7.81,1.48-8.25,1.46-.45.02-4.68.16-8.26-1.46-2.98-1.36-7.87-4.29-12.67-9.2-1.28-1.3-2.55-2.75-3.79-4.34-5.86-7.56-5.61-26.71-5.61-26.71v-.1s0-2.69,0-2.69c.22-.23.44-.46.66-.69,4.3-4.38,8.65-8.5,11.47-11.59,6.91-7.62,17.1-7.7,18.2-7.69,1.09-.02,11.28.07,18.2,7.69,2.81,3.09,7.17,7.21,11.46,11.59.22.23.44.45.66.68v2.7l.02.1s.24,19.15-5.61,26.71Z"/>
        <path class="cls-18" d="M375.97,74.22c-1.26,1.19-2.6,2.2-3.23,2.63-3.14,2.17-6.77,3.57-10.41,4.63-8.02,2.35-16.43,3.35-24.78,2.95-.64-.03-1.37-.11-1.75-.63-.31-.42-.28-.98-.22-1.49.62-5.07,3.03-8.44,7.29-11.08,5.18-3.21,11.21-5.02,17.3-5.21,4.12-.12,8.22.48,12.3,1.1,1.61.24,5.35.37,6.24,2.05.7,1.32-.95,3.37-2.74,5.06Z"/>
        <path class="cls-28" d="M367.94,76.59c13.44,0,25,9.25,30.16,22.53.2-3.3.17-5.59.17-5.59l-.02-.1v-2.7c-.22-.23-.44-.45-.66-.68-4.29-4.38-8.65-8.5-11.46-11.59-6.91-7.62-17.1-7.7-18.2-7.69-1.09-.02-11.28.07-18.2,7.69-2.81,3.09-7.17,7.21-11.47,11.59-.22.23-.44.45-.66.69v2.79s-.04,2.29.16,5.59c5.16-13.28,16.72-22.53,30.16-22.53Z"/>
        <path class="cls-17" d="M318.62,227.14c-5.72-.72-45.34-6.32-53.72-25.78-2.26-5.26-2.06-11.67-.33-18.51.7,7.26,7.33,24.17,52.71,28.66l1.34,15.64Z"/>
        <path class="cls-13" d="M449.38,184.02c-3.6,0,6.86-2.76,6.86-2.76-6.8-2.88-8.46-1.78-16.8-1.17-6.53.49-8.95-1.56-9.69-2.47,1.16,2.22,5.58,12.39,5.58,12.39l-9.43,4.86s12.01-2.46,15.08-3.74c10.74-4.51,24.16,1.78,24.16,1.78-3.99-10.67-15.51-8.89-15.76-8.89ZM402.5,146.13c7.54-6.49,8.63-25.16,8.8-30.46-.33-.03-.55-.04-.64-.05-1.85,10.88-5.33,21.46-11.53,25.61-12.73,8.56-25.47,9.15-31.18,14.38-5.72-5.23-18.46-5.82-31.19-14.38-6.18-4.15-9.67-14.73-11.52-25.61-.1,0-.31.03-.64.05.16,5.31,1.26,23.97,8.8,30.46,8.83,7.6,10.15,22.02-19.69,23.27h108.49c-29.85-1.25-28.53-15.67-19.69-23.27ZM305.99,177.63c-.74.9-3.15,2.95-9.69,2.47-8.34-.61-10-1.71-16.8,1.17,0,0,10.47,2.76,6.86,2.76-.25,0-11.77-1.77-15.76,8.89,0,0,13.41-6.29,24.16-1.78,3.07,1.29,15.08,3.74,15.08,3.74l-9.43-4.86s4.41-10.16,5.58-12.39Z"/>
        <path class="cls-10" d="M325.23,115.61c1.85,10.87,5.33,21.46,11.52,25.61,12.73,8.56,25.47,9.14,31.19,14.37v-1.44c-2.83-7.15-8.58-10.32-16.64-16.1-.39-.28-.79-.56-1.19-.86-8.51-6.2-24.46-18.01-25.45-26.4l-.14.02c.2,1.59.44,3.19.71,4.8Z"/>
        <path class="cls-20" d="M372.54,115.39c-1.05,1.29-2.75,2.23-4.58,2.24-1.82.03-3.56-.82-4.64-2.17-.1-.12.39-.67.49-.64,1.41.52,2.82.7,4.12.65,1.31-.04,2.63-.32,4.14-.77.13-.03.56.59.47.69Z"/>
        <path class="cls-15" d="M378.11,123.39c-6.78.27-13.56.27-20.35-.08-.26-.01-.28-.38,0-.4,6.78-.5,13.59-.6,20.37.07.28.03.26.41-.01.42Z"/>
        <path class="cls-15" d="M365.33,126.3s.08-.04.22-.1c.14-.04.35-.15.59-.2.25-.05.53-.14.84-.17.31-.05.63-.05.96-.07.33.01.65.02.96.06.31.03.59.12.84.17.25.05.45.16.59.2.14.07.22.11.22.11,0,0-.08.04-.22.11-.14.04-.35.15-.59.2-.25.05-.53.14-.84.17-.31.05-.63.05-.96.06-.33-.01-.65-.02-.96-.07-.31-.03-.59-.12-.84-.17-.25-.05-.45-.15-.59-.2-.14-.07-.22-.1-.22-.1Z"/>
        <g>
          <ellipse class="cls-14" cx="365.48" cy="187.93" rx="82.67" ry="43.76"/>
          <path class="cls-5" d="M365.48,162.21h-61.7c-1.69,0-3,1.48-2.79,3.16l7.14,57.86,1.3,10.54h112.11l1.3-10.54,7.14-57.86c.21-1.68-1.1-3.16-2.79-3.16h-61.7Z"/>
          <path class="cls-24" d="M301.09,166.2c.35-1.15,1.41-2,2.69-2h123.4c1.29,0,2.35.86,2.69,2l.1-.83c.21-1.68-1.1-3.16-2.79-3.16h-123.4c-1.69,0-3,1.48-2.79,3.16l.1.83Z"/>
          <path class="cls-26" d="M379.25,210.23c-1.28-.47-2.95-.12-3.7.79-.12.14-.2.28-.26.43l-6.63-2.39,7.01-2.49c.04.16.1.31.2.46.62.95,2.25,1.31,3.64.83,1.41-.49,2.08-1.67,1.49-2.64-.35-.57-1.05-.93-1.86-1.04.4-.55.49-1.2.13-1.79-.63-1.03-2.34-1.44-3.8-.9-1.45.53-2.08,1.79-1.42,2.79.1.15.23.29.38.41l-8.95,3.23-8.95-3.23c.15-.12.27-.26.38-.41.66-1,.03-2.25-1.42-2.79-1.46-.54-3.17-.13-3.8.9-.36.59-.27,1.24.13,1.79-.81.11-1.51.48-1.86,1.04-.59.97.08,2.15,1.49,2.64,1.4.49,3.02.12,3.64-.83.1-.15.16-.3.2-.46l7.01,2.49-6.63,2.39c-.06-.14-.14-.29-.26-.43-.76-.9-2.43-1.26-3.7-.79-1.27.47-1.65,1.57-.87,2.44.45.5,1.17.82,1.95.91-.27.47-.23,1.02.2,1.51.74.83,2.33,1.16,3.56.73,1.24-.43,1.68-1.47.96-2.32-.11-.13-.25-.25-.4-.36l8.38-2.97,8.38,2.97c-.15.11-.29.22-.4.36-.72.85-.28,1.89.96,2.32,1.23.43,2.82.11,3.56-.73.43-.49.47-1.04.2-1.51.77-.1,1.5-.41,1.95-.91.78-.88.4-1.98-.87-2.44ZM355.7,199.17c.08,1.15,1.4,2.07,2.94,2.07.71,0,1.35-.2,1.83-.53.01,0,.02,0,.04.01l.11,3.14h1.66l-.04-1.85c0-.2.22-.37.5-.37s.51.17.51.37l.03,1.85h1.66v-1.85c0-.2.22-.37.5-.37s.51.17.51.37v1.85s1.66,0,1.66,0l.03-1.85c0-.2.23-.37.51-.37h.08c.28,0,.5.17.5.37l-.04,1.85h1.66l.08-2.22.03-.92s.03,0,.04-.01c.48.33,1.12.53,1.83.53,1.54,0,2.85-.92,2.94-2.07.04-.5-.18-.96-.55-1.33,1.09-1.24,1.8-2.72,1.93-4.35.38-4.94-4.6-9.2-11.16-9.2s-11.55,4.26-11.16,9.2c.13,1.63.84,3.11,1.93,4.35-.37.36-.59.83-.55,1.33ZM371.09,190.7c2.14,0,3.79,1.36,3.69,3-.1,1.6-1.85,2.88-3.91,2.88s-3.71-1.28-3.69-2.88c.02-1.64,1.77-3,3.92-3ZM365.48,195.42c1.28,0,1.67,3.6,1.67,3.6h-3.33s.38-3.6,1.67-3.6ZM359.88,190.7c2.14,0,3.9,1.36,3.92,3,.02,1.6-1.63,2.88-3.69,2.88s-3.81-1.28-3.91-2.88c-.11-1.64,1.54-3,3.69-3Z"/>
        </g>
        <path class="cls-18" d="M397.32,95.12c-.13-.46-.39-.87-.74-1.19-.5-.47-1.19-.75-1.94-.75h-21.73c-.68,0-1.3.25-1.76.68-.27.25-.49.56-.62.91h-5.18c-.13-.35-.35-.67-.62-.91-.46-.43-1.09-.68-1.76-.68h-21.73c-.75,0-1.43.28-1.94.75-.34.31-.6.72-.74,1.19h-2.81v1.81h2.85l1.63,11.48c.16,1.14.77,2.13,1.63,2.82.86.69,1.96,1.1,3.15,1.1h15.16c1.13,0,2.18-.4,2.97-1.08.79-.68,1.33-1.64,1.41-2.74l.88-11.92h5.02l.88,11.92c.08,1.1.62,2.07,1.41,2.74.79.68,1.84,1.08,2.97,1.08h15.16c1.19,0,2.3-.41,3.16-1.1.86-.69,1.47-1.68,1.63-2.82l1.63-11.48h2.84v-1.81h-2.81ZM363.69,95.62l-.94,12.76c-.04.58-.32,1.1-.78,1.5-.46.39-1.09.64-1.79.64h-15.16c-.78,0-1.48-.27-2.01-.69-.53-.43-.88-1.01-.97-1.66l-1.74-12.26v-.1c0-.19.08-.38.24-.54.17-.16.41-.26.71-.26h21.73c.22,0,.41.08.54.2.13.12.18.25.18.38v.04ZM395.6,95.9l-1.74,12.26c-.09.65-.44,1.23-.97,1.66-.53.43-1.24.69-2.02.69h-15.16c-.7,0-1.33-.25-1.78-.64-.46-.4-.74-.92-.78-1.5l-.94-12.76v-.04c0-.14.05-.27.18-.38.13-.12.31-.2.54-.2h21.73c.29,0,.54.11.71.26.17.16.25.34.25.54v.1Z"/>
        <path class="cls-25" d="M412.31,87.19c-.86-9.27-2.81-12.69-11.1-31.71-7.91-18.14-31.1-19.65-33.26-19.76-2.16.1-25.36,1.62-33.26,19.76-8.29,19.03-10.24,22.44-11.1,31.71-.38,4.13-.35,13.62.94,23.63l.14-.02c-.03-.27-.05-.53-.05-.8,0-4.43,4.92-10.69,10.66-16.8.98-1.06,2-2.11,3.01-3.14,4.3-4.38,8.65-8.5,11.46-11.59,6.91-7.61,17.1-7.7,18.2-7.69,1.1-.01,11.28.07,18.2,7.69,2.81,3.09,7.17,7.21,11.46,11.59,1.01,1.03,2.02,2.08,3.01,3.14,5.73,6.11,10.66,12.38,10.66,16.8,0,.27-.02.53-.05.8l.14.02c1.29-10,1.32-19.49.94-23.63Z"/>
        <path class="cls-29" d="M363.69,95.62l-.94,12.76c-.04.58-.32,1.1-.78,1.5-.46.39-1.09.64-1.79.64h-15.16c-.78,0-1.48-.27-2.01-.69-.53-.43-.88-1.01-.97-1.66l-1.74-12.26v-.1c0-.19.08-.38.24-.54.17-.16.41-.26.71-.26h21.73c.22,0,.41.08.54.2.13.12.18.25.18.38v.04Z"/>
        <path class="cls-9" d="M395.6,95.9l-1.74,12.26c-.09.65-.44,1.23-.97,1.66-.53.43-1.24.69-2.02.69h-15.16c-.7,0-1.33-.25-1.78-.64-.46-.4-.74-.92-.78-1.5l-.94-12.76v-.04c0-.14.05-.27.18-.38.13-.12.31-.2.54-.2h21.73c.29,0,.54.11.71.26.17.16.25.34.25.54v.1Z"/>
        <path class="cls-12" d="M341.17,95.88l1.72,12.16c.06.43.29.81.66,1.11.4.32.92.5,1.47.5h15.16c.46,0,.89-.15,1.22-.43.2-.17.45-.47.48-.91l.92-12.44h-21.56s-.06,0-.08.01ZM394.65,95.87l-21.56-.04.92,12.48c.03.43.28.73.48.91.32.28.76.43,1.22.43h15.16c.55,0,1.07-.18,1.47-.5.37-.3.6-.68.66-1.11l1.73-12.16s-.04-.01-.08-.01Z"/>
        <g class="cls-40">
          <path class="cls-22" d="M348.98,95.87l-6.7,7.85.61,4.32c.06.43.29.81.66,1.11.4.32.92.5,1.47.5h.9l11.75-13.78h-8.7Z"/>
          <path class="cls-22" d="M380.65,95.84l-6.96,8.16.32,4.31c.03.43.28.73.48.91.32.28.76.43,1.22.43h1.86l11.76-13.79-8.68-.02Z"/>
        </g>
        <path class="cls-4" d="M367.94,154.16s.09-.22.28-.66c.17-.44.48-1.07.9-1.88.88-1.59,2.47-3.8,5.04-6.05,2.56-2.25,6-4.57,9.83-7.34,3.81-2.8,8.11-5.97,12.58-9.69,2.23-1.87,4.5-3.87,6.7-6.09,2.18-2.22,4.37-4.65,5.99-7.5.86-1.4,1.38-2.98,1.56-4.58.1-1.61-.52-3.23-1.26-4.76-1.57-3.06-3.81-5.87-6.17-8.61-4.78-5.46-10.27-10.61-15.65-16.07-.67-.69-1.33-1.38-1.99-2.1-.67-.66-1.3-1.35-2.04-1.93-1.44-1.2-3.03-2.24-4.75-3.04-3.42-1.61-7.24-2.49-11.03-2.53-3.79.04-7.61.92-11.03,2.53-1.72.8-3.31,1.84-4.75,3.04-.74.58-1.37,1.27-2.04,1.93-.65.72-1.32,1.41-1.99,2.1-5.39,5.46-10.87,10.61-15.65,16.07-2.36,2.74-4.6,5.55-6.17,8.61-.73,1.53-1.36,3.15-1.26,4.76.18,1.6.7,3.18,1.56,4.58,1.62,2.85,3.8,5.28,5.99,7.5,2.2,2.22,4.48,4.22,6.7,6.09,4.47,3.72,8.77,6.9,12.58,9.69,3.83,2.77,7.27,5.09,9.83,7.34,2.58,2.25,4.16,4.46,5.04,6.05.42.81.73,1.43.9,1.88.18.43.28.66.28.66,0,0-.1-.22-.29-.65-.18-.44-.5-1.06-.93-1.85-.91-1.57-2.53-3.74-5.13-5.92-2.58-2.21-6.05-4.46-9.93-7.17-3.87-2.74-8.21-5.86-12.73-9.56-2.25-1.86-4.56-3.85-6.81-6.07-2.23-2.23-4.47-4.65-6.19-7.6-.9-1.44-1.51-3.13-1.71-4.93-.06-.91.07-1.83.33-2.69.23-.88.6-1.69.97-2.51,1.61-3.2,3.87-6.06,6.24-8.84,4.79-5.54,10.28-10.73,15.62-16.17.66-.68,1.32-1.37,1.96-2.08.7-.69,1.36-1.42,2.14-2.04,1.51-1.27,3.18-2.36,4.97-3.2,3.58-1.68,7.51-2.6,11.49-2.65,3.98.06,7.9.97,11.49,2.65,1.79.84,3.46,1.93,4.97,3.2.78.61,1.44,1.34,2.14,2.04.64.7,1.3,1.39,1.96,2.08,5.34,5.44,10.84,10.63,15.62,16.17,2.37,2.78,4.63,5.63,6.24,8.84.38.81.75,1.63.97,2.51.26.86.39,1.78.33,2.69-.21,1.79-.81,3.49-1.71,4.93-1.71,2.95-3.95,5.38-6.18,7.6-2.25,2.22-4.55,4.21-6.81,6.07-4.52,3.7-8.87,6.82-12.73,9.56-3.88,2.72-7.35,4.96-9.93,7.17-2.6,2.18-4.22,4.35-5.13,5.92-.44.8-.76,1.42-.93,1.85-.19.43-.29.65-.29.65Z"/>
      </g>
      <text class="cls-1" transform="translate(382.59 26.87)"><tspan x="0" y="0">NU</tspan><tspan class="cls-44" x="14.88" y="0">R</tspan><tspan class="cls-42" x="21.41" y="0">TURE IN</tspan><tspan class="cls-49" x="60.54" y="0">F</tspan><tspan class="cls-48" x="65.96" y="0">O</tspan><tspan class="cls-42" x="74.38" y="0">TECH</tspan></text>
      <text class="cls-2" transform="translate(363.43 39.18)"><tspan x="0" y="0">(An ISO 9001:2015 Certified Company)</tspan></text>
    </g>
  </g>
</svg>