<?xml version="1.0" encoding="UTF-8"?>
<svg xmlns="http://www.w3.org/2000/svg" xmlns:xlink="http://www.w3.org/1999/xlink" viewBox="0 0 500 250">
  <defs>
    <style>
      .cls-1 {
        fill: #2a2d7c;
        font-family: LEMONMILK-Medium, 'LEMON MILK';
        font-size: 9.92px;
      }

      .cls-1, .cls-2 {
        font-weight: 500;
      }

      .cls-3 {
        fill: url(#linear-gradient);
      }

      .cls-3, .cls-4, .cls-5, .cls-6, .cls-7, .cls-8, .cls-9, .cls-10, .cls-11, .cls-12, .cls-13, .cls-14, .cls-15, .cls-16, .cls-17, .cls-18, .cls-19, .cls-20, .cls-21, .cls-22, .cls-23, .cls-24, .cls-25, .cls-26, .cls-27, .cls-28, .cls-29, .cls-30, .cls-31, .cls-32, .cls-33, .cls-34, .cls-35 {
        stroke-width: 0px;
      }

      .cls-36, .cls-37, .cls-12, .cls-38, .cls-39, .cls-40, .cls-41, .cls-42, .cls-43 {
        fill: none;
      }

      .cls-36, .cls-37, .cls-38, .cls-39 {
        stroke-linecap: round;
      }

      .cls-36, .cls-37, .cls-38, .cls-39, .cls-40, .cls-41, .cls-42, .cls-44, .cls-43 {
        stroke-miterlimit: 10;
      }

      .cls-36, .cls-37, .cls-38, .cls-39, .cls-40, .cls-42 {
        stroke-width: .54px;
      }

      .cls-36, .cls-37, .cls-38, .cls-42 {
        stroke: #f9f9f9;
      }

      .cls-4 {
        fill: #02374c;
      }

      .cls-37 {
        stroke-dasharray: 0 0 1.94 1.94;
      }

      .cls-5 {
        fill: #003c54;
      }

      .cls-6 {
        fill: #65b8d1;
      }

      .cls-7 {
        fill: #add0d8;
      }

      .cls-45 {
        isolation: isolate;
      }

      .cls-8 {
        fill: #a5cad3;
      }

      .cls-46 {
        font-family: CenturyGothic-Bold, 'Century Gothic';
        font-size: 20.31px;
        font-weight: 700;
      }

      .cls-46, .cls-15, .cls-24, .cls-27, .cls-47, .cls-44, .cls-48 {
        fill: #fff;
      }

      .cls-9 {
        fill: url(#Degradado_sin_nombre_15-3);
        filter: url(#drop-shadow-3);
      }

      .cls-10 {
        fill: #3a1508;
      }

      .cls-11 {
        fill: url(#linear-gradient-5);
      }

      .cls-38 {
        stroke-dasharray: 0 0 1.83 1.83;
      }

      .cls-49 {
        letter-spacing: 0em;
      }

      .cls-13 {
        fill: #0c1c28;
      }

      .cls-14 {
        fill: #e0f4fc;
      }

      .cls-50 {
        letter-spacing: -.02em;
      }

      .cls-16 {
        fill: #8bdef2;
      }

      .cls-17 {
        fill: url(#linear-gradient-2);
      }

      .cls-39, .cls-27, .cls-42, .cls-51, .cls-33 {
        mix-blend-mode: overlay;
        opacity: .25;
      }

      .cls-39, .cls-43 {
        stroke: #000;
      }

      .cls-18 {
        fill: #cae7ef;
      }

      .cls-19 {
        fill: #16374c;
      }

      .cls-40 {
        stroke: #65b8d1;
      }

      .cls-20 {
        fill: url(#linear-gradient-3);
      }

      .cls-21 {
        fill: #07171c;
      }

      .cls-52 {
        clip-path: url(#clippath);
      }

      .cls-22 {
        fill: #1c262d;
      }

      .cls-23 {
        fill: #0d5375;
      }

      .cls-24 {
        opacity: .55;
      }

      .cls-2 {
        font-family: FuturaBT-Medium, 'Futura Md BT';
        font-size: 7.09px;
      }

      .cls-25 {
        fill: #00b3f9;
      }

      .cls-41 {
        stroke: #fff;
        stroke-width: 1.62px;
      }

      .cls-26 {
        fill: #008eba;
      }

      .cls-53 {
        letter-spacing: .02em;
      }

      .cls-54 {
        mix-blend-mode: screen;
        opacity: .13;
      }

      .cls-28 {
        fill: #1c1c1c;
      }

      .cls-47 {
        font-size: 27.41px;
      }

      .cls-47, .cls-48 {
        font-family: Arial-Black, Arial;
        font-weight: 800;
      }

      .cls-29 {
        fill: url(#Degradado_sin_nombre_17);
        filter: url(#drop-shadow-4);
      }

      .cls-44 {
        stroke: #e00;
        stroke-width: .76px;
      }

      .cls-43 {
        stroke-width: .43px;
      }

      .cls-30 {
        fill: #11191e;
      }

      .cls-31 {
        fill: url(#Degradado_sin_nombre_15);
        filter: url(#drop-shadow-1);
      }

      .cls-32 {
        fill: url(#linear-gradient-4);
      }

      .cls-55 {
        letter-spacing: -.04em;
      }

      .cls-48 {
        font-size: 10.51px;
      }

      .cls-56 {
        letter-spacing: -.02em;
      }

      .cls-34 {
        fill: #55c6ff;
      }

      .cls-35 {
        fill: url(#Degradado_sin_nombre_15-2);
        filter: url(#drop-shadow-2);
      }
    </style>
    <clipPath id="clippath">
      <rect class="cls-12" x=".82" width="499.7" height="249.48"/>
    </clipPath>
    <radialGradient id="Degradado_sin_nombre_15" data-name="Degradado sin nombre 15" cx="-406.65" cy="284.39" fx="-406.65" fy="284.39" r="119.24" gradientTransform="translate(346.41 -36.58) scale(.84 .88)" gradientUnits="userSpaceOnUse">
      <stop offset="0" stop-color="#fff"/>
      <stop offset="1" stop-color="#f5f5f6"/>
    </radialGradient>
    <filter id="drop-shadow-1" filterUnits="userSpaceOnUse">
      <feOffset dx="1.3" dy="1.3"/>
      <feGaussianBlur result="blur" stdDeviation="1.3"/>
      <feFlood flood-color="#000" flood-opacity=".2"/>
      <feComposite in2="blur" operator="in"/>
      <feComposite in="SourceGraphic"/>
    </filter>
    <radialGradient id="Degradado_sin_nombre_15-2" data-name="Degradado sin nombre 15" cx="-396.39" cy="285.07" fx="-396.39" fy="285.07" r="103.27" xlink:href="#Degradado_sin_nombre_15"/>
    <filter id="drop-shadow-2" filterUnits="userSpaceOnUse">
      <feOffset dx="1.3" dy="1.3"/>
      <feGaussianBlur result="blur-2" stdDeviation="1.3"/>
      <feFlood flood-color="#000" flood-opacity=".2"/>
      <feComposite in2="blur-2" operator="in"/>
      <feComposite in="SourceGraphic"/>
    </filter>
    <radialGradient id="Degradado_sin_nombre_15-3" data-name="Degradado sin nombre 15" cx="-284.78" cy="253.76" fx="-284.78" fy="253.76" r="28.8" xlink:href="#Degradado_sin_nombre_15"/>
    <filter id="drop-shadow-3" filterUnits="userSpaceOnUse">
      <feOffset dx="1.3" dy="1.3"/>
      <feGaussianBlur result="blur-3" stdDeviation="1.3"/>
      <feFlood flood-color="#000" flood-opacity=".2"/>
      <feComposite in2="blur-3" operator="in"/>
      <feComposite in="SourceGraphic"/>
    </filter>
    <linearGradient id="Degradado_sin_nombre_17" data-name="Degradado sin nombre 17" x1="88.2" y1="185.67" x2="127.89" y2="185.67" gradientUnits="userSpaceOnUse">
      <stop offset="0" stop-color="#f5f5f6"/>
      <stop offset="1" stop-color="#fff"/>
    </linearGradient>
    <filter id="drop-shadow-4" filterUnits="userSpaceOnUse">
      <feOffset dx="1.3" dy="1.3"/>
      <feGaussianBlur result="blur-4" stdDeviation="1.3"/>
      <feFlood flood-color="#000" flood-opacity=".2"/>
      <feComposite in2="blur-4" operator="in"/>
      <feComposite in="SourceGraphic"/>
    </filter>
    <linearGradient id="linear-gradient" x1="349.36" y1="147.88" x2="384.87" y2="151.16" gradientUnits="userSpaceOnUse">
      <stop offset="0" stop-color="#ffa894"/>
      <stop offset="1" stop-color="#fc7b65"/>
    </linearGradient>
    <linearGradient id="linear-gradient-2" x1="372.88" y1="153.03" x2="408.36" y2="156.31" xlink:href="#linear-gradient"/>
    <linearGradient id="linear-gradient-3" x1="395.49" y1="137.31" x2="399.61" y2="124.77" xlink:href="#linear-gradient"/>
    <linearGradient id="linear-gradient-4" x1="352.35" y1="142.98" x2="351.77" y2="157.25" gradientUnits="userSpaceOnUse">
      <stop offset="0" stop-color="#ffb000"/>
      <stop offset="1" stop-color="#ff6700"/>
    </linearGradient>
    <linearGradient id="linear-gradient-5" x1="362.59" y1="149.02" x2="361.47" y2="167.3" gradientUnits="userSpaceOnUse">
      <stop offset="0" stop-color="#4c1710"/>
      <stop offset="1" stop-color="#723328"/>
    </linearGradient>
  </defs>
  <g class="cls-45">
    <g id="Layer_1" data-name="Layer 1">
      <rect class="cls-44" x=".82" width="499.18" height="251.28"/>
      <g class="cls-52">
        <rect class="cls-12" x=".82" width="500" height="250"/>
      </g>
      <polygon class="cls-25" points="156.17 250 .82 250 .82 0 295.47 0 156.17 250"/>
      <g>
        <text class="cls-47" transform="translate(19.22 37.91) scale(.96 1)"><tspan x="0" y="0">GRAPHIC </tspan><tspan x="0" y="32.89">DESIGNING</tspan></text>
        <text class="cls-46" transform="translate(18.15 112.22) scale(.96 1)"><tspan x="0" y="0">Professional Training </tspan><tspan x="0" y="24.37">Program</tspan></text>
        <g>
          <text class="cls-48" transform="translate(20.85 226.44) scale(.96 1)"><tspan x="0" y="0">O</tspan><tspan class="cls-53" x="8.75" y="0">f</tspan><tspan x="13.11" y="0">fline</tspan></text>
          <text class="cls-48" transform="translate(92.51 226.31) scale(.96 1)"><tspan x="0" y="0">Online</tspan></text>
          <g>
            <g>
              <path class="cls-31" d="M63.36,185.71c0,13.93-10.79,25.23-24.11,25.23s-24.11-11.29-24.11-25.23,10.79-25.23,24.11-25.23,24.11,11.29,24.11,25.23Z"/>
              <g class="cls-54">
                <path class="cls-41" d="M59.09,184.81c0,11.47-8.88,20.76-19.84,20.76s-19.84-9.3-19.84-20.76,8.88-20.76,19.84-20.76,19.84,9.3,19.84,20.76Z"/>
              </g>
              <path class="cls-35" d="M59.09,185.71c0,11.47-8.88,20.76-19.84,20.76s-19.84-9.3-19.84-20.76,8.88-20.76,19.84-20.76,19.84,9.3,19.84,20.76Z"/>
            </g>
            <g>
              <path class="cls-43" d="M49.49,185.02h-10.21c-.34,0-.62-.29-.62-.65v-9.35c0-.36.28-.65.62-.65h10.21c.34,0,.62.29.62.65v9.35c0,.35-.28.65-.62.65ZM41.84,178.34h5.09c.34,0,.62-.29.62-.65h0c0-.36-.28-.65-.62-.65h-5.09c-.34,0-.62.29-.62.65h0c0,.35.28.65.62.65ZM41.84,181.01h3.82c.34,0,.62-.29.62-.65h0c0-.36-.28-.65-.62-.65h-3.82c-.34,0-.62.29-.62.65h0c0,.35.28.65.62.65Z"/>
              <path class="cls-43" d="M33.83,174.36c.44.1.87.25,1.23.54.92.73,1.25,2.01.83,3.12-.42,1.08-1.52,1.78-2.6,1.65-1.18-.14-2.09-1.05-2.27-2.25-.21-1.44.72-2.78,2.1-3.02.04,0,.08-.03.12-.04.2,0,.4,0,.59,0Z"/>
              <path class="cls-43" d="M34.78,195.3c.18-1,.63-1.8,1.43-2.36.58-.41,1.23-.6,1.92-.56.77.04,1.44.35,2.01.89.57.55.88,1.23,1,2.08.08-.31.13-.56.22-.81.49-1.41,1.87-2.32,3.26-2.16,1.48.16,2.67,1.33,2.85,2.85.07.6.01,1.2.01,1.82h-19.07c-.06-1.31-.12-2.63.89-3.66.93-.94,2.03-1.28,3.27-.87,1.23.41,1.95,1.33,2.19,2.66,0,.04.01.07.02.1Z"/>
              <path class="cls-43" d="M36.67,185.33c-.74.29-1.38.78-1.86,1.51-1.16-1.56-2.63-2.11-4.47-1.55.04-1.03-.13-2.07.34-3.05.63-1.29,1.98-2.02,3.39-1.78,1.32.22,2.43,1.39,2.58,2.8.08.67.02,1.36.02,2.08Z"/>
              <path class="cls-43" d="M31.63,186.39c1.4,0,2.54,1.2,2.54,2.67,0,1.46-1.15,2.66-2.56,2.65-1.39,0-2.53-1.2-2.53-2.65,0-1.46,1.14-2.67,2.54-2.67Z"/>
              <path class="cls-43" d="M35.44,189.05c0-1.46,1.15-2.66,2.55-2.66s2.54,1.2,2.54,2.68c0,1.46-1.14,2.65-2.54,2.65-1.4,0-2.55-1.19-2.55-2.66Z"/>
              <path class="cls-43" d="M46.89,189.06c0,1.46-1.15,2.66-2.55,2.65s-2.54-1.21-2.54-2.68c0-1.46,1.15-2.65,2.54-2.65,1.4,0,2.55,1.2,2.54,2.67Z"/>
              <path class="cls-43" d="M41.21,178.34v-1.31"/>
            </g>
          </g>
          <g>
            <g>
              <path class="cls-9" d="M132.15,185.67c0,13.93-10.79,25.23-24.11,25.23s-24.11-11.29-24.11-25.23,10.79-25.23,24.11-25.23,24.11,11.29,24.11,25.23Z"/>
              <g class="cls-54">
                <path class="cls-41" d="M127.89,184.77c0,11.47-8.88,20.76-19.84,20.76s-19.84-9.3-19.84-20.76,8.88-20.76,19.84-20.76,19.84,9.3,19.84,20.76Z"/>
              </g>
              <path class="cls-29" d="M127.89,185.67c0,11.47-8.88,20.76-19.84,20.76s-19.84-9.3-19.84-20.76,8.88-20.76,19.84-20.76,19.84,9.3,19.84,20.76Z"/>
            </g>
            <g>
              <path class="cls-43" d="M114.31,173.75h4.26c.79,0,1.22.46,1.22,1.28v5.75c0,.83-.43,1.29-1.22,1.29-1.58,0-3.16,0-4.73,0-.27,0-.49.09-.68.29-.58.63-1.18,1.24-1.76,1.85-.18.19-.35.35-.63.23-.28-.12-.27-.38-.27-.63,0-.35,0-.71,0-1.06,0-.45-.18-.65-.6-.69-.72-.06-1.12-.51-1.12-1.27v-5.78c0-.81.45-1.27,1.21-1.27,1.44,0,2.87,0,4.31,0ZM110.66,177.88c0,.47.37.86.82.85.45,0,.82-.41.81-.87,0-.46-.37-.84-.81-.84-.45,0-.81.37-.81.85ZM113.48,177.86c0,.48.35.86.81.86s.82-.39.82-.86-.36-.84-.8-.85c-.45,0-.82.38-.83.85ZM116.31,177.87c0,.47.36.86.81.86s.81-.38.81-.86-.36-.84-.8-.84c-.45-.02-.82.36-.82.84Z"/>
              <path class="cls-43" d="M108.49,179.2v1.76h-8.15c-.6,0-.82.23-.82.86v10.16c0,.61.23.85.81.85h15.44c.56,0,.79-.24.79-.84v-9.61h1.67v11.52h-20.39v-12.84c0-1.18.66-1.88,1.8-1.88h8.85Z"/>
              <path class="cls-43" d="M108.05,194.23c3.72,0,7.45,0,11.17,0,.19,0,.4.05.56.14.27.16.36.5.27.81-.09.32-.18.65-.27.96-.23.82-.93,1.39-1.76,1.43h-19.79c-.7,0-1.33-.24-1.66-.88-.27-.51-.42-1.12-.56-1.7-.09-.39.25-.75.65-.79.1,0,.19,0,.3,0,3.7.02,7.4.02,11.09.02ZM108.04,196.39h1.51c.16,0,.32,0,.47-.02.24-.03.4-.21.4-.44,0-.24-.15-.44-.39-.49-.06,0-.12,0-.17,0h-3.62c-.06,0-.12,0-.17,0-.24.04-.4.23-.4.48s.17.43.42.46c.08,0,.17,0,.24,0h1.71Z"/>
              <path class="cls-43" d="M104.97,191.44h-3.19c-.41,0-.55-.14-.52-.56.04-.63.06-1.26.14-1.88.12-.96.91-1.65,1.84-1.66,1.15,0,2.31,0,3.46,0,.99,0,1.8.78,1.88,1.82.04.56.08,1.12.11,1.68.03.46-.1.6-.53.6h-3.19Z"/>
              <path class="cls-43" d="M107,184.79c-.01.56-.14,1.06-.45,1.52-.8,1.22-2.36,1.22-3.16,0-.58-.88-.58-2.12,0-3,.81-1.25,2.38-1.24,3.18,0,.28.44.4.95.42,1.48Z"/>
            </g>
          </g>
        </g>
      </g>
      <g>
        <g>
          <path class="cls-14" d="M432.07,174.05c0,1.78.72,3.39,1.89,4.56,1.17,1.17,2.78,1.89,4.56,1.89h20.04c4.33,0,8.01,2.76,9.37,6.62.37,1.04.57,2.15.57,3.32,0,2.75-1.11,5.23-2.91,7.03-1.8,1.8-4.28,2.91-7.03,2.91h-32.08c-.78,0-1.47.35-1.93.91-.36.43-.57.99-.57,1.59,0,.69.28,1.32.73,1.77.45.45,1.08.73,1.77.73h14.44c.06,0,.12,0,.18,0,.78.02,1.54.13,2.25.34.04.01.08.02.12.04,3.61,1.09,6.24,4.45,6.24,8.42,0,1.27-.27,2.49-.76,3.58-.44.99-1.06,1.89-1.82,2.64-1.59,1.59-3.79,2.57-6.22,2.57h-141.28c-2.89,0-5.43-1.46-6.95-3.67-.92-1.35-1.46-2.98-1.46-4.73,0-2.32.94-4.42,2.46-5.94.09-.09.19-.19.29-.28,1.49-1.36,3.48-2.19,5.65-2.19h2.88c1.92,0,3.48-1.56,3.48-3.48,0-.5-.11-.97-.29-1.4-.18-.4-.42-.76-.73-1.06-.63-.63-1.5-1.02-2.46-1.02h-27.59c-4.44,0-8.1-3.38-8.53-7.71-.03-.28-.04-.57-.04-.85,0-2.37.96-4.51,2.51-6.06,1.55-1.55,3.69-2.51,6.06-2.51h12.11c3.12,0,5.64-2.53,5.64-5.64,0-1.56-.63-2.97-1.65-3.99-1.02-1.02-2.43-1.65-3.99-1.65h-17.59c-5.68,0-10.28-4.61-10.28-10.29,0-2.84,1.15-5.41,3.01-7.27,1.86-1.86,4.43-3.01,7.27-3.01h13.34c4.98,0,9.03-4.04,9.03-9.03v-35.01c0-2.74,2.22-4.96,4.96-4.96,1.37,0,2.61-.55,3.51-1.46.9-.9,1.45-2.14,1.45-3.51v-9.21c0-9.11,7.38-16.49,16.49-16.49h106.91c4.58,0,8.29,3.71,8.29,8.29,0,2.29-.93,4.36-2.43,5.86-1.5,1.5-3.57,2.43-5.86,2.43h-8.92c-2.29,0-4.15,1.86-4.15,4.14,0,1.14.47,2.18,1.21,2.93.75.75,1.79,1.21,2.93,1.21h39.16c7.96,0,14.41,6.45,14.41,14.41,0,3.98-1.61,7.58-4.22,10.19-2.61,2.61-6.21,4.22-10.19,4.22-3.4,0-6.48,1.38-8.71,3.61-1.34,1.34-2.37,2.99-2.98,4.83-.4,1.22-.62,2.52-.62,3.88v.27c0,6.8,5.51,12.31,12.31,12.31h3.89c5.1,0,9.23,4.13,9.23,9.23,0,.24,0,.48-.03.72-.18,2.26-1.17,4.29-2.67,5.8-1.67,1.67-3.98,2.7-6.52,2.7h-20.75c-3.56,0-6.45,2.89-6.45,6.45Z"/>
          <circle class="cls-14" cx="284.28" cy="91.1" r="5.59" transform="translate(18.85 227.7) rotate(-45)"/>
          <circle class="cls-14" cx="478.41" cy="189.25" r="5.59" transform="translate(-36.01 197.49) rotate(-22.5)"/>
        </g>
        <g>
          <path class="cls-25" d="M383.48,187.79c-.08,0-.16-.01-.24-.04-.26-.1-.44-.35-.44-.63v-18.16c0-.37.3-.68.68-.68h16.1c.27,0,.51.16.62.4.11.24.07.53-.11.73l-16.1,18.16c-.13.15-.32.23-.51.23ZM384.15,169.63v15.7l13.92-15.7h-13.92Z"/>
          <path class="cls-23" d="M402.08,170.31h-26.42c-.75,0-1.35-.6-1.35-1.35h0c0-.75.6-1.35,1.35-1.35h26.42c.75,0,1.35.6,1.35,1.35h0c0,.75-.6,1.35-1.35,1.35Z"/>
          <path class="cls-6" d="M433.42,132.42s-5.14,34.35-5.26,34.7c-.12.35-13.96,18.68-13.96,18.68l-8.8-5.3-3.3-32.4,6.83-14.72.45-.96h4.82s1.61-3.56,6.36-3.56c.82,0,1.5.11,2.06.28,0,0,.02,0,.02,0,0,0,.02,0,.03,0,2.68.86,2.77,3.27,2.77,3.27h7.97Z"/>
          <path class="cls-33" d="M433.42,132.42s-5.14,34.35-5.26,34.7c-.12.35-13.96,18.68-13.96,18.68l-8.8-5.3-3.3-32.4,6.83-14.72c1.18.09,3,1.13,5.27,5.27,4.08,7.49,6.2,8.93,9.1,8.84,2.26-.07,3.52-10.43,7.75-15.07h2.37Z"/>
          <path class="cls-16" d="M428.86,132.42h-3.41s-.09-2.41-2.77-3.27c.57.16,5.13,1.48,5.58,2.17.15.23.37.6.6,1.09Z"/>
          <path class="cls-23" d="M385.61,187.12c0,1.18-.95,2.13-2.13,2.13s-2.13-.95-2.13-2.13.95-2.13,2.13-2.13,2.13.95,2.13,2.13Z"/>
        </g>
        <g>
          <g>
            <path class="cls-40" d="M308.48,109.92l2.68-6.93c.18-.47.84-.48,1.03-.02l3.04,7.35"/>
            <circle class="cls-8" cx="311.65" cy="119.86" r="10.7" transform="translate(117.98 391.86) rotate(-75.58)"/>
            <circle class="cls-18" cx="312.43" cy="119.86" r="10.7" transform="translate(6.75 256.03) rotate(-45)"/>
            <circle class="cls-24" cx="312.43" cy="119.86" r="7.13" transform="translate(55.27 333.99) rotate(-60.77)"/>
          </g>
          <g>
            <path class="cls-40" d="M349.26,86.74l2.68-6.93c.18-.47.83-.48,1.03-.02l3.04,7.35"/>
            <circle class="cls-18" cx="352.44" cy="96.69" r="10.7"/>
            <circle class="cls-15" cx="353.21" cy="96.69" r="10.7"/>
            <circle class="cls-18" cx="353.21" cy="96.69" r="7.13"/>
          </g>
        </g>
        <g>
          <polygon class="cls-26" points="378.01 222.97 375.47 222.97 359.3 160.89 361.84 160.89 378.01 222.97"/>
          <polygon class="cls-33" points="378.01 222.97 376.62 222.97 360.44 160.89 361.84 160.89 378.01 222.97"/>
        </g>
        <g>
          <path class="cls-23" d="M387.66,175.51l-1.38,3.6s-1.5,2.31-3.47,4.83c-.02.04-.05.06-.06.08-.01.01-.02.02-.03.04-1.84,2.35-4.08,4.86-5.86,5.84-1.56.85-4.73,5.42-7.93,10.47-4.5,7.09-9.06,15.11-9.29,15.11-.38,0-5.91-3.09-6.04-3.73-.12-.62,10.41-22.68,13.61-27.97.1-.16.19-.31.27-.43,1.14-1.76,3.41-3.63,5.71-5.25.94-.66,1.89-1.28,2.77-1.83,2.33-1.45,4.18-2.42,4.18-2.42l6.62,1.46.9.2Z"/>
          <path class="cls-4" d="M375,180.08c-1.41.91-4.82,4.44-5.85,4.63-.64.12-1.44-.47-1.94-.92.1-.16.19-.31.27-.43,1.6-2.47,5.44-5.18,8.48-7.08,1.03,1.48.22,3.3-.96,3.8Z"/>
          <path class="cls-33" d="M386.76,175.32c-.74,2.03-3.31,7.71-3.95,8.63-.02.04-.05.06-.06.08-.01.01-.02.02-.03.04-1.84,2.35-4.08,4.86-5.86,5.84-1.56.85-4.73,5.42-7.93,10.47,2.58-6.76,3.82-17.51,4.27-22.27.94-.66,1.89-1.28,2.77-1.83,2.33-1.45,4.18-2.42,4.18-2.42l6.62,1.46Z"/>
          <g class="cls-51">
            <g>
              <path class="cls-36" d="M377.84,182.07s-.27.16-.75.57"/>
              <path class="cls-38" d="M375.76,183.89c-1.44,1.48-3.54,4.02-5.97,8.14-3.63,6.14-8.08,15.76-9.84,19.64"/>
              <path class="cls-36" d="M359.57,212.51c-.25.55-.39.86-.39.86"/>
            </g>
          </g>
          <path class="cls-23" d="M413.47,183.22c-1.77,2.89-5.23,2.12-10.41,1.41-5.18-.71-13.47-.13-14.69.32-.74.27-2.96,11.47-4.84,20.42-1,4.78-1.91,8.93-2.43,10.42h0c-.12.35-.23.56-.31.59-1.03.38-4.31,1.09-6.68-1.03-.38-6.55-.16-22.03,1.41-31.82.53-3.29,1.21-5.93,2.06-7.38.87-1.47,2.75-2.58,5.08-3.41,0,0,.02,0,.02,0,0,0,.02,0,.04-.01.07-.03.13-.05.2-.07,2.67-.92,5.87-1.5,8.8-1.86,1.4,2,5.69,1.21,8.99,1.72.76.12,1.72.19,2.77.22,3.8.11,8.82-.37,10.01-1.48.1.17,3.62,6.08,0,11.97Z"/>
          <path class="cls-33" d="M413.47,183.22c-1.77,2.89-5.23,2.12-10.41,1.41-5.18-.71-13.47-.13-14.69.32-.74.27-2.96,11.47-4.84,20.42.71-8.47,2-23.36,2.4-23.31.51.06,2.38,1.96,2.38,1.96,0,0,15.95-1.93,14.09-4.38-1.87-2.46-9.17-6.65-12.54-7.42-3.13-.71-6.65.35-7.14.5.07-.03.13-.05.2-.07,2.67-.92,5.87-1.5,8.8-1.86,1.4,2,5.69,1.21,8.99,1.72.76.12,1.72.19,2.77.22,3.8.11,8.82-.37,10.01-1.48.1.17,3.62,6.08,0,11.97Z"/>
          <path class="cls-3" d="M386.28,152.83l-3.89.45s-3.84-.11-8.39-.25c-5.93-.18-13.04-.41-14.43-.52-2.44-.19-7-1.22-6.68-1.93.32-.71,3.21-1.03,4.56-1.09,1.35-.06,3.73,1.09,4.63,1.09.78,0,10.63-.39,13.83-.57.49-.03.83-.05.95-.07.89-.13,4.58-2.78,4.58-2.78l2.79.77,2.05,4.9Z"/>
          <path class="cls-33" d="M386.28,152.83l-3.89.45s-3.84-.11-8.39-.25l1.91-3.02c.49-.03.83-.05.95-.07.89-.13,4.58-2.78,4.58-2.78l2.79.77,2.05,4.9Z"/>
          <path class="cls-13" d="M413.7,170.92c-.04.12-.12.23-.23.33h0c-1.19,1.11-6.21,1.58-10.01,1.48-1.05-.03-2.01-.1-2.77-.22-3.29-.51-7.59.28-8.99-1.72-.2-.28-.34-.62-.41-1.03-.53-3.01,1.52-7.21,1.25-11.98-.02-.42-.07-.84-.13-1.27-.07-.46-.14-.93-.2-1.4-.04-.28-.08-.56-.12-.84-.18-1.33-.36-2.65-.51-3.92-2.29,1.14-5.38,2.74-6.08,2.65-.15-.02-.35-.14-.58-.34-1.4-1.19-3.96-5.14-3.42-5.59.63-.53,12.58-9.16,12.58-9.16,1.02-.78,2.27-1.5,3.73-2.1.54-.23,1.12-.44,1.72-.62h0c.71-.22,1.45-.42,2.23-.59,0,0,.42.07,1.1.22h.03c.46.1,1.02.23,1.64.39l.07.02c2.44.62,5.69,1.7,6.6,3.16.2.33.38.95.54,1.8,1.03,5.4,1.27,19.76,1.48,22.18.24,2.79,1.06,6.89.48,8.58Z"/>
          <path class="cls-33" d="M413.7,170.92c-.46,1.35-6.08,1.93-10.24,1.81,3.16-.82,5.13-2.34,5.31-3.84.29-2.44-2.03-3.28-6.6-4.31-3.05-.69-7.21-4.41-9.64-6.81-.02-.42-.07-.84-.13-1.27-.07-.46-.14-.93-.2-1.4,6.42-3.17,18.38-16.45,18.38-16.45l1.15,1.51c1.03,5.4,1.27,19.76,1.48,22.18.24,2.79,1.06,6.89.48,8.58Z"/>
          <path class="cls-33" d="M392.81,151.8v2.5s-.27-.01-.72-.04c-.18-1.33-.36-2.65-.51-3.92-2.29,1.14-5.38,2.74-6.08,2.65-.15-.02-.35-.14-.58-.34,3.48-2.11,6.5-10.12,7.88-10.75-.89,1.67,0,9.9,0,9.9Z"/>
          <path class="cls-13" d="M414.2,146.4c.03,2.42-1.33,5.72-2.41,7.59-.52.9-.97,1.47-1.17,1.45-.09,0-.3-.08-.59-.21-1.64-.73-5.9-3.22-6.68-5.48.23-.39.45-.78.67-1.15,3.82-6.48,6.77-10.3,7.02-10.46,0,0,3.08,1.53,3.16,8.25Z"/>
          <path class="cls-17" d="M410.02,155.23c-.74.95-2.15,2.68-3.62,4.21-1.64,1.71-3.34,3.16-4.27,2.97-2.14-.43-16.82-11.25-18.22-11.47s-7.08.29-7.06-.1c.02-.39,3.11-3.69,4.58-3.69s4.92,1.81,6.41,1.97c1.49.17,13.23,4.53,13.23,4.53l1.31-2.26.95-1.64c.78,2.25,5.04,4.75,6.68,5.48Z"/>
          <path class="cls-33" d="M404.6,135.2c-1.03,2.89-4.19,5.05-6.06,4.24-1.54-.67-1.04-2.73-.72-3.65.54-.23,1.12-.44,1.72-.62h0l3.33-.37h.03s1.64.39,1.64.39l.07.02Z"/>
          <path class="cls-21" d="M394.55,131.08l-1.4.24-.2.04c-1.12.2-2.29-1.12-2.6-2.93-.32-1.82.33-3.45,1.45-3.65l1.6-.28c-.2.04-.38.11-.55.24-.07.05-.14.11-.21.17-.28.28-.49.67-.62,1.14-.17.6-.21,1.33-.07,2.09.13.76.42,1.43.78,1.94.29.4.62.7.98.87.28.13.56.18.85.13Z"/>
          <path class="cls-33" d="M394.55,131.08l-1.4.24c-.91-.25-1.74-1.41-2-2.9-.32-1.82.33-3.45,1.45-3.65l.26-.04c-.07.05-.14.11-.21.17-.28.28-.49.67-.62,1.14-.17.6-.21,1.33-.07,2.09.13.76.42,1.43.78,1.94.29.4.62.7.98.87.28.13.56.18.85.13Z"/>
          <path class="cls-13" d="M405.66,123.06c-.16,2.99-1.3,6.47-3.42,8.81t0,0l-2.11-7.23s-2.28.96-4.95,1.99c-1.34.51-2.42.93-3.49,1.03-1.06.1-2.1-.12-3.36-.87-1.71-1.03-2.07-3.38-1.21-4.77.4-.64,1.05-1.08,1.95-1.1.58-4.44,4.12-5.35,6.28-3.13.03.03.06.05.11.07,0,0,0,0,0,0,.77.37,3.73-.32,3.73-.32,0,0,.92-1.11,2.92-.76.46.08.98.24,1.56.52,1.47.69,2.13,3.01,1.98,5.74Z"/>
          <path class="cls-20" d="M403.18,135.09c-.87,3.12-3.82,3.47-4.24,3.21-.2-.12-.59-.97-.94-1.83-.36-.86-.68-1.73-.73-1.87,0-.01,0-.02,0-.02,0,0-.02.02-.08.03-.08.02-.22.04-.43,0-.3-.05-.76-.2-1.4-.6-2.29-1.42-3.29-4.79-3.6-6.08-.02-.11-.05-.2-.06-.28,1.07-.1,2.15-.52,3.49-1.03,2.67-1.03,4.95-1.99,4.95-1.99l1.64,5.63.47,1.6s0,0,0,0c.19.94.5,2.15.94,3.22Z"/>
          <path class="cls-33" d="M405.66,123.06c-.16,2.99-1.3,6.47-3.42,8.81t0,0l-2.11-7.23s-2.28.96-4.95,1.99c-1.34.51-2.42.93-3.49,1.03-1.06.1-2.1-.12-3.36-.87-1.71-1.03-2.07-3.38-1.21-4.77-.13,2.36,1.68,3.45,1.68,3.45,0,0-.46-1.39.19-2.43.02,1.21.75,2.41,3.41,2.69,2.66.28,5.75-1.68,5.2-4.23-.53-2.45-2.01-3.55-2.14-3.64.77.37,3.73-.32,3.73-.32,0,0,.92-1.11,2.92-.76-.93,1.23,1.89,4.85,3.17,5.84.14.11.27.25.37.41Z"/>
          <path class="cls-33" d="M398,136.47c-.36-.86-.68-1.73-.73-1.87.62-.08,1.69-.46,2.49-1.91.37.78-1.17,2.99-1.76,3.78Z"/>
          <path class="cls-33" d="M401.77,130.27c-2.12-1.3-4.12-3.25-7.21-2.6-1.24.26-2.15.32-2.8.28-.02-.11-.05-.2-.06-.28,1.07-.1,2.15-.52,3.49-1.03,2.67-1.03,4.95-1.99,4.95-1.99l1.64,5.63Z"/>
          <path class="cls-25" d="M401.95,122.37l-1.8.68s-.02-.13-.06-.35c-.23-1.25-1.22-5.43-4.31-4.74.44-.97,4.82-1.73,5.98,3.35.08.33.14.68.18,1.06Z"/>
          <path class="cls-25" d="M403.76,128.84c-.28.05-.57,0-.85-.13-.35-.16-.69-.47-.98-.87-.36-.51-.65-1.18-.78-1.94-.13-.76-.1-1.49.07-2.09.13-.47.34-.87.62-1.14.22-.22.47-.36.75-.41,1.12-.2,2.28,1.12,2.6,2.93.32,1.82-.33,3.45-1.45,3.65Z"/>
          <path class="cls-21" d="M404.51,127.33c-.13.02-.26.01-.38-.03-.04-.01-.07-.03-.11-.04-.12-.05-.23-.14-.34-.24-.08-.08-.16-.17-.24-.27-.21-.3-.38-.69-.46-1.14-.08-.45-.06-.87.04-1.23.03-.12.08-.24.13-.34.06-.13.14-.24.24-.33.02-.02.05-.05.08-.06.11-.09.23-.15.37-.18.65-.12,1.34.66,1.53,1.72.19,1.07-.19,2.02-.85,2.14Z"/>
          <path class="cls-33" d="M404.35,127.36c-.16.31-.39.51-.67.57-.13.02-.26.01-.38-.03-.04-.01-.07-.03-.11-.04-.12-.05-.23-.14-.34-.24-.08-.08-.16-.17-.24-.27-.21-.3-.38-.69-.46-1.14-.07-.42-.06-.83.03-1.17-.01.23,0,.47.04.72.08.45.24.84.46,1.14.17.23.37.41.57.51.16.08.33.11.49.08l.6-.11Z"/>
          <path class="cls-21" d="M403.76,128.84l-1.6.28c-1.12.2-2.29-1.12-2.6-2.93-.32-1.82.33-3.45,1.45-3.65l1.6-.28c-.28.05-.54.19-.75.41-.28.28-.49.67-.62,1.14-.17.6-.21,1.33-.07,2.09.13.76.42,1.43.78,1.94.29.4.62.7.98.87.28.13.56.18.85.13Z"/>
          <path class="cls-33" d="M401.95,122.37l-1.8.68s-.02-.13-.06-.35c.43-.79,1.04-1.32,1.67-1.4.08.33.14.68.18,1.06Z"/>
          <path class="cls-26" d="M404.51,127.33l-.15.03-.6.11c-.17.03-.33,0-.49-.08-.21-.09-.41-.27-.57-.51-.21-.3-.38-.7-.46-1.14-.04-.25-.06-.49-.04-.72h0c.01-.18.04-.35.09-.51.08-.28.2-.51.37-.67.13-.13.28-.21.44-.24l.75-.14c-.14.02-.26.08-.37.18-.03.02-.05.04-.08.06-.09.09-.17.2-.24.33,0,0,0,0,0,.01-.05.1-.09.21-.12.33-.1.35-.12.78-.04,1.23.08.45.24.84.46,1.14.07.1.15.19.24.27.11.1.22.18.34.24.04.02.07.03.11.04.08.02.16.04.24.04.05,0,.09,0,.14-.01Z"/>
          <path class="cls-27" d="M411.79,153.99c-.52.9-.97,1.47-1.17,1.45-.09,0-.3-.08-.59-.21-1.64-.73-5.9-3.22-6.68-5.48.23-.39.45-.78.67-1.15,1.2,1.13,4.94,4.5,7.77,5.39Z"/>
          <path class="cls-33" d="M410.02,155.23c-.74.95-2.15,2.68-3.62,4.21-2.56-2.47-3.6-5.87-4.02-8.04l.95-1.64c.78,2.25,5.04,4.75,6.68,5.48Z"/>
          <path class="cls-4" d="M380.93,176.75c-2.06,2.01-3.03,7.33-3.52,7.28-.31-.03-1.26-.3-1.9-.49.53-3.29,1.21-5.93,2.06-7.38.9-1.53,2.89-2.66,5.34-3.51.62.89,1.2,1.81,1.25,2.03.1.43-1.11,0-3.23,2.07Z"/>
          <path class="cls-42" d="M406.21,174.39s-.68,2.69,2.57,3.95"/>
          <g class="cls-51">
            <g>
              <path class="cls-36" d="M405.37,176.28s-.34.03-.94.08"/>
              <path class="cls-37" d="M402.5,176.57c-5.07.6-15.22,2.25-16.8,5.92-1.78,4.14-4.72,24.43-5.6,30.78"/>
              <path class="cls-36" d="M379.96,214.23c-.08.6-.13.93-.13.93"/>
            </g>
          </g>
          <path class="cls-28" d="M381.65,222.97h-15.81c0-.5.15-.96.42-1.38.91-1.44,3.11-2.41,4.8-3.06.84-.33,1.55-.57,1.91-.76,1.3-.68,1.13-2.41,1.13-2.41.45.41.94.71,1.44.92.14.06.27.11.41.16h0c1.99.71,4.06.23,4.83-.06.08-.03.18-.23.31-.58l.21,2.7.24,3.09.11,1.38Z"/>
          <path class="cls-28" d="M359.64,215.49s-.45,1.18-1.05,2.6c-.48,1.13-1.06,2.41-1.59,3.38-.49.89-.93,1.51-1.23,1.51-1.01,0-11.71-6.12-12.77-9.06.39-.34.8-.57,1.24-.71,1.48-.49,3.23-.01,5.17.14.44.03.89.05,1.36.03,3.09-.11,2.84-1.61,2.84-1.61.04.21.68.7,1.53,1.24.34.22.7.45,1.08.67,1.54.92,3.23,1.81,3.43,1.81Z"/>
          <path class="cls-33" d="M375.54,216.28c-.47,2.52-2.17,3.59-3.02,3.48-.73-.1-1.26-.89-1.46-1.23.84-.33,1.55-.57,1.91-.76,1.3-.68,1.13-2.41,1.13-2.41.45.41.94.71,1.44.92Z"/>
          <path class="cls-33" d="M355.12,213c-1.3,2.06-4.13,2.37-4.85,2.16-.58-.17-.8-1.22-.87-1.83.44.03.89.05,1.36.03,3.09-.11,2.84-1.61,2.84-1.61.04.21.68.7,1.53,1.24Z"/>
          <path class="cls-33" d="M356.99,221.46c-.49.89-.93,1.51-1.23,1.51-1.01,0-11.71-6.12-12.77-9.06.39-.34.8-.57,1.24-.71,1.81,1.7,8.05,7.29,12.76,8.27Z"/>
          <path class="cls-33" d="M359.64,215.49s-.45,1.18-1.05,2.6l-2.38-4.41c1.54.92,3.23,1.81,3.43,1.81Z"/>
          <path class="cls-33" d="M381.3,218.5c-2.36-.02-5.24-1.97-5.35-2.06,1.99.71,4.06.23,4.83-.06.08-.03.18-.23.31-.58l.21,2.7Z"/>
        </g>
        <g>
          <path class="cls-32" d="M347.55,153.66s.48-1.83,2.46-2.46c1.98-.63,4.99.77,5.86,1.06.87.29.22,1.4.22,1.4h-8.53Z"/>
          <polygon class="cls-11" points="351.73 153.66 352.87 151.67 373.01 151.67 372.24 153.66 351.73 153.66"/>
          <polygon class="cls-10" points="373.01 151.67 385.29 152.41 385.7 153.66 372.24 153.66 373.01 151.67"/>
        </g>
        <g>
          <path class="cls-23" d="M407.87,222.97h-10.41c-.76,0-1.37-.65-1.3-1.43.06-.68.67-1.17,1.35-1.17h.02c2.09,0,3.78-1.69,3.78-3.78v-26.16h2.7v26.16c0,2.09,1.69,3.78,3.78,3.78h.02c.68,0,1.29.5,1.35,1.17.07.78-.54,1.43-1.3,1.43Z"/>
          <path class="cls-33" d="M407.87,222.97h-8.39c-.76,0-1.37-.65-1.3-1.43.06-.68.67-1.17,1.35-1.17h.02c2.09,0,3.78-1.69,3.78-3.78v-26.16h.67v26.16c0,2.09,1.69,3.78,3.78,3.78h.02c.68,0,1.29.5,1.35,1.17.07.78-.54,1.43-1.3,1.43Z"/>
          <path class="cls-16" d="M438.55,136.03v.02s-18.17,54.37-18.17,54.37h-32.22c-.98,0-1.73-.88-1.57-1.85l.53-3.21c.13-.77.79-1.33,1.57-1.33h22.99c1.05,0,1.99-.66,2.34-1.65l17.39-48.6c.38-1.06,1.51-1.65,2.6-1.35l3.07.84c1.2.33,1.87,1.59,1.48,2.76Z"/>
          <path class="cls-33" d="M438.54,136.05l-18.16,54.37h-30.48l.3-1.84c.13-.77.79-1.33,1.57-1.33h22.99c1.05,0,1.99-.66,2.34-1.65l17.39-48.6c.38-1.06,1.51-1.65,2.6-1.35l1.46.4Z"/>
          <path class="cls-25" d="M404.02,187.79c-.08,0-.16-.01-.24-.04-.26-.1-.44-.35-.44-.63v-18.16c0-.37.3-.68.68-.68h16.1c.27,0,.51.16.62.4.11.24.07.53-.11.73l-16.1,18.16c-.13.15-.32.23-.51.23ZM404.69,169.63v15.7l13.92-15.7h-13.92Z"/>
          <path class="cls-23" d="M406.15,187.12c0,1.18-.95,2.13-2.13,2.13s-2.13-.95-2.13-2.13.95-2.13,2.13-2.13,2.13.95,2.13,2.13Z"/>
          <path class="cls-23" d="M423.84,170.31h-27.64c-.75,0-1.35-.6-1.35-1.35h0c0-.75.6-1.35,1.35-1.35h27.64c.75,0,1.35.6,1.35,1.35h0c0,.75-.6,1.35-1.35,1.35Z"/>
        </g>
        <g>
          <g>
            <path class="cls-30" d="M332.63,160.89h-23.02c-.35,0-.68-.05-1-.14-1.51-.43-2.61-1.82-2.61-3.47,0-1,.41-1.9,1.06-2.56.65-.65,1.56-1.06,2.56-1.06h23.02c-1,0-1.9.41-2.56,1.06-.31.31-.57.69-.75,1.1-.2.44-.31.94-.31,1.46,0,2,1.62,3.61,3.62,3.61Z"/>
            <path class="cls-22" d="M393.99,157.28c0,1-.4,1.9-1.06,2.56-.65.65-1.56,1.06-2.56,1.06h-57.75c-2,0-3.62-1.62-3.62-3.61,0-.52.11-1.01.31-1.46.18-.41.44-.79.75-1.1.65-.65,1.56-1.06,2.56-1.06h57.75c2,0,3.61,1.62,3.61,3.62Z"/>
            <path class="cls-33" d="M384.93,159.44c0,.52-.13,1.01-.36,1.45h-74.96c-.35,0-.68-.05-1-.14-.19-.41-.29-.85-.29-1.31,0-1,.48-1.9,1.25-2.56.77-.65,1.84-1.06,3.01-1.06h68.09c2.35,0,4.26,1.62,4.26,3.62Z"/>
          </g>
          <g>
            <g>
              <polygon class="cls-26" points="317.1 160.89 300.92 222.97 298.38 222.97 314.56 160.89 317.1 160.89"/>
              <polygon class="cls-33" points="317.1 160.89 300.92 222.97 299.53 222.97 315.71 160.89 317.1 160.89"/>
            </g>
            <g>
              <polygon class="cls-25" points="340.41 160.89 324.23 222.97 321.69 222.97 337.86 160.89 340.41 160.89"/>
              <polygon class="cls-33" points="340.41 160.89 324.23 222.97 323.04 222.97 339.21 160.89 340.41 160.89"/>
            </g>
            <g>
              <polygon class="cls-25" points="401.32 222.97 398.77 222.97 382.6 160.89 385.14 160.89 401.32 222.97"/>
              <polygon class="cls-33" points="401.32 222.97 400.12 222.97 383.95 160.89 385.14 160.89 401.32 222.97"/>
            </g>
          </g>
        </g>
        <g>
          <path class="cls-18" d="M412.6,105.73h-36.25c-1.25,0-2.27-1.01-2.27-2.27h0c0-1.25,1.01-2.27,2.27-2.27h36.25c1.25,0,2.27,1.01,2.27,2.27h0c0,1.25-1.01,2.27-2.27,2.27Z"/>
          <path class="cls-7" d="M382.39,114.31h0c-.65,0-1.17-.52-1.17-1.17v-7.41h2.34v7.41c0,.65-.52,1.17-1.17,1.17Z"/>
          <path class="cls-7" d="M406.63,114.31h0c-.65,0-1.17-.52-1.17-1.17v-7.41h2.34v7.41c0,.65-.52,1.17-1.17,1.17Z"/>
          <rect class="cls-7" x="384.17" y="88.67" width="2.42" height="12.53" rx=".67" ry=".67"/>
          <rect class="cls-7" x="400.89" y="88.67" width="2.42" height="12.53" rx=".67" ry=".67"/>
          <rect class="cls-15" x="386.6" y="88.67" width="4.39" height="12.53" rx=".91" ry=".91"/>
          <rect class="cls-6" x="394.45" y="88.67" width="4.39" height="12.53" rx=".91" ry=".91" transform="translate(60.16 -135.53) rotate(20.95)"/>
        </g>
        <g>
          <path class="cls-16" d="M336.26,207.32l-8.93,3.63-11.01-27.09c-1-2.47.18-5.28,2.65-6.28h0c2.47-1,5.28.18,6.28,2.65l11.01,27.09Z"/>
          <line class="cls-39" x1="318.98" y1="177.58" x2="330.62" y2="205.24"/>
          <path class="cls-6" d="M332.08,210.72l-7.34-2.85c-.46-.18-.68-.69-.51-1.14l5.76-14.86c.96-2.48,3.75-3.71,6.24-2.75h0c2.48.96,3.71,3.75,2.75,6.24l-5.76,14.86c-.18.46-.69.68-1.14.51Z"/>
          <line class="cls-39" x1="336.23" y1="189.11" x2="329.33" y2="206.17"/>
          <path class="cls-6" d="M340.07,207.5l-.82,4.59-1.52,8.47c-.22,1.39-1.41,2.41-2.82,2.41h-11.17c-1.4,0-2.6-1.02-2.82-2.41l-2.34-13.06c-.27-1.73,1.07-3.29,2.82-3.29h15.85c1.75,0,3.09,1.56,2.82,3.29Z"/>
          <path class="cls-33" d="M339.25,212.09l-1.52,8.47c-.22,1.39-1.41,2.41-2.82,2.41h-8.06l-1.36-7.59c-.27-1.73,1.07-3.29,2.82-3.29h10.94Z"/>
          <rect class="cls-16" x="317.19" y="202.15" width="24.28" height="6.17" rx="2.37" ry="2.37"/>
        </g>
        <g>
          <path class="cls-16" d="M452.79,200.38h-9.65l-.04-1.05-.72-18.83-.15-3.95c-.1-2.66,1.97-4.9,4.63-5,.06,0,.13,0,.19,0,2.58,0,4.71,2.04,4.81,4.63l.17,4.32.1,2.65.22,5.6.26,6.81.19,4.83Z"/>
          <line class="cls-39" x1="446.85" y1="171.54" x2="448.38" y2="200.38"/>
          <path class="cls-6" d="M460.8,191.9c0,1.12-.39,2.25-1.19,3.16l-4.64,5.31h-12.8l.91-1.05,4.89-5.6,4.35-4.99h.01c1.75-2.02,4.8-2.23,6.8-.48,1.09.95,1.65,2.29,1.65,3.64Z"/>
          <line class="cls-39" x1="459.15" y1="188.26" x2="448.38" y2="200.38"/>
        </g>
        <g>
          <rect class="cls-16" x="315.7" y="123.78" width="26.04" height="29.88" rx="1.66" ry="1.66"/>
          <path class="cls-23" d="M317.07,128.42h26.56c.32,0,.58.26.58.58v19.46c0,.32-.26.58-.58.58h-26.56c-.32,0-.58-.26-.58-.58v-19.46c0-.32.26-.58.58-.58Z" transform="translate(469.07 -191.63) rotate(90)"/>
          <polygon class="cls-27" points="320.61 153.66 317.52 153.66 325.61 123.78 328.7 123.78 320.61 153.66"/>
          <polygon class="cls-27" points="328.83 153.66 322.57 153.66 330.66 123.78 336.92 123.78 328.83 153.66"/>
          <rect class="cls-6" x="309.16" y="123.78" width="9.64" height="29.88" rx="1.01" ry="1.01"/>
          <path class="cls-33" d="M316.89,147.08h-1.67c-.28,0-.51-.23-.51-.51h0c0-.28.23-.51.51-.51h1.67c.28,0,.51.23.51.51h0c0,.28-.23.51-.51.51Z"/>
          <path class="cls-33" d="M312.38,147.08h-1.67c-.28,0-.51-.23-.51-.51h0c0-.28.23-.51.51-.51h1.67c.28,0,.51.23.51.51h0c0,.28-.23.51-.51.51Z"/>
          <g>
            <path class="cls-34" d="M331.29,153.66c-2.22.71-2.48,4.36-2.73,7.89-.26,3.66-.51,7.12-2.72,8.07-.16.07-.35.12-.57.12-.34,0-.73-.13-1.14-.54-2.43-2.4-3.5-12.93-.19-20.88,1.21-2.9,3.28-6.15,6.82-8.08-.11.27-.21.55-.32.82-3.06,1.89-4.9,4.83-6,7.47-3.18,7.63-2.2,18.04.07,20.28.37.37.73.47,1.11.3,1.91-.82,2.15-4.28,2.39-7.61.23-3.2.46-6.48,2.14-7.85h1.14Z"/>
            <path class="cls-34" d="M338.4,138.81c0,.15-.13.27-.27.27h-.18c-.41,0-.81.01-1.2.04.1-.19.19-.38.3-.56.29-.02.59-.02.9-.02h.19c.15,0,.27.12.27.27Z"/>
            <path class="cls-34" d="M369.85,152.66c0,.15-.12.27-.27.27-.21,0-13.52.09-24.43.27-5.98.09-11.24.21-13.23.34-.22.02-.44.05-.63.12h-1.14c.46-.38,1.03-.61,1.73-.66,1.92-.13,6.88-.24,12.6-.33,11.03-.18,24.88-.28,25.09-.28.14-.01.27.12.27.27Z"/>
          </g>
          <path class="cls-5" d="M331.21,139.16c-.09.22-.18.44-.27.66-3.24,1.12-7.71,3.8-8.54,10.15-.64,4.9-.21,8.92.13,12.16.39,3.69.66,6.14-1.05,7.25-.87.57-2.35,1.35-3.89,1.35-.56,0-1.14-.11-1.69-.36-1.86-.86-3.04-3.2-3.51-6.96-.87-6.88-.09-13.24,1.93-15.83.58-.74,1.24-1.15,1.97-1.24.15-.02.28.09.3.24.02.15-.09.28-.24.3-.58.07-1.12.42-1.6,1.04-1.94,2.49-2.67,8.69-1.82,15.43.45,3.56,1.53,5.77,3.2,6.54,1.83.85,3.95-.23,5.06-.95,1.43-.93,1.18-3.24.81-6.74-.35-3.26-.78-7.33-.13-12.29.91-6.93,5.95-9.67,9.35-10.74Z"/>
          <path class="cls-23" d="M313.98,130.97h0c-1.4,0-2.54-1.14-2.54-2.54h0c0-1.4,1.14-2.54,2.54-2.54h0c1.4,0,2.54,1.14,2.54,2.54h0c0,1.4-1.14,2.54-2.54,2.54Z"/>
          <path class="cls-23" d="M314.81,132.42h-1.67c-.28,0-.51-.23-.51-.51h0c0-.28.23-.51.51-.51h1.67c.28,0,.51.23.51.51h0c0,.28-.23.51-.51.51Z"/>
          <path class="cls-23" d="M314.81,133.87h-1.67c-.28,0-.51-.23-.51-.51h0c0-.28.23-.51.51-.51h1.67c.28,0,.51.23.51.51h0c0,.28-.23.51-.51.51Z"/>
          <path class="cls-33" d="M317.2,135.58h-6.44c-.28,0-.51-.23-.51-.51h0c0-.28.23-.51.51-.51h6.44c.28,0,.51.23.51.51h0c0,.28-.23.51-.51.51Z"/>
          <path class="cls-33" d="M317.2,138.02h-6.44c-.28,0-.51-.23-.51-.51h0c0-.28.23-.51.51-.51h6.44c.28,0,.51.23.51.51h0c0,.28-.23.51-.51.51Z"/>
          <path class="cls-33" d="M317.2,140.45h-6.44c-.28,0-.51-.23-.51-.51h0c0-.28.23-.51.51-.51h6.44c.28,0,.51.23.51.51h0c0,.28-.23.51-.51.51Z"/>
          <path class="cls-33" d="M317.2,142.88h-6.44c-.28,0-.51-.23-.51-.51h0c0-.28.23-.51.51-.51h6.44c.28,0,.51.23.51.51h0c0,.28-.23.51-.51.51Z"/>
          <path class="cls-23" d="M311.48,144.53c0,.28-.23.51-.51.51s-.51-.23-.51-.51.23-.51.51-.51.51.23.51.51Z"/>
          <path class="cls-23" d="M313.34,144.53c0,.28-.23.51-.51.51s-.51-.23-.51-.51.23-.51.51-.51.51.23.51.51Z"/>
          <path class="cls-23" d="M315.19,144.53c0,.28-.23.51-.51.51s-.51-.23-.51-.51.23-.51.51-.51.51.23.51.51Z"/>
          <path class="cls-23" d="M317.05,144.53c0,.28-.23.51-.51.51s-.51-.23-.51-.51.23-.51.51-.51.51.23.51.51Z"/>
        </g>
        <g>
          <rect class="cls-19" x="334.61" y="111.34" width="28.25" height="30.56" rx="1.01" ry="1.01"/>
          <rect class="cls-13" x="333.26" y="111.34" width="28.24" height="30.56" rx="1.01" ry="1.01"/>
          <path class="cls-33" d="M356.67,117.6v24.3h-22.4c-.56,0-1.01-.45-1.01-1.01v-24.29h22.4c.56,0,1.01.45,1.01,1.01Z"/>
          <path class="cls-33" d="M343.72,129.92c0,2.68-.83,4.96-1.98,5.79-.3.22-.62.34-.96.34-.32,0-.63-.11-.92-.31-1.18-.8-2.02-3.11-2.02-5.83,0-3.39,1.31-6.13,2.94-6.13s2.94,2.75,2.94,6.13Z"/>
          <path class="cls-25" d="M342.81,130.23c0,1.58-.49,2.92-1.16,3.41-.18.13-.37.2-.57.2-.19,0-.37-.06-.54-.18-.69-.47-1.19-1.83-1.19-3.43,0-1.99.77-3.61,1.73-3.61s1.73,1.61,1.73,3.61Z"/>
          <path class="cls-26" d="M342.31,130.23c0,1.58-.49,2.92-1.16,3.41-.18.13-.37.2-.57.2-.19,0-.37-.06-.54-.18-.69-.47-1.19-1.83-1.19-3.43,0-1.99.77-3.61,1.73-3.61s1.73,1.61,1.73,3.61Z"/>
          <path class="cls-25" d="M345.37,153.66h-18.45s.33-1.83,1.01-4.51c.15-.58.31-1.2.49-1.84.53-1.91,1.2-4.07,2.02-6.24.1-.27.21-.55.32-.82h0c.06-.15.11-.29.17-.44.09-.22.18-.44.27-.66,1.55-3.67,3.53-7.13,5.96-9.11.35-.29.71-.54,1.07-.76.63-.38,1.3-.66,1.99-.82,1.63-.38,1.22,3.35.74,4.09-.24.37-2.21,2.85-3.94,6.01-.1.18-.2.37-.3.56-1.62,3.1-2.91,6.76-2.13,9.72.02.09.13.19.29.3,1.4.9,7.32,2.15,9.59,3.53.29.18.52.35.67.53.13.15.21.31.22.46Z"/>
          <path class="cls-33" d="M340.97,132.55c-.48.74-8.01,10.07-6.36,16.29.02.09.13.19.29.3-1.11-.39-2.15-1.1-2-2.36.13-8.29,6.81-14.59,6.3-16.17-.23-.7-.61-1.1-.96-1.33.63-.38,1.3-.66,1.99-.82,1.63-.38,1.22,3.35.74,4.09Z"/>
          <path class="cls-33" d="M339.65,153.66h-12.73s.33-1.83,1.01-4.51c.78,2.28,2.86,3.27,5.93,3.51,3.66.29,5.79,1,5.79,1Z"/>
          <path class="cls-27" d="M335.35,134.58c-3.86,3.97-4.69,11.81-5.53,12.57-.57.51-1.11.33-1.39.16,1.59-5.73,4.46-13.77,8.74-17.27.39,1.03.06,2.59-1.83,4.54Z"/>
          <rect class="cls-25" x="337.52" y="138.09" width="1.35" height="1.35" rx=".56" ry=".56"/>
          <rect class="cls-25" x="344.39" y="138.09" width="1.35" height="1.35" rx=".53" ry=".53"/>
          <rect class="cls-25" x="346.46" y="138.09" width="1.35" height="1.35" rx=".53" ry=".53"/>
          <rect class="cls-25" x="348.54" y="138.09" width="1.35" height="1.35" rx=".53" ry=".53"/>
          <rect class="cls-25" x="338.13" y="119.2" width="6.17" height="2.02"/>
        </g>
      </g>
      <text class="cls-1" transform="translate(382.59 26.87)"><tspan x="0" y="0">NU</tspan><tspan class="cls-50" x="14.88" y="0">R</tspan><tspan class="cls-49" x="21.41" y="0">TURE IN</tspan><tspan class="cls-56" x="60.54" y="0">F</tspan><tspan class="cls-55" x="65.96" y="0">O</tspan><tspan class="cls-49" x="74.38" y="0">TECH</tspan></text>
      <text class="cls-2" transform="translate(363.43 39.18)"><tspan x="0" y="0">(An ISO 9001:2015 Certified Company)</tspan></text>
    </g>
  </g>
</svg>