<?xml version="1.0" encoding="UTF-8"?>
<svg xmlns="http://www.w3.org/2000/svg" xmlns:xlink="http://www.w3.org/1999/xlink" viewBox="0 0 500 250">
  <defs>
    <style>
      .cls-1 {
        fill: #2a2d7c;
        font-family: LEMONMILK-Medium, 'LEMON MILK';
        font-size: 9.92px;
      }

      .cls-1, .cls-2 {
        font-weight: 500;
      }

      .cls-3 {
        fill: #f42530;
      }

      .cls-3, .cls-4, .cls-5, .cls-6, .cls-7, .cls-8, .cls-9, .cls-10, .cls-11, .cls-12, .cls-13, .cls-14, .cls-15, .cls-16, .cls-17 {
        stroke-width: 0px;
      }

      .cls-18 {
        font-size: 10.18px;
      }

      .cls-18, .cls-19, .cls-6, .cls-20, .cls-21, .cls-22, .cls-23, .cls-11, .cls-24, .cls-25, .cls-26 {
        fill: #fff;
      }

      .cls-18, .cls-19, .cls-21, .cls-22, .cls-23, .cls-24 {
        font-weight: 700;
      }

      .cls-18, .cls-21, .cls-22, .cls-23, .cls-24 {
        font-family: Montserrat-Bold, Montserrat;
      }

      .cls-27 {
        letter-spacing: -.06em;
      }

      .cls-4 {
        fill: #5d4d9f;
      }

      .cls-28 {
        isolation: isolate;
      }

      .cls-29 {
        stroke: #ad9ccb;
        stroke-width: .2px;
      }

      .cls-29, .cls-9, .cls-30, .cls-31, .cls-32 {
        fill: none;
      }

      .cls-29, .cls-30, .cls-31, .cls-32 {
        stroke-miterlimit: 10;
      }

      .cls-5 {
        fill: #ad9ccb;
      }

      .cls-19 {
        font-family: CenturyGothic-Bold, 'Century Gothic';
        font-size: 20.31px;
      }

      .cls-6 {
        opacity: .5;
      }

      .cls-20 {
        font-family: JosefinSans-Regular, 'Josefin Sans';
        font-size: 8.74px;
      }

      .cls-7 {
        fill: url(#Degradado_sin_nombre_15-3);
        filter: url(#drop-shadow-3);
      }

      .cls-8 {
        fill: #ec1c24;
      }

      .cls-21 {
        font-size: 7.33px;
      }

      .cls-33 {
        letter-spacing: 0em;
      }

      .cls-10 {
        fill: #fdc253;
      }

      .cls-34 {
        letter-spacing: -.03em;
      }

      .cls-22 {
        font-size: 7.86px;
      }

      .cls-23 {
        font-size: 9.92px;
      }

      .cls-35 {
        opacity: .45;
      }

      .cls-36 {
        letter-spacing: -.02em;
      }

      .cls-37 {
        letter-spacing: 0em;
      }

      .cls-38 {
        letter-spacing: -.02em;
      }

      .cls-39 {
        letter-spacing: -.02em;
      }

      .cls-12 {
        fill: #22255f;
      }

      .cls-40 {
        letter-spacing: 0em;
      }

      .cls-41 {
        letter-spacing: -.04em;
      }

      .cls-42 {
        letter-spacing: -.06em;
      }

      .cls-43 {
        clip-path: url(#clippath);
      }

      .cls-2 {
        font-family: FuturaBT-Medium, 'Futura Md BT';
        font-size: 7.09px;
      }

      .cls-30 {
        stroke: #22255f;
        stroke-width: .41px;
      }

      .cls-31 {
        stroke: #fff;
        stroke-width: 1.62px;
      }

      .cls-24 {
        font-size: 7.44px;
      }

      .cls-44 {
        letter-spacing: .02em;
      }

      .cls-45 {
        letter-spacing: 0em;
      }

      .cls-46 {
        mix-blend-mode: screen;
        opacity: .13;
      }

      .cls-25 {
        font-size: 27.41px;
      }

      .cls-25, .cls-26 {
        font-family: Arial-Black, Arial;
        font-weight: 800;
      }

      .cls-13 {
        fill: url(#Degradado_sin_nombre_17);
        filter: url(#drop-shadow-4);
      }

      .cls-47 {
        letter-spacing: -.01em;
      }

      .cls-32 {
        stroke: #000;
        stroke-width: .43px;
      }

      .cls-14 {
        fill: #dfd5e9;
      }

      .cls-15 {
        fill: url(#Degradado_sin_nombre_15);
        filter: url(#drop-shadow-1);
      }

      .cls-48 {
        letter-spacing: -.04em;
      }

      .cls-49 {
        mix-blend-mode: multiply;
      }

      .cls-26 {
        font-size: 10.51px;
      }

      .cls-16 {
        fill: #ec268f;
      }

      .cls-50 {
        letter-spacing: -.02em;
      }

      .cls-17 {
        fill: url(#Degradado_sin_nombre_15-2);
        filter: url(#drop-shadow-2);
      }
    </style>
    <clipPath id="clippath">
      <rect class="cls-9" x=".15" y=".02" width="499.7" height="249.48"/>
    </clipPath>
    <radialGradient id="Degradado_sin_nombre_15" data-name="Degradado sin nombre 15" cx="223.68" cy="246.14" fx="223.68" fy="246.14" r="119.24" gradientTransform="translate(-181.85 -3.05) scale(.84 .88)" gradientUnits="userSpaceOnUse">
      <stop offset="0" stop-color="#fff"/>
      <stop offset="1" stop-color="#f5f5f6"/>
    </radialGradient>
    <filter id="drop-shadow-1" filterUnits="userSpaceOnUse">
      <feOffset dx="1.3" dy="1.3"/>
      <feGaussianBlur result="blur" stdDeviation="1.3"/>
      <feFlood flood-color="#000" flood-opacity=".2"/>
      <feComposite in2="blur" operator="in"/>
      <feComposite in="SourceGraphic"/>
    </filter>
    <radialGradient id="Degradado_sin_nombre_15-2" data-name="Degradado sin nombre 15" cx="233.94" cy="246.82" fx="233.94" fy="246.82" r="103.27" xlink:href="#Degradado_sin_nombre_15"/>
    <filter id="drop-shadow-2" filterUnits="userSpaceOnUse">
      <feOffset dx="1.3" dy="1.3"/>
      <feGaussianBlur result="blur-2" stdDeviation="1.3"/>
      <feFlood flood-color="#000" flood-opacity=".2"/>
      <feComposite in2="blur-2" operator="in"/>
      <feComposite in="SourceGraphic"/>
    </filter>
    <radialGradient id="Degradado_sin_nombre_15-3" data-name="Degradado sin nombre 15" cx="345.55" cy="215.5" fx="345.55" fy="215.5" r="28.8" xlink:href="#Degradado_sin_nombre_15"/>
    <filter id="drop-shadow-3" filterUnits="userSpaceOnUse">
      <feOffset dx="1.3" dy="1.3"/>
      <feGaussianBlur result="blur-3" stdDeviation="1.3"/>
      <feFlood flood-color="#000" flood-opacity=".2"/>
      <feComposite in2="blur-3" operator="in"/>
      <feComposite in="SourceGraphic"/>
    </filter>
    <linearGradient id="Degradado_sin_nombre_17" data-name="Degradado sin nombre 17" x1="87.54" y1="185.7" x2="127.22" y2="185.7" gradientUnits="userSpaceOnUse">
      <stop offset="0" stop-color="#f5f5f6"/>
      <stop offset="1" stop-color="#fff"/>
    </linearGradient>
    <filter id="drop-shadow-4" filterUnits="userSpaceOnUse">
      <feOffset dx="1.3" dy="1.3"/>
      <feGaussianBlur result="blur-4" stdDeviation="1.3"/>
      <feFlood flood-color="#000" flood-opacity=".2"/>
      <feComposite in2="blur-4" operator="in"/>
      <feComposite in="SourceGraphic"/>
    </filter>
  </defs>
  <g class="cls-28">
    <g id="Layer_1" data-name="Layer 1">
      <rect class="cls-11" x=".15" y=".02" width="499.7" height="249.45"/>
      <g class="cls-43">
        <rect class="cls-9" x=".15" y=".02" width="500" height="250"/>
      </g>
      <g>
        <rect id="BACKGROUND" class="cls-11" x="272.62" y="35.85" width="202.78" height="202.78"/>
        <g class="cls-35">
          <circle class="cls-14" cx="423.51" cy="187.55" r="33.61"/>
          <circle class="cls-14" cx="349.36" cy="120.74" r="57.24"/>
        </g>
        <path class="cls-30" d="M453.83,115l-1.71,1.56c-.06.05-.11.11-.15.17-1.09-.76-2.28-1.3-3.52-1.63.02-.07.03-.15.03-.23l.09-2.31c.03-.72-.53-1.33-1.26-1.36l-2.31-.09c-.72-.03-1.33.53-1.36,1.26l-.09,2.31c0,.08,0,.15.01.23-1.23.22-2.43.65-3.55,1.29-.04-.06-.08-.12-.14-.18l-1.56-1.71c-.49-.53-1.32-.57-1.85-.08l-1.71,1.56c-.53.49-.57,1.32-.08,1.85l1.56,1.71c.05.06.11.11.17.15-.76,1.09-1.3,2.28-1.63,3.52-.07-.02-.15-.03-.23-.03l-2.31-.09c-.35-.01-.68.11-.93.34,0,0,0,0,0,0-.26.24-.41.56-.42.91l-.09,2.31h0c-.03.72.53,1.33,1.26,1.36l2.31.09c.08,0,.15,0,.23-.01.22,1.23.65,2.43,1.29,3.55-.06.04-.12.08-.18.14l-1.71,1.56c-.53.49-.57,1.32-.08,1.85l1.56,1.71c.49.53,1.32.57,1.85.08l1.71-1.56c.06-.05.11-.11.15-.17,1.09.76,2.28,1.3,3.52,1.63-.02.07-.03.15-.03.23l-.09,2.31c-.01.35.11.68.35.94.24.26.56.41.91.42l2.31.09h0c.36.01.69-.12.93-.34.25-.23.41-.55.42-.91l.09-2.31c0-.08,0-.15-.01-.23,1.23-.22,2.43-.65,3.55-1.29.04.06.09.12.14.18l1.56,1.71c.49.53,1.32.57,1.85.08l1.71-1.56c.53-.49.57-1.32.08-1.85l-1.56-1.71c-.05-.06-.11-.11-.17-.15.76-1.09,1.3-2.28,1.63-3.52.07.02.15.03.23.03l2.31.09c.36.01.69-.12.93-.34.25-.23.41-.55.42-.91l.09-2.32c.03-.72-.53-1.33-1.26-1.36l-2.31-.09c-.08,0-.15,0-.23.01-.22-1.23-.65-2.43-1.29-3.55.06-.04.12-.08.18-.14l1.71-1.56c.53-.49.57-1.32.08-1.85l-1.56-1.71c-.49-.53-1.32-.57-1.85-.08ZM449.72,130.43c-2.5,2.29-6.39,2.12-8.68-.38-2.29-2.5-2.12-6.39.38-8.68,2.5-2.29,6.39-2.12,8.67.38,2.29,2.5,2.12,6.39-.38,8.67Z"/>
        <g>
          <path class="cls-5" d="M318.76,204.77h-.9c-.17,0-.3-.13-.3-.3s.13-.3.3-.3h.9c.17,0,.3.13.3.3s-.13.3-.3.3ZM315.86,204.77h-2.01c-.17,0-.3-.13-.3-.3s.13-.3.3-.3h2.01c.17,0,.3.13.3.3s-.13.3-.3.3ZM311.84,204.77h-2.01c-.17,0-.3-.13-.3-.3s.13-.3.3-.3h2.01c.17,0,.3.13.3.3s-.13.3-.3.3ZM307.83,204.77h-2.01c-.17,0-.3-.13-.3-.3s.13-.3.3-.3h2.01c.17,0,.3.13.3.3s-.13.3-.3.3ZM303.82,204.77h-2.01c-.17,0-.3-.13-.3-.3s.13-.3.3-.3h2.01c.17,0,.3.13.3.3s-.13.3-.3.3ZM299.81,204.77h-2.01c-.17,0-.3-.13-.3-.3s.13-.3.3-.3h2.01c.17,0,.3.13.3.3s-.13.3-.3.3ZM295.79,204.77s0,0,0,0c-.7-.02-1.39-.13-2.05-.34-.16-.05-.25-.22-.2-.38.05-.16.22-.25.38-.2.61.19,1.25.3,1.89.31.17,0,.3.14.29.31,0,.16-.14.29-.3.29ZM292.01,203.59c-.06,0-.11-.02-.16-.05-.58-.38-1.11-.84-1.58-1.36-.11-.12-.1-.31.03-.42.12-.11.31-.1.42.03.43.48.91.9,1.45,1.25.14.09.18.28.09.42-.06.09-.15.14-.25.14ZM289.39,200.62c-.11,0-.22-.06-.27-.17-.3-.63-.52-1.3-.64-1.98-.03-.16.08-.32.24-.35.16-.03.32.08.35.24.11.63.31,1.24.59,1.82.07.15,0,.33-.14.4-.04.02-.09.03-.13.03ZM288.66,196.72c-.17,0-.3-.13-.3-.3v-2.01c0-.17.13-.3.3-.3s.3.13.3.3v2.01c0,.17-.13.3-.3.3ZM288.66,192.7c-.17,0-.3-.13-.3-.3v-2.01c0-.17.13-.3.3-.3s.3.13.3.3v2.01c0,.17-.13.3-.3.3ZM288.66,188.69c-.17,0-.3-.13-.3-.3v-2.01c0-.17.13-.3.3-.3s.3.13.3.3v2.01c0,.17-.13.3-.3.3ZM288.66,184.68c-.17,0-.3-.13-.3-.3v-2.01c0-.17.13-.3.3-.3s.3.13.3.3v2.01c0,.17-.13.3-.3.3ZM288.66,180.67c-.17,0-.3-.13-.3-.3v-2.01c0-.17.13-.3.3-.3s.3.13.3.3v2.01c0,.17-.13.3-.3.3ZM288.66,176.65c-.17,0-.3-.13-.3-.3v-2.01c0-.17.13-.3.3-.3s.3.13.3.3v2.01c0,.17-.13.3-.3.3ZM288.66,172.64c-.17,0-.3-.13-.3-.3v-2.01c0-.17.13-.3.3-.3s.3.13.3.3v2.01c0,.17-.13.3-.3.3ZM288.66,168.63c-.17,0-.3-.13-.3-.3v-2.01c0-.17.13-.3.3-.3s.3.13.3.3v2.01c0,.17-.13.3-.3.3ZM288.66,164.61c-.17,0-.3-.13-.3-.3v-2.01c0-.17.13-.3.3-.3s.3.13.3.3v2.01c0,.17-.13.3-.3.3ZM288.66,160.6c-.17,0-.3-.13-.3-.3v-2.01c0-.17.13-.3.3-.3s.3.13.3.3v2.01c0,.17-.13.3-.3.3ZM288.66,156.59c-.17,0-.3-.13-.3-.3v-2.01c0-.17.13-.3.3-.3s.3.13.3.3v2.01c0,.17-.13.3-.3.3ZM288.66,152.58c-.17,0-.3-.13-.3-.3v-2.01c0-.17.13-.3.3-.3s.3.13.3.3v2.01c0,.17-.13.3-.3.3ZM288.66,148.56c-.17,0-.3-.13-.3-.3v-.2c0-.63.08-1.25.23-1.86.04-.16.21-.26.36-.22.16.04.26.2.22.36-.14.56-.21,1.13-.21,1.71v.2c0,.17-.13.3-.3.3ZM289.62,144.72c-.05,0-.1-.01-.15-.04-.14-.08-.19-.27-.11-.41.35-.6.77-1.16,1.27-1.65.12-.12.31-.12.43,0,.12.12.12.31,0,.43-.46.45-.85.96-1.17,1.52-.06.1-.16.15-.26.15ZM292.44,141.93c-.11,0-.21-.06-.26-.15-.08-.15-.03-.33.12-.41.61-.34,1.26-.59,1.94-.75.16-.04.32.06.36.22.04.16-.06.32-.22.36-.62.15-1.23.38-1.79.69-.05.03-.1.04-.15.04ZM342.44,141.01h-2.01c-.17,0-.3-.13-.3-.3s.13-.3.3-.3h2.01c.17,0,.3.13.3.3s-.13.3-.3.3ZM338.43,141.01h-2.01c-.17,0-.3-.13-.3-.3s.13-.3.3-.3h2.01c.17,0,.3.13.3.3s-.13.3-.3.3ZM334.42,141.01h-2.01c-.17,0-.3-.13-.3-.3s.13-.3.3-.3h2.01c.17,0,.3.13.3.3s-.13.3-.3.3ZM330.4,141.01h-2.01c-.17,0-.3-.13-.3-.3s.13-.3.3-.3h2.01c.17,0,.3.13.3.3s-.13.3-.3.3ZM326.39,141.01h-2.01c-.17,0-.3-.13-.3-.3s.13-.3.3-.3h2.01c.17,0,.3.13.3.3s-.13.3-.3.3ZM322.38,141.01h-2.01c-.17,0-.3-.13-.3-.3s.13-.3.3-.3h2.01c.17,0,.3.13.3.3s-.13.3-.3.3ZM318.37,141.01h-2.01c-.17,0-.3-.13-.3-.3s.13-.3.3-.3h2.01c.17,0,.3.13.3.3s-.13.3-.3.3ZM314.35,141.01h-2.01c-.17,0-.3-.13-.3-.3s.13-.3.3-.3h2.01c.17,0,.3.13.3.3s-.13.3-.3.3ZM310.34,141.01h-2.01c-.17,0-.3-.13-.3-.3s.13-.3.3-.3h2.01c.17,0,.3.13.3.3s-.13.3-.3.3ZM306.33,141.01h-2.01c-.17,0-.3-.13-.3-.3s.13-.3.3-.3h2.01c.17,0,.3.13.3.3s-.13.3-.3.3ZM302.31,141.01h-2.01c-.17,0-.3-.13-.3-.3s.13-.3.3-.3h2.01c.17,0,.3.13.3.3s-.13.3-.3.3ZM298.3,141.01h-2.01c-.17,0-.3-.13-.3-.3s.13-.3.3-.3h2.01c.17,0,.3.13.3.3s-.13.3-.3.3Z"/>
          <g>
            <circle class="cls-5" cx="288.66" cy="172.68" r="1.31"/>
            <path class="cls-5" d="M288.66,175.14c-1.36,0-2.46-1.1-2.46-2.46s1.1-2.46,2.46-2.46,2.46,1.1,2.46,2.46-1.1,2.46-2.46,2.46ZM288.66,170.52c-1.19,0-2.16.97-2.16,2.16s.97,2.16,2.16,2.16,2.16-.97,2.16-2.16-.97-2.16-2.16-2.16Z"/>
          </g>
        </g>
        <g>
          <path class="cls-5" d="M356.21,131.84c-.2,0-.37-.16-.37-.37v-2.44c0-.2.16-.37.37-.37s.37.16.37.37v2.44c0,.2-.16.37-.37.37ZM356.21,126.96c-.2,0-.37-.16-.37-.37v-2.44c0-.2.16-.37.37-.37s.37.16.37.37v2.44c0,.2-.16.37-.37.37ZM356.21,122.08c-.2,0-.37-.16-.37-.37v-2.44c0-.2.16-.37.37-.37s.37.16.37.37v2.44c0,.2-.16.37-.37.37ZM356.21,117.2c-.2,0-.37-.16-.37-.37v-2.44c0-.2.16-.37.37-.37s.37.16.37.37v2.44c0,.2-.16.37-.37.37ZM356.21,112.31c-.2,0-.37-.16-.37-.37v-2.44c0-.2.16-.37.37-.37s.37.16.37.37v2.44c0,.2-.16.37-.37.37ZM356.21,107.43c-.2,0-.37-.16-.37-.37v-2.44c0-.2.16-.37.37-.37s.37.16.37.37v2.44c0,.2-.16.37-.37.37ZM394.98,103.03c-.2,0-.37-.16-.37-.37v-1.36c0-.2.16-.37.37-.37s.37.16.37.37v1.36c0,.2-.16.37-.37.37ZM356.21,102.55c-.2,0-.37-.16-.37-.37v-2.44c0-.2.16-.37.37-.37s.37.16.37.37v2.44c0,.2-.16.37-.37.37ZM394.98,99.24c-.2,0-.37-.16-.37-.37v-2.44c0-.2.16-.37.37-.37s.37.16.37.37v2.44c0,.2-.16.37-.37.37ZM356.21,97.67c-.2,0-.37-.16-.37-.37v-2.44c0-.2.16-.37.37-.37s.37.16.37.37v2.44c0,.2-.16.37-.37.37ZM394.98,94.35c-.2,0-.37-.16-.37-.37v-2.44c0-.2.16-.37.37-.37s.37.16.37.37v2.44c0,.2-.16.37-.37.37ZM356.21,92.78c-.2,0-.37-.16-.37-.37v-2.44c0-.2.16-.37.37-.37s.37.16.37.37v2.44c0,.2-.16.37-.37.37ZM394.98,89.47c-.2,0-.37-.16-.37-.37v-2.44c0-.2.16-.37.37-.37s.37.16.37.37v2.44c0,.2-.16.37-.37.37ZM356.21,87.9c-.2,0-.37-.16-.37-.37v-2.44c0-.2.16-.37.37-.37s.37.16.37.37v2.44c0,.2-.16.37-.37.37ZM394.98,84.59c-.2,0-.37-.16-.37-.37v-2.44c0-.2.16-.37.37-.37s.37.16.37.37v2.44c0,.2-.16.37-.37.37ZM356.21,83.02c-.2,0-.37-.16-.37-.37v-2.44c0-.2.16-.37.37-.37s.37.16.37.37v2.44c0,.2-.16.37-.37.37ZM394.98,79.71c-.2,0-.37-.16-.37-.37v-2.44c0-.2.16-.37.37-.37s.37.16.37.37v2.44c0,.2-.16.37-.37.37ZM356.21,78.14c-.2,0-.37-.16-.37-.37v-2.44c0-.2.16-.37.37-.37s.37.16.37.37v2.44c0,.2-.16.37-.37.37ZM394.96,74.83c-.19,0-.35-.15-.37-.35-.04-.78-.19-1.55-.45-2.29-.07-.19.04-.4.23-.47.19-.07.4.04.46.23.27.8.44,1.64.49,2.49.01.2-.14.37-.34.39,0,0-.01,0-.02,0ZM356.45,73.27s-.06,0-.08,0c-.2-.05-.32-.24-.27-.44.2-.83.5-1.62.92-2.36.1-.18.32-.24.5-.14.18.1.24.32.14.5-.38.68-.66,1.41-.84,2.18-.04.17-.19.28-.36.28ZM393.4,70.27c-.12,0-.23-.06-.3-.16-.44-.64-.97-1.22-1.57-1.72-.15-.13-.18-.36-.05-.52.13-.16.36-.18.52-.05.65.54,1.23,1.17,1.71,1.87.11.17.07.39-.09.51-.06.04-.14.07-.21.07ZM358.79,69.06c-.09,0-.19-.04-.26-.11-.14-.14-.14-.37,0-.52.6-.6,1.27-1.12,2.01-1.54.17-.1.4-.04.5.14.1.18.04.4-.14.5-.68.39-1.3.87-1.85,1.42-.07.07-.17.11-.26.11ZM389.69,67.18c-.05,0-.1-.01-.15-.03-.71-.32-1.47-.54-2.24-.65-.2-.03-.34-.22-.31-.42.03-.2.21-.34.42-.31.84.12,1.66.36,2.43.71.18.08.27.3.18.48-.06.14-.19.22-.33.22ZM362.97,66.67c-.16,0-.31-.11-.35-.28-.05-.2.07-.4.27-.44.73-.18,1.5-.28,2.26-.28h.25c.2,0,.37.16.37.37s-.16.37-.37.37h-.25c-.71,0-1.41.09-2.08.25-.03,0-.06.01-.09.01ZM384.92,66.4h-2.44c-.2,0-.37-.16-.37-.37s.16-.37.37-.37h2.44c.2,0,.37.16.37.37s-.16.37-.37.37ZM380.04,66.4h-2.44c-.2,0-.37-.16-.37-.37s.16-.37.37-.37h2.44c.2,0,.37.16.37.37s-.16.37-.37.37ZM375.16,66.4h-2.44c-.2,0-.37-.16-.37-.37s.16-.37.37-.37h2.44c.2,0,.37.16.37.37s-.16.37-.37.37ZM370.27,66.4h-2.44c-.2,0-.37-.16-.37-.37s.16-.37.37-.37h2.44c.2,0,.37.16.37.37s-.16.37-.37.37Z"/>
          <g>
            <circle class="cls-5" cx="375.59" cy="66.04" r="1.38"/>
            <path class="cls-5" d="M375.59,68.61c-1.42,0-2.58-1.16-2.58-2.58s1.16-2.58,2.58-2.58,2.58,1.16,2.58,2.58-1.16,2.58-2.58,2.58ZM375.59,63.77c-1.25,0-2.26,1.02-2.26,2.26s1.02,2.26,2.26,2.26,2.26-1.02,2.26-2.26-1.02-2.26-2.26-2.26Z"/>
          </g>
        </g>
        <g>
          <rect class="cls-3" x="353.62" y="85.87" width="23.61" height="4.04"/>
          <path class="cls-3" d="M396.31,84.35h-16.88c-1.23,0-2.39.41-3.18,1.13l-4.58,3.43h-18.06c-.76,0-1.37.61-1.37,1.37v25c0,.76.61,1.37,1.37,1.37h44.01c.76,0,1.37-.61,1.37-1.37v-27.89c0-1.61-1.19-3.04-2.67-3.04Z"/>
        </g>
        <path class="cls-30" d="M326.56,159.9l-2.5,2.43c-.08.08-.16.17-.22.26-1.67-1.09-3.48-1.86-5.37-2.3.02-.11.04-.23.04-.35l.04-3.49c.01-1.08-.86-1.98-1.95-1.99l-3.49-.04c-1.08-.01-1.98.86-1.99,1.95l-.04,3.49c0,.12.01.23.03.35-1.84.39-3.63,1.09-5.28,2.1-.06-.09-.13-.18-.21-.27l-2.43-2.5c-.76-.78-2-.8-2.78-.04l-2.5,2.43c-.78.76-.8,2-.04,2.78l2.43,2.5c.08.08.17.16.26.22-1.09,1.66-1.86,3.48-2.3,5.37-.11-.02-.23-.04-.35-.04l-3.49-.04c-.52,0-1.02.19-1.39.55,0,0,0,0,0,0-.38.37-.59.86-.59,1.38l-.04,3.49h0c-.01,1.08.86,1.98,1.95,1.99l3.49.04c.12,0,.23-.01.34-.03.39,1.84,1.09,3.63,2.1,5.28-.09.06-.18.13-.27.21l-2.5,2.43c-.78.76-.8,2-.04,2.78l2.43,2.5c.76.78,2,.8,2.78.04l2.5-2.43c.08-.08.16-.17.22-.26,1.67,1.09,3.48,1.86,5.37,2.3-.02.11-.04.23-.04.34l-.04,3.49c0,.53.19,1.02.56,1.4.37.38.86.59,1.38.59l3.49.04h0c.54,0,1.03-.21,1.39-.56.36-.35.59-.84.6-1.39l.04-3.49c0-.12-.01-.23-.03-.34,1.84-.39,3.63-1.09,5.28-2.1.06.09.13.18.21.27l2.43,2.5c.76.78,2,.8,2.78.04l2.5-2.43c.78-.76.8-2,.04-2.78l-2.43-2.5c-.08-.08-.17-.16-.26-.22,1.09-1.67,1.86-3.48,2.3-5.37.11.02.23.04.35.04l3.49.04c.54,0,1.03-.21,1.39-.56.36-.35.59-.85.6-1.39l.04-3.49c.01-1.08-.86-1.98-1.95-1.99l-3.49-.04c-.12,0-.23.01-.35.03-.39-1.84-1.09-3.63-2.1-5.28.09-.06.18-.13.27-.21l2.5-2.43c.78-.76.8-2,.04-2.78l-2.43-2.5c-.76-.78-2-.8-2.78-.04ZM321.04,183.28c-3.66,3.55-9.52,3.46-13.07-.2-3.55-3.66-3.46-9.52.2-13.07,3.66-3.55,9.52-3.46,13.07.2,3.55,3.66,3.46,9.52-.2,13.07Z"/>
        <g>
          <rect class="cls-3" x="355.48" y="188.47" width="37.47" height="17.96"/>
          <path class="cls-3" d="M316.73,98.91h114.97c2.63,0,4.76,2.13,4.76,4.76v81.82c0,2.63-2.13,4.76-4.76,4.76h-114.96c-2.63,0-4.76-2.13-4.76-4.76v-81.82c0-2.63,2.13-4.76,4.76-4.76Z"/>
          <path class="cls-6" d="M376.46,184.5c0,1.35-1.09,2.44-2.44,2.44s-2.44-1.09-2.44-2.44,1.09-2.44,2.44-2.44,2.44,1.09,2.44,2.44Z"/>
          <path class="cls-14" d="M434.96,179.11v-74.52c0-2.26-1.77-4.09-3.95-4.09h-113.6c-2.18,0-3.95,1.83-3.95,4.09v74.52h121.5Z"/>
          <path class="cls-3" d="M351.85,204.5h44.72c2.07,0,3.75,1.68,3.75,3.75v.12h-52.21v-.12c0-2.07,1.68-3.75,3.75-3.75Z"/>
        </g>
        <path class="cls-5" d="M323.26,99.73c0-3.61-2.72-6.57-6.22-6.98.03-.24.04-.47.04-.72,0-3.46-2.8-6.26-6.26-6.26-.93,0-1.8.21-2.59.57-1.67-2.6-4.58-4.32-7.9-4.32-5.18,0-9.38,4.2-9.38,9.38,0,.46.03.9.1,1.34-3.54.36-6.31,3.35-6.31,6.99,0,3.88,3.15,7.03,7.03,7.03h24.81v-.02c3.72-.18,6.68-3.25,6.68-7.01Z"/>
        <polygon class="cls-3" points="308.51 112.12 308.51 101.2 299.51 101.2 299.51 112.12 296.69 112.12 304.01 118.97 311.32 112.12 308.51 112.12"/>
        <rect class="cls-4" x="382.13" y="90.15" width="29.5" height="14.75" rx="3.7" ry="3.7"/>
        <rect class="cls-4" x="299.64" y="196.27" width="29.5" height="14.75" rx="3.7" ry="3.7"/>
        <rect class="cls-4" x="310.27" y="133.88" width="29.5" height="14.75" rx="3.7" ry="3.7"/>
        <g>
          <path class="cls-5" d="M413.92,195.85h-1.05c-.17,0-.32-.14-.32-.32s.14-.32.32-.32h1.05c.17,0,.32.14.32.32s-.14.32-.32.32Z"/>
          <path class="cls-5" d="M439.19,195.85h-2.11c-.17,0-.32-.14-.32-.32s.14-.32.32-.32h2.11c.17,0,.32.14.32.32s-.14.32-.32.32ZM434.98,195.85h-2.1c-.17,0-.32-.14-.32-.32s.14-.32.32-.32h2.1c.17,0,.32.14.32.32s-.14.32-.32.32ZM430.77,195.85h-2.11c-.17,0-.32-.14-.32-.32s.14-.32.32-.32h2.11c.17,0,.32.14.32.32s-.14.32-.32.32ZM426.56,195.85h-2.11c-.17,0-.32-.14-.32-.32s.14-.32.32-.32h2.11c.17,0,.32.14.32.32s-.14.32-.32.32ZM422.34,195.85h-2.1c-.17,0-.32-.14-.32-.32s.14-.32.32-.32h2.1c.17,0,.32.14.32.32s-.14.32-.32.32ZM418.13,195.85h-2.11c-.17,0-.32-.14-.32-.32s.14-.32.32-.32h2.11c.17,0,.32.14.32.32s-.14.32-.32.32ZM441.27,195.61c-.14,0-.27-.1-.31-.24-.04-.17.06-.34.23-.38.66-.16,1.3-.4,1.89-.71.15-.08.35-.02.43.13.08.15.02.35-.13.43-.65.34-1.33.59-2.04.77-.03,0-.05,0-.07,0ZM444.97,193.68c-.09,0-.17-.04-.24-.11-.12-.13-.1-.33.03-.45.51-.45.96-.95,1.35-1.51.1-.14.3-.18.44-.08.14.1.18.3.08.44-.42.6-.9,1.14-1.45,1.62-.06.05-.13.08-.21.08ZM447.36,190.26s-.08,0-.11-.02c-.16-.06-.24-.25-.18-.41.24-.63.41-1.29.49-1.96.02-.17.17-.3.35-.27.17.02.3.18.27.35-.09.72-.27,1.43-.53,2.11-.05.13-.17.2-.29.2ZM447.94,186.13c-.17,0-.32-.14-.32-.32v-2.11c0-.17.14-.32.32-.32s.32.14.32.32v2.11c0,.17-.14.32-.32.32ZM447.94,181.91c-.17,0-.32-.14-.32-.32v-2.11c0-.17.14-.32.32-.32s.32.14.32.32v2.11c0,.17-.14.32-.32.32ZM447.94,177.7c-.17,0-.32-.14-.32-.32v-2.11c0-.17.14-.32.32-.32s.32.14.32.32v2.11c0,.17-.14.32-.32.32ZM447.94,173.49c-.17,0-.32-.14-.32-.32v-2.11c0-.17.14-.32.32-.32s.32.14.32.32v2.11c0,.17-.14.32-.32.32ZM447.94,169.28c-.17,0-.32-.14-.32-.32v-2.11c0-.17.14-.32.32-.32s.32.14.32.32v2.11c0,.17-.14.32-.32.32ZM447.94,165.07c-.17,0-.32-.14-.32-.32v-2.11c0-.17.14-.32.32-.32s.32.14.32.32v2.11c0,.17-.14.32-.32.32ZM447.94,160.86c-.17,0-.32-.14-.32-.32v-2.11c0-.17.14-.32.32-.32s.32.14.32.32v2.11c0,.17-.14.32-.32.32Z"/>
          <path class="cls-5" d="M447.94,156.64c-.17,0-.32-.14-.32-.32v-.74h-.26c-.17,0-.32-.14-.32-.32s.14-.32.32-.32h.58c.17,0,.32.14.32.32v1.05c0,.17-.14.32-.32.32Z"/>
        </g>
        <g>
          <rect class="cls-5" x="407.51" y="123.39" width="33.64" height="63.42" rx="3.01" ry="3.01"/>
          <g>
            <rect class="cls-12" x="414.83" y="125.68" width="16.15" height="1.02" rx=".48" ry=".48"/>
            <path class="cls-12" d="M433.82,126.19c0,.28-.23.51-.51.51s-.51-.23-.51-.51.23-.51.51-.51.51.23.51.51Z"/>
          </g>
          <rect class="cls-11" x="409.36" y="129.14" width="29.93" height="18.39"/>
          <polygon class="cls-8" points="430.01 136.83 427.81 139.46 422.13 132.66 412.64 144.02 424 144.02 431.63 144.02 436.02 144.02 430.01 136.83"/>
          <g>
            <rect class="cls-11" x="409.36" y="171.9" width="14.13" height="8.29"/>
            <polygon class="cls-10" points="419.11 175.12 418.07 176.36 415.39 173.16 410.91 178.52 416.27 178.52 419.87 178.52 421.95 178.52 419.11 175.12"/>
          </g>
          <g class="cls-49">
            <g>
              <rect class="cls-5" x="409.36" y="152.27" width="14.13" height=".79"/>
              <rect class="cls-5" x="409.36" y="150.61" width="14.13" height=".79"/>
              <rect class="cls-5" x="409.36" y="153.9" width="8.94" height=".79"/>
              <rect class="cls-5" x="418.93" y="153.9" width="4.56" height=".79"/>
              <rect class="cls-5" x="409.36" y="155.52" width="12.5" height=".79"/>
              <rect class="cls-5" x="409.36" y="157.19" width="4.34" height=".79"/>
              <rect class="cls-5" x="414.45" y="157.19" width="3.13" height=".79"/>
            </g>
          </g>
          <g class="cls-49">
            <g>
              <rect class="cls-5" x="425.16" y="163.39" width="14.13" height=".79"/>
              <rect class="cls-5" x="425.16" y="161.73" width="14.13" height=".79"/>
              <rect class="cls-5" x="425.16" y="165.01" width="8.94" height=".79"/>
              <rect class="cls-5" x="434.73" y="165.01" width="4.56" height=".79"/>
              <rect class="cls-5" x="425.16" y="166.64" width="12.5" height=".79"/>
              <rect class="cls-5" x="425.16" y="168.31" width="4.34" height=".79"/>
              <rect class="cls-5" x="430.26" y="168.31" width="3.13" height=".79"/>
            </g>
          </g>
          <g class="cls-49">
            <g>
              <rect class="cls-5" x="425.16" y="152.27" width="14.13" height=".79"/>
              <rect class="cls-5" x="425.16" y="150.61" width="14.13" height=".79"/>
              <rect class="cls-5" x="425.16" y="153.9" width="8.94" height=".79"/>
              <rect class="cls-5" x="434.73" y="153.9" width="4.56" height=".79"/>
              <rect class="cls-5" x="425.16" y="155.52" width="14.13" height=".79"/>
              <rect class="cls-5" x="425.16" y="157.19" width="4.34" height=".79"/>
              <rect class="cls-5" x="430.26" y="157.19" width="9.04" height=".79"/>
            </g>
          </g>
          <g class="cls-49">
            <g>
              <rect class="cls-5" x="409.36" y="163.39" width="14.13" height=".79"/>
              <rect class="cls-5" x="409.36" y="161.73" width="14.13" height=".79"/>
              <rect class="cls-5" x="409.36" y="165.01" width="14.13" height=".79"/>
              <rect class="cls-5" x="409.36" y="166.64" width="14.13" height=".79"/>
              <rect class="cls-5" x="409.36" y="168.31" width="14.13" height=".79"/>
            </g>
          </g>
          <g class="cls-49">
            <g>
              <rect class="cls-5" x="425.16" y="173.84" width="14.13" height=".79"/>
              <rect class="cls-5" x="425.16" y="172.17" width="14.13" height=".79"/>
              <rect class="cls-5" x="430.36" y="175.46" width="8.94" height=".79"/>
              <rect class="cls-5" x="425.16" y="175.46" width="4.56" height=".79"/>
              <rect class="cls-5" x="425.16" y="177.09" width="10.85" height=".79"/>
              <rect class="cls-5" x="436.77" y="177.09" width="2.53" height=".79"/>
              <rect class="cls-5" x="428.87" y="178.75" width="10.42" height=".79"/>
              <rect class="cls-5" x="425.16" y="178.75" width="3.13" height=".79"/>
            </g>
          </g>
        </g>
        <rect class="cls-4" x="388.41" y="186.81" width="29.5" height="14.75" rx="3.7" ry="3.7"/>
        <g>
          <path class="cls-5" d="M449.08,177.09c0,.76-.62,1.38-1.38,1.38s-1.38-.62-1.38-1.38.62-1.38,1.38-1.38,1.38.62,1.38,1.38Z"/>
          <path class="cls-5" d="M447.7,179.67c-1.42,0-2.58-1.16-2.58-2.58s1.16-2.58,2.58-2.58,2.58,1.16,2.58,2.58-1.16,2.58-2.58,2.58ZM447.7,174.83c-1.25,0-2.26,1.02-2.26,2.26s1.02,2.26,2.26,2.26,2.26-1.02,2.26-2.26-1.02-2.26-2.26-2.26Z"/>
        </g>
        <rect class="cls-4" x="433.78" y="142.16" width="29.5" height="14.75" rx="3.7" ry="3.7"/>
        <g>
          <g>
            <rect class="cls-12" x="370.97" y="159.61" width="9.28" height=".84"/>
            <rect class="cls-12" x="382.63" y="159.61" width="21.49" height=".84"/>
            <path class="cls-12" d="M393.11,166.85c-3.69,0-7.39,0-11.07-.01v-.84c7.36.02,14.79.02,22.08,0v.84c-3.64,0-7.33.01-11.01.01Z"/>
            <rect class="cls-12" x="378.66" y="162.8" width="25.46" height=".84"/>
            <rect class="cls-12" x="377.27" y="169.2" width="26.85" height=".84"/>
            <rect class="cls-12" x="373.55" y="172.4" width="30.57" height=".84"/>
          </g>
          <g>
            <rect class="cls-5" x="320.81" y="111.46" width="14.38" height=".84"/>
            <rect class="cls-5" x="353.76" y="111.46" width="14.83" height=".84"/>
            <rect class="cls-10" x="358.3" y="114.65" width="10.29" height=".84"/>
            <rect class="cls-10" x="354.07" y="121.06" width="14.52" height=".84"/>
            <rect class="cls-10" x="351.22" y="124.25" width="17.37" height=".84"/>
            <rect class="cls-10" x="346.25" y="127.99" width="22.34" height=".84"/>
            <rect class="cls-10" x="337.51" y="111.46" width="14.38" height=".84"/>
            <path class="cls-10" d="M356.99,118.7c-2.2,0-4.4,0-8.81,0h-2.87s0-.85,0-.85h2.87q8.81.02,17.56,0h2.85s0,.84,0,.84h-2.84c-4.38.01-6.56.01-8.76.01Z"/>
            <path class="cls-5" d="M331.82,118.7c-3.69,0-7.37,0-11.02-.01v-.84c7.29.02,14.72.02,22.08,0v.84c-3.68,0-7.38.01-11.07.01Z"/>
            <rect class="cls-5" x="320.81" y="114.65" width="35.45" height=".84"/>
            <rect class="cls-5" x="320.81" y="127.99" width="23.48" height=".84"/>
            <rect class="cls-5" x="320.81" y="121.06" width="31.43" height=".84"/>
            <rect class="cls-5" x="320.81" y="124.25" width="28.48" height=".84"/>
            <g>
              <circle class="cls-16" cx="317.8" cy="111.88" r=".58"/>
              <path class="cls-16" d="M318.38,115.07c0,.32-.26.58-.58.58s-.58-.26-.58-.58.26-.58.58-.58.58.26.58.58Z"/>
              <circle class="cls-16" cx="317.8" cy="118.27" r=".58"/>
              <path class="cls-16" d="M318.38,121.46c0,.32-.26.58-.58.58s-.58-.26-.58-.58.26-.58.58-.58.58.26.58.58Z"/>
              <circle class="cls-16" cx="317.8" cy="124.67" r=".58"/>
              <path class="cls-16" d="M318.38,128.41c0,.32-.26.58-.58.58s-.58-.26-.58-.58.26-.58.58-.58.58.26.58.58Z"/>
            </g>
            <path class="cls-16" d="M372.42,130.31c-.12,0-.21-.09-.21-.21v-18.7c0-.12.09-.21.21-.21s.21.09.21.21v18.7c0,.12-.09.21-.21.21Z"/>
          </g>
          <g>
            <path class="cls-12" d="M336.59,170.64h-1.29c-.12,0-.22-.1-.22-.22s.1-.22.22-.22h1.29c.12,0,.22.1.22.22s-.1.22-.22.22ZM334,170.64h-1.29c-.12,0-.22-.1-.22-.22s.1-.22.22-.22h1.29c.12,0,.22.1.22.22s-.1.22-.22.22ZM331.41,170.64h-.52c-.29,0-.59-.08-.84-.22-.1-.06-.14-.19-.08-.29.06-.1.19-.14.29-.08.19.11.41.16.63.16h.52c.12,0,.22.1.22.22s-.1.22-.22.22ZM329.4,169.44c-.1,0-.19-.07-.21-.17-.03-.12-.04-.25-.04-.37v-.97c0-.12.1-.22.22-.22s.22.1.22.22v.97c0,.09.01.19.03.28.03.12-.05.23-.16.26-.02,0-.03,0-.05,0ZM329.36,166.86c-.12,0-.22-.1-.22-.22v-1.29c0-.12.1-.22.22-.22s.22.1.22.22v1.29c0,.12-.1.22-.22.22ZM329.36,164.27c-.12,0-.22-.1-.22-.22v-1.29c0-.12.1-.22.22-.22s.22.1.22.22v1.29c0,.12-.1.22-.22.22ZM329.36,161.68c-.12,0-.22-.1-.22-.22v-1.29c0-.12.1-.22.22-.22s.22.1.22.22v1.29c0,.12-.1.22-.22.22ZM329.36,159.09c-.12,0-.22-.1-.22-.22v-.16c0-.44.16-.86.46-1.18.08-.09.22-.09.3-.01.09.08.09.22.01.3-.22.24-.35.56-.35.89v.16c0,.12-.1.22-.22.22ZM337.4,157.41h-1.29c-.12,0-.22-.1-.22-.22s.1-.22.22-.22h1.29c.12,0,.22.1.22.22s-.1.22-.22.22ZM334.81,157.41h-1.29c-.12,0-.22-.1-.22-.22s.1-.22.22-.22h1.29c.12,0,.22.1.22.22s-.1.22-.22.22ZM332.22,157.41h-1.29c-.12,0-.22-.1-.22-.22s.1-.22.22-.22h1.29c.12,0,.22.1.22.22s-.1.22-.22.22Z"/>
            <rect class="cls-12" x="334.35" y="165.04" width="6.93" height=".86"/>
            <rect class="cls-12" x="343.09" y="165.04" width="11.19" height=".86"/>
            <rect class="cls-12" x="347.36" y="172.38" width="6.93" height=".86"/>
            <rect class="cls-12" x="334.35" y="172.38" width="11.19" height=".86"/>
            <rect class="cls-12" x="334.35" y="167.54" width="12.18" height=".86"/>
            <rect class="cls-12" x="348.35" y="167.54" width="5.94" height=".86"/>
            <rect class="cls-12" x="334.35" y="169.99" width="10.03" height=".86"/>
            <rect class="cls-12" x="347.48" y="169.99" width="6.8" height=".86"/>
            <g>
              <rect class="cls-10" x="334.35" y="154.62" width="3.63" height="6.75"/>
              <rect class="cls-16" x="340.04" y="152.05" width="3.63" height="9.32"/>
              <rect class="cls-4" x="345.55" y="146.74" width="3.63" height="14.63"/>
            </g>
            <rect class="cls-12" x="345.34" y="169.99" width="1.3" height=".86"/>
          </g>
          <g>
            <rect class="cls-5" x="376.65" y="123.82" width="27.15" height="30.29"/>
            <g>
              <rect class="cls-11" x="378.84" y="129.2" width="18.93" height=".63"/>
              <path class="cls-11" d="M388.28,134.43c-3.25,0-6.5,0-9.45-.01v-.63c5.9.01,12.98.01,18.93,0v.63c-2.98,0-6.23.01-9.48.01Z"/>
              <rect class="cls-11" x="378.84" y="131.49" width="18.93" height=".63"/>
              <rect class="cls-11" x="378.84" y="136.09" width="13.8" height=".63"/>
              <rect class="cls-11" x="378.84" y="151.52" width="18.93" height=".63"/>
              <path class="cls-11" d="M397.77,147.57c-5.95-.01-13.03-.01-18.93,0v-.63c5.9-.01,12.98-.01,18.93,0v.63Z"/>
              <rect class="cls-11" x="378.84" y="149.23" width="18.93" height=".63"/>
              <rect class="cls-11" x="378.84" y="144.63" width="13.8" height=".63"/>
            </g>
            <path class="cls-4" d="M404.22,154.53h-27.99v-31.14h27.99v31.14ZM376.65,154.11h27.15v-30.3h-27.15v30.3Z"/>
            <rect class="cls-4" x="376.44" y="123.6" width="27.57" height="3.63"/>
            <g>
              <path class="cls-11" d="M396.13,143.02c-.07,0-.15-.03-.21-.08l-2.12-1.87c-.07-.06-.11-.15-.11-.24s.04-.18.11-.24l2.12-1.87c.13-.12.33-.1.45.03.12.13.1.33-.03.45l-1.85,1.64,1.85,1.64c.13.12.14.31.03.45-.06.07-.15.11-.24.11Z"/>
              <path class="cls-11" d="M399.41,143.02c-.09,0-.17-.04-.24-.11-.12-.13-.1-.33.03-.45l1.85-1.64-1.85-1.64c-.13-.12-.14-.31-.03-.45.12-.13.31-.14.45-.03l2.12,1.87c.07.06.11.15.11.24s-.04.18-.11.24l-2.12,1.87c-.06.05-.13.08-.21.08Z"/>
            </g>
            <g>
              <path class="cls-11" d="M379.05,125.41l.74-.74c.07-.07.07-.18,0-.25s-.18-.07-.25,0l-.74.74-.74-.74c-.07-.07-.18-.07-.25,0-.07.07-.07.18,0,.25l.74.74-.74.74c-.07.07-.07.18,0,.25.03.03.08.05.13.05s.09-.02.13-.05l.74-.74.74.74s.08.05.13.05.09-.02.13-.05c.07-.07.07-.18,0-.25l-.74-.74Z"/>
              <path class="cls-11" d="M382.2,126.45c-.57,0-1.04-.47-1.04-1.04s.47-1.04,1.04-1.04,1.04.47,1.04,1.04-.47,1.04-1.04,1.04ZM382.2,124.7c-.39,0-.71.32-.71.71s.32.71.71.71.71-.32.71-.71-.32-.71-.71-.71Z"/>
              <path class="cls-11" d="M386.22,126.45h-1.69c-.1,0-.18-.08-.18-.18s.08-.18.18-.18h1.69c.1,0,.18.08.18.18s-.08.18-.18.18Z"/>
            </g>
          </g>
        </g>
        <path class="cls-12" d="M367.97,83.04l-2.45.78c-.08.03-.16.06-.23.1-.74-1.27-1.69-2.37-2.78-3.29.05-.07.1-.14.14-.22l1.17-2.29c.37-.71.08-1.59-.63-1.95l-2.29-1.17c-.71-.37-1.59-.08-1.95.63l-1.17,2.29c-.04.08-.07.16-.09.24-1.34-.35-2.75-.48-4.18-.36-.01-.08-.03-.16-.05-.25l-.78-2.45c-.24-.76-1.06-1.19-1.82-.95l-2.45.78c-.76.24-1.19,1.06-.95,1.82l.78,2.45c.03.08.06.16.1.23-1.27.74-2.37,1.69-3.29,2.78-.07-.05-.14-.1-.22-.14l-2.29-1.17c-.34-.18-.73-.21-1.1-.09,0,0,0,0,0,0-.37.12-.67.37-.85.72l-1.17,2.29h0c-.37.71-.08,1.59.63,1.95l2.29,1.17c.08.04.16.07.24.09-.35,1.34-.48,2.75-.36,4.18-.08.01-.16.03-.25.05l-2.45.78c-.76.24-1.19,1.06-.95,1.82l.78,2.45c.24.76,1.06,1.19,1.82.95l2.45-.78c.08-.03.16-.06.23-.1.74,1.27,1.69,2.38,2.78,3.29-.05.07-.1.14-.14.21l-1.17,2.29c-.18.34-.21.74-.09,1.11.12.37.37.67.72.85l2.29,1.17h0c.35.18.75.2,1.1.09.36-.11.67-.36.85-.72l1.17-2.29c.04-.08.07-.16.09-.24,1.34.35,2.75.48,4.18.36.01.08.03.16.05.25l.78,2.45c.24.76,1.06,1.19,1.82.95l2.45-.78c.76-.24,1.19-1.06.95-1.82l-.78-2.45c-.03-.08-.06-.16-.1-.23,1.27-.74,2.38-1.69,3.29-2.78.07.05.14.1.21.14l2.29,1.17c.35.18.75.2,1.1.09.36-.11.67-.36.85-.72l1.17-2.29c.37-.71.08-1.59-.63-1.95l-2.29-1.17c-.08-.04-.16-.07-.24-.09.35-1.34.48-2.75.36-4.18.08-.01.16-.03.25-.05l2.45-.78c.76-.24,1.19-1.06.95-1.82l-.78-2.45c-.24-.76-1.06-1.19-1.82-.95ZM356.62,96.65c-3.58,1.13-7.42-.86-8.55-4.44-1.13-3.58.86-7.42,4.44-8.55,3.58-1.13,7.42.86,8.55,4.44,1.13,3.58-.86,7.42-4.44,8.55Z"/>
        <g>
          <path class="cls-5" d="M364.88,139.96l-.6,1.46s-.03.1-.04.15c-.89-.15-1.78-.14-2.64.02-.01-.05-.03-.1-.05-.15l-.62-1.45c-.19-.45-.72-.66-1.17-.47l-1.45.62c-.45.19-.66.72-.47,1.17l.62,1.45s.05.09.08.14c-.69.5-1.3,1.11-1.8,1.83-.04-.03-.09-.05-.14-.07l-1.46-.6c-.45-.19-.97.03-1.16.49l-.6,1.46c-.19.45.03.97.49,1.16l1.46.6s.1.03.15.04c-.15.89-.14,1.78.02,2.64-.05.01-.1.03-.15.05l-1.45.62c-.22.09-.39.26-.48.48,0,0,0,0,0,0-.09.22-.09.46,0,.68l.62,1.45h0c.19.45.72.66,1.17.47l1.45-.62s.09-.05.14-.08c.5.69,1.11,1.3,1.83,1.81-.03.04-.05.09-.07.14l-.6,1.46c-.19.45.03.97.49,1.16l1.46.6c.45.19.97-.03,1.16-.49l.6-1.46s.03-.1.04-.15c.89.15,1.78.14,2.64-.02.01.05.03.1.05.15l.62,1.45c.09.22.27.39.49.48.22.09.46.09.68,0l1.45-.62h0c.22-.1.39-.27.47-.48.09-.21.09-.46,0-.68l-.62-1.45s-.05-.09-.08-.14c.69-.5,1.3-1.11,1.81-1.83.04.03.09.05.14.07l1.46.6c.45.19.97-.03,1.16-.49l.6-1.46c.19-.45-.03-.97-.49-1.16l-1.46-.6s-.1-.03-.15-.04c.15-.89.14-1.78-.02-2.64.05-.01.1-.03.15-.05l1.45-.62c.22-.1.39-.27.47-.48.09-.21.09-.46,0-.68l-.62-1.45c-.19-.45-.72-.66-1.17-.47l-1.45.62s-.09.05-.14.08c-.5-.69-1.11-1.3-1.83-1.8.03-.04.05-.09.07-.14l.6-1.46c.19-.45-.03-.97-.49-1.16l-1.46-.6c-.45-.19-.97.03-1.16.49ZM366.84,150.64c-.87,2.13-3.31,3.16-5.45,2.29-2.13-.87-3.16-3.31-2.29-5.45.87-2.13,3.31-3.16,5.45-2.29,2.13.87,3.16,3.31,2.29,5.45Z"/>
          <path class="cls-29" d="M355.21,132.55l-.78.79s-.05.05-.07.08c-.53-.33-1.12-.56-1.72-.69,0-.04,0-.07,0-.11v-1.1c-.02-.34-.3-.62-.64-.62h-1.1c-.34.02-.62.3-.62.64v1.1s.02.07.02.11c-.58.14-1.14.37-1.66.7-.02-.03-.04-.06-.07-.08l-.79-.78c-.24-.24-.64-.24-.88,0l-.78.79c-.24.24-.24.64,0,.88l.79.78s.05.05.08.07c-.33.53-.56,1.12-.69,1.72-.04,0-.07,0-.11,0h-1.1c-.17.01-.32.08-.44.2,0,0,0,0,0,0-.12.12-.18.28-.18.44v1.1s.01,0,.01,0c0,.34.29.62.63.62h1.1s.07-.02.11-.02c.14.58.37,1.14.7,1.66-.03.02-.06.04-.08.07l-.78.79c-.24.24-.24.64,0,.88l.79.78c.24.24.64.24.88,0l.78-.79s.05-.05.07-.08c.53.33,1.12.56,1.72.69,0,.04-.01.07,0,.11v1.1c.01.17.08.32.2.44.12.12.28.18.44.18h1.1s0-.01,0-.01c.17,0,.32-.07.44-.19.11-.11.18-.27.18-.44v-1.1s-.02-.07-.02-.11c.58-.14,1.14-.37,1.66-.7.02.03.04.06.07.08l.79.78c.24.24.64.24.88,0l.78-.79c.24-.24.24-.64,0-.88l-.79-.78s-.05-.05-.08-.07c.33-.53.56-1.12.69-1.72.04,0,.07.01.11,0h1.1c.17-.01.32-.09.44-.2.11-.11.18-.27.18-.44v-1.1c-.02-.34-.3-.62-.64-.62h-1.1s-.07.02-.11.02c-.14-.58-.37-1.14-.7-1.66.03-.02.06-.04.08-.07l.78-.79c.24-.24.24-.64,0-.88l-.79-.78c-.24-.24-.64-.24-.88,0ZM353.63,139.99c-1.13,1.15-2.99,1.16-4.14.03-1.15-1.13-1.16-2.99-.03-4.14,1.13-1.15,2.99-1.16,4.14-.03,1.15,1.13,1.16,2.99.03,4.14Z"/>
        </g>
        <g>
          <g>
            <rect class="cls-12" x="288.15" y="122.28" width="5.03" height=".84"/>
            <rect class="cls-12" x="295.27" y="122.28" width="12.84" height=".84"/>
            <rect class="cls-12" x="300.16" y="131.32" width="7.95" height=".84"/>
            <rect class="cls-12" x="288.15" y="131.32" width="9.93" height=".84"/>
            <rect class="cls-12" x="288.15" y="125.36" width="11.06" height=".84"/>
            <rect class="cls-12" x="301.3" y="125.36" width="6.81" height=".84"/>
            <rect class="cls-12" x="288.15" y="128.39" width="8.59" height=".84"/>
            <rect class="cls-12" x="300.3" y="128.39" width="7.81" height=".84"/>
            <rect class="cls-12" x="297.84" y="128.39" width="1.49" height=".84"/>
          </g>
          <g>
            <rect class="cls-12" x="420.81" y="201.14" width="5.03" height=".84"/>
            <rect class="cls-12" x="427.93" y="201.14" width="12.84" height=".84"/>
            <rect class="cls-12" x="432.82" y="210.18" width="7.95" height=".84"/>
            <rect class="cls-12" x="420.81" y="210.18" width="9.93" height=".84"/>
            <rect class="cls-12" x="420.81" y="204.22" width="11.06" height=".84"/>
            <rect class="cls-12" x="433.96" y="204.22" width="6.81" height=".84"/>
            <rect class="cls-12" x="420.81" y="207.24" width="8.59" height=".84"/>
            <rect class="cls-12" x="432.96" y="207.24" width="7.81" height=".84"/>
            <rect class="cls-12" x="430.5" y="207.24" width="1.49" height=".84"/>
          </g>
        </g>
        <path class="cls-12" d="M437.54,97.23l-1.98.42c-.07.01-.13.03-.19.06-.48-1.05-1.14-1.98-1.93-2.78.05-.05.09-.1.12-.16l1.09-1.7c.34-.53.18-1.24-.35-1.58l-1.7-1.09c-.53-.34-1.24-.18-1.58.35l-1.09,1.7c-.04.06-.07.12-.09.18-1.02-.37-2.12-.58-3.24-.59,0-.07,0-.13-.02-.2l-.42-1.98c-.13-.62-.74-1.01-1.35-.88l-1.98.42c-.62.13-1.01.74-.88,1.35l.42,1.98c.01.07.03.13.06.19-1.05.48-1.98,1.14-2.78,1.93-.05-.05-.1-.09-.16-.12l-1.7-1.09c-.26-.16-.56-.22-.85-.16,0,0,0,0,0,0-.3.07-.55.24-.72.5l-1.09,1.7h0c-.34.53-.18,1.24.35,1.58l1.7,1.09c.06.04.12.07.18.09-.37,1.02-.58,2.12-.59,3.24-.06,0-.13,0-.2.02l-1.98.42c-.62.13-1.01.74-.88,1.35l.42,1.98c.13.62.74,1.01,1.35.88l1.98-.42c.07-.01.13-.03.19-.06.48,1.05,1.14,1.98,1.93,2.78-.05.05-.09.1-.13.16l-1.09,1.7c-.16.26-.22.56-.15.86.07.3.24.55.5.72l1.7,1.09h0c.26.17.57.22.85.15.29-.06.55-.23.72-.5l1.09-1.7c.04-.06.07-.12.09-.18,1.02.37,2.12.58,3.24.59,0,.07,0,.13.02.2l.42,1.98c.13.62.74,1.01,1.35.88l1.98-.42c.62-.13,1.01-.74.88-1.35l-.42-1.98c-.01-.07-.03-.13-.06-.19,1.05-.48,1.98-1.14,2.78-1.93.05.05.1.09.16.13l1.7,1.09c.26.17.57.22.85.15.29-.06.55-.23.72-.5l1.09-1.7c.34-.53.18-1.24-.35-1.58l-1.7-1.09c-.06-.04-.12-.07-.18-.09.37-1.02.58-2.12.59-3.24.07,0,.13,0,.2-.02l1.98-.42c.62-.13,1.01-.74.88-1.35l-.42-1.98c-.13-.62-.74-1.01-1.35-.88ZM427.64,107.03c-2.89.62-5.74-1.23-6.36-4.12-.62-2.89,1.23-5.74,4.12-6.36,2.89-.62,5.74,1.23,6.36,4.12.62,2.89-1.23,5.74-4.12,6.36Z"/>
        <text class="cls-18" transform="translate(388.37 100.8)"><tspan x="0" y="0">&lt;/&gt;</tspan></text>
        <text class="cls-21" transform="translate(303.59 205.78)"><tspan x="0" y="0">HTML</tspan></text>
        <text class="cls-22" transform="translate(320.81 143.73)"><tspan x="0" y="0">JS</tspan></text>
        <text class="cls-23" transform="translate(394.48 197.05)"><tspan class="cls-40" x="0" y="0">C</tspan><tspan class="cls-37" x="7.21" y="0">+</tspan><tspan x="13.21" y="0">+</tspan></text>
        <text class="cls-24" transform="translate(438.61 152.01)"><tspan class="cls-47" x="0" y="0">J</tspan><tspan class="cls-41" x="3.91" y="0">AV</tspan><tspan x="14.59" y="0">A</tspan></text>
      </g>
      <polygon class="cls-3" points="155.5 250.02 .15 250.02 .15 .02 294.8 .02 155.5 250.02"/>
      <g>
        <text class="cls-25" transform="translate(18.55 37.93) scale(.96 1)"><tspan class="cls-34" x="0" y="0">J</tspan><tspan class="cls-42" x="17.57" y="0">A</tspan><tspan class="cls-27" x="37.38" y="0">V</tspan><tspan x="57.13" y="0">A </tspan><tspan x="0" y="32.89">P</tspan><tspan class="cls-38" x="19.79" y="32.89">R</tspan><tspan class="cls-45" x="40.64" y="32.89">OGRAMMING</tspan></text>
        <text class="cls-19" transform="translate(17.48 112.25) scale(.96 1)"><tspan x="0" y="0">Professional Training </tspan><tspan x="0" y="24.37">Program</tspan></text>
        <g>
          <text class="cls-26" transform="translate(20.18 226.46) scale(.96 1)"><tspan x="0" y="0">O</tspan><tspan class="cls-44" x="8.75" y="0">f</tspan><tspan x="13.11" y="0">fline</tspan></text>
          <text class="cls-26" transform="translate(91.84 226.33) scale(.96 1)"><tspan x="0" y="0">Online</tspan></text>
          <g>
            <g>
              <path class="cls-15" d="M62.69,185.73c0,13.93-10.79,25.23-24.11,25.23s-24.11-11.29-24.11-25.23,10.79-25.23,24.11-25.23,24.11,11.29,24.11,25.23Z"/>
              <g class="cls-46">
                <path class="cls-31" d="M58.42,184.84c0,11.47-8.88,20.76-19.84,20.76s-19.84-9.3-19.84-20.76,8.88-20.76,19.84-20.76,19.84,9.3,19.84,20.76Z"/>
              </g>
              <path class="cls-17" d="M58.42,185.73c0,11.47-8.88,20.76-19.84,20.76s-19.84-9.3-19.84-20.76,8.88-20.76,19.84-20.76,19.84,9.3,19.84,20.76Z"/>
            </g>
            <g>
              <path class="cls-32" d="M48.83,185.04h-10.21c-.34,0-.62-.29-.62-.65v-9.35c0-.36.28-.65.62-.65h10.21c.34,0,.62.29.62.65v9.35c0,.35-.28.65-.62.65ZM41.18,178.37h5.09c.34,0,.62-.29.62-.65h0c0-.36-.28-.65-.62-.65h-5.09c-.34,0-.62.29-.62.65h0c0,.35.28.65.62.65ZM41.18,181.03h3.82c.34,0,.62-.29.62-.65h0c0-.36-.28-.65-.62-.65h-3.82c-.34,0-.62.29-.62.65h0c0,.35.28.65.62.65Z"/>
              <path class="cls-32" d="M33.16,174.39c.44.1.87.25,1.23.54.92.73,1.25,2.01.83,3.12-.42,1.08-1.52,1.78-2.6,1.65-1.18-.14-2.09-1.05-2.27-2.25-.21-1.44.72-2.78,2.1-3.02.04,0,.08-.03.12-.04.2,0,.4,0,.59,0Z"/>
              <path class="cls-32" d="M34.12,195.33c.18-1,.63-1.8,1.43-2.36.58-.41,1.23-.6,1.92-.56.77.04,1.44.35,2.01.89s.88,1.23,1,2.08c.08-.31.13-.56.22-.81.49-1.41,1.87-2.32,3.26-2.16,1.48.16,2.67,1.33,2.85,2.85.07.6.01,1.2.01,1.82h-19.07c-.06-1.31-.12-2.63.89-3.66.93-.94,2.03-1.28,3.27-.87,1.23.41,1.95,1.33,2.19,2.66,0,.04.01.07.02.1Z"/>
              <path class="cls-32" d="M36.01,185.36c-.74.29-1.38.78-1.86,1.51-1.16-1.56-2.63-2.11-4.47-1.55.04-1.03-.13-2.07.34-3.05.63-1.29,1.98-2.02,3.39-1.78,1.32.22,2.43,1.39,2.58,2.8.08.67.02,1.36.02,2.08Z"/>
              <path class="cls-32" d="M30.96,186.41c1.4,0,2.54,1.2,2.54,2.67,0,1.46-1.15,2.66-2.56,2.65-1.39,0-2.53-1.2-2.53-2.65,0-1.46,1.14-2.67,2.54-2.67Z"/>
              <path class="cls-32" d="M34.77,189.07c0-1.46,1.15-2.66,2.55-2.66s2.54,1.2,2.54,2.68c0,1.46-1.14,2.65-2.54,2.65-1.4,0-2.55-1.19-2.55-2.66Z"/>
              <path class="cls-32" d="M46.22,189.08c0,1.46-1.15,2.66-2.55,2.65s-2.54-1.21-2.54-2.68c0-1.46,1.15-2.65,2.54-2.65,1.4,0,2.55,1.2,2.54,2.67Z"/>
              <path class="cls-32" d="M40.55,178.37v-1.31"/>
            </g>
          </g>
          <g>
            <g>
              <path class="cls-7" d="M131.49,185.7c0,13.93-10.79,25.23-24.11,25.23s-24.11-11.29-24.11-25.23,10.79-25.23,24.11-25.23,24.11,11.29,24.11,25.23Z"/>
              <g class="cls-46">
                <path class="cls-31" d="M127.22,184.8c0,11.47-8.88,20.76-19.84,20.76s-19.84-9.3-19.84-20.76,8.88-20.76,19.84-20.76,19.84,9.3,19.84,20.76Z"/>
              </g>
              <path class="cls-13" d="M127.22,185.7c0,11.47-8.88,20.76-19.84,20.76s-19.84-9.3-19.84-20.76,8.88-20.76,19.84-20.76,19.84,9.3,19.84,20.76Z"/>
            </g>
            <g>
              <path class="cls-32" d="M113.64,173.78h4.26c.79,0,1.22.46,1.22,1.28v5.75c0,.83-.43,1.29-1.22,1.29-1.58,0-3.16,0-4.73,0-.27,0-.49.09-.68.29-.58.63-1.18,1.24-1.76,1.85-.18.19-.35.35-.63.23-.28-.12-.27-.38-.27-.63,0-.35,0-.71,0-1.06,0-.45-.18-.65-.6-.69-.72-.06-1.12-.51-1.12-1.27v-5.78c0-.81.45-1.27,1.21-1.27,1.44,0,2.87,0,4.31,0ZM110,177.9c0,.47.37.86.82.85.45,0,.82-.41.81-.87,0-.46-.37-.84-.81-.84-.45,0-.81.37-.81.85ZM112.81,177.89c0,.48.35.86.81.86s.82-.39.82-.86-.36-.84-.8-.85c-.45,0-.82.38-.83.85ZM115.64,177.89c0,.47.36.86.81.86s.81-.38.81-.86-.36-.84-.8-.84c-.45-.02-.82.36-.82.84Z"/>
              <path class="cls-32" d="M107.82,179.22v1.76h-8.15c-.6,0-.82.23-.82.86v10.16c0,.61.23.85.81.85h15.44c.56,0,.79-.24.79-.84v-9.61h1.67v11.52h-20.39v-12.84c0-1.18.66-1.88,1.8-1.88h8.85Z"/>
              <path class="cls-32" d="M107.38,194.26c3.72,0,7.45,0,11.17,0,.19,0,.4.05.56.14.27.16.36.5.27.81-.09.32-.18.65-.27.96-.23.82-.93,1.39-1.76,1.43h-19.79c-.7,0-1.33-.24-1.66-.88-.27-.51-.42-1.12-.56-1.7-.09-.39.25-.75.65-.79.1,0,.19,0,.3,0,3.7.02,7.4.02,11.09.02ZM107.37,196.41h1.51c.16,0,.32,0,.47-.02.24-.03.4-.21.4-.44,0-.24-.15-.44-.39-.49-.06,0-.12,0-.17,0h-3.62c-.06,0-.12,0-.17,0-.24.04-.4.23-.4.48s.17.43.42.46c.08,0,.17,0,.24,0h1.71Z"/>
              <path class="cls-32" d="M104.3,191.46h-3.19c-.41,0-.55-.14-.52-.56.04-.63.06-1.26.14-1.88.12-.96.91-1.65,1.84-1.66,1.15,0,2.31,0,3.46,0,.99,0,1.8.78,1.88,1.82.04.56.08,1.12.11,1.68.03.46-.1.6-.53.6h-3.19Z"/>
              <path class="cls-32" d="M106.33,184.81c-.01.56-.14,1.06-.45,1.52-.8,1.22-2.36,1.22-3.16,0-.58-.88-.58-2.12,0-3,.81-1.25,2.38-1.24,3.18,0,.28.44.4.95.42,1.48Z"/>
            </g>
          </g>
        </g>
      </g>
      <text class="cls-20" transform="translate(342.14 214.19)"><tspan x="0" y="0">Nurtu</tspan><tspan class="cls-36" x="23.31" y="0">r</tspan><tspan x="26.44" y="0">e</tspan></text>
      <text class="cls-1" transform="translate(382.59 26.87)"><tspan x="0" y="0">NU</tspan><tspan class="cls-39" x="14.88" y="0">R</tspan><tspan class="cls-33" x="21.41" y="0">TURE IN</tspan><tspan class="cls-50" x="60.54" y="0">F</tspan><tspan class="cls-48" x="65.96" y="0">O</tspan><tspan class="cls-33" x="74.38" y="0">TECH</tspan></text>
      <text class="cls-2" transform="translate(363.43 39.18)"><tspan x="0" y="0">(An ISO 9001:2015 Certified Company)</tspan></text>
    </g>
  </g>
</svg>