<?xml version="1.0" encoding="UTF-8"?>
<svg xmlns="http://www.w3.org/2000/svg" xmlns:xlink="http://www.w3.org/1999/xlink" viewBox="0 0 500 250">
  <defs>
    <style>
      .cls-1 {
        fill: url(#linear-gradient-12);
      }

      .cls-1, .cls-2, .cls-3, .cls-4, .cls-5, .cls-6, .cls-7, .cls-8, .cls-9, .cls-10, .cls-11, .cls-12, .cls-13, .cls-14, .cls-15, .cls-16, .cls-17, .cls-18, .cls-19, .cls-20, .cls-21, .cls-22, .cls-23, .cls-24, .cls-25, .cls-26, .cls-27, .cls-28, .cls-29, .cls-30, .cls-31, .cls-32, .cls-33, .cls-34, .cls-35, .cls-36, .cls-37, .cls-38, .cls-39, .cls-40 {
        stroke-width: 0px;
      }

      .cls-41 {
        fill: #2a2d7c;
        font-family: LEMONMILK-Medium, 'LEMON MILK';
        font-size: 9.92px;
      }

      .cls-41, .cls-42 {
        font-weight: 500;
      }

      .cls-2 {
        fill: url(#linear-gradient-17);
      }

      .cls-3 {
        fill: url(#linear-gradient-19);
      }

      .cls-4 {
        fill: url(#linear-gradient);
      }

      .cls-5 {
        fill: url(#linear-gradient-3);
        opacity: .74;
      }

      .cls-6 {
        fill: url(#linear-gradient-21);
      }

      .cls-7 {
        fill: url(#linear-gradient-6);
      }

      .cls-43 {
        isolation: isolate;
      }

      .cls-44 {
        font-family: CenturyGothic-Bold, 'Century Gothic';
        font-size: 20.31px;
        font-weight: 700;
      }

      .cls-44, .cls-14, .cls-17, .cls-22, .cls-23, .cls-45, .cls-46 {
        fill: #fff;
      }

      .cls-8 {
        fill: url(#Degradado_sin_nombre_15-3);
        filter: url(#drop-shadow-3);
      }

      .cls-9 {
        fill: url(#linear-gradient-15);
      }

      .cls-10 {
        fill: url(#linear-gradient-11);
      }

      .cls-11 {
        fill: url(#linear-gradient-5);
      }

      .cls-12, .cls-47, .cls-48 {
        fill: none;
      }

      .cls-49 {
        letter-spacing: 0em;
      }

      .cls-13 {
        fill: url(#linear-gradient-13);
      }

      .cls-14 {
        opacity: .43;
      }

      .cls-50 {
        letter-spacing: -.02em;
      }

      .cls-15 {
        fill: url(#linear-gradient-16);
      }

      .cls-51 {
        letter-spacing: -.02em;
      }

      .cls-16 {
        fill: url(#New_Gradient_Swatch_1-3);
      }

      .cls-18 {
        fill: url(#linear-gradient-20);
      }

      .cls-19 {
        fill: url(#New_Gradient_Swatch_1-6);
      }

      .cls-20 {
        fill: url(#linear-gradient-14);
      }

      .cls-21 {
        fill: url(#New_Gradient_Swatch_1);
      }

      .cls-22 {
        opacity: .6;
      }

      .cls-23 {
        opacity: .61;
      }

      .cls-24 {
        fill: url(#linear-gradient-2);
        opacity: .3;
      }

      .cls-25 {
        fill: url(#linear-gradient-7);
      }

      .cls-52 {
        clip-path: url(#clippath);
      }

      .cls-26 {
        fill: url(#New_Gradient_Swatch_1-2);
      }

      .cls-27 {
        fill: url(#linear-gradient-9);
      }

      .cls-42 {
        font-family: FuturaBT-Medium, 'Futura Md BT';
        font-size: 7.09px;
      }

      .cls-28 {
        fill: url(#New_Gradient_Swatch_14-2);
      }

      .cls-29 {
        fill: url(#linear-gradient-8);
      }

      .cls-47 {
        stroke: #fff;
        stroke-width: 1.62px;
      }

      .cls-47, .cls-48 {
        stroke-miterlimit: 10;
      }

      .cls-30 {
        fill: url(#New_Gradient_Swatch_1-4);
      }

      .cls-31 {
        fill: url(#linear-gradient-18);
      }

      .cls-53 {
        letter-spacing: .02em;
      }

      .cls-54 {
        letter-spacing: 0em;
      }

      .cls-55 {
        mix-blend-mode: screen;
        opacity: .13;
      }

      .cls-45 {
        font-size: 27.41px;
      }

      .cls-45, .cls-46 {
        font-family: Arial-Black, Arial;
        font-weight: 800;
      }

      .cls-32 {
        fill: url(#Degradado_sin_nombre_17);
        filter: url(#drop-shadow-4);
      }

      .cls-33 {
        fill: url(#linear-gradient-10);
      }

      .cls-48 {
        stroke: #000;
        stroke-width: .43px;
      }

      .cls-34 {
        fill: url(#New_Gradient_Swatch_1-5);
      }

      .cls-35 {
        fill: url(#Degradado_sin_nombre_15);
        filter: url(#drop-shadow-1);
      }

      .cls-36 {
        fill: url(#New_Gradient_Swatch_19);
      }

      .cls-37 {
        fill: url(#New_Gradient_Swatch_14);
      }

      .cls-38 {
        fill: url(#linear-gradient-4);
      }

      .cls-56 {
        letter-spacing: -.04em;
      }

      .cls-39 {
        fill: url(#New_Gradient_Swatch_1-7);
      }

      .cls-46 {
        font-size: 10.51px;
      }

      .cls-57 {
        letter-spacing: -.02em;
      }

      .cls-40 {
        fill: url(#Degradado_sin_nombre_15-2);
        filter: url(#drop-shadow-2);
      }
    </style>
    <clipPath id="clippath">
      <rect class="cls-12" x=".65" width="499.7" height="249.48"/>
    </clipPath>
    <linearGradient id="linear-gradient" x1="-.35" y1="125" x2="294.3" y2="125" gradientUnits="userSpaceOnUse">
      <stop offset="0" stop-color="#a737d5"/>
      <stop offset="1" stop-color="#ef497a"/>
    </linearGradient>
    <radialGradient id="Degradado_sin_nombre_15" data-name="Degradado sin nombre 15" cx="1338.15" cy="246.11" fx="1338.15" fy="246.11" r="119.24" gradientTransform="translate(-1114.17 -3.05) scale(.84 .88)" gradientUnits="userSpaceOnUse">
      <stop offset="0" stop-color="#fff"/>
      <stop offset="1" stop-color="#f5f5f6"/>
    </radialGradient>
    <filter id="drop-shadow-1" filterUnits="userSpaceOnUse">
      <feOffset dx="1.3" dy="1.3"/>
      <feGaussianBlur result="blur" stdDeviation="1.3"/>
      <feFlood flood-color="#000" flood-opacity=".2"/>
      <feComposite in2="blur" operator="in"/>
      <feComposite in="SourceGraphic"/>
    </filter>
    <radialGradient id="Degradado_sin_nombre_15-2" data-name="Degradado sin nombre 15" cx="1348.41" cy="246.79" fx="1348.41" fy="246.79" r="103.27" xlink:href="#Degradado_sin_nombre_15"/>
    <filter id="drop-shadow-2" filterUnits="userSpaceOnUse">
      <feOffset dx="1.3" dy="1.3"/>
      <feGaussianBlur result="blur-2" stdDeviation="1.3"/>
      <feFlood flood-color="#000" flood-opacity=".2"/>
      <feComposite in2="blur-2" operator="in"/>
      <feComposite in="SourceGraphic"/>
    </filter>
    <radialGradient id="Degradado_sin_nombre_15-3" data-name="Degradado sin nombre 15" cx="1460.02" cy="215.48" fx="1460.02" fy="215.48" r="28.8" xlink:href="#Degradado_sin_nombre_15"/>
    <filter id="drop-shadow-3" filterUnits="userSpaceOnUse">
      <feOffset dx="1.3" dy="1.3"/>
      <feGaussianBlur result="blur-3" stdDeviation="1.3"/>
      <feFlood flood-color="#000" flood-opacity=".2"/>
      <feComposite in2="blur-3" operator="in"/>
      <feComposite in="SourceGraphic"/>
    </filter>
    <linearGradient id="Degradado_sin_nombre_17" data-name="Degradado sin nombre 17" x1="88.04" y1="185.67" x2="127.72" y2="185.67" gradientUnits="userSpaceOnUse">
      <stop offset="0" stop-color="#f5f5f6"/>
      <stop offset="1" stop-color="#fff"/>
    </linearGradient>
    <filter id="drop-shadow-4" filterUnits="userSpaceOnUse">
      <feOffset dx="1.3" dy="1.3"/>
      <feGaussianBlur result="blur-4" stdDeviation="1.3"/>
      <feFlood flood-color="#000" flood-opacity=".2"/>
      <feComposite in2="blur-4" operator="in"/>
      <feComposite in="SourceGraphic"/>
    </filter>
    <linearGradient id="linear-gradient-2" x1="486.31" y1="290.95" x2="327.57" y2="93.8" gradientUnits="userSpaceOnUse">
      <stop offset="0" stop-color="#b37cff"/>
      <stop offset="1" stop-color="#f895e7"/>
    </linearGradient>
    <linearGradient id="linear-gradient-3" x1="-300.49" y1="2639.16" x2="-393.93" y2="2757.24" gradientTransform="translate(-162.15 -2108.66) rotate(-12.63) scale(1.03 .87) skewX(8.91)" xlink:href="#linear-gradient-2"/>
    <linearGradient id="linear-gradient-4" x1="381.71" y1="171.65" x2="461.36" y2="96.53" xlink:href="#linear-gradient"/>
    <linearGradient id="linear-gradient-5" x1="289.21" y1="225.07" x2="548.72" y2="-72.5" gradientUnits="userSpaceOnUse">
      <stop offset="0" stop-color="#53d8ff"/>
      <stop offset="1" stop-color="#3840f7"/>
    </linearGradient>
    <linearGradient id="linear-gradient-6" x1="387.94" y1="-5.55" x2="346.44" y2="121.58" xlink:href="#linear-gradient-5"/>
    <linearGradient id="New_Gradient_Swatch_1" data-name="New Gradient Swatch 1" x1="424" y1="-1621.97" x2="413.81" y2="-1597.33" gradientTransform="translate(-259.95 1679.85) rotate(9.25)" gradientUnits="userSpaceOnUse">
      <stop offset="0" stop-color="#2b3582"/>
      <stop offset="1" stop-color="#150e42"/>
    </linearGradient>
    <linearGradient id="New_Gradient_Swatch_19" data-name="New Gradient Swatch 19" x1="412.97" y1="172.85" x2="417.61" y2="313.24" gradientUnits="userSpaceOnUse">
      <stop offset="0" stop-color="#fdf53f"/>
      <stop offset="1" stop-color="#d93c65"/>
    </linearGradient>
    <linearGradient id="linear-gradient-7" x1="386.11" y1="185.93" x2="416.86" y2="260.21" gradientUnits="userSpaceOnUse">
      <stop offset="0" stop-color="#f9b776"/>
      <stop offset="1" stop-color="#f47960"/>
    </linearGradient>
    <linearGradient id="linear-gradient-8" x1="-21337.7" y1="185.78" x2="-21306.95" y2="260.05" gradientTransform="translate(-20897.07) rotate(-180) scale(1 -1)" xlink:href="#linear-gradient-7"/>
    <linearGradient id="New_Gradient_Swatch_1-2" data-name="New Gradient Swatch 1" x1="413.43" y1="195.51" x2="411.83" y2="260.34" gradientTransform="matrix(1,0,0,1,0,0)" xlink:href="#New_Gradient_Swatch_1"/>
    <linearGradient id="linear-gradient-9" x1="416.64" y1="182.06" x2="405.5" y2="256.2" xlink:href="#linear-gradient-5"/>
    <linearGradient id="New_Gradient_Swatch_1-3" data-name="New Gradient Swatch 1" x1="436.84" y1="149.9" x2="453.64" y2="149.9" gradientTransform="translate(-3.8 81.22) rotate(.44)" xlink:href="#New_Gradient_Swatch_1"/>
    <linearGradient id="linear-gradient-10" x1="472.84" y1="212.41" x2="433.57" y2="245.87" xlink:href="#linear-gradient-5"/>
    <linearGradient id="linear-gradient-11" x1="442.98" y1="204.19" x2="425.24" y2="252.23" xlink:href="#linear-gradient-7"/>
    <linearGradient id="New_Gradient_Swatch_1-4" data-name="New Gradient Swatch 1" x1="-21972.69" y1="13.44" x2="-21955.88" y2="13.44" gradientTransform="translate(-21576.92 -218.49) rotate(-178.85) scale(1 -1)" xlink:href="#New_Gradient_Swatch_1"/>
    <linearGradient id="linear-gradient-12" x1="352.42" y1="177.28" x2="384.52" y2="255.14" xlink:href="#linear-gradient-5"/>
    <linearGradient id="linear-gradient-13" x1="407.44" y1="189.71" x2="389.69" y2="237.78" xlink:href="#linear-gradient-7"/>
    <linearGradient id="New_Gradient_Swatch_14" data-name="New Gradient Swatch 14" x1="450.49" y1="203.26" x2="404.38" y2="237.9" gradientUnits="userSpaceOnUse">
      <stop offset="0" stop-color="#7c27dd"/>
      <stop offset="1" stop-color="#2b41d9"/>
    </linearGradient>
    <linearGradient id="New_Gradient_Swatch_14-2" data-name="New Gradient Swatch 14" x1="408.82" y1="234.32" x2="396.73" y2="203.5" xlink:href="#New_Gradient_Swatch_14"/>
    <linearGradient id="linear-gradient-14" x1="413.11" y1="192.07" x2="412.7" y2="156.47" xlink:href="#linear-gradient-7"/>
    <linearGradient id="linear-gradient-15" x1="419.84" y1="-1598.01" x2="421.03" y2="-1626.8" gradientTransform="translate(-259.95 1679.85) rotate(9.25)" xlink:href="#linear-gradient-7"/>
    <linearGradient id="New_Gradient_Swatch_1-5" data-name="New Gradient Swatch 1" x1="423.38" y1="-1622.24" x2="413.28" y2="-1597.82" xlink:href="#New_Gradient_Swatch_1"/>
    <linearGradient id="linear-gradient-16" x1="426.88" y1="-155.84" x2="428.73" y2="-200.95" gradientTransform="translate(-25.86 315.97) rotate(1.75)" xlink:href="#linear-gradient-7"/>
    <linearGradient id="New_Gradient_Swatch_1-6" data-name="New Gradient Swatch 1" x1="366.52" y1="87.3" x2="395.98" y2="187.97" gradientTransform="matrix(1,0,0,1,0,0)" xlink:href="#New_Gradient_Swatch_1"/>
    <linearGradient id="New_Gradient_Swatch_1-7" data-name="New Gradient Swatch 1" x1="376.29" y1="84.44" x2="405.75" y2="185.11" gradientTransform="matrix(1,0,0,1,0,0)" xlink:href="#New_Gradient_Swatch_1"/>
    <linearGradient id="linear-gradient-17" x1="282.69" y1="291.83" x2="315.59" y2="163.28" gradientUnits="userSpaceOnUse">
      <stop offset="0" stop-color="#7a2ddb"/>
      <stop offset="1" stop-color="#7077ff"/>
    </linearGradient>
    <linearGradient id="linear-gradient-18" x1="302.44" y1="187.7" x2="316.55" y2="187.7" gradientUnits="userSpaceOnUse">
      <stop offset="0" stop-color="#2b3582"/>
      <stop offset="1" stop-color="#150e42"/>
    </linearGradient>
    <linearGradient id="linear-gradient-19" x1="446.34" y1="41.89" x2="351.45" y2="132.19" xlink:href="#linear-gradient-17"/>
    <linearGradient id="linear-gradient-20" x1="408.56" y1="-1485.15" x2="415.98" y2="-1542.02" gradientTransform="translate(-419.57 1589.04) rotate(13.23)" xlink:href="#linear-gradient"/>
    <linearGradient id="linear-gradient-21" x1="407.5" y1="-1525.11" x2="419.42" y2="-1525.11" gradientTransform="translate(-419.57 1589.04) rotate(13.23)" xlink:href="#linear-gradient-18"/>
  </defs>
  <g class="cls-43">
    <g id="Layer_1" data-name="Layer 1">
      <rect class="cls-17" x="-.35" width="500.7" height="249.48"/>
      <g class="cls-52">
        <rect class="cls-12" x=".65" width="500" height="250"/>
      </g>
      <polygon class="cls-4" points="155 250 -.35 250 -.35 0 294.3 0 155 250"/>
      <text class="cls-45" transform="translate(19.05 37.91) scale(.96 1)"><tspan x="0" y="0">PHP</tspan><tspan x="0" y="32.89">P</tspan><tspan class="cls-50" x="19.79" y="32.89">R</tspan><tspan class="cls-54" x="40.64" y="32.89">OGRAMMING</tspan></text>
      <text class="cls-44" transform="translate(17.98 112.22) scale(.96 1)"><tspan x="0" y="0">Professional Training </tspan><tspan x="0" y="24.37">Program</tspan></text>
      <g>
        <text class="cls-46" transform="translate(20.68 226.44) scale(.96 1)"><tspan x="0" y="0">O</tspan><tspan class="cls-53" x="8.75" y="0">f</tspan><tspan x="13.11" y="0">fline</tspan></text>
        <text class="cls-46" transform="translate(92.34 226.31) scale(.96 1)"><tspan x="0" y="0">Online</tspan></text>
        <g>
          <g>
            <path class="cls-35" d="M63.19,185.71c0,13.93-10.79,25.23-24.11,25.23s-24.11-11.29-24.11-25.23,10.79-25.23,24.11-25.23,24.11,11.29,24.11,25.23Z"/>
            <g class="cls-55">
              <path class="cls-47" d="M58.92,184.81c0,11.47-8.88,20.76-19.84,20.76s-19.84-9.3-19.84-20.76,8.88-20.76,19.84-20.76,19.84,9.3,19.84,20.76Z"/>
            </g>
            <path class="cls-40" d="M58.92,185.71c0,11.47-8.88,20.76-19.84,20.76s-19.84-9.3-19.84-20.76,8.88-20.76,19.84-20.76,19.84,9.3,19.84,20.76Z"/>
          </g>
          <g>
            <path class="cls-48" d="M49.33,185.02h-10.21c-.34,0-.62-.29-.62-.65v-9.35c0-.36.28-.65.62-.65h10.21c.34,0,.62.29.62.65v9.35c0,.35-.28.65-.62.65ZM41.68,178.34h5.09c.34,0,.62-.29.62-.65h0c0-.36-.28-.65-.62-.65h-5.09c-.34,0-.62.29-.62.65h0c0,.35.28.65.62.65ZM41.68,181.01h3.82c.34,0,.62-.29.62-.65h0c0-.36-.28-.65-.62-.65h-3.82c-.34,0-.62.29-.62.65h0c0,.35.28.65.62.65Z"/>
            <path class="cls-48" d="M33.66,174.36c.44.1.87.25,1.23.54.92.73,1.25,2.01.83,3.12-.42,1.08-1.52,1.78-2.6,1.65-1.18-.14-2.09-1.05-2.27-2.25-.21-1.44.72-2.78,2.1-3.02.04,0,.08-.03.12-.04.2,0,.4,0,.59,0Z"/>
            <path class="cls-48" d="M34.62,195.3c.18-1,.63-1.8,1.43-2.36.58-.41,1.23-.6,1.92-.56.77.04,1.44.35,2.01.89s.88,1.23,1,2.08c.08-.31.13-.56.22-.81.49-1.41,1.87-2.32,3.26-2.16,1.48.16,2.67,1.33,2.85,2.85.07.6.01,1.2.01,1.82h-19.07c-.06-1.31-.12-2.63.89-3.66.93-.94,2.03-1.28,3.27-.87,1.23.41,1.95,1.33,2.19,2.66,0,.04.01.07.02.1Z"/>
            <path class="cls-48" d="M36.51,185.33c-.74.29-1.38.78-1.86,1.51-1.16-1.56-2.63-2.11-4.47-1.55.04-1.03-.13-2.07.34-3.05.63-1.29,1.98-2.02,3.39-1.78,1.32.22,2.43,1.39,2.58,2.8.08.67.02,1.36.02,2.08Z"/>
            <path class="cls-48" d="M31.46,186.39c1.4,0,2.54,1.2,2.54,2.67,0,1.46-1.15,2.66-2.56,2.65-1.39,0-2.53-1.2-2.53-2.65,0-1.46,1.14-2.67,2.54-2.67Z"/>
            <path class="cls-48" d="M35.27,189.05c0-1.46,1.15-2.66,2.55-2.66s2.54,1.2,2.54,2.68c0,1.46-1.14,2.65-2.54,2.65-1.4,0-2.55-1.19-2.55-2.66Z"/>
            <path class="cls-48" d="M46.72,189.06c0,1.46-1.15,2.66-2.55,2.65s-2.54-1.21-2.54-2.68c0-1.46,1.15-2.65,2.54-2.65,1.4,0,2.55,1.2,2.54,2.67Z"/>
            <path class="cls-48" d="M41.05,178.34v-1.31"/>
          </g>
        </g>
        <g>
          <g>
            <path class="cls-8" d="M131.99,185.67c0,13.93-10.79,25.23-24.11,25.23s-24.11-11.29-24.11-25.23,10.79-25.23,24.11-25.23,24.11,11.29,24.11,25.23Z"/>
            <g class="cls-55">
              <path class="cls-47" d="M127.72,184.77c0,11.47-8.88,20.76-19.84,20.76s-19.84-9.3-19.84-20.76,8.88-20.76,19.84-20.76,19.84,9.3,19.84,20.76Z"/>
            </g>
            <path class="cls-32" d="M127.72,185.67c0,11.47-8.88,20.76-19.84,20.76s-19.84-9.3-19.84-20.76,8.88-20.76,19.84-20.76,19.84,9.3,19.84,20.76Z"/>
          </g>
          <g>
            <path class="cls-48" d="M114.14,173.75h4.26c.79,0,1.22.46,1.22,1.28v5.75c0,.83-.43,1.29-1.22,1.29-1.58,0-3.16,0-4.73,0-.27,0-.49.09-.68.29-.58.63-1.18,1.24-1.76,1.85-.18.19-.35.35-.63.23-.28-.12-.27-.38-.27-.63,0-.35,0-.71,0-1.06,0-.45-.18-.65-.6-.69-.72-.06-1.12-.51-1.12-1.27v-5.78c0-.81.45-1.27,1.21-1.27,1.44,0,2.87,0,4.31,0ZM110.5,177.88c0,.47.37.86.82.85.45,0,.82-.41.81-.87,0-.46-.37-.84-.81-.84-.45,0-.81.37-.81.85ZM113.31,177.86c0,.48.35.86.81.86s.82-.39.82-.86-.36-.84-.8-.85c-.45,0-.82.38-.83.85ZM116.14,177.87c0,.47.36.86.81.86s.81-.38.81-.86-.36-.84-.8-.84c-.45-.02-.82.36-.82.84Z"/>
            <path class="cls-48" d="M108.32,179.2v1.76h-8.15c-.6,0-.82.23-.82.86v10.16c0,.61.23.85.81.85h15.44c.56,0,.79-.24.79-.84v-9.61h1.67v11.52h-20.39v-12.84c0-1.18.66-1.88,1.8-1.88h8.85Z"/>
            <path class="cls-48" d="M107.88,194.23c3.72,0,7.45,0,11.17,0,.19,0,.4.05.56.14.27.16.36.5.27.81-.09.32-.18.65-.27.96-.23.82-.93,1.39-1.76,1.43h-19.79c-.7,0-1.33-.24-1.66-.88-.27-.51-.42-1.12-.56-1.7-.09-.39.25-.75.65-.79.1,0,.19,0,.3,0,3.7.02,7.4.02,11.09.02ZM107.87,196.39h1.51c.16,0,.32,0,.47-.02.24-.03.4-.21.4-.44,0-.24-.15-.44-.39-.49-.06,0-.12,0-.17,0h-3.62c-.06,0-.12,0-.17,0-.24.04-.4.23-.4.48s.17.43.42.46c.08,0,.17,0,.24,0h1.71Z"/>
            <path class="cls-48" d="M104.8,191.44h-3.19c-.41,0-.55-.14-.52-.56.04-.63.06-1.26.14-1.88.12-.96.91-1.65,1.84-1.66,1.15,0,2.31,0,3.46,0,.99,0,1.8.78,1.88,1.82.04.56.08,1.12.11,1.68.03.46-.1.6-.53.6h-3.19Z"/>
            <path class="cls-48" d="M106.83,184.79c-.01.56-.14,1.06-.45,1.52-.8,1.22-2.36,1.22-3.16,0-.58-.88-.58-2.12,0-3,.81-1.25,2.38-1.24,3.18,0,.28.44.4.95.42,1.48Z"/>
          </g>
        </g>
      </g>
      <g>
        <path class="cls-24" d="M442.64,213.2c-3.65,3.84-7.1,6.31-9.82,8.27-32.04,22.99-69.95,16.29-78.01,14.65-11.9-2.42-34.9-7.09-51.53-26.64-25.16-29.58-21.24-76.19-1.73-106.96,3.57-5.63,22.42-36.86,60.74-41.87,23.19-3.03,50.23,3.08,69.8,19.48,41.09,34.43,38.17,103.98,10.54,133.07Z"/>
        <g>
          <path class="cls-5" d="M463.43,103.76c-.1-.86-1.57-1.12-1.99-.35-4,7.44-15.29,26.65-29.49,35.63-23.12,14.62-41.11,41.25-30.33,58.03,0,0,72.54.22,61.81-93.32Z"/>
          <path class="cls-14" d="M459.66,114.67c-.07.26-.15.47-.23.7l-.25.67c-.17.45-.34.89-.51,1.34-.35.89-.71,1.77-1.08,2.65-.73,1.76-1.5,3.51-2.28,5.25-1.58,3.47-3.25,6.9-5,10.29-3.49,6.79-7.38,13.36-11.59,19.73-2.11,3.18-4.35,6.28-6.66,9.32l-1.76,2.25c-.29.38-.59.75-.9,1.11l-.91,1.11-.91,1.11c-.31.37-.62.72-.94,1.08-.63.72-1.25,1.45-1.89,2.15-2.57,2.83-5.26,5.54-8.06,8.13-1.44,1.26-2.85,2.54-4.36,3.72-1.46,1.23-3.02,2.33-4.55,3.47-.05.04-.12.03-.15-.02-.04-.05-.03-.11.02-.15h0c3.03-2.3,5.95-4.75,8.73-7.34,2.76-2.62,5.41-5.35,7.93-8.19,2.51-2.86,4.94-5.79,7.24-8.81,2.3-3.03,4.49-6.14,6.62-9.29,2.11-3.17,4.13-6.39,6.07-9.66l1.44-2.46,1.4-2.48c.92-1.66,1.84-3.33,2.73-5.01,1.78-3.36,3.48-6.77,5.1-10.22.8-1.72,1.6-3.45,2.36-5.2.38-.87.75-1.75,1.12-2.63.18-.44.36-.88.54-1.32l.26-.66c.08-.22.17-.45.23-.65v-.03c.03-.06.09-.09.14-.07.05.02.09.07.07.13Z"/>
        </g>
        <g>
          <path class="cls-38" d="M449.39,67.11c-.18-.98-1.56-1.07-1.86-.12-2.91,9.19-11.29,33.05-23.39,45.46-19.69,20.21-33.46,53.62-21.86,71.54,0,0,66.48-9.98,47.1-116.88Z"/>
          <path class="cls-14" d="M447.06,80.28c-.03.29-.09.54-.13.81l-.15.79-.32,1.57c-.22,1.04-.45,2.08-.69,3.12-.47,2.08-.97,4.15-1.49,6.22-1.04,4.13-2.2,8.24-3.41,12.32-1.21,4.09-2.53,8.14-3.93,12.17l-.52,1.51-.54,1.5c-.37,1-.71,2.01-1.1,3l-1.13,2.99-1.17,2.98c-3.17,7.92-6.76,15.67-10.88,23.14-.25.47-.52.93-.79,1.39l-.8,1.38-.8,1.38c-.27.46-.56.91-.84,1.36-.57.9-1.11,1.82-1.69,2.71l-1.76,2.67c-2.42,3.51-4.99,6.92-7.79,10.14-.04.05-.11.05-.15.01-.04-.04-.05-.11-.01-.15h0c2.71-3.28,5.23-6.71,7.58-10.25l1.73-2.68c.57-.9,1.1-1.82,1.66-2.72.27-.46.55-.91.82-1.37l.79-1.39.79-1.39c.26-.46.52-.92.77-1.4l1.51-2.81c.5-.94.97-1.89,1.45-2.84.24-.47.48-.95.72-1.42l.69-1.44.69-1.44c.23-.48.46-.96.68-1.44,1.8-3.85,3.44-7.78,5.05-11.72,3.18-7.89,5.96-15.94,8.48-24.07,1.25-4.07,2.43-8.16,3.53-12.27.55-2.06,1.08-4.12,1.59-6.18.25-1.03.5-2.07.73-3.11l.35-1.56.16-.78c.05-.26.11-.53.14-.77v-.02c.01-.06.07-.1.12-.09.06,0,.1.06.09.12Z"/>
        </g>
        <g>
          <g>
            <path class="cls-11" d="M293.79,60.37h135.21c3.69,0,6.66,4.23,6.59,9.38l-1.9,146.63c-.09,6.9-4.15,12.41-12.46,12.32l-130.96-2.3c-.24-.06-3.14-4.17-3.14-9.22l.06-147.61c0-5.09,2.95-9.21,6.59-9.21Z"/>
            <path class="cls-22" d="M296.77,64.34h129.84c3.54,0,6.39,4.02,6.33,8.91l-1.83,139.32c-.09,6.56-3.98,11.79-8.73,11.7l-125.75-2.18c-3.47-.06-6.25-3.96-6.25-8.76l.06-140.25c0-4.83,2.83-8.75,6.33-8.75Z"/>
          </g>
          <g>
            <path class="cls-7" d="M292.03,63.9h139.14c.86,0,1.56.7,1.56,1.56v19.75h-142.36v-19.65c0-.91.74-1.65,1.65-1.65Z"/>
            <path class="cls-23" d="M416.88,76.13l-73.85-.7c-1.74-.02-3.14-1.17-3.14-2.58v-2.46c0-1.09,1.09-1.97,2.43-1.97h75.09c1.32,0,2.37.91,2.27,1.98l-.35,3.91c-.09,1.04-1.17,1.84-2.45,1.82Z"/>
            <path class="cls-22" d="M426.2,97.94h-129.28c-.86,0-1.55-.69-1.55-1.55v-4.14c0-.86.7-1.55,1.57-1.55l129.28,1.14c.85,0,1.54.7,1.54,1.55v3c0,.85-.7,1.55-1.55,1.55Z"/>
            <path class="cls-17" d="M327.81,75.49c-2.09,0-3.78-1.7-3.78-3.78s1.7-3.78,3.78-3.78,3.78,1.7,3.78,3.78-1.7,3.78-3.78,3.78ZM327.81,68.35c-1.85,0-3.35,1.5-3.35,3.35s1.5,3.35,3.35,3.35,3.35-1.5,3.35-3.35-1.5-3.35-3.35-3.35Z"/>
            <path class="cls-17" d="M315.46,75.78c-2.09,0-3.78-1.7-3.78-3.78s1.7-3.78,3.78-3.78,3.78,1.7,3.78,3.78-1.7,3.78-3.78,3.78ZM315.46,68.64c-1.85,0-3.35,1.5-3.35,3.35s1.5,3.35,3.35,3.35,3.35-1.5,3.35-3.35-1.5-3.35-3.35-3.35Z"/>
            <path class="cls-17" d="M303.59,75.78c-2.09,0-3.78-1.7-3.78-3.78s1.7-3.78,3.78-3.78,3.78,1.7,3.78,3.78-1.7,3.78-3.78,3.78ZM303.59,68.64c-1.85,0-3.35,1.5-3.35,3.35s1.5,3.35,3.35,3.35,3.35-1.5,3.35-3.35-1.5-3.35-3.35-3.35Z"/>
            <path class="cls-22" d="M375.09,110.42l-24.18-.2c-.76,0-1.37-.63-1.36-1.38v-.67c.01-.74.6-1.34,1.34-1.36l24.19-.6c.78-.02,1.41.61,1.41,1.38v1.47c-.02.76-.64,1.37-1.4,1.36Z"/>
            <path class="cls-22" d="M380.3,154.36l-35.6-.3c-1.2,0-2.17-.99-2.16-2.2l.3-35.65c0-1.18.96-2.14,2.14-2.16l35.15.67c1.49.03,2.68,1.25,2.66,2.74l-.3,34.74c-.01,1.2-.99,2.17-2.2,2.16Z"/>
            <path class="cls-22" d="M330.11,110.42l-24.18-.2c-.76,0-1.37-.63-1.36-1.38v-.67c.01-.74.6-1.34,1.34-1.36l24.19-.6c.78-.02,1.41.61,1.41,1.38v1.47c-.02.76-.64,1.37-1.4,1.36Z"/>
            <path class="cls-22" d="M335.32,154.36l-35.6-.3c-1.2,0-2.17-.99-2.16-2.2l.3-35.65c0-1.18.96-2.14,2.14-2.16l35.15.67c1.49.03,2.68,1.25,2.66,2.74l-.3,34.74c-.01,1.2-.99,2.17-2.2,2.16Z"/>
            <path class="cls-22" d="M420.21,111.26l-24.18-.2c-.76,0-1.37-.63-1.36-1.38v-.67c.01-.74.6-1.34,1.34-1.36l24.19-.6c.78-.02,1.41.61,1.41,1.38v1.47c-.02.76-.64,1.37-1.4,1.36Z"/>
            <path class="cls-22" d="M425.42,155.2l-35.6-.3c-1.2,0-2.17-.99-2.16-2.2l.3-35.65c0-1.18.96-2.14,2.14-2.16l35.15.67c1.49.03,2.68,1.25,2.66,2.74l-.3,34.74c0,1.2-.99,2.17-2.2,2.16Z"/>
            <rect class="cls-22" x="299.1" y="160.64" width="128.2" height="6.29" rx=".57" ry=".57"/>
            <rect class="cls-22" x="299.38" y="170.57" width="128.2" height="6.29" rx=".57" ry=".57"/>
            <rect class="cls-22" x="298.43" y="181.75" width="128.2" height="6.29" rx=".57" ry=".57"/>
            <rect class="cls-22" x="298.71" y="191.69" width="128.2" height="6.29" rx=".57" ry=".57"/>
            <rect class="cls-22" x="298.43" y="202.17" width="128.2" height="6.29" rx=".57" ry=".57"/>
          </g>
        </g>
        <g>
          <path class="cls-21" d="M407.26,150.95c-.07.14-2.28,1.69-2.28,1.69,0,0-1.53,8.44,1.28,12.59s12.39-3.24,12.39-3.24c0,0,5.39-.84,8.09-11.43.62-2.43-3.26-.58-7.58-.14-5.58.58-11.89.53-11.89.53Z"/>
          <path class="cls-36" d="M397.7,177.4c1.83-1.26,3.86-2.21,6.01-2.8.81-.22,5.17,1.05,7.86.99,3.7-.09,7.47-1.77,10.52-1.01,3.03.76,5.51,1.74,6.94,2.76,4.29,3.05,6.8,8.73,8.34,14.36-2.9,2.98-6.56,4.31-6.56,4.31l-.68,27.37-16.18,8.28-18.47-9.27.66-26.74s-5.87-2.73-6.3-3.72c-.43-.99,2.67-10.95,7.85-14.51Z"/>
          <path class="cls-25" d="M390.13,191.79s-7.86,21.79,10.06,30.74c3.72-.49,2.29-6.67,2.29-6.67,0,0-7.79-1.72-5.45-19.9-2.15-1.77-6.9-4.17-6.9-4.17Z"/>
          <path class="cls-29" d="M437,191.79s5.41,22.75-10.06,30.74c-3.72-.49-2.29-6.67-2.29-6.67,0,0,6.28-3.09,5.45-19.9,2.15-1.77,6.9-4.17,6.9-4.17Z"/>
          <rect class="cls-26" x="395.28" y="200.1" width="35.48" height="23.96" rx=".32" ry=".32"/>
          <path class="cls-27" d="M415.11,206.59c.19,1.27-.49,2.43-1.76,2.61-1.27.19-2.45-.69-2.64-1.96-.19-1.27.39-2.53,1.67-2.72,1.27-.19,2.55.8,2.74,2.07Z"/>
          <g>
            <path class="cls-16" d="M446.33,231.17c-4.06-.93-13.45-.43-13.45-.43l-.38,1.03-.63,5.14s8.94,1.61,13.34,1.61c.45,0,.86-.07,1.24-.18.13-.12.27-.25.39-.38,1.87-2.04,1.33-5.04-.51-6.78Z"/>
            <path class="cls-33" d="M446.73,231.27c-.13-.04-.26-.07-.4-.1,1.84,1.74,2.38,4.74.51,6.78-.12.14-.26.26-.39.38,3.31-1.03,3.7-6.1.28-7.06Z"/>
            <path class="cls-10" d="M430.18,230.45l1.59.07c.85.04,1.66.45,2.23,1.15s.87,1.63.82,2.58c-.04.75-.35,1.46-.86,1.96-.51.5-1.18.75-1.86.71l-2.43-.17.51-6.29Z"/>
          </g>
          <g>
            <path class="cls-30" d="M376.74,230.68c4.08-.81,13.45-.02,13.45-.02l.36,1.05.5,5.16s-8.98,1.34-13.38,1.2c-.45-.01-.86-.09-1.23-.22-.13-.12-.26-.25-.38-.39-1.82-2.1-1.2-5.08.68-6.76Z"/>
            <path class="cls-1" d="M376.34,230.77c.13-.03.26-.06.4-.09-1.88,1.69-2.5,4.67-.68,6.76.12.14.25.27.38.39-3.28-1.13-3.54-6.21-.11-7.07Z"/>
            <path class="cls-13" d="M392.9,230.45l-1.59.02c-.85.01-1.67.4-2.26,1.09-.59.68-.91,1.6-.88,2.55.02.76.31,1.47.81,1.99.5.52,1.16.79,1.84.76l2.44-.1-.35-6.31Z"/>
          </g>
          <path class="cls-37" d="M447.46,215.06c-1.84-4.24-6.35-4.93-10.18-2.94-.07.09-24.35,12.53-45.76,17.98.61,1.97.93,4.06,1,6.11.01.46,0,.91-.02,1.36,16.42-.84,34.24-6.32,49.55-11.13,4.75-1.53,7.45-6.68,5.41-11.37Z"/>
          <path class="cls-28" d="M430.3,236.54c-.06-2.37.4-4.57,1.38-6.62.03-.09.06-.18.09-.28-1.22-.38-2.8-.89-4.88-1.6-15.2-5.2-26.8-10.46-37.87-16.51-4.3-2.35-9.19-.77-10.57,4.31-1.23,4.54,1.56,8.17,5.57,9.78,13.77,5.53,34,10.58,46.3,11.41,0-.17-.02-.34-.03-.52Z"/>
          <path class="cls-20" d="M403.72,174.61s1.64,7.09,9.57,6.94c8.09-.15,8.81-6.96,8.81-6.96l-5.28-1.13-.44-5.89-7.95.59-.15,5.59-4.57.86Z"/>
          <path class="cls-9" d="M409.19,150.22s-8.46,16.39,1.58,20.36c7.08,2.8,11.52-10.88,10.19-14.59-2.05-5.73-3.39-5.05-3.39-5.05l-8.37-.72Z"/>
          <path class="cls-17" d="M420.96,155.99c-.02-.07-.04-.13-.06-.18.03.3.05.62.05.94.01-.23.02-.46.03-.69,0-.02-.01-.05-.02-.07Z"/>
          <path class="cls-17" d="M420.9,155.81c-.01-.11-.03-.22-.04-.33.44.72-.4-.96.04.33Z"/>
          <path class="cls-34" d="M424.88,145.82c4.53-1.03,1.39,12.99-5.36,10.69-6.75-2.3-9.89-3.71-10.94-1.86-1.05,1.85-2.8,9.43-3.39,5.5-.54-3.67-1.07-10.41,2.47-11.87,2.01-.83,3.78.97,5.17.52,2.14-.7,4.19-.72,5.46.01,2.4,1.38,3.7-2.34,6.58-3Z"/>
          <path class="cls-15" d="M407.82,157.38s-1.46-2.21-2.13.05c-.67,2.26-.24,5.39,1.1,3.93,1.34-1.45,1.03-3.99,1.03-3.99Z"/>
        </g>
        <g>
          <path class="cls-19" d="M408.28,139.48h-63.42c-2.8,0-5.07-2.27-5.07-5.07v-27.61c0-2.86,2.37-5.16,5.23-5.07l63.42,2.03c2.74.09,4.91,2.33,4.91,5.07v25.58c0,2.8-2.27,5.07-5.07,5.07Z"/>
          <polygon class="cls-39" points="386.49 139.27 394.92 149.45 398.18 139.27 386.49 139.27"/>
          <g>
            <path class="cls-17" d="M368.79,128.98l-14.18-7.35v-2.33l14.18-7.39v3.8l-9.69,4.72,9.69,4.75v3.79Z"/>
            <path class="cls-17" d="M382.67,109.78l-7.27,22.48-3.78-.03,7.38-22.64,3.67.2Z"/>
            <path class="cls-17" d="M385.29,125.57l8.75-4.04-8.75-5.13v-3.68l12.6,8.02v2.14l-12.6,6.36v-3.67Z"/>
          </g>
        </g>
        <g>
          <g>
            <g>
              <path class="cls-2" d="M315.65,175.56c-1.1-2.3-1.89-4.71-2.08-7.33-.46-6.61,3.38-12.69,6.2-18.38,2.59-5.23,4.52-13.02-4.23-12.32-6.97.55-15.16,7.5-16.1,14.74-1.11,8.57,3.07,19.38-1.88,27.17-6.92,10.89-11.91,8.4-11.91,26.78,0,7.85,4.35,12.19,9.33,14.57,7.87,3.77,17.24,2.24,23.51-3.82,5.54-5.36,8.83-13.06,7.71-20.79-1.12-7.81-7.25-13.73-10.56-20.62Z"/>
              <path class="cls-31" d="M309.8,234.74c-.15,0-.28-.1-.31-.25-4.34-17.31-6.7-33.01-7.02-46.65-.26-10.93.79-20.57,3.11-28.66,3.97-13.83,10.2-18.29,10.46-18.47.15-.1.35-.07.45.08.1.15.07.35-.08.45-.06.04-6.34,4.55-10.23,18.2-3.6,12.63-5.84,35.86,3.94,74.88.04.17-.06.35-.24.39-.03,0-.05,0-.08,0Z"/>
            </g>
            <path class="cls-3" d="M322.6,156.18c-.34-.09-.71-.12-1.1-.07-2.18.25-3.08,2.55-3.72,4.35-.55,1.54-1.19,3.41-.87,5.08.35,1.8,2.27,3.27,3.65,1.44,1.58-2.08,3.95-5.28,3.96-8.03,0-1.37-.76-2.44-1.93-2.76Z"/>
          </g>
          <g>
            <path class="cls-18" d="M346.67,204.96c.99-6.5-1.38-13.97-2.56-20.84-.62-3.64-.91-7.24-.33-10.91.58-3.64,2.29-7.58.71-11.21-3.18-7.31-10.74-3.98-15.07,1.52-5.02,6.39-6.4,16.82-8.3,24.85-1.15,4.84-2.88,9.81-3.49,14.75-1.01,8.18.84,13.85,4.76,17.69,3.75,3.68,9.47,4.44,14.06,1.88,4.15-2.31,8.63-7.25,10.22-17.74Z"/>
            <path class="cls-6" d="M329.38,235.2c-.16,0-.29-.11-.32-.27-.02-.1-1.66-10.02-1.7-23.71-.04-12.64,1.32-31.17,8-47.7.07-.17.26-.25.42-.18.17.07.25.26.18.42-6.64,16.42-7.99,34.86-7.95,47.44.04,13.64,1.68,23.52,1.69,23.62.03.18-.09.34-.27.37-.02,0-.04,0-.05,0Z"/>
          </g>
        </g>
      </g>
      <text class="cls-41" transform="translate(382.59 26.87)"><tspan x="0" y="0">NU</tspan><tspan class="cls-51" x="14.88" y="0">R</tspan><tspan class="cls-49" x="21.41" y="0">TURE IN</tspan><tspan class="cls-57" x="60.54" y="0">F</tspan><tspan class="cls-56" x="65.96" y="0">O</tspan><tspan class="cls-49" x="74.38" y="0">TECH</tspan></text>
      <text class="cls-42" transform="translate(363.43 39.18)"><tspan x="0" y="0">(An ISO 9001:2015 Certified Company)</tspan></text>
    </g>
  </g>
</svg>